<svg width="20" height="20" viewBox="0 0 20 20" fill="none" xmlns="http://www.w3.org/2000/svg">
<path d="M14.8 15.2H5.2C4.52 15.2 4 14.68 4 14V5.2C4 4.52 4.44 4 5 4H5.6V4.8H5C4.92 4.8 4.8 4.96 4.8 5.2V14C4.8 14.24 4.96 14.4 5.2 14.4H14.8C15.04 14.4 15.2 14.24 15.2 14V5.2C15.2 4.96 15.08 4.8 15 4.8H14.4V4H15C15.56 4 16 4.52 16 5.2V14C16 14.68 15.48 15.2 14.8 15.2Z" fill="white"/>
<path d="M6.79688 5.6C6.55688 5.6 6.39688 5.44 6.39688 5.2V3.6C6.39688 3.36 6.55688 3.2 6.79688 3.2C7.03688 3.2 7.19688 3.36 7.19688 3.6V5.2C7.19688 5.44 7.03688 5.6 6.79688 5.6ZM13.1969 5.6C12.9569 5.6 12.7969 5.44 12.7969 5.2V3.6C12.7969 3.36 12.9569 3.2 13.1969 3.2C13.4369 3.2 13.5969 3.36 13.5969 3.6V5.2C13.5969 5.44 13.4369 5.6 13.1969 5.6ZM7.99688 4H11.9969V4.8H7.99688V4ZM4.79688 6.4H15.1969V7.2H4.79688V6.4ZM13.5969 8H14.3969V8.8H13.5969V8ZM11.9969 8H12.7969V8.8H11.9969V8ZM10.3969 8H11.1969V8.8H10.3969V8ZM8.79688 8H9.59688V8.8H8.79688V8ZM7.19688 8H7.99688V8.8H7.19688V8ZM13.5969 9.6H14.3969V10.4H13.5969V9.6ZM11.9969 9.6H12.7969V10.4H11.9969V9.6ZM10.3969 9.6H11.1969V10.4H10.3969V9.6ZM8.79688 9.6H9.59688V10.4H8.79688V9.6ZM7.19688 9.6H7.99688V10.4H7.19688V9.6ZM5.59688 9.6H6.39688V10.4H5.59688V9.6ZM13.5969 11.2H14.3969V12H13.5969V11.2ZM11.9969 11.2H12.7969V12H11.9969V11.2ZM10.3969 11.2H11.1969V12H10.3969V11.2ZM8.79688 11.2H9.59688V12H8.79688V11.2ZM7.19688 11.2H7.99688V12H7.19688V11.2ZM5.59688 11.2H6.39688V12H5.59688V11.2ZM11.9969 12.8H12.7969V13.6H11.9969V12.8ZM10.3969 12.8H11.1969V13.6H10.3969V12.8ZM8.79688 12.8H9.59688V13.6H8.79688V12.8ZM7.19688 12.8H7.99688V13.6H7.19688V12.8ZM5.59688 12.8H6.39688V13.6H5.59688V12.8Z" fill="white"/>
</svg>
