<svg width="80" height="80" viewBox="0 0 80 80" fill="none" xmlns="http://www.w3.org/2000/svg" xmlns:xlink="http://www.w3.org/1999/xlink">
<g filter="url(#filter144_3285)">
<path d="M6.817,62.916C10.197,67.617 14.532,71.551 19.539,74.459C24.545,77.367 30.11,79.184 35.868,79.791C32.906,75.333 28.6,71.232 23.224,68.109C17.848,64.987 12.155,63.281 6.817,62.916Z" fill="url(#pf_0_144_3286)"/>
<path d="M30.448,55.676C20.09,49.659 8.88,48.126 0.859,50.835C1.633,53.394 2.655,55.872 3.908,58.234C10.877,58.072 18.486,59.965 25.567,64.077C32.647,68.189 38.062,73.865 41.376,80C44.05,79.918 46.71,79.577 49.318,78.983C47.697,70.675 40.802,61.695 30.448,55.676Z" fill="url(#pf_0_144_3287)"/>
<path d="M79.803,31.252C78.486,25.896 76.103,20.86 72.797,16.445C69.491,12.03 65.329,8.327 60.56,5.556C55.79,2.785 50.512,1.004 45.039,0.318C39.566,-0.367 34.011,0.057 28.706,1.566C37.569,2.651 47.407,5.978 57.055,11.583C66.703,17.188 74.473,24.085 79.803,31.252Z" fill="url(#pf_0_144_3288)"/>
<path d="M66.908,50.896C62.371,43.362 54.599,36.147 45.026,30.586C35.452,25.024 25.338,21.847 16.553,21.637C8.825,21.454 3.025,23.701 0.644,27.8C0.63,27.824 0.611,27.847 0.596,27.871C0.382,28.64 0.198,29.41 0.03,30.183C3.354,28.871 7.206,28.14 11.489,28.058C21.014,27.88 31.673,30.926 41.51,36.641C51.347,42.356 59.28,50.11 63.841,58.47C65.885,62.237 67.161,65.945 67.667,69.488C68.255,68.962 68.833,68.418 69.393,67.853C69.408,67.827 69.417,67.8 69.432,67.773C71.813,63.67 70.892,57.52 66.908,50.896Z" fill="url(#pf_0_144_3289)"/>
<path d="M37.742,43.121C23.082,34.604 6.881,33.27 -0.91,39.214C-0.895,41.074 -0.752,42.931 -0.484,44.773C1.807,44.078 4.169,43.64 6.558,43.468C15.264,42.813 24.862,45.239 33.572,50.302C42.281,55.364 49.148,62.504 52.892,70.386C53.928,72.545 54.717,74.813 55.246,77.149C56.979,76.469 58.664,75.673 60.289,74.766C61.593,65.053 52.407,51.64 37.742,43.121Z" fill="url(#pf_0_144_3290)"/>
<path d="M74.448,38.285C69.86,30.759 62.021,23.524 52.379,17.926C42.738,12.328 32.584,9.101 23.771,8.842C17.053,8.648 11.849,10.276 9.151,13.353C20.355,11.454 35.132,14.645 49.455,22.965C63.778,31.286 73.874,42.545 77.77,53.217C79.106,49.351 77.944,44.024 74.448,38.285Z" fill="url(#pf_0_144_3291)"/>
</g>
<defs>
<filter id="filter144_3285" x="-23.654835" y="-22.744801" width="85.846096" height="85.489601" filterUnits="userSpaceOnUse" color-interpolation-filters="sRGB">
<feFlood flood-opacity="0" result="BackgroundImageFix"/>
<feColorMatrix in="SourceAlpha" type="matrix" values="0 0 0 0 0 0 0 0 0 0 0 0 0 0 0 0 0 0 127 0" result="hardAlpha"/>
<feMorphology radius="0" operator="dilate" in="SourceAlpha" result="0dropshadow"/>
<feOffset dx="0" dy="2.27449"/>
<feGaussianBlur stdDeviation="11.3724"/>
<feComposite in2="hardAlpha" operator="out"/>
<feColorMatrix type="matrix" values="0 0 0 0 0 0 0 0 0 0 0 0 0 0 0 0 0 0 0.1 0"/>
<feBlend mode="normal" in2="BackgroundImageFix" result="0dropshadow"/>
<feBlend mode="normal" in="SourceGraphic" in2="0dropshadow" result="shape"/>
</filter>
<linearGradient id="pf_0_144_3286" x1="52.84" y1="16.25" x2="15.757" y2="80" gradientUnits="userSpaceOnUse">
<stop offset="0" stop-color="#C7F284"/>
<stop offset="1" stop-color="#00BEF0"/>
</linearGradient>
<linearGradient id="pf_0_144_3287" x1="52.84" y1="16.25" x2="15.757" y2="80" gradientUnits="userSpaceOnUse">
<stop offset="0" stop-color="#C7F284"/>
<stop offset="1" stop-color="#00BEF0"/>
</linearGradient>
<linearGradient id="pf_0_144_3288" x1="52.84" y1="16.25" x2="15.757" y2="80" gradientUnits="userSpaceOnUse">
<stop offset="0" stop-color="#C7F284"/>
<stop offset="1" stop-color="#00BEF0"/>
</linearGradient>
<linearGradient id="pf_0_144_3289" x1="52.84" y1="16.25" x2="15.757" y2="80" gradientUnits="userSpaceOnUse">
<stop offset="0" stop-color="#C7F284"/>
<stop offset="1" stop-color="#00BEF0"/>
</linearGradient>
<linearGradient id="pf_0_144_3290" x1="52.84" y1="16.25" x2="15.757" y2="80" gradientUnits="userSpaceOnUse">
<stop offset="0" stop-color="#C7F284"/>
<stop offset="1" stop-color="#00BEF0"/>
</linearGradient>
<linearGradient id="pf_0_144_3291" x1="52.84" y1="16.25" x2="15.757" y2="80" gradientUnits="userSpaceOnUse">
<stop offset="0" stop-color="#C7F284"/>
<stop offset="1" stop-color="#00BEF0"/>
</linearGradient>
</defs>
</svg>
