<svg width="32" height="32" viewBox="0 0 32 32" fill="none" xmlns="http://www.w3.org/2000/svg" xmlns:xlink="http://www.w3.org/1999/xlink">
<path d="M-1,7.385C-1,3.306 2.306,0 6.385,0L23.615,0C27.694,0 31,3.306 31,7.385L31,24.615C31,28.694 27.694,32 23.615,32L6.385,32C2.306,32 -1,28.694 -1,24.615L-1,7.385Z" fill="#0052FF"/>
<path d="M14.97,22C13.837,21.977 12.734,21.636 11.787,21.015C10.841,20.394 10.089,19.519 9.619,18.491C9.149,17.463 8.979,16.323 9.13,15.203C9.281,14.083 9.745,13.028 10.471,12.16C11.196,11.292 12.152,10.646 13.23,10.296C14.307,9.946 15.461,9.907 16.56,10.183C17.659,10.459 18.657,11.038 19.44,11.855C20.222,12.672 20.758,13.693 20.985,14.8L27,14.8C26.691,11.737 25.214,8.909 22.874,6.902C20.534,4.894 17.51,3.861 14.428,4.015C11.345,4.169 8.44,5.499 6.313,7.73C4.186,9.961 3,12.921 3,16C3,19.079 4.186,22.039 6.313,24.27C8.44,26.501 11.345,27.831 14.428,27.985C17.51,28.139 20.534,27.106 22.874,25.098C25.214,23.091 26.691,20.263 27,17.2L20.985,17.2C20.985,19.6 17.376,22 14.97,22Z" fill="#FFFFFF"/>
</svg>
