<svg width="174" height="48" viewBox="0 0 174 48" fill="none" xmlns="http://www.w3.org/2000/svg" xmlns:xlink="http://www.w3.org/1999/xlink">
<path d="M67.969,7.806C69.392,7.802 69.392,7.802 70.839,7.797C73.191,7.953 73.191,7.953 74.367,9.126C78.143,9.164 81.895,9.046 85.671,8.938C89.776,9.132 92.905,10.004 96.716,11.479L96.716,13.831C97.881,14.219 99.045,14.608 100.245,15.007C99.857,16.56 99.469,18.113 99.069,19.712C100.233,20.101 101.398,20.489 102.597,20.889L99.069,20.889L101.421,22.065L101.421,24.417L114.36,24.417L114.36,25.594C111.56,25.626 108.773,25.649 105.985,25.667C104.811,25.682 104.811,25.682 103.609,25.697C98.81,25.721 94.364,25.265 89.612,24.415C88.2,24.439 86.8,24.464 85.354,24.488C81.378,24.415 81.378,24.415 79.178,23.242C76.026,21.76 73.744,21.877 70.274,21.995C66.992,22.1 64.122,22.15 60.899,21.471C57.018,20.735 53.489,20.889 49.537,21.113C47.408,21.21 47.408,21.21 45.232,21.31C40.785,22.185 39.609,23.451 36.669,26.768C33.94,27.597 31.187,28.379 28.435,29.12C26.835,30.247 25.247,31.414 23.73,32.649L21.377,32.649C21.083,33.351 20.789,34.049 20.486,34.778C18.816,37.719 17.204,39.013 14.463,40.954C13.264,41.811 13.264,41.811 12.052,42.683C11.249,43.251 10.441,43.82 9.617,44.4C8.448,45.38 8.448,45.38 7.253,46.376C4.912,47.929 4.912,47.929 0.207,47.929C1.666,38.825 11.417,31.814 18.086,26.168C20.18,24.451 20.18,24.451 21.885,22.487C25.073,19.616 28.967,19.393 33.095,18.511L33.095,16.158C36.577,14.417 39.847,14.911 43.681,14.982C44.07,13.429 44.458,11.877 44.858,10.277C48.528,9.358 51.892,9.042 55.667,9.101C60.102,9.101 63.407,7.76 67.9,7.783L67.969,7.806Z" fill="#FFFFFF"/>
<path d="M169.126,1.925C169.902,2.701 170.679,3.478 171.479,4.278C170.702,5.442 169.926,6.607 169.126,7.806C169.902,8.194 170.679,8.583 171.479,8.983L169.126,8.983L169.126,11.335L171.479,11.335C172.643,14.24 172.643,14.24 173.831,17.216C171.89,17.537 171.89,17.537 169.914,17.864C161.081,19.358 152.388,20.899 143.801,23.51C132.251,26.51 109.808,28.721 98.516,23.096C98.564,21.791 98.613,20.473 98.663,19.121C98.999,14.804 98.999,14.804 96.169,12.51C99.663,10.769 102.768,11.263 106.65,11.343C108.32,11.364 109.978,11.384 111.649,11.403C114.26,11.439 116.883,11.481 119.494,11.536C132.903,11.882 132.903,11.882 145.607,7.807C150.147,5.819 154.688,3.902 159.369,2.22C160.223,1.911 161.075,1.601 161.957,1.283C164.827,0.666 166.415,0.89 169.144,1.926L169.126,1.925Z" fill="#FFFFFF"/>
<path d="M36.21,19.569C35.046,19.957 33.881,20.345 32.681,20.745C34.622,21.521 36.563,22.298 38.562,23.097C35.504,27.685 33.175,27.544 27.976,28.979C26.377,30.105 24.789,31.272 23.271,32.507L20.919,32.507C20.625,33.21 20.331,33.907 20.027,34.636C18.357,37.577 16.745,38.871 14.005,40.812C12.805,41.669 12.805,41.669 11.593,42.541C10.79,43.109 9.982,43.678 9.159,44.258C8.379,44.912 7.594,45.564 6.794,46.234C4.454,47.787 4.454,47.787 -0.251,47.787C1.207,38.683 10.958,31.672 17.628,26.026C19.721,24.297 19.721,24.297 21.521,22.356C25.791,18.287 30.743,17.957 36.106,19.557L36.21,19.569Z" fill="#FFFFFF"/>
<path d="M96.199,11.335L96.199,13.687C97.363,14.076 98.528,14.464 99.727,14.864C99.339,16.416 98.951,17.969 98.551,19.569C99.716,19.957 100.88,20.345 102.08,20.745L98.551,20.745C99.327,21.133 100.104,21.521 100.904,21.921L100.904,24.274L113.842,24.274L113.842,25.45C111.043,25.482 108.255,25.505 105.467,25.523C104.685,25.533 103.903,25.543 103.091,25.553C98.292,25.577 93.846,25.125 89.094,24.271L84.683,24.271C80.86,24.271 80.86,24.271 78.508,23.095L78.508,19.566C79.672,19.178 80.837,18.79 82.037,18.39C81.26,17.614 80.484,16.837 79.684,16.037C80.072,15.261 80.46,14.485 80.86,13.685C80.084,12.909 79.308,12.132 78.508,11.332C84.695,8.145 89.729,9.192 96.152,11.332L96.199,11.335Z" fill="#FFFFFF"/>
<path d="M105.609,11.335C106.926,11.339 108.243,11.343 109.608,11.346C110.996,11.356 112.372,11.366 113.795,11.376C115.183,11.382 116.583,11.387 118.018,11.392C121.464,11.406 124.911,11.426 128.357,11.45L128.357,13.802C124.452,15.108 121.065,15.355 116.959,15.637C115.572,15.736 114.184,15.835 112.76,15.936C111.697,16.007 110.631,16.078 109.537,16.153C110.314,16.541 111.09,16.929 111.89,17.329L111.89,19.681L120.124,19.681L120.124,20.858L111.89,20.858L111.89,23.21C114.995,22.822 118.1,22.434 121.3,22.034C121.688,23.198 122.076,24.363 122.476,25.563C118.994,25.398 115.513,25.225 112.031,25.047C111.041,25.001 110.055,24.955 109.032,24.907C108.084,24.858 107.138,24.809 106.162,24.758C104.844,24.693 104.844,24.693 103.515,24.627C101.304,24.386 101.304,24.386 98.951,23.204C99,21.899 99.048,20.581 99.098,19.228C99.435,14.912 99.435,14.912 96.604,12.618C99.733,11.053 102.121,11.312 105.615,11.324L105.609,11.335Z" fill="#E6E6E6"/>
<path d="M135.015,12.511C136.184,12.522 137.356,12.532 138.556,12.543C139.896,12.564 139.896,12.564 141.261,12.585C140.085,14.937 140.085,14.937 137.662,16.702C136.91,17.284 136.156,17.866 135.38,18.466L135.38,20.818C132.274,21.207 129.169,21.595 125.97,21.995C127.522,23.159 129.075,24.324 130.675,25.523C126.699,25.671 126.699,25.671 122.441,25.523C121.665,24.747 120.888,23.971 120.088,23.171C115.877,22.975 115.877,22.975 111.855,23.171L111.855,17.29L105.973,17.29C106.362,16.513 106.75,15.737 107.15,14.937C110.079,14.598 112.89,14.388 115.83,14.276C122.394,13.987 128.534,12.429 135.003,12.512L135.015,12.511Z" fill="#FFFFFF"/>
<path d="M80.907,12.511C81.077,13.239 81.247,13.97 81.423,14.723C82.004,17.263 82.004,17.263 83.258,19.569L78.553,19.569L78.553,21.921C73.306,20.757 73.306,20.757 67.966,19.569C67.578,17.628 67.19,15.687 66.79,13.687C71.472,12.123 76.024,12.429 80.905,12.511L80.907,12.511Z" fill="#E6E6E6"/>
<path d="M44.444,16.04C44.056,16.816 43.667,17.593 43.267,18.393C47.925,18.781 52.583,19.169 57.382,19.569L57.382,20.745C56.234,20.816 55.089,20.887 53.901,20.962C51.654,21.11 51.654,21.11 49.36,21.26C47.878,21.356 46.385,21.451 44.855,21.55C40.915,21.771 40.915,21.771 37.374,23.102L32.669,23.102L32.669,16.045C36.528,14.116 40.233,15.434 44.432,16.045L44.444,16.04Z" fill="#FFFFFF"/>
<path d="M72.674,21.921C76.203,23.097 76.203,23.097 76.203,23.097L72.674,21.921Z" fill="#FFFFFF"/>
<path d="M57.383,20.745C60.911,21.921 60.911,21.921 60.911,21.921L57.383,20.745Z" fill="#FFFFFF"/>
</svg>
