<svg width="88" height="54" viewBox="0 0 88 54" fill="none" xmlns="http://www.w3.org/2000/svg" xmlns:xlink="http://www.w3.org/1999/xlink">
<path d="M34.414,-0.35C41.895,0.177 46.294,2.308 52.058,7.002C54.61,9.048 56.951,10.354 59.927,11.707C64.079,13.824 65.255,14.753 67.643,18.541C73.136,25.657 79.758,31.48 86.463,37.361C84.499,41.395 82.605,44.748 79.405,47.947C75.583,48.314 75.583,48.314 72.348,47.947C71.96,49.112 71.572,50.276 71.172,51.476C67.055,52.852 63.726,52.805 59.409,52.652L57.057,51.476C54.939,51.498 52.81,51.521 50.693,51.552C38.931,51.541 31.755,47.976 22.228,41.189C16.452,37.119 11.089,37.107 4.114,37.366L1.761,38.542C0.585,35.014 0.585,35.014 2.276,31.038C4.382,27.533 6.452,25.839 9.992,23.839C15.933,20.452 18.179,15.688 20.673,9.489C23.99,2.42 26.389,0.02 34.435,-0.38L34.414,-0.35Z" fill="#FFFFFF"/>
<path d="M73.23,26.704C79.417,29.221 83.405,33.679 86.169,39.643C84.016,42.63 81.852,45.418 79.111,47.876C75.136,48.391 75.136,48.391 72.054,47.876C71.666,49.041 71.277,50.205 70.877,51.405C66.796,52.769 63.397,52.664 59.115,52.581C62.926,48.77 68.078,47.888 73.23,46.7C72.89,46.07 72.551,45.442 72.201,44.795C70.683,41.583 69.601,38.325 68.531,34.938L72.06,34.938L68.531,31.409C70.084,29.856 71.636,28.304 73.236,26.704L73.23,26.704Z" fill="#FFFFFF"/>
<path d="M26.18,0.826L42.647,0.826C43.036,1.603 43.424,2.379 43.824,3.179C41.836,3.84 39.848,4.484 37.837,5.073C32.308,6.755 27.944,8.343 23.839,12.589C23.451,13.632 23.063,14.671 22.663,15.753C22.275,16.65 21.887,17.553 21.487,18.47C18.405,19.425 18.405,19.425 15.605,19.646C17.146,15.435 19.017,11.942 21.557,8.248C24.051,4.637 24.051,4.637 26.192,0.826L26.18,0.826Z" fill="#FFFFFF"/>
<path d="M12.065,21.999L14.418,23.175L14.418,36.114C13.159,36.283 11.9,36.454 10.595,36.629C7.454,37.099 4.525,37.615 1.479,38.464C0.303,34.935 0.303,34.935 2.14,30.889C4.763,26.537 7.692,24.478 12.067,21.996L12.065,21.999Z" fill="#FFFFFF"/>
</svg>
