<svg width="70" height="106" viewBox="0 0 70 106" fill="none" xmlns="http://www.w3.org/2000/svg" xmlns:xlink="http://www.w3.org/1999/xlink">
<path d="M8.888,-0.574C10.052,-0.186 11.217,0.203 12.416,0.603C12.484,4.472 12.526,8.342 12.563,12.224C12.583,13.326 12.603,14.423 12.623,15.564C12.631,16.618 12.638,17.67 12.646,18.752C12.658,19.725 12.671,20.693 12.683,21.704C12.416,24.127 12.416,24.127 10.06,26.48C9.697,28.703 9.697,28.703 9.747,31.22C9.744,32.152 9.741,33.079 9.738,34.043C9.747,35.017 9.757,35.996 9.766,36.996C9.757,37.965 9.748,38.936 9.738,39.936C9.741,40.869 9.744,41.806 9.747,42.759C9.75,43.613 9.753,44.465 9.756,45.347C9.938,48.029 9.938,48.029 12.414,51.181C12.901,53.169 13.312,55.192 13.661,57.204C14.077,61.015 14.077,61.015 15.943,64.12C15.991,66.472 15.993,68.825 15.943,71.177C17.107,71.566 18.272,71.954 19.471,72.354C21.142,75.777 22.177,79.235 23,82.94C24.823,83.376 24.823,83.376 26.67,83.822C29.928,84.605 31.422,85.457 34.057,87.68C39.844,91.679 47.231,90.797 54.053,90.88C55.476,90.914 56.911,90.949 58.382,90.985C61.887,91.068 65.404,91.13 68.909,91.173C66.58,91.756 66.58,91.756 64.204,92.35L64.204,94.702C52.559,95.284 52.559,95.284 40.679,95.878C39.115,99.407 39.115,99.407 40.679,102.936C39.503,104.112 39.503,104.112 36.492,104.183C35.546,104.159 34.598,104.134 33.622,104.109C33.258,102.993 32.894,101.874 32.518,100.722C31.417,97.205 31.417,97.205 30.095,94.699C27.366,94.221 24.614,93.824 21.862,93.523C21.473,94.299 21.085,95.076 20.685,95.875C19.909,94.323 19.133,92.77 18.333,91.17L15.98,91.17L15.98,88.818C14.039,88.43 12.099,88.042 10.099,87.642L10.099,78.232L6.57,78.232C5.988,75.315 5.988,75.315 5.394,72.35C4.229,72.933 4.229,72.933 3.041,73.527L3.041,61.764C2.265,61.376 1.489,60.988 0.689,60.588L0.689,48.826C1.853,48.243 1.853,48.243 3.041,47.649C3.135,43.803 2.993,40.286 2.38,36.475C1.865,32.358 1.865,32.358 2.527,28.465C2.697,27.421 2.867,26.383 3.043,25.3C2.266,24.524 1.49,23.748 0.69,22.948C1.131,20.454 1.131,20.454 1.866,18.243L3.043,18.243C3.431,14.75 3.819,11.256 4.219,7.657L6.571,7.657L6.571,0.599C7.348,0.211 8.124,-0.177 8.924,-0.577L8.888,-0.574Z" fill="#FFFFFF"/>
<path d="M39.47,91.174L68.876,91.174C67.324,91.562 65.771,91.95 64.171,92.35L64.171,94.702L40.646,94.702C40.258,93.538 39.87,92.373 39.47,91.174Z" fill="#FFFFFF"/>
</svg>
