<svg width="106" height="30" viewBox="0 0 106 30" fill="none" xmlns="http://www.w3.org/2000/svg" xmlns:xlink="http://www.w3.org/1999/xlink">
<path d="M56.146,-0.09C57.316,-0.102 58.487,-0.114 59.698,-0.126C66.191,-0.049 70.532,0.564 76.166,3.956C78.036,4.518 79.93,5.037 81.824,5.497C88.128,7.296 93.551,10.237 98.526,14.542L98.526,16.895C99.472,17.21 100.42,17.525 101.396,17.85C102.392,18.311 103.384,18.772 104.408,19.249C104.99,21.002 104.99,21.002 105.584,22.778C101.208,22.778 99.879,22.571 96.174,20.79C95.231,20.367 94.292,19.945 93.316,19.508C91.316,18.557 89.34,17.532 87.411,16.45C75.295,10.251 62.357,11.486 49.065,12.192C48.166,12.233 47.265,12.274 46.336,12.315C36.173,12.868 28.81,15.209 20.341,20.831C17.295,22.784 17.295,22.784 14.025,24.054C13.165,24.41 12.307,24.764 11.425,25.129C10.382,27.529 10.382,27.529 10.249,29.834L3.191,29.834C2.415,28.282 1.639,26.729 0.839,25.129C6.026,18.484 11.296,14.202 18.483,9.838C19.741,9.014 21,8.192 22.305,7.345C33.35,1.416 43.713,-0.007 56.064,-0.078L56.146,-0.09Z" fill="#E6E6E6"/>
<path d="M20.859,9.32L20.859,11.673C22.023,12.061 23.188,12.449 24.388,12.849C25.564,14.025 25.564,14.025 26.74,16.378C24.635,17.53 22.529,18.683 20.412,19.836C19.238,20.477 18.059,21.118 16.86,21.777C15.072,22.747 13.272,23.706 11.449,24.611C10.682,26.987 10.682,26.987 10.273,29.316L3.215,29.316C2.439,27.764 1.662,26.211 0.863,24.611C12.743,9.32 12.743,9.32 20.859,9.32Z" fill="#FFFFFF"/>
<path d="M39.679,1.086L39.679,3.439C42.784,4.215 45.889,4.991 49.089,5.791L44.384,8.144C45.16,8.92 45.936,9.696 46.736,10.496C45.687,10.723 44.643,10.951 43.56,11.186C42.184,11.491 40.808,11.798 39.385,12.114C38.02,12.414 36.656,12.713 35.244,13.023C32.057,13.863 29.634,14.905 26.74,16.375C24.094,15.934 24.094,15.934 22.035,15.199C21.647,13.258 21.259,11.317 20.859,9.318C26.246,4.436 32.304,1.084 39.679,1.084L39.679,1.086Z" fill="#FFFFFF"/>
<path d="M87.905,8.144C91.951,9.602 95.257,11.155 98.491,14.025L98.491,16.378C99.437,16.693 100.385,17.008 101.361,17.333C102.356,17.794 103.349,18.255 104.373,18.732C104.761,19.897 105.149,21.061 105.549,22.261C101.055,22.261 99.491,21.894 95.621,20.05C94.703,19.622 93.786,19.195 92.834,18.756C91.982,18.358 91.128,17.962 90.246,17.556C88.293,16.759 86.329,15.968 84.365,15.204L84.365,11.675C85.529,11.287 86.693,10.899 87.893,10.499L87.893,8.146L87.905,8.144Z" fill="#FFFFFF"/>
<path d="M72.614,2.262C74.719,2.824 76.825,3.387 78.942,3.956C80.116,4.27 81.294,4.584 82.494,4.908C85.552,5.795 85.552,5.795 87.905,6.966L87.905,10.495L85.552,11.671C86.329,12.448 87.105,13.224 87.905,14.024C84.905,15.118 83.506,15.306 80.424,14.286C79.496,13.836 78.566,13.385 77.613,12.922C76.673,12.475 75.731,12.027 74.766,11.569C74.057,11.216 73.343,10.862 72.614,10.499L72.614,8.146L66.732,8.146L66.732,6.97C68.673,6.582 70.614,6.193 72.614,5.794L72.614,2.265L72.614,2.262Z" fill="#FFFFFF"/>
<path d="M45.56,4.615C47.454,5.307 47.454,5.307 49.383,6.015C47.054,7.179 47.054,7.179 44.678,8.367C45.454,9.144 46.23,9.92 47.03,10.72L35.268,10.72C36.444,7.191 36.444,7.191 38.35,5.062C41.149,3.662 41.149,3.662 45.548,4.621L45.56,4.615Z" fill="#FFFFFF"/>
</svg>
