<svg width="124" height="156" viewBox="0 0 124 156" fill="none" xmlns="http://www.w3.org/2000/svg" xmlns:xlink="http://www.w3.org/1999/xlink">
<path d="M64.17,0.966L64.17,3.319C65.3,3.278 65.3,3.278 66.452,3.236C72.886,3.102 78.085,3.556 84.213,5.671L84.213,8.023L91.271,8.023C91.853,11.517 91.853,11.517 92.447,15.081C93.321,15.25 94.2,15.421 95.094,15.596C98.328,16.257 98.328,16.257 100.904,16.996C103.139,17.687 103.139,17.687 105.386,16.261C105.968,23.824 105.968,23.824 106.562,31.552C107.727,31.94 108.891,32.328 110.091,32.728L110.091,40.962C112.42,41.35 114.749,41.738 117.148,42.138C115.984,47.961 115.984,47.961 114.796,53.901C116.549,54.483 116.549,54.483 118.325,55.077C120.677,61.887 120.677,61.887 120.677,65.663L123.03,65.663C123.192,71.85 122.653,77.543 121.559,83.66C121.43,84.501 121.302,85.342 121.169,86.212C120.078,92.305 120.078,92.305 117.017,94.446C116.283,94.647 115.546,94.849 114.794,95.058L114.794,100.939L110.089,103.291C109.892,106.726 109.892,106.726 110.089,110.349L112.441,112.701C113.9,118.018 113.9,118.018 112.441,120.935L107.736,120.935L107.736,130.345C104.125,131.417 100.914,131.627 97.15,131.521C97.041,133.227 97.041,133.227 96.929,134.979C96.129,140.731 93.353,145.613 90.095,150.388C89.318,150.777 88.542,151.165 87.742,151.565L87.742,153.917C85.519,153.953 85.519,153.953 83.261,153.991C82.428,154.004 81.59,154.018 80.743,154.032C78.344,153.917 78.344,153.917 74.815,152.738L74.815,155.091C74.233,154.897 73.651,154.702 73.051,154.503C68.899,153.671 64.935,153.844 60.7,153.914L60.7,151.562L58.348,151.562C59.771,145.681 63.453,143.069 68.016,139.447C70.381,137.118 70.981,135.965 71.286,132.683C71.059,131.959 70.831,131.236 70.597,130.484C69.67,125.708 72.656,121.321 74.549,116.957C81.689,95.549 80.148,63.32 70.656,42.853C69.056,39.712 69.056,39.712 67.021,37.266C65.398,34.984 65.398,34.984 64.81,31.973C64.483,29.044 64.483,29.044 62.458,27.338C60.105,24.986 59.952,22.927 59.517,19.693L57.164,19.693L55.988,17.34C55.32,17.395 54.647,17.449 53.965,17.506C46.849,17.839 43.061,16.641 37.145,12.636C38.321,10.284 38.321,10.284 40.603,9.178C43.402,7.978 43.402,7.978 45.378,4.402C51.612,-1.208 56.435,-0.538 64.198,0.874L64.17,0.966Z" fill="#FFFFFF"/>
<path d="M78.285,48.016C81.19,50.922 81.778,53.533 82.99,57.426L84.166,59.779L86.519,59.779C86.907,60.943 87.295,62.108 87.695,63.307L91.224,63.307C91.612,66.413 92,69.518 92.4,72.717L94.753,72.717C95.215,77.964 93.834,81.139 91.224,85.656C90.447,86.433 89.671,87.209 88.871,88.009C88.48,91.537 88.48,91.537 88.871,95.066C89.648,95.843 90.424,96.619 91.224,97.419C91.672,99.759 92.062,102.112 92.4,104.476C92.788,105.641 93.176,106.805 93.576,108.005C93.249,110.757 92.865,113.51 92.4,116.239L86.519,116.239C86.131,113.91 85.742,111.581 85.342,109.181C84.178,108.793 83.014,108.405 81.814,108.005L81.814,104.476C80.261,104.088 78.708,103.7 77.109,103.3C77.121,102.251 77.133,101.206 77.146,100.124C77.186,96.184 77.216,92.243 77.238,88.362C77.25,86.668 77.266,84.974 77.286,83.268C77.396,73.964 77.242,65.389 74.757,56.332C74.39,52.874 74.39,52.874 74.757,50.451C75.922,49.675 77.086,48.898 78.286,48.099L78.285,48.016Z" fill="#E6E6E6"/>
<path d="M-0.524,147.997C13.121,148.386 26.648,148.774 40.645,149.174L40.645,152.702C34.387,153.996 28.294,154.055 21.943,154.02C20.931,154.024 19.919,154.029 18.872,154.034C12.685,154.024 6.757,153.593 0.641,152.693L-0.536,147.988L-0.524,147.997Z" fill="#FFFFFF"/>
<path d="M78.285,113.886C78.523,118.438 77.84,121.72 76.156,125.884C75.761,126.909 75.364,127.931 74.956,128.989C73.58,131.471 73.58,131.471 70.051,132.648C70.719,126.237 72.192,120.944 74.756,115.004C77.109,113.828 77.109,113.828 78.285,113.828L78.285,113.886Z" fill="#FFFFFF"/>
<path d="M90.047,131.53L90.047,137.411C88.883,137.994 88.883,137.994 87.695,138.588L86.519,136.235C85.742,137.011 84.966,137.788 84.166,138.588C83.778,136.259 83.39,133.93 82.99,131.53C86.519,130.354 86.519,130.354 90.047,131.53Z" fill="#E6E6E6"/>
</svg>
