<svg width="30" height="196" viewBox="0 0 30 196" fill="none" xmlns="http://www.w3.org/2000/svg" xmlns:xlink="http://www.w3.org/1999/xlink">
<path d="M26.893,-0.569L29.245,-0.569C29.577,9.371 29.577,9.371 26.893,13.546C24.787,17.24 24.011,20.533 23.364,24.721C22.718,28.92 21.917,32.19 19.835,35.895C17.612,40.329 18.675,46.128 18.808,51.069C18.843,53.468 18.759,55.868 18.659,58.267C17.882,59.044 17.106,59.82 16.306,60.62C15.891,62.972 15.891,62.972 15.86,65.654C15.82,66.644 15.78,67.63 15.738,68.654C15.707,69.689 15.676,70.724 15.644,71.794C15.573,73.841 15.499,75.887 15.419,77.934C15.391,78.843 15.363,79.757 15.334,80.687C15.129,82.968 15.129,82.968 13.958,85.321C13.845,87.274 13.805,89.238 13.811,91.202C13.808,92.246 13.805,93.284 13.802,94.366C13.78,97.119 13.78,97.119 15.131,99.436C15.217,101.777 15.229,104.106 15.204,106.446C15.195,107.846 15.186,109.258 15.177,110.704C15.146,113.669 15.116,116.645 15.085,119.609C15.076,121.02 15.067,122.42 15.057,123.867C15.044,125.161 15.03,126.443 15.016,127.784C15.116,130.748 15.484,133.088 16.31,135.9C16.542,137.852 16.734,139.817 16.898,141.781C17.001,142.924 17.104,144.063 17.211,145.251C17.391,147.592 17.527,149.944 17.615,152.285C18.014,160.624 20.062,167.106 23.285,174.751C24.849,179.009 24.826,181.95 24.544,186.42C25.309,187.996 26.096,189.572 26.896,191.125C26.377,193.607 26.377,193.607 25.72,195.83C25.363,194.96 25.007,194.089 24.64,193.195C22.123,187.102 19.559,181.079 16.747,175.081C14.43,170.058 12.713,165.071 11.231,159.789C10.252,156.449 8.996,153.273 7.655,150.074C6.562,146.568 6.196,143.028 5.714,139.393C5.157,135.935 4.554,132.477 3.95,129.03C3.797,128.134 3.644,127.243 3.485,126.313C2.708,121.538 2.708,121.538 1.003,117.044C0.887,113.716 0.839,110.41 0.847,107.082C0.846,106.096 0.845,105.106 0.843,104.094C0.843,102.012 0.845,99.918 0.85,97.836C0.856,94.637 0.85,91.426 0.842,88.226C0.843,86.203 0.844,84.18 0.847,82.157C0.844,81.192 0.842,80.228 0.84,79.24C0.868,72.488 0.868,72.488 2.181,71.171C2.619,68.654 3.003,66.125 3.357,63.596C4.406,56.126 4.406,56.126 5.709,53.527C5.672,51.904 5.593,50.292 5.488,48.681C5.413,43.47 6.688,40.4 9.229,35.977C10.522,33.378 11.064,31.061 11.593,28.214C12.288,24.591 13.204,21.886 15.122,18.734C17.662,14.852 17.662,14.852 18.65,10.359C19.921,6.218 20.768,5.007 24.532,3.007L26.884,3.007L26.884,-0.522L26.893,-0.569Z" fill="#FFFFFF"/>
<path d="M10.425,137.052L12.778,137.052C12.923,137.804 13.068,138.558 13.219,139.334C13.582,140.534 13.582,140.534 13.954,141.757L16.306,142.934C16.722,145.992 17.02,148.98 17.261,152.05C18.046,160.389 20.014,167.223 23.319,174.986C24.884,179.139 24.813,182.079 24.542,186.455C25.308,188.031 26.095,189.607 26.895,191.16C26.376,193.642 26.376,193.642 25.719,195.865C25.362,194.996 25.006,194.124 24.639,193.23C22.122,187.137 19.558,181.115 16.746,175.116C14.441,170.093 12.712,165.118 11.241,159.825C10.442,157.119 9.442,154.59 8.36,151.991C6.513,146.533 6.983,144.134 9.315,139.052C9.678,138.397 10.043,137.746 10.418,137.064L10.425,137.052Z" fill="#FFFFFF"/>
<path d="M26.893,-0.569L29.245,-0.569C29.577,9.371 29.577,9.371 26.893,13.546C24.787,17.24 24.011,20.533 23.364,24.721C22.505,30.308 21.541,34.189 17.483,38.247C17.094,37.471 16.706,36.695 16.306,35.895C15.142,36.283 13.977,36.671 12.778,37.071C10.66,28.39 13.637,22.368 17.483,14.723C17.846,13.287 18.211,11.864 18.586,10.382C19.915,6.218 20.75,4.971 24.538,2.96L26.89,2.96L26.89,-0.569L26.893,-0.569Z" fill="#E6E6E6"/>
<path d="M5.72,126.466C6.108,127.243 6.496,128.019 6.896,128.819C9.613,129.679 12.366,130.466 15.13,131.171C16.588,135.382 16.011,138.629 15.13,142.934L12.777,141.758L12.777,137.053L10.425,137.053C10.037,138.605 9.649,140.158 9.249,141.758L6.896,141.758C6.468,139.876 6.054,137.982 5.649,136.1C5.418,135.049 5.186,133.994 4.946,132.912C4.546,129.995 4.546,129.995 5.722,126.466L5.72,126.466Z" fill="#FFFFFF"/>
<path d="M26.892,-0.569L29.245,-0.569C29.618,10.606 29.618,10.606 24.987,15.664C24.186,16.392 24.186,16.392 23.364,17.134C22.587,16.746 21.811,16.358 21.011,15.958C21.399,13.629 21.788,11.3 22.187,8.9L19.835,8.9C20.223,7.736 20.611,6.571 21.011,5.371C24.022,3.972 24.022,3.972 26.892,3.019L26.892,-0.51L26.892,-0.569Z" fill="#FFFFFF"/>
</svg>
