<svg width="66" height="32" viewBox="0 0 66 32" fill="none" xmlns="http://www.w3.org/2000/svg" xmlns:xlink="http://www.w3.org/1999/xlink">
<path d="M1.136,-0.206L64.654,-0.206L64.654,0.97L22.309,0.97L22.309,3.322C19.98,3.711 17.651,4.099 15.251,4.499C15.664,5.615 16.076,6.734 16.498,7.886C17.601,11.556 17.601,11.556 16.425,13.909C12.566,15.027 10.896,15.203 7.015,13.909C4.603,19.896 2.98,25.142 2.31,31.553L-0.043,31.553C-0.077,26.918 -0.098,22.295 -0.116,17.673C-0.126,16.355 -0.136,15.038 -0.146,13.685C-0.15,12.427 -0.154,11.156 -0.158,9.862C-0.164,8.698 -0.17,7.533 -0.177,6.334C-0.042,3.346 -0.042,3.346 1.129,-0.183L1.136,-0.206Z" fill="#FFFFFF"/>
<path d="M1.136,-0.206L8.194,-0.206C7.03,1.546 7.03,1.546 5.842,3.322L5.842,6.851L3.489,6.851C3.101,15.003 2.713,23.201 2.313,31.553L-0.04,31.553C-0.074,26.918 -0.095,22.295 -0.113,17.673C-0.123,16.355 -0.133,15.038 -0.143,13.685C-0.147,12.427 -0.151,11.156 -0.155,9.862C-0.161,8.698 -0.167,7.533 -0.173,6.334C-0.039,3.346 -0.039,3.346 1.132,-0.183L1.136,-0.206Z" fill="#FFFFFF"/>
</svg>
