<svg width="240" height="218" viewBox="0 0 240 218" fill="none" xmlns="http://www.w3.org/2000/svg" xmlns:xlink="http://www.w3.org/1999/xlink">
<path d="M6.476,-0.559C7.641,-0.171 8.805,0.218 10.005,0.618C12.193,0.754 14.369,0.826 16.557,0.859C17.897,0.882 19.238,0.906 20.626,0.93C22.073,0.949 23.52,0.969 25.014,0.989C27.237,1.026 27.237,1.026 29.507,1.063C33.447,1.127 37.388,1.187 41.269,1.243C45.292,1.302 49.315,1.368 53.385,1.433C61.277,1.559 69.147,1.679 77.027,1.794C80.556,8.557 80.556,8.557 80.556,11.204C81.26,11.519 81.968,11.834 82.685,12.159C86.108,14.017 88.296,15.582 89.519,19.358C89.665,20.158 89.81,20.957 89.96,21.781C90.179,22.653 90.397,23.533 90.621,24.427C90.877,25.446 90.877,25.446 91.137,26.486L93.489,26.486C94.475,28.203 95.453,29.908 96.43,31.638C97.248,33.073 97.248,33.073 98.088,34.531C99.37,37.072 99.37,37.072 99.37,39.424C101.311,39.812 103.252,40.201 105.252,40.601C105.349,41.425 105.446,42.247 105.546,43.094C106.643,47.305 108.616,49.999 111.133,53.539C111.957,54.798 112.78,56.056 113.626,57.362C115.685,60.597 115.685,60.597 118.19,62.949C119.402,64.737 120.566,66.56 121.719,68.384C122.442,69.53 123.166,70.677 123.907,71.854C125.754,74.806 127.589,77.758 129.412,80.711C130.183,81.957 130.183,81.957 130.976,83.228C131.99,84.863 132.999,86.51 134.011,88.145C137.328,93.497 140.774,98.46 145.244,102.965C146.029,104.53 146.808,106.106 147.597,107.67C148.373,108.447 149.149,109.223 149.949,110.023L152.302,115.904C156.019,119.621 158.959,120.962 164.064,121.785C163.676,120.621 163.288,119.456 162.888,118.257C162.816,115.469 162.817,112.669 162.851,109.882C162.915,101.236 162.815,92.591 162.63,84.004C162.604,82.769 162.578,81.534 162.551,80.264C162.468,76.453 162.384,72.642 162.299,68.831C162.242,66.196 162.185,63.573 162.128,60.938C161.991,54.574 161.852,48.234 161.711,41.883C159.888,41.71 159.888,41.71 158.017,41.533C156.406,41.357 154.795,41.179 153.183,41C151.983,40.891 151.983,40.891 150.748,40.779C146.878,40.329 144.349,39.735 141.174,37.415C139.103,34.451 138.774,33.04 138.809,29.464C138.814,28.45 138.818,27.441 138.823,26.394C138.866,24.818 138.866,24.818 138.91,23.206C138.912,22.164 138.913,21.124 138.915,20.054C139.004,13.385 139.859,7.939 142.879,1.94L238.154,1.94C238.154,33.698 238.154,33.698 234.626,40.756C224.734,41.338 224.734,41.338 214.63,41.932C214.64,44.049 214.65,46.155 214.662,48.343C214.756,68.221 214.828,88.1 214.874,107.978C214.898,118.2 214.93,128.445 214.984,138.679C215.032,147.595 215.062,156.558 215.072,165.379C215.078,170.096 215.092,174.825 215.128,179.494C215.158,183.929 215.168,188.375 215.162,192.786C215.162,194.421 215.172,196.044 215.19,197.679C215.214,199.903 215.206,202.125 215.196,204.349C215.2,205.595 215.204,206.843 215.208,208.125C214.63,211.205 214.63,211.205 212.398,213.371C209.622,214.899 208.092,215.135 204.94,215.029C203.984,215.011 203.022,214.995 202.046,214.977C201.034,214.943 200.023,214.909 198.976,214.873C190.037,214.681 181.45,215.009 172.628,216.107C167.7,215.847 164.312,214.285 160.513,211.203C158.266,208.603 156.514,205.839 154.773,202.899C154.315,202.163 153.857,201.429 153.385,200.675C151.468,197.558 149.903,194.688 148.739,191.218L146.386,191.218C144.904,189.36 144.904,189.36 143.222,186.737C142.285,185.29 142.285,185.29 141.328,183.808C139.988,181.679 138.647,179.55 137.317,177.421C133.377,171.128 129.26,165.188 124.614,159.424C119.309,152.614 119.309,152.614 119.309,148.909L116.957,148.909C105.194,134.088 105.194,134.088 105.194,127.736C103.453,127.154 103.453,127.154 101.665,126.56C99.948,124.125 99.948,124.125 98.207,121.043C97.59,119.973 96.972,118.903 96.337,117.797C95.765,116.805 95.194,115.809 94.608,114.797C93.067,112.433 91.491,110.081 89.903,107.74C89.372,106.822 88.842,105.905 88.291,104.964C87.706,103.989 87.121,103.011 86.515,102.012C85.985,101.093 85.454,100.177 84.904,99.224C82.892,96.742 82.892,96.742 79.175,97.024C77.493,97.088 77.493,97.088 75.776,97.154C75.746,105.564 75.725,113.974 75.711,122.325C75.706,125.184 75.698,128.03 75.687,130.889C75.549,152.884 75.549,152.884 76.958,174.763C82.121,176.209 86.427,175.518 91.661,174.832C92.616,174.809 93.566,174.786 94.554,174.763C100.565,180.773 99.695,188.642 99.706,196.523C99.735,197.735 99.764,198.958 99.794,200.205C99.828,209.157 99.828,209.157 96.888,213.849C96.121,214.541 95.359,215.237 94.559,215.943C94.171,215.555 93.783,215.167 93.383,214.767C85.796,213.509 78.327,213.449 70.681,213.519C69.411,213.525 68.141,213.529 66.835,213.533C61.46,213.553 56.072,213.585 50.721,213.617C24.255,213.763 24.255,213.763 11.669,213.225C10.797,213.199 9.928,213.173 9.023,213.145C6.635,213.019 6.635,213.019 2.847,212.417C0.212,208.453 0.201,207.125 0.224,202.491C0.226,201.243 0.229,199.997 0.231,198.715C0.245,197.409 0.26,196.115 0.275,194.774C0.275,193.468 0.276,192.175 0.277,190.834C0.33,181.153 0.33,181.153 1.677,177.189L5.205,177.189C5.594,176.025 5.982,174.86 6.382,173.66C6.77,174.049 7.158,174.437 7.558,174.837C10.134,174.922 12.71,174.935 15.274,174.91C16.686,174.9 18.097,174.889 19.544,174.878C21.179,174.858 21.179,174.858 22.849,174.837C23.03,159.075 23.204,143.313 23.37,127.551C23.447,120.235 23.527,112.966 23.611,105.556C23.693,98.486 23.769,91.441 23.841,84.383C23.869,81.689 23.899,78.996 23.932,76.302C23.978,72.526 24.016,68.739 24.051,64.963C24.066,63.857 24.082,62.752 24.097,61.611C24.15,54.953 23.707,48.554 22.85,41.967C21.716,41.937 20.58,41.907 19.416,41.876C17.193,41.775 17.193,41.775 14.911,41.673C13.44,41.619 11.958,41.564 10.441,41.507C5.807,40.69 4.372,39.884 1.678,36.085C-0.134,30.721 0.196,24.722 0.137,19.147C0.103,18.167 0.069,17.183 0.034,16.171C-0.035,9.49 0.924,6.008 5.209,0.88C5.597,0.492 5.985,0.104 6.385,-0.296L6.476,-0.559ZM24.12,165.292L24.12,171.174L25.296,171.174L25.296,165.292L24.12,165.292Z" fill="#FFFFFF"/>
<path d="M69.994,102.951L72.346,102.951L72.346,107.656L75.875,107.656C75.869,109.103 75.863,110.55 75.857,112.044C75.835,117.49 75.822,122.924 75.811,128.393C75.805,130.734 75.797,133.075 75.786,135.416C75.73,148.59 75.803,161.646 77.057,174.702C82.221,176.149 86.526,175.458 91.76,174.771C92.715,174.749 93.665,174.726 94.653,174.702C100.664,180.713 99.794,188.582 99.805,196.463C99.834,197.675 99.863,198.898 99.893,200.145C99.927,209.096 99.927,209.096 96.987,213.789C96.22,214.481 95.458,215.177 94.658,215.883C94.27,215.495 93.882,215.107 93.482,214.707C91.224,214.437 88.954,214.242 86.672,214.077C85.295,213.975 83.919,213.873 82.508,213.767C81.061,213.665 79.614,213.562 78.12,213.456C76.662,213.349 75.215,213.242 73.721,213.133C70.122,212.868 66.511,212.609 62.911,212.354L62.911,211.178C63.975,211.107 65.04,211.036 66.134,210.962C67.522,210.863 68.91,210.764 70.334,210.663C71.71,210.567 73.086,210.472 74.509,210.373C78.226,210.135 78.226,210.135 81.731,208.821L81.731,206.468L79.379,206.468C79.085,203.892 79.085,203.892 79.379,200.587C80.18,199.592 80.979,198.599 81.802,197.576C84.425,194.953 84.425,194.953 83.79,191.989C83.499,191.333 83.208,190.683 82.908,190.001C80.579,189.613 78.25,189.224 75.85,188.825L75.85,193.53C74.192,193.793 72.521,194.033 70.851,194.265C69.923,194.401 68.993,194.538 68.04,194.679C64.887,194.71 63.229,193.96 60.559,192.35C60.947,191.185 61.335,190.021 61.735,188.821L59.383,188.821C58.22,183.704 58.273,181.634 60.559,177.058C60.773,173.894 60.665,170.824 60.559,167.648C59.006,167.26 57.454,166.872 55.854,166.472C55.707,159.709 55.707,159.709 57.03,157.062C58.771,156.48 58.771,156.48 60.559,155.886C60.317,154.989 60.074,154.086 59.824,153.169C59.383,150.005 59.383,150.005 61.729,146.476C61.341,146.088 60.953,145.7 60.553,145.3C61.329,144.523 62.106,143.747 62.905,142.947C64.094,141.395 65.27,139.818 66.434,138.242C65.658,137.854 64.882,137.466 64.082,137.066C64.47,135.125 64.858,133.184 65.258,131.185L62.905,131.185C63.294,132.737 63.682,134.29 64.082,135.89L61.729,135.89L61.729,128.832C62.894,129.22 64.058,129.609 65.258,130.008C65.29,127.927 65.313,125.845 65.332,123.763C65.345,122.603 65.359,121.445 65.373,120.246C65.403,116.952 65.403,116.952 64.079,113.541C65.338,109.436 67.102,106.166 69.96,102.955L69.994,102.951Z" fill="#E6E6E6"/>
<path d="M142.921,1.794L238.198,1.794L238.198,33.553C237.421,34.329 236.645,35.105 235.845,35.905C231.587,35.464 231.587,35.464 227.611,34.729L229.964,33.553L229.964,31.2C229.284,31.54 228.611,31.879 227.905,32.229C227.031,32.666 226.165,33.102 225.259,33.547C224.482,33.983 223.706,34.419 222.906,34.864C220.554,35.893 220.554,35.893 215.849,35.893C213.826,33.647 212.485,31.529 211.144,28.836C212.308,28.059 213.473,27.283 214.673,26.483C214.967,23.449 214.967,23.449 214.673,20.602C217.578,20.02 217.578,20.02 220.554,19.426C220.942,15.156 221.33,10.886 221.73,6.487C219.401,6.875 217.072,7.263 214.673,7.663L214.673,10.016C215.837,10.404 217.002,10.792 218.201,11.192L209.968,11.192C209.385,8.275 209.385,8.275 208.791,5.311C199.852,4.349 191.03,3.946 181.973,3.993C180.81,3.989 179.644,3.984 178.444,3.98C172.339,3.988 166.564,4.257 160.447,5.321C159.154,9.19 159.506,10.861 160.447,14.731C157.307,15.515 154.178,16.295 151.037,17.083C149.72,17.412 149.72,17.412 148.367,17.749C147.695,17.917 147.026,18.085 146.332,18.259C145.944,20.588 145.556,22.917 145.156,25.317C141.627,24.141 141.627,24.141 139.275,21.788C138.299,14.613 139.576,8.261 142.804,1.792L142.921,1.794Z" fill="#FFFFFF"/>
<path d="M199.381,72.369C199.77,73.145 200.158,73.921 200.558,74.721L207.615,74.721C211.661,87.189 215.778,100.363 214.673,113.537C213.896,114.314 213.12,115.09 212.32,115.89C210.732,119.066 210.744,121.912 210.485,125.441C210.387,126.735 210.288,128.017 210.186,129.346C210.115,130.338 210.044,131.334 209.97,132.346C207.617,131.169 207.617,131.169 206.441,128.817C205.277,129.593 204.112,130.37 202.912,131.169L202.912,127.641C202.524,128.417 202.136,129.193 201.736,129.993L199.384,129.993L199.384,127.641C197.643,128.223 197.643,128.223 195.855,128.817C195.74,121.583 195.74,121.583 195.855,119.407C196.437,118.825 196.437,118.825 197.031,118.231C198.2,112.385 198.064,107.609 197.031,101.763L197.031,90.001C195.867,89.612 194.702,89.224 193.502,88.824C196.267,87.142 197.596,86.366 200.854,86.919C201.534,87.161 202.207,87.405 202.912,87.654C202.136,86.878 201.36,86.101 200.56,85.302L200.56,81.773L198.207,81.773C197.819,82.549 197.431,83.325 197.031,84.125C193.502,79.867 193.502,79.867 193.502,75.892L197.031,75.892C197.419,75.115 197.808,74.339 198.207,73.539C198.596,73.151 198.984,72.763 199.384,72.363L199.381,72.369Z" fill="#E6E6E6"/>
<path d="M6.476,-0.559C7.641,-0.171 8.805,0.218 10.005,0.617C12.193,0.754 14.369,0.826 16.557,0.859C17.898,0.882 19.238,0.906 20.627,0.93C22.073,0.949 23.52,0.969 25.014,0.989C27.237,1.026 27.237,1.026 29.507,1.063C33.448,1.127 37.388,1.187 41.27,1.243C45.292,1.302 49.315,1.368 53.385,1.433C61.278,1.558 69.147,1.678 77.028,1.794C76.64,2.57 76.251,3.346 75.851,4.146C62.677,4.534 49.503,4.923 35.859,5.322C35.471,6.099 35.083,6.875 34.683,7.675C33.13,8.113 31.554,8.505 29.978,8.851C29.59,9.239 29.201,9.628 28.801,10.027C26.837,10.075 24.885,10.078 22.92,10.027C25.826,10.61 25.826,10.61 28.801,11.204C27.178,13.556 27.178,13.556 24.096,15.909C21.121,16.205 18.297,16.13 15.322,15.959C12.193,15.906 9.499,16.373 6.453,17.085C6.395,18.005 6.337,18.92 6.279,19.873C6.147,21.661 6.147,21.661 6.012,23.484C5.93,24.672 5.848,25.86 5.763,27.083C5.602,28.055 5.442,29.024 5.276,30.024C4.5,30.412 3.724,30.8 2.924,31.2C2.148,30.812 1.371,30.424 0.571,30.024C0.444,26.448 0.35,22.872 0.277,19.296C0.238,18.289 0.198,17.285 0.157,16.25C0.053,9.439 0.88,5.875 5.274,0.606C5.662,0.218 6.05,-0.171 6.45,-0.571L6.476,-0.559Z" fill="#FFFFFF"/>
<path d="M24.12,58.254L27.649,58.254C28.753,72.016 28.872,85.66 28.6,99.422C28.584,100.261 28.568,101.105 28.552,101.963C28.398,109.844 28.222,117.725 28.039,125.606C27.938,129.958 27.85,134.322 27.768,138.662C27.735,140.309 27.697,141.944 27.654,143.591C27.324,155.212 27.324,155.212 30.007,166.41C30.448,170.162 30.448,170.162 30.007,173.467C27.654,176.267 27.654,176.267 25.302,178.172C24.137,177.784 22.973,177.396 21.773,176.996C21.855,176.276 21.938,175.561 22.022,174.82C22.77,167.892 23.142,161.058 23.192,154.118C23.203,153.072 23.215,152.024 23.227,150.954C23.264,147.543 23.293,144.132 23.322,140.721C23.346,138.333 23.371,135.957 23.396,133.569C23.461,127.335 23.519,121.101 23.576,114.867C23.636,108.491 23.701,102.163 23.766,95.694C23.891,83.226 24.011,70.757 24.127,58.171L24.12,58.254ZM24.12,165.292L24.12,171.174L25.296,171.174L25.296,165.292L24.12,165.292Z" fill="#E6E6E6"/>
<path d="M209.967,180.584C210.826,183.019 210.826,183.019 211.367,185.947C211.554,186.919 211.74,187.888 211.932,188.888C212.061,189.638 212.189,190.394 212.322,191.158L213.499,191.158C213.593,194.64 213.663,198.122 213.72,201.603C213.749,202.594 213.779,203.579 213.809,204.603C213.821,205.551 213.832,206.497 213.844,207.473C213.862,208.348 213.881,209.225 213.9,210.119C213.701,211.213 213.701,211.213 213.499,212.331C209.852,214.766 209.194,214.966 205.1,214.871C204.139,214.858 203.183,214.845 202.195,214.831C201.172,214.806 200.148,214.782 199.09,214.757C190.08,214.618 181.328,214.955 172.389,215.945C168.213,215.844 166.237,214.757 162.896,212.334C166.331,210.616 169.366,211.028 173.2,211.04C174.371,211.042 174.371,211.042 175.565,211.045C178.058,211.051 180.552,211.066 183.046,211.081C184.739,211.087 186.421,211.092 188.115,211.097C192.256,211.11 196.396,211.13 200.583,211.155L200.583,208.802L202.936,208.802C202.968,205.979 202.991,203.168 203.009,200.345C203.024,199.157 203.024,199.157 203.039,197.945C203.061,193.546 202.716,189.559 201.757,185.242C202.051,182.595 202.051,182.595 202.933,180.537C206.462,179.36 206.462,179.36 209.991,180.537L209.967,180.584Z" fill="#E6E6E6"/>
<path d="M142.921,1.794L195.853,1.794L195.853,2.97C195.076,3 194.3,3.029 193.5,3.059C189.948,3.197 186.396,3.34 182.843,3.485C181.008,3.555 181.008,3.555 179.138,3.625C172.869,3.884 166.788,4.278 160.553,5.319C159.26,9.189 159.612,10.859 160.553,14.729C157.413,15.513 154.284,16.293 151.143,17.081C149.826,17.411 149.826,17.411 148.473,17.747C147.8,17.915 147.132,18.084 146.438,18.258C146.05,20.587 145.662,22.916 145.262,25.315C141.733,24.139 141.733,24.139 139.381,21.786C138.405,14.611 139.682,8.26 142.91,1.79L142.921,1.794Z" fill="#FFFFFF"/>
<path d="M5.3,173.526C9.182,174.691 13.063,175.855 17.062,177.055L17.062,188.818C15.122,189.206 13.181,189.594 11.181,189.994L11.181,187.641L7.652,187.641C7.666,188.378 7.68,189.112 7.694,189.876C7.704,190.837 7.715,191.794 7.726,192.793C7.74,193.748 7.753,194.699 7.767,195.687C7.652,198.228 7.652,198.228 6.473,200.58C6.209,202.392 5.994,204.203 5.812,206.014C5.714,206.975 5.615,207.932 5.514,208.932C5.442,209.668 5.371,210.402 5.297,211.166C6.074,211.555 6.85,211.943 7.65,212.343C4.78,211.902 4.78,211.902 1.768,211.166C0.251,208.132 0.439,205.92 0.439,202.533C0.438,201.286 0.436,200.027 0.435,198.745C0.439,197.44 0.444,196.122 0.448,194.769C0.444,193.464 0.439,192.158 0.435,190.805C0.436,189.559 0.438,188.3 0.439,187.018C0.441,185.869 0.442,184.724 0.443,183.536C0.595,180.584 0.595,180.584 1.773,177.055L5.301,177.055L5.301,173.526L5.3,173.526Z" fill="#E6E6E6"/>
<path d="M202.91,132.358C204.075,133.134 205.239,133.91 206.439,134.71C207.603,134.322 208.768,133.934 209.968,133.534C210.802,138.356 211.139,141.791 209.968,146.473C209.889,148.731 209.867,150.978 209.894,153.236C209.91,154.977 209.91,154.977 209.926,156.741C209.94,157.621 209.953,158.506 209.968,159.411C207.25,160.729 207.25,160.729 204.086,161.764C202.922,160.988 201.757,160.211 200.558,159.411L200.558,154.706C199.781,155.095 199.005,155.483 198.205,155.883L198.205,141.768C198.981,141.379 199.758,140.991 200.558,140.591C201.334,140.979 202.11,141.368 202.91,141.768L202.91,132.358Z" fill="#E6E6E6"/>
<path d="M75.875,2.97C78.745,5.687 78.745,5.687 80.58,8.851L80.58,11.204C81.744,11.592 82.909,11.98 84.109,12.38L84.109,15.909L77.098,16.598C74.346,16.999 74.346,16.999 71.17,19.433C68.676,11.646 68.676,11.646 69.994,7.67L67.641,6.494L67.641,4.141C71.464,3.186 71.464,3.186 75.875,2.965L75.875,2.97Z" fill="#E6E6E6"/>
<path d="M5.3,173.526C8.017,174.303 10.734,175.079 13.534,175.879L13.534,177.055L7.652,177.055C7.289,178.001 6.924,178.949 6.549,179.925C5.302,182.936 5.302,182.936 4.126,184.113C3.941,186.124 3.831,188.135 3.754,190.147C3.705,191.358 3.656,192.582 3.605,193.828C3.559,195.111 3.512,196.393 3.465,197.71C3.414,198.992 3.363,200.274 3.311,201.603C3.186,204.791 3.066,207.979 2.95,211.166C0.597,208.814 0.597,208.814 0.315,206.014C0.32,204.866 0.325,203.721 0.33,202.533C0.332,201.286 0.334,200.027 0.337,198.745C0.351,197.44 0.365,196.122 0.38,194.769C0.381,193.464 0.382,192.158 0.382,190.805C0.436,181.066 0.436,181.066 1.782,177.043L5.311,177.043L5.311,173.515L5.3,173.526Z" fill="#FFFFFF"/>
<path d="M195.853,1.794C199.675,1.691 203.498,1.629 207.321,1.573C208.944,1.528 208.944,1.528 210.603,1.483C211.648,1.472 212.696,1.46 213.779,1.448C214.74,1.43 215.696,1.412 216.696,1.392C219.989,1.883 221.612,3.157 224.094,5.321C220.989,6.097 217.884,6.874 214.684,7.674L214.684,10.026C215.849,10.414 217.013,10.802 218.213,11.202L209.979,11.202C209.591,9.262 209.203,7.321 208.803,5.321C204.533,4.933 200.263,4.545 195.864,4.145L195.864,1.792L195.853,1.794Z" fill="#FFFFFF"/>
<path d="M6.476,-0.559C9.382,0.606 9.382,0.606 12.358,1.794C11.435,2.837 10.511,3.876 9.558,4.958C6.959,8.063 5.465,10.898 4.124,14.733C3.348,15.897 2.571,17.062 1.771,18.261C0.583,12.462 -0.075,8.922 2.801,3.558C5.294,0.618 5.294,0.618 6.47,-0.559L6.476,-0.559Z" fill="#FFFFFF"/>
<path d="M162.918,211.166C171.457,211.554 179.973,211.943 188.795,212.343C185.525,215.613 182.243,215.366 177.844,215.648C176.671,215.76 176.671,215.76 175.48,215.875C170.21,216.245 167.105,215.598 162.894,212.334L162.894,211.158L162.918,211.166Z" fill="#FFFFFF"/>
<path d="M140.569,19.438C144.239,26.295 144.062,30.659 142.921,38.257C141.181,36.905 141.181,36.905 139.393,34.729C139.007,31.635 139.007,31.635 139.099,28.189C139.117,27.047 139.135,25.907 139.154,24.731C139.393,21.79 139.393,21.79 140.565,19.438L140.569,19.438Z" fill="#FFFFFF"/>
</svg>
