<svg width="68" height="36" viewBox="0 0 68 36" fill="none" xmlns="http://www.w3.org/2000/svg" xmlns:xlink="http://www.w3.org/1999/xlink">
<path d="M16.862,0.511C22.485,1.911 26.049,4.334 30.507,7.827C33.906,10.333 37.447,12.509 41.058,14.697C56.349,23.977 56.349,23.977 60.348,28.694L60.348,32.223L66.23,32.223C66.812,33.976 66.812,33.976 67.406,35.752C57.866,34.607 51.409,31.894 43.41,26.871C40.481,25.236 37.835,24.248 34.624,23.331C29.895,21.919 27.637,20.119 25.073,15.755L25.073,13.403L19.191,13.403C20.356,11.462 21.52,9.521 22.72,7.522L20.368,7.522C19.203,5.193 18.039,2.864 16.839,0.464L16.862,0.511Z" fill="#E6E6E6"/>
<path d="M42.74,16.979C49.386,19.19 55.796,23.354 60.384,28.741L60.384,32.27L66.265,32.27C66.653,33.434 67.041,34.599 67.441,35.799C57.914,34.655 51.209,31.941 43.21,26.906C40.764,25.424 38.306,24.095 35.718,22.86C37.659,22.472 39.599,22.084 41.599,21.684L41.599,18.155C41.987,17.767 42.375,17.379 42.775,16.979L42.74,16.979Z" fill="#FFFFFF"/>
<path d="M15.686,-0.665C19.168,2.64 22.085,5.428 23.92,9.921C22.755,10.698 21.591,11.474 20.391,12.274C21.337,12.42 22.285,12.565 23.261,12.715C24.256,12.957 25.249,13.199 26.272,13.45C26.661,14.226 27.049,15.003 27.449,15.802C18.156,18.673 18.156,18.673 13.216,16.685C11.546,15.666 11.546,15.666 9.828,14.626C8.346,14.213 6.864,13.802 5.347,13.379C4.112,13.016 2.877,12.651 1.595,12.276C1.207,11.5 0.818,10.723 0.418,9.924C6.241,11.088 12.063,12.253 18.062,13.452L18.062,11.1L15.71,11.1L15.71,-0.663L15.686,-0.665Z" fill="#FFFFFF"/>
</svg>
