<svg width="370" height="380" viewBox="0 0 370 380" fill="none" xmlns="http://www.w3.org/2000/svg" xmlns:xlink="http://www.w3.org/1999/xlink">
<path d="M333.771,-0.695L338.477,0.481L338.477,2.834C341.193,5.927 342.759,7.398 346.711,8.715C350.145,12.055 351.581,14.679 352.297,19.301C353.245,24.559 355.591,28.488 358.473,32.946C362.249,38.78 364.249,43.167 365.531,49.884C366.123,51.084 366.719,52.283 367.319,53.518C369.717,58.964 369.529,64.246 369.423,70.103C369.427,71.149 369.431,72.197 369.435,73.268C369.393,78.384 369.227,81.819 366.707,86.324C365.237,89.853 363.801,93.393 362.377,96.946C358.485,105.732 358.485,105.732 354.945,107.496C353.799,109.602 352.651,111.696 351.509,113.801C349.897,116.248 348.181,116.93 345.535,118.083C345.219,118.777 344.905,119.471 344.583,120.188C342.747,123.599 340.407,125.34 337.373,127.716C336.342,128.534 335.313,129.351 334.255,130.198C331.42,132.209 331.42,132.209 327.891,133.386L327.891,135.738C325.656,137.644 325.656,137.644 322.739,139.785C319.328,142.29 317.317,143.937 314.952,147.501L311.424,147.501C311.024,148.483 311.024,148.483 310.614,149.489C307.944,154.194 304.815,157.546 299.663,159.263C297.146,162.933 297.029,166.062 297.087,170.438C297.095,171.541 297.103,172.649 297.11,173.778C297.201,176.836 297.201,176.836 297.983,179.436C298.484,181.6 298.484,181.6 297.308,185.129C297.415,187.387 297.601,189.646 297.823,191.892C298.465,199.938 298.661,207.89 298.705,216.006C298.728,217.816 298.728,217.816 298.751,219.652C298.753,221.346 298.753,221.346 298.756,223.074C298.761,224.09 298.766,225.11 298.771,226.156C298.485,228.65 298.485,228.65 296.136,231.002C295.996,235.26 296.087,239.448 296.228,243.706C296.371,250.658 296.371,250.658 293.781,254.54C293.585,257.116 293.585,257.116 293.781,259.832C294.009,264.126 293.952,264.866 291.429,268.654L291.429,271.666L291.429,274.536C290.652,275.312 289.876,276.088 289.076,276.888C288.324,279.04 288.324,279.04 287.829,281.452C287.646,282.25 287.462,283.052 287.273,283.864C287.002,285.062 287.002,285.062 286.726,286.298C284.373,296.65 279.304,306.412 274.963,316.058C274.463,317.188 273.962,318.316 273.446,319.492C268.588,330.254 268.588,330.254 264.377,334.548L262.025,334.548C261.952,335.372 261.879,336.194 261.803,337.042C260.51,341.64 258.169,343.958 254.969,347.486C253.029,346.71 251.088,345.934 249.088,345.134C250.817,341.418 252.923,338.23 255.334,334.912C261.851,325.608 266.179,317.034 269.331,306.094C270.431,302.306 271.602,298.848 273.213,295.238C275.342,290.05 276.401,284.934 277.459,279.476C277.852,277.488 278.246,275.488 278.647,273.5C278.816,272.628 278.984,271.76 279.158,270.854C279.667,268.666 279.667,268.666 280.84,266.314C280.876,262.102 280.76,257.916 280.652,253.728C280.84,249.858 280.84,249.858 283.192,246.33C283.203,242.918 283.087,239.648 282.825,236.26C282.769,235.342 282.712,234.426 282.654,233.472C282.406,228.568 282.406,228.568 280.842,223.98C280.569,220.286 280.379,216.606 280.233,212.912C280.004,208.512 279.395,205.478 277.316,201.632C276.829,198.597 276.829,198.597 276.581,195.456C276.449,193.88 276.449,193.88 276.314,192.281C276.256,191.487 276.198,190.693 276.14,189.869C271.576,189.338 271.576,189.338 269.529,191.634C268.995,192.216 268.461,192.798 267.906,193.398L265.553,193.398C265.165,194.562 264.777,195.727 264.377,196.927L262.025,196.927L262.025,200.456C260.119,202.466 258.155,204.42 256.143,206.336C255.367,207.502 254.591,208.666 253.791,209.866L251.438,209.866C251.123,210.568 250.808,211.276 250.483,211.994C249.084,214.57 249.084,214.57 247.401,216.182C245.272,218.17 245.272,218.17 243.943,221.768C242.038,225.156 242.038,225.156 238.874,226.18C237.976,226.228 237.074,226.276 236.157,226.326C235.768,227.88 235.38,229.432 234.98,231.032L232.628,231.032C232.24,232.196 231.851,233.36 231.452,234.56C228.346,236.69 225.629,238.066 222.042,239.266C221.653,240.43 221.265,241.594 220.865,242.794C218.924,243.182 216.984,243.57 214.984,243.97C214.596,245.136 214.208,246.3 213.808,247.5C210.844,248.84 207.985,249.97 204.915,251.028C204.101,251.32 203.292,251.61 202.445,251.91C200.787,252.504 199.128,253.086 197.458,253.662C195.846,254.246 194.235,254.874 192.659,255.544C186.436,258.168 180.967,258.614 174.192,258.52C172.745,258.542 172.745,258.542 171.275,258.562C165.311,258.534 161.312,257.748 156.101,254.552C155.307,254.068 154.513,253.584 153.69,253.08C152.698,252.386 152.698,252.386 151.69,251.682C151.017,251.222 150.349,250.762 149.655,250.294C147.538,248.364 146.715,246.552 145.515,243.966C144.521,242.46 143.515,240.966 142.504,239.484C139.728,235.132 138.881,231.508 138.457,226.31C138.069,225.534 137.681,224.756 137.281,223.958C136.999,219.898 137.063,215.83 137.06,211.724C137.046,210.596 137.031,209.466 137.016,208.302C137.014,207.212 137.012,206.126 137.009,205.008C137.004,204.012 137,203.02 136.995,201.996C137.305,198.997 138.241,197.174 139.629,194.527C139.642,192.175 139.641,189.822 139.629,187.47C140.241,184.953 140.935,182.447 141.688,179.965C146.734,162.204 149.404,143.619 150.004,125.152C150.211,121.541 150.211,121.541 151.392,119.189C151.524,115.754 151.585,112.343 151.59,108.896C151.593,107.853 151.597,106.814 151.601,105.732C151.607,103.509 151.61,101.286 151.61,99.063C151.612,95.734 151.634,92.417 151.656,89.088C151.689,78.632 151.467,68.269 150.351,57.918C150.259,57.047 150.168,56.177 150.073,55.283C149.565,51.084 148.927,47.579 146.685,43.956L152.567,38.074C152.979,38.899 153.391,39.721 153.813,40.568C155.872,43.626 157.472,45.214 160.283,47.484C163.847,50.39 165.117,52.542 166.682,56.894C167.596,57.771 168.505,58.647 169.458,59.553C181.808,72.374 183.22,91.9 183.455,108.72C183.493,110.049 183.493,110.049 183.531,111.414C183.569,117.859 182.237,122.776 179.638,128.587C179.041,130.01 178.45,131.433 177.826,132.904C176.937,134.95 176.937,134.95 176.027,137.044C173.615,142.608 173.615,142.608 171.322,148.23C170.323,150.689 169.193,152.947 167.934,155.276C165.617,159.805 164.252,164.357 162.912,169.273C162.012,172.026 160.877,174.202 159.406,176.684C156.172,182.659 156.877,189.034 157.277,195.621C155.725,196.01 154.172,196.398 152.572,196.798C151.874,217.97 151.874,217.97 161.324,236.554C163.112,238.202 163.112,238.202 165.664,238.614C166.392,238.808 167.123,239.002 167.875,239.202C168.264,240.366 168.652,241.53 169.052,242.73C171.675,242.794 174.298,242.84 176.921,242.876L181.343,242.96C185.354,242.74 187.825,242.072 191.4,240.372C192.565,239.984 193.729,239.596 194.929,239.196C195.293,238.42 195.657,237.644 196.032,236.844C196.651,235.678 196.651,235.678 197.279,234.49C199.702,233.756 199.702,233.756 201.984,233.314C202.372,232.538 202.761,231.762 203.16,230.962C204.216,230.78 204.216,230.78 205.289,230.594C208.971,229.438 210.265,226.902 212.57,223.902L214.923,223.902C215.469,222.514 215.469,222.514 216.026,221.102C217.273,218.02 217.273,218.02 218.449,215.668L220.802,215.668L220.802,213.316C221.676,212.66 222.554,212.01 223.448,211.328C227.401,208 229.024,204.93 231.388,200.378L233.741,200.378C234.068,199.212 234.068,199.212 234.402,198.025C236.39,193.873 238.977,191.038 242.059,187.638C247.129,181.934 251.622,175.758 256.174,169.642C263.337,160.079 263.337,160.079 266.69,156.821L269.042,156.821C269.43,155.656 269.819,154.492 270.218,153.292C271.806,152.18 273.406,151.081 275.053,150.057C278.746,147.611 282.122,144.776 285.569,141.988C287.862,140.353 287.862,140.353 290.215,140.353C290.603,139.189 290.991,138.024 291.391,136.825C293.32,135.601 295.284,134.425 297.272,133.296C299.46,131.59 301.613,129.849 303.742,128.073C305.894,126.285 308.058,124.497 310.211,122.709C311.799,121.38 311.799,121.38 313.41,120.016C316.092,118.004 316.092,118.004 318.445,118.004C318.881,116.299 318.881,116.299 319.327,114.546C319.812,113.358 320.297,112.17 320.797,110.947C323.15,110.138 323.15,110.138 325.502,109.771C326.667,108.018 326.667,108.018 327.855,106.242L330.207,106.242C330.49,105.48 330.772,104.713 331.062,103.937C332.25,101.102 333.521,98.455 334.944,95.726C344.613,76.906 350.235,55.851 349.059,34.444C347.495,30.092 347.495,30.092 345.531,26.21C344.977,24.669 344.435,23.128 343.907,21.576C342.273,17.082 339.943,13.295 337.273,9.342C336.111,7.39 336.111,7.39 336.111,5.037L333.758,5.037C333.37,3.873 332.982,2.708 332.582,1.509C332.97,0.732 333.358,-0.044 333.758,-0.844L333.771,-0.695Z" fill="#FFFFFF"/>
<path d="M151.452,38.121C152.059,38.946 152.664,39.768 153.287,40.615C155.605,43.356 157.663,45.308 160.415,47.531C163.921,50.437 165.191,52.624 166.744,56.941C167.658,57.818 168.567,58.694 169.52,59.6C181.87,72.421 183.282,91.946 183.517,108.767C183.555,110.096 183.555,110.096 183.593,111.46C183.631,117.906 182.3,122.823 179.7,128.634C178.806,130.774 178.806,130.775 177.889,132.951C177.296,134.315 176.701,135.679 176.089,137.091C173.678,142.655 173.678,142.655 171.384,148.277C170.385,150.735 169.255,152.994 167.996,155.323C166.114,158.981 164.891,162.533 163.809,166.497C162.48,171.249 160.821,174.437 157.339,178.036C156.563,176.872 155.787,175.707 154.987,174.507L150.282,174.507C149.894,171.79 149.506,169.073 149.106,166.274L145.577,166.274C145.678,165.63 145.778,164.992 145.883,164.321C147.776,152.088 149.459,139.973 149.941,127.622C150.178,121.764 150.178,121.764 151.458,119.2C151.59,115.766 151.651,112.354 151.656,108.908C151.66,107.865 151.664,106.826 151.668,105.744C151.674,103.521 151.676,101.298 151.676,99.075C151.679,95.746 151.7,92.429 151.722,89.1C151.756,78.643 151.533,68.28 150.417,57.929C150.325,57.059 150.234,56.188 150.139,55.294C149.631,51.095 148.994,47.59 146.752,43.967C148.304,42.026 149.857,40.086 151.457,38.086L151.452,38.121Z" fill="#E6E6E6"/>
<path d="M171.449,281.605C172.14,282.479 172.14,282.479 172.848,283.369C168.779,285.557 164.826,287.251 160.38,288.592C155.804,290.05 152.993,292.085 149.276,295.132C147.771,295.687 146.253,296.199 144.712,296.673C139.784,298.355 137.079,301.095 133.585,304.871C130.833,307.706 127.986,309.612 124.563,311.599L122.211,311.599C121.629,313.352 121.629,313.352 121.035,315.128C120.089,315.492 119.141,315.856 118.164,316.231C114.565,317.725 114.342,318.772 112.801,322.183C111.048,322.766 111.048,322.766 109.272,323.36L109.272,325.712C107.343,327.312 105.367,328.876 103.391,330.417C101.403,332.358 99.439,334.31 97.51,336.298C96.945,336.852 96.382,337.405 95.804,337.98C93.875,339.945 92.099,342.003 90.311,344.097C86.265,348.755 81.983,353.119 77.607,357.388C75.737,359.235 73.937,361.152 72.173,363.093C68.433,366.446 64.469,368.363 59.94,370.374C58.897,370.835 57.858,371.296 56.776,371.774C54.059,372.729 54.059,372.729 51.036,373.315C48.225,373.728 48.225,373.728 46.272,375.032C42.061,376.867 37.791,377.173 33.216,377.655C32.316,377.767 31.416,377.878 30.487,377.993C24.864,378.614 19.712,378.527 14.137,377.726C11.561,377.418 9.079,377.394 6.48,377.435C2.292,377.435 2.292,377.435 -0.06,376.259L-0.06,372.73C1.375,372.489 2.798,372.248 4.268,372C6.127,371.68 7.997,371.36 9.855,371.04C11.267,370.802 11.267,370.802 12.714,370.56C17.289,370.14 17.289,370.14 21.1,368.031C22.382,367.885 23.676,367.741 24.994,367.59C29.428,366.838 30.675,366.037 34.039,363.332C35.155,362.969 36.274,362.604 37.427,362.229C42.543,360.488 46.754,358.182 50.013,353.771C52.189,350.925 54.271,350.478 57.588,349.208C61.022,346.843 63.163,345.008 65.304,341.421C67.186,338.316 68.456,337.68 71.703,336.269C72.285,335.104 72.285,335.104 72.879,333.916L76.408,333.916C76.698,333.261 76.99,332.611 77.29,331.929C79.042,328.694 80.971,326.047 83.465,323.33L86.994,323.33C87.261,322.384 87.528,321.436 87.803,320.46C88.312,319.465 88.822,318.472 89.344,317.449C92.426,316.494 92.426,316.494 95.225,316.273C95.807,314.52 95.807,314.52 96.402,312.744C100.283,308.204 100.283,308.204 103.388,307.592C106.282,306.959 106.282,306.959 108.752,303.334C111.716,299.77 112.175,299.335 116.398,298.629C117.141,297.856 117.141,297.856 117.903,297.064C120.456,294.583 123.185,293.159 126.325,291.501C127.439,290.904 128.548,290.313 129.701,289.689C131.63,288.684 133.583,287.713 135.559,286.796C137.794,285.821 137.794,285.821 138.747,283.338C141.687,282.355 144.004,281.867 147.039,281.526C147.957,281.424 148.874,281.322 149.815,281.216C151.25,281.062 151.25,281.062 152.709,280.905C153.653,280.798 154.602,280.691 155.567,280.582C168.506,279.158 168.506,279.158 171.446,281.567L171.449,281.605Z" fill="#FFFFFF"/>
<path d="M290.25,208.677C291.803,209.066 293.355,209.454 294.955,209.854C295.181,215.653 295.391,221.452 295.587,227.262C295.655,229.238 295.729,231.203 295.807,233.179C295.917,236.013 296.012,238.848 296.104,241.683C296.142,242.565 296.18,243.447 296.219,244.353C296.348,248.846 296.34,250.717 293.784,254.563C293.588,257.139 293.588,257.139 293.784,259.856C294.012,264.149 293.955,264.89 291.432,268.678L291.432,271.689L291.432,274.559C290.655,275.335 289.879,276.112 289.079,276.912C288.328,279.064 288.328,279.064 287.832,281.476C287.557,282.675 287.557,282.675 287.276,283.887C287.005,285.087 287.005,285.087 286.729,286.322C284.377,296.673 279.307,306.436 274.967,316.081C274.467,317.212 273.966,318.339 273.449,319.515C268.591,330.278 268.591,330.278 264.38,334.571L262.028,334.571C261.955,335.396 261.882,336.218 261.807,337.065C260.513,341.664 258.172,343.981 254.973,347.51C253.032,346.734 251.091,345.958 249.091,345.158C250.82,341.441 252.926,338.253 255.337,334.936C261.854,325.632 266.182,317.057 269.335,306.118C270.434,302.33 271.605,298.872 273.216,295.261C275.345,290.074 276.404,284.957 277.463,279.499C277.855,277.512 278.249,275.512 278.651,273.524C278.819,272.652 278.987,271.783 279.161,270.878C279.67,268.69 279.67,268.69 280.843,266.337C280.88,262.126 280.763,257.939 280.655,253.751C280.843,249.881 280.843,249.881 283.196,246.353C283.206,242.942 283.09,239.672 282.829,236.284C282.772,235.365 282.715,234.449 282.657,233.496C282.409,228.591 282.409,228.591 280.845,224.004C280.762,221.604 280.746,219.205 280.772,216.805C280.783,215.512 280.793,214.229 280.804,212.9C280.818,211.909 280.831,210.912 280.845,209.901C281.622,210.677 282.398,211.453 283.198,212.253L285.55,211.077L285.55,214.606L287.903,214.606L287.903,211.077L291.432,211.077L290.255,208.725L290.25,208.677Z" fill="#FFFFFF"/>
<path d="M151.452,38.121C152.059,38.946 152.664,39.768 153.287,40.615C155.605,43.355 157.663,45.308 160.415,47.531C163.921,50.436 165.191,52.624 166.744,56.941C168.085,58.141 168.085,58.141 169.461,59.364C176.189,66.716 179.118,76.537 179.682,86.3L177.33,86.3L177.33,91.005C178.106,91.782 178.883,92.558 179.682,93.358C180,96.522 179.785,99.58 179.682,102.768C177.742,102.38 175.801,101.992 173.801,101.592L176.154,100.415L176.154,98.063L173.801,98.063L173.801,94.534C172.637,95.699 171.472,96.863 170.272,98.063C165.567,91.299 165.567,91.299 165.567,88.653C166.344,87.877 167.12,87.1 167.92,86.3L167.92,82.772L163.215,82.772C162.827,85.877 162.439,88.982 162.039,92.182L159.686,92.182C158.675,98.827 157.969,105.473 157.334,112.178L154.981,112.178L154.981,108.649L152.629,108.649C152.605,107.585 152.582,106.52 152.558,105.426C152.157,81.195 152.157,81.195 150.347,57.082C150.259,56.264 150.171,55.447 150.081,54.6C149.583,50.613 148.822,47.378 146.74,43.92C148.293,41.979 149.846,40.038 151.445,38.039L151.452,38.121Z" fill="#E6E6E6"/>
<path d="M145.571,166.333L149.1,166.333C149.488,168.273 149.876,170.214 150.276,172.214L152.629,171.038L152.629,174.566C153.793,174.178 154.958,173.79 156.157,173.39C157.127,180.895 157.475,188.211 157.334,195.739C155.781,196.127 154.228,196.515 152.629,196.915C152.004,211.853 152.004,211.853 155.275,226.204C156.282,228.98 156.945,231.603 157.334,234.531C155.793,236.884 155.793,236.884 153.805,239.236C152.967,241.177 152.17,243.13 151.452,245.118C148.876,245.118 148.876,245.118 145.571,243.941C140.878,238.613 139.078,233.355 138.514,226.298C138.125,225.521 137.737,224.745 137.337,223.945C137.055,219.887 137.12,215.817 137.116,211.712C137.102,210.584 137.087,209.454 137.073,208.289C137.07,207.2 137.068,206.113 137.066,204.996C137.061,204.001 137.056,203.008 137.051,201.985C137.36,198.985 138.298,197.15 139.686,194.515C139.674,193.482 139.662,192.445 139.649,191.387C139.699,186.094 141.131,181.494 142.625,176.448C142.905,175.471 143.186,174.496 143.475,173.484C144.164,171.085 144.863,168.697 145.569,166.297L145.571,166.333Z" fill="#FFFFFF"/>
<path d="M178.506,78.114C183.67,87.265 183.446,98.816 183.576,109.049C183.597,109.92 183.617,110.79 183.638,111.684C183.631,118.024 182.215,122.905 179.674,128.622C179.36,129.375 179.046,130.128 178.723,130.904C177.808,133.092 176.864,135.268 175.923,137.444C175.602,138.187 175.282,138.926 174.952,139.691C174.176,141.49 173.399,143.29 172.611,145.09C171.058,140.196 172.206,136.985 173.787,132.151C172.035,131.569 172.035,131.569 170.259,130.975C165.554,125.728 165.554,125.728 165.554,122.741C162.637,123.323 162.637,123.323 159.672,123.917L159.672,119.212C159.284,118.824 158.896,118.436 158.496,118.036C157.332,119.2 156.167,120.365 154.967,121.565C152.615,119.212 152.615,119.212 152.38,116.671C152.407,115.716 152.434,114.766 152.462,113.778C152.484,112.817 152.505,111.86 152.527,110.861C152.554,110.124 152.581,109.39 152.609,108.626L154.962,108.626L154.962,112.155C156.75,107.802 157.42,104.309 157.244,99.686C157.12,95.064 157.859,93.417 160.843,89.829C161.696,85.536 161.696,85.536 162.019,81.596L169.077,81.596L169.077,83.948L171.429,85.124L171.429,87.477C169.489,87.865 167.548,88.253 165.548,88.653C168.465,92.723 168.465,92.723 171.429,96.887C172.206,95.334 172.982,93.781 173.782,92.182C174.17,93.346 174.558,94.511 174.958,95.711C174.57,96.487 174.182,97.263 173.782,98.063L176.134,98.063L176.134,101.592C177.299,101.98 178.463,102.368 179.663,102.768C179.393,96.428 179.393,96.428 176.652,91.006C176.094,90.617 175.536,90.229 174.958,89.829C175.734,88.665 176.511,87.5 177.311,86.301L179.663,86.301C179.275,83.583 178.887,80.866 178.487,78.067L178.506,78.114Z" fill="#FFFFFF"/>
<path d="M276.135,151.041L284.369,151.041C285.615,154.77 285.524,155.605 284.516,159.204C284.3,159.991 284.085,160.781 283.863,161.592C283.642,162.383 283.421,163.168 283.192,163.992C282.796,165.556 282.402,167.132 282.016,168.697C282.938,168.866 283.863,169.037 284.816,169.212C287.897,169.873 287.897,169.873 290.25,171.047C290.617,174.94 290.617,174.94 290.25,179.281C287.38,181.339 287.38,181.339 284.369,182.809C283.98,183.974 283.592,185.138 283.192,186.338C277.452,184.28 277.452,184.28 276.135,181.633L274.959,181.633L274.959,185.162C275.735,185.938 276.511,186.715 277.311,187.514L271.43,187.514C271.042,186.738 270.654,185.962 270.254,185.162C269.089,184.386 267.925,183.609 266.725,182.809C267.901,179.281 267.901,179.281 269.077,178.104L265.549,178.104C265.161,178.881 264.772,179.657 264.372,180.457L259.667,180.457L258.978,173.223C258.737,172.147 258.737,172.147 258.491,171.047L256.139,169.871C257.691,167.93 259.244,165.989 260.844,163.989C262.008,164.378 263.173,164.766 264.372,165.166C265.678,163.778 265.678,163.778 267.019,162.366C270.254,159.284 270.254,159.284 272.9,158.108C275.312,157.046 275.312,157.046 275.841,153.85C275.938,152.928 276.035,152.003 276.135,151.051L276.135,151.041Z" fill="#FFFFFF"/>
<path d="M290.25,208.677C291.803,209.066 293.355,209.454 294.955,209.854L294.955,240.436C292.626,239.66 290.297,238.884 287.898,238.084L287.898,247.494L291.426,247.494C290.65,252.928 289.874,258.362 289.074,263.961C288.297,263.185 287.521,262.409 286.721,261.609C285.169,262.385 283.616,263.161 282.016,263.961C281.755,261.679 281.514,259.409 281.281,257.127C281.145,255.857 281.008,254.586 280.867,253.281C280.84,249.846 280.84,249.846 283.196,246.317C283.206,242.906 283.091,239.636 282.829,236.249C282.772,235.33 282.715,234.414 282.657,233.461C282.409,228.556 282.409,228.556 280.846,223.969C280.763,221.569 280.747,219.17 280.772,216.77C280.783,215.476 280.794,214.194 280.804,212.865C280.818,211.873 280.832,210.877 280.846,209.866C281.622,210.642 282.399,211.418 283.198,212.218L285.551,211.042L285.551,214.571L287.903,214.571L287.903,211.042L291.432,211.042C291.044,210.265 290.656,209.489 290.256,208.689L290.25,208.677Z" fill="#FFFFFF"/>
<path d="M353.768,73.409C355.379,74.53 356.944,75.702 358.473,76.937L360.825,76.937C360.437,79.266 360.049,81.595 359.649,83.995C358.484,84.383 357.32,84.771 356.12,85.171C355.732,84.007 355.344,82.842 354.944,81.642C352.474,86.406 350.157,91.076 348.333,96.11C346.71,100.451 346.71,100.451 344.358,103.979L342.005,103.979L342.005,106.332C340.064,108.32 338.112,110.272 336.124,112.213C335.736,112.989 335.348,113.766 334.948,114.566L330.243,114.566C330.267,113.643 330.291,112.719 330.316,111.766C330.462,108.696 330.462,108.696 329.069,106.332C330.622,103.097 332.257,99.98 333.998,96.851C334.984,95.04 335.962,93.229 336.95,91.417C337.422,90.543 337.894,89.665 338.385,88.771C340.62,84.524 342.526,80.184 344.372,75.714C345.537,76.491 346.701,77.267 347.901,78.067C348.677,76.902 349.454,75.738 350.254,74.538C351.418,74.15 352.583,73.762 353.782,73.362L353.768,73.409Z" fill="#FFFFFF"/>
<path d="M333.771,-0.695L338.476,0.481L338.476,2.834C341.193,5.927 342.758,7.398 346.71,8.715C350.204,12.103 351.627,14.843 352.45,19.525C353.491,25.347 356.167,29.464 359.484,34.345C360.825,37.004 360.825,37.004 360.449,39.697C360.186,40.36 359.924,41.027 359.654,41.709C359.265,40.932 358.877,40.156 358.477,39.356C357.701,40.521 356.925,41.685 356.125,42.885L356.125,39.356L353.772,40.533C353.578,41.697 353.384,42.862 353.184,44.061C352.99,45.226 352.796,46.39 352.596,47.59C351.432,48.172 351.432,48.172 350.244,48.766C350.24,48.051 350.237,47.331 350.234,46.602C349.609,32.369 344.047,19.195 336.119,7.55L336.119,5.198L333.767,5.198C333.379,4.033 332.991,2.869 332.591,1.669C332.979,0.893 333.367,0.117 333.767,-0.683L333.771,-0.695Z" fill="#FFFFFF"/>
<path d="M290.25,236.908C293.779,238.084 293.779,238.084 295.179,239.989C296.484,243.8 296.426,247.012 296.134,251.023C294.969,252.775 294.969,252.775 293.781,254.551C293.585,257.127 293.585,257.127 293.781,259.844C294.009,264.138 293.952,264.879 291.429,268.666L291.429,271.678L291.429,274.548C290.652,275.324 289.876,276.1 289.076,276.9C288.231,279.629 287.441,282.37 286.724,285.134L285.548,285.134C285.159,283.193 284.771,281.252 284.371,279.253C283.983,280.029 283.595,280.805 283.195,281.605L280.843,281.605C278.843,268.078 278.843,268.078 283.195,261.609L285.548,261.609C286.324,260.444 287.1,259.28 287.9,258.08L289.076,258.08L289.076,255.728L287.9,255.728C287.669,253.669 287.452,251.611 287.239,249.552C287.117,248.405 286.993,247.259 286.867,246.082C286.736,243.048 286.818,240.919 287.901,238.084L290.254,236.908L290.25,236.908Z" fill="#E6E6E6"/>
<path d="M151.452,38.121C152.059,38.946 152.664,39.768 153.287,40.615C155.699,43.462 157.698,45.191 160.639,47.378C162.803,49.143 162.803,49.143 164.391,51.048C164.318,55.612 164.318,55.612 163.215,59.282L165.567,60.458L162.039,60.458C161.262,59.682 160.486,58.906 159.686,58.106C157.24,59.329 157.24,59.329 154.981,61.635C154.025,65.869 154.025,65.869 153.805,69.868L151.452,69.868C151.31,68.398 151.168,66.916 151.021,65.399C150.822,63.458 150.623,61.517 150.423,59.576C150.331,58.606 150.238,57.635 150.143,56.636C150.045,55.696 149.946,54.754 149.844,53.789C149.715,52.495 149.715,52.495 149.583,51.178C149.054,48.461 148.089,46.402 146.749,43.991C148.301,42.05 149.854,40.109 151.454,38.11L151.452,38.121Z" fill="#FFFFFF"/>
<path d="M269.077,319.245L270.254,319.245C270.997,325.338 269.381,328.267 265.89,333.007C265.139,333.777 265.139,333.777 264.372,334.56L262.02,334.56C261.947,335.384 261.874,336.207 261.799,337.054C260.505,341.653 258.164,343.97 254.965,347.499C252.048,346.334 252.048,346.334 249.083,345.146C252.871,337.018 258.658,329.62 264.375,322.797C265.539,323.186 266.704,323.574 267.903,323.974C268.292,322.421 268.68,320.868 269.08,319.269L269.077,319.245Z" fill="#FFFFFF"/>
<path d="M277.311,301.601L279.664,302.778C278.732,307.447 276.782,311.67 274.888,315.952C274.556,316.716 274.226,317.481 273.883,318.269C273.07,320.139 272.249,322.021 271.437,323.891L269.084,321.539C268.696,322.315 268.308,323.091 267.908,323.891L264.379,323.891C265.744,316.281 268.049,309.659 271.437,302.719L273.789,303.895L273.789,306.247L276.142,306.247C276.53,304.695 276.918,303.142 277.318,301.542L277.311,301.601Z" fill="#FFFFFF"/>
<path d="M171.449,281.605C171.91,282.187 172.371,282.77 172.849,283.369C166.509,286.969 159.91,288.663 152.852,290.427L152.852,286.898C149.606,283.652 146.724,283.864 142.266,283.369L142.266,282.193C145.677,281.797 149.077,281.405 152.488,281.017C153.449,280.905 154.405,280.792 155.393,280.677C168.567,279.183 168.567,279.183 171.508,281.605L171.449,281.605Z" fill="#FFFFFF"/>
<path d="M287.898,243.965C288.286,245.518 288.674,247.07 289.074,248.67C289.85,248.282 290.627,247.894 291.426,247.494C290.65,252.928 289.874,258.362 289.074,263.961C288.298,263.185 287.521,262.409 286.721,261.609L282.016,263.961C280.134,251.14 280.134,251.14 282.972,246.082C285.548,244.024 285.548,244.024 287.9,244.024L287.898,243.965Z" fill="#FFFFFF"/>
<path d="M270.254,153.394L274.959,153.394C274.959,156.923 274.959,156.923 272.312,159.863C269.736,162.204 267.207,164.333 264.373,166.333C262.02,165.156 262.02,165.156 260.844,162.804C262.749,160.792 264.714,158.84 266.725,156.923L269.078,156.923C269.466,155.758 269.854,154.594 270.254,153.394Z" fill="#FFFFFF"/>
<path d="M179.683,107.52C180.071,112.566 180.459,117.612 180.859,122.811L178.506,122.811C178.118,123.588 177.73,124.364 177.33,125.164L177.33,121.635L174.978,120.459C174.545,111.649 174.545,111.649 176.671,108.696C178.506,107.52 178.506,107.52 179.683,107.52Z" fill="#E6E6E6"/>
<path d="M340.829,85.171C341.993,85.559 343.158,85.947 344.357,86.347C343.794,91.311 342.981,94.346 339.652,98.11C338.488,97.722 337.323,97.334 336.124,96.934C336.788,92.276 338.253,89.088 340.829,85.171Z" fill="#FFFFFF"/>
<path d="M290.25,163.98L291.426,163.98C291.498,164.86 291.569,165.744 291.643,166.65C291.741,167.809 291.84,168.967 291.941,170.155C292.037,171.302 292.132,172.449 292.231,173.625C292.506,176.825 292.506,176.825 293.306,179.471C293.779,181.624 293.779,181.624 292.602,185.153C292.556,187.893 292.551,190.646 292.602,193.386L291.426,193.386L291.426,186.329C290.262,185.941 289.097,185.552 287.897,185.153C288.063,182.506 288.236,179.859 288.413,177.213C288.508,175.742 288.603,174.26 288.702,172.743C288.987,169.638 289.36,166.944 290.255,163.98L290.25,163.98Z" fill="#FFFFFF"/>
<path d="M272.606,312.188C273.383,312.576 274.159,312.964 274.959,313.364C273.794,316.857 272.63,320.351 271.43,323.95C270.654,323.174 269.877,322.397 269.078,321.598C268.689,322.374 268.301,323.15 267.901,323.95L264.373,323.95C264.988,320.704 265.678,317.681 266.725,314.54C269.642,315.704 269.642,315.704 272.606,316.892L272.606,312.188Z" fill="#FFFFFF"/>
</svg>
