<svg width="216" height="214" viewBox="0 0 216 214" fill="none" xmlns="http://www.w3.org/2000/svg" xmlns:xlink="http://www.w3.org/1999/xlink">
<path d="M1.991,-0.206C19.047,-0.289 36.103,-0.351 53.158,-0.389C61.086,-0.407 69.038,-0.431 76.918,-0.472C84.576,-0.51 92.21,-0.532 99.855,-0.541C102.772,-0.547 105.678,-0.56 108.595,-0.579C137.413,-0.76 137.413,-0.76 150.116,3.326C151.434,3.6 151.434,3.6 152.775,3.881C153.789,4.19 153.789,4.19 154.821,4.502C155.21,5.279 155.598,6.055 155.998,6.855C158.009,7.838 158.009,7.838 160.409,8.619C161.257,8.923 162.102,9.226 162.973,9.538C163.775,9.817 164.573,10.096 165.408,10.384C169.536,11.854 171.818,13.124 174.818,16.265C175.982,16.653 177.147,17.041 178.346,17.441C179.075,18.387 179.805,19.335 180.558,20.311C182.781,23.534 182.781,23.534 186.145,24.358C187.533,25.013 187.533,25.013 188.945,25.675C189.804,28.392 190.591,31.145 191.297,33.909C192.461,34.297 193.626,34.685 194.826,35.085C198.872,40.766 201.624,47.436 204.342,53.905C205.456,56.528 205.456,56.528 207.4,59.692C209.318,64.256 209.53,68.349 209.752,73.219C209.924,76.218 209.924,76.218 211.258,78.418C213.598,83.37 213.482,89.016 213.928,94.415C214.05,95.638 214.17,96.85 214.296,98.108C214.398,99.285 214.502,100.473 214.608,101.684C214.704,102.757 214.8,103.825 214.898,104.931C214.798,108.401 213.792,110.706 212.452,113.894C212.488,116.082 212.488,116.082 212.526,118.305C212.762,134.184 208.374,147.358 200.764,161.12C199.046,164.273 197.505,167.495 195.952,170.742C194.458,173.471 192.411,175.341 190.153,177.447C189.279,179.011 189.279,179.011 188.389,180.611C186.283,183.857 185.507,183.692 181.919,184.504C181.575,185.217 181.231,185.927 180.876,186.668C179.359,189.621 177.83,190.868 175.159,192.82C174.389,193.392 173.619,193.963 172.83,194.549C169.702,196.572 166.467,198.172 163.103,199.796C161.127,200.838 161.127,200.838 159.104,201.902C157.045,202.97 157.045,202.97 154.94,204.066C152.881,205.144 152.881,205.144 150.788,206.242C146.518,208.076 143.001,208.77 138.437,209.206C137.391,209.314 136.343,209.424 135.261,209.536C133.355,209.708 131.438,209.88 129.521,210.052C126.721,210.314 126.721,210.314 124.251,210.98C119.323,211.802 114.465,211.742 109.431,211.748C108.299,211.754 107.172,211.76 106.008,211.766C102.279,211.784 98.55,211.792 94.81,211.798C92.21,211.804 89.623,211.812 87.023,211.818C81.589,211.83 76.154,211.838 70.673,211.842C63.698,211.848 56.676,211.876 49.736,211.91C44.384,211.932 39.032,211.938 33.621,211.94C31.045,211.944 28.481,211.952 25.905,211.968C22.317,211.988 18.73,211.986 15.142,211.978C14.075,211.99 13.013,212 11.908,212.012C10.931,212.004 9.955,211.998 8.955,211.992C7.685,211.994 7.685,211.994 6.391,211.996C3.474,211.424 2.427,210.362 0.627,208.032C0.19,204.88 0.19,204.88 0.2,201.116C0.201,199.764 0.202,198.411 0.203,197.023L0.26,192.741C0.256,191.33 0.253,189.918 0.249,188.459C0.314,177.92 0.314,177.92 2.978,173.874C6.389,173.294 9.623,172.891 13.046,172.627C16.387,172.353 19.645,171.992 22.974,171.524C24.903,167.654 24.315,163.361 24.303,159.173C24.305,158.132 24.307,157.091 24.309,156.021C24.314,152.574 24.311,149.116 24.307,145.67C24.308,143.282 24.309,140.883 24.31,138.495C24.312,133.484 24.31,128.461 24.304,123.439C24.297,117.005 24.301,110.618 24.308,104.148C24.313,99.208 24.311,94.268 24.308,89.327C24.307,86.951 24.308,84.575 24.311,82.199C24.314,78.882 24.31,75.565 24.303,72.26C24.305,71.271 24.308,70.284 24.31,69.261C24.418,64.403 24.418,64.403 22.969,59.851C22.872,58.227 22.843,56.616 22.854,54.993C22.858,54.045 22.862,53.099 22.866,52.123C22.876,51.132 22.886,50.147 22.896,49.123C22.901,48.125 22.906,47.124 22.912,46.1C22.926,43.63 22.947,41.16 22.969,38.69L5.325,38.69C4.743,36.937 4.743,36.937 4.149,35.161L1.797,35.161C0.585,31.538 0.468,29.033 0.468,25.234C0.466,23.987 0.464,22.74 0.463,21.458C0.467,20.152 0.472,18.858 0.477,17.517C0.472,16.212 0.468,14.918 0.463,13.577C0.464,12.33 0.466,11.083 0.468,9.801C0.469,8.659 0.47,7.519 0.472,6.343C0.623,3.402 0.623,3.402 1.801,-0.126L1.991,-0.206ZM24.34,38.61L24.34,59.783L25.516,59.783L25.516,38.61L24.34,38.61ZM79.624,40.963C77.33,69.31 76.977,97.54 76.907,125.888C76.898,128.781 76.882,131.663 76.865,134.557C76.838,139.168 76.831,143.767 76.838,148.436C76.838,150.166 76.833,151.895 76.821,153.624C76.806,156.012 76.816,158.388 76.828,160.775C76.827,162.128 76.826,163.469 76.825,164.857C76.97,165.9 77.116,166.939 77.265,168.021C81.406,170.785 83.158,170.679 88.063,170.691C89.522,170.694 90.98,170.697 92.486,170.7C94.015,170.691 95.544,170.682 97.12,170.673C99.344,170.686 99.344,170.686 101.614,170.7C116.199,170.958 116.199,170.958 130.197,168.03C131.867,165.113 131.867,165.113 132.549,162.149C133.431,162.24 134.313,162.331 135.219,162.424C138.501,162.452 138.501,162.452 140.677,160.26C141.342,159.429 142.006,158.601 142.688,157.743C143.359,156.924 144.029,156.108 144.723,155.261C145.683,154.014 145.683,154.014 146.664,152.744C147.303,151.937 147.946,151.132 148.593,150.297C150.652,147.368 151.475,144.381 152.545,140.981C152.93,140.304 153.316,139.628 153.712,138.923C155.324,135.312 155.665,131.889 156.147,127.96C156.422,125.796 156.422,125.796 156.703,123.584C156.886,121.938 157.068,120.279 157.25,118.632C157.375,117.65 157.499,116.668 157.627,115.657C158.554,107.47 158.178,99.895 157.103,91.779C156.947,90.544 156.789,89.32 156.628,88.05C155.322,78.687 152.923,70.877 149.018,62.172C148.861,61.364 148.705,60.561 148.545,59.726C146.392,52.809 137.3,47.846 131.254,44.552C126.573,42.4 122.467,41.329 117.257,40.953C115.751,40.734 114.245,40.516 112.693,40.292C107.282,39.703 101.883,39.65 96.461,39.631C95.608,39.625 94.755,39.62 93.873,39.614C88.991,39.628 84.428,40.096 79.64,40.955L79.624,40.963Z" fill="#FFFFFF"/>
<path d="M136.084,0.97C139.201,1.497 142.306,2.038 145.423,2.593C146.752,2.816 146.752,2.816 148.117,3.044C150.399,3.453 152.657,3.972 154.916,4.502C155.498,5.667 155.498,5.667 156.092,6.855C158.103,7.838 158.103,7.838 160.503,8.619C161.351,8.923 162.197,9.226 163.067,9.538C164.267,9.957 164.267,9.957 165.502,10.384C169.631,11.854 171.912,13.124 174.912,16.265C176.076,16.653 177.241,17.041 178.441,17.441C179.532,18.864 179.532,18.864 180.652,20.311C182.875,23.534 182.875,23.534 186.239,24.357C187.627,25.013 187.627,25.013 189.039,25.675C189.899,28.392 190.685,31.144 191.391,33.909C193.144,34.491 193.144,34.491 194.92,35.085C198.966,40.766 201.719,47.435 204.436,53.905C205.551,56.528 205.551,56.528 207.494,59.692C209.411,64.256 209.623,68.349 209.847,73.219C210.018,76.218 210.018,76.218 211.352,78.418C213.693,83.37 213.575,89.016 214.022,94.415C214.143,95.638 214.265,96.85 214.389,98.108C214.492,99.285 214.595,100.473 214.702,101.684C214.798,102.757 214.894,103.825 214.993,104.931C214.893,108.4 213.887,110.706 212.546,113.894C212.57,115.352 212.594,116.811 212.62,118.304C212.856,134.184 208.467,147.358 200.857,161.12C199.14,164.272 197.599,167.495 196.046,170.742C194.552,173.471 192.506,175.341 190.247,177.446C189.665,178.49 189.083,179.528 188.483,180.61C186.377,183.857 185.601,183.692 182.014,184.504C181.497,185.573 181.497,185.573 180.97,186.668C177.724,192.973 169.514,197.16 163.209,199.842L159.68,199.842L159.68,198.666C159.292,197.89 158.904,197.113 158.504,196.313L154.975,196.313C154.681,193.596 154.681,193.596 154.975,190.432C155.751,189.898 156.528,189.364 157.328,188.809C158.492,187.863 158.492,187.863 159.68,186.903C160.073,182.634 160.073,182.634 159.68,178.67C160.796,178.379 161.915,178.087 163.068,177.787C166.843,176.705 166.843,176.705 168.22,173.894C168.51,173.142 168.802,172.388 169.102,171.612C169.878,171.224 170.654,170.836 171.454,170.436L171.454,166.907L173.807,166.907L173.807,163.378C174.971,162.99 176.136,162.602 177.336,162.202C176.753,160.861 176.753,160.861 176.159,159.485C174.983,156.321 174.983,156.321 174.983,152.792L178.512,152.792C178.124,150.463 177.736,148.134 177.336,145.735C179.006,145.479 179.006,145.479 180.723,145.219C184.275,144.758 184.275,144.758 186.746,143.384L186.746,141.032C190.286,139.933 191.298,139.809 194.979,141.032C195.029,138.291 195.027,135.539 194.979,132.798L193.803,131.622C193.582,127.576 193.582,127.576 193.803,123.388C194.579,122.612 195.356,121.836 196.156,121.036C196.897,117.084 197.355,113.12 197.849,109.156C198.176,107.485 198.176,107.485 198.51,105.78C199.287,105.392 200.063,105.003 200.863,104.604C202.568,99.652 201.576,96.44 199.687,91.665L202.039,91.665C201.712,90.573 201.712,90.573 201.378,89.453C200.899,86.031 201.035,83.584 201.452,80.185C202.044,75.162 201.879,70.669 201.162,65.717C200.864,63.47 200.864,63.47 200.864,59.941C197.641,55.272 197.641,55.272 192.63,52.884L191.454,55.236L191.454,51.708L189.101,51.708L189.101,47.003C187.16,46.614 185.219,46.226 183.22,45.826C183.996,45.438 184.772,45.05 185.572,44.65C184.408,39.992 184.408,39.992 183.22,35.24L182.044,35.24C181.267,36.016 180.491,36.793 179.691,37.593C178.527,37.204 177.362,36.816 176.162,36.416L176.162,32.888L173.81,34.064L173.81,31.711C172.257,31.323 170.704,30.935 169.105,30.535C168.523,27.042 168.523,27.042 167.929,23.478C166.983,23.332 166.035,23.187 165.058,23.036C163.565,22.673 163.565,22.673 162.047,22.301L160.871,19.949C161.259,19.173 161.647,18.396 162.047,17.596C160.883,17.985 159.718,18.373 158.519,18.773C157.936,17.02 157.936,17.02 157.342,15.244C154.425,14.662 154.425,14.662 151.461,14.068L151.461,16.42L147.932,16.42L147.932,18.773C146.191,18.608 144.451,18.434 142.71,18.257C141.74,18.162 140.769,18.067 139.769,17.968C137.334,17.596 137.334,17.596 136.158,16.415C135.551,16.828 134.946,17.24 134.323,17.662C130.336,19.203 127.395,18.32 123.219,17.589L119.985,17.589C117.338,17.589 117.338,17.589 113.809,16.412L113.809,14.06C110.892,12.896 110.892,12.896 107.928,11.707L107.928,10.531C110.257,10.143 112.586,9.755 114.985,9.355C114.209,8.967 113.433,8.579 112.633,8.179L112.633,5.826L119.69,5.826L119.69,3.474L136.158,3.474L136.158,1.121L136.084,0.97Z" fill="#E6E6E6"/>
<path d="M69.038,26.848C70.743,26.884 70.743,26.884 72.496,26.921C72.884,28.086 73.272,29.25 73.672,30.45L71.319,31.626C70.543,31.238 69.767,30.85 68.967,30.45L68.967,32.802L73.672,32.802L73.672,35.155C75.636,35.118 75.636,35.118 77.648,35.081C81.906,35.155 81.906,35.155 84.258,36.328L84.258,38.681L86.611,38.681L86.611,41.033L79.553,41.033C79.567,42.503 79.581,43.962 79.595,45.479C79.606,47.503 79.616,49.526 79.627,51.549C79.637,52.503 79.647,53.454 79.657,54.442C79.678,60.065 79.509,65.652 79.131,71.263C78.383,82.449 78.222,93.612 78.263,104.786C78.265,106.633 78.267,108.479 78.268,110.314C78.272,115.09 78.284,119.865 78.297,124.665C78.309,129.57 78.314,134.474 78.32,139.368C78.333,148.942 78.353,158.541 78.378,168.068C81.624,169.691 84.259,169.397 87.882,169.397C89.34,169.399 90.811,169.4 92.316,169.402C93.857,169.397 95.398,169.393 96.974,169.388C99.209,169.395 99.209,169.395 101.479,169.402C111.077,169.392 120.534,168.953 130.18,168.061C130.521,167.113 130.862,166.167 131.212,165.191C132.53,162.18 132.53,162.18 134.824,161.098C137.2,160.677 139.576,160.255 141.94,159.839C140.911,164.791 138.858,168.426 134.882,171.602C132.271,172.523 129.777,173.001 127.049,173.436C124.261,173.959 121.979,174.824 119.379,175.93C115.18,177.612 112.263,177.518 107.84,176.297C107.865,177.626 107.889,178.967 107.914,180.343C107.84,184.531 107.84,184.531 106.667,185.707C104.985,185.823 103.291,185.86 101.597,185.854C100.221,185.859 100.221,185.859 98.821,185.863C96.093,185.707 96.093,185.707 93.587,185.078C90.635,184.348 88.4,184.98 85.495,185.707L85.495,183.354C81.825,184.114 81.825,184.114 80.79,186.883L73.732,186.883L73.732,184.531C71.391,182.954 69.039,181.378 66.674,179.826C63.804,175.521 63.522,171.686 63.005,166.652C62.852,165.358 62.852,165.358 62.696,164.052C60.956,148.408 60.956,148.408 64.331,143.35C64.72,144.126 65.108,144.903 65.508,145.703L65.508,136.293C64.343,136.875 64.343,136.875 63.155,137.469C60.579,131.211 60.45,125.706 60.509,119.002C60.499,117.997 60.49,116.99 60.481,115.955C60.484,114.991 60.487,114.026 60.49,113.026C60.493,112.154 60.496,111.286 60.498,110.38C60.803,108.039 60.803,108.039 63.157,104.51C63.247,102.017 63.247,102.017 62.831,99.3C62.711,98.275 62.591,97.253 62.467,96.194C62.331,95.106 62.194,94.018 62.054,92.901C61.099,84.385 60.749,76.551 61.724,67.964C62.089,63.071 61.52,58.378 60.873,53.496C60.795,49.932 61.638,47.674 63.155,44.486L64.332,44.486L64.332,38.605C63.167,38.217 62.003,37.829 60.803,37.429C60.415,36.264 60.027,35.1 59.627,33.9C58.462,33.124 57.298,32.347 56.098,31.548C57.427,30.99 58.768,30.431 60.144,29.854C67.084,26.807 67.084,26.807 69.107,26.772L69.038,26.848Z" fill="#FFFFFF"/>
<path d="M136.084,0.97C139.201,1.497 142.306,2.038 145.423,2.593C146.752,2.816 146.752,2.816 148.117,3.044C150.399,3.453 152.657,3.972 154.915,4.502C155.498,5.667 155.498,5.667 156.092,6.855C158.103,7.838 158.103,7.838 160.503,8.619C161.351,8.923 162.196,9.226 163.067,9.538C164.267,9.957 164.267,9.957 165.502,10.384C169.63,11.854 171.912,13.124 174.912,16.265C176.076,16.653 177.241,17.041 178.44,17.441C179.532,18.864 179.532,18.864 180.652,20.311C182.875,23.534 182.875,23.534 186.239,24.357C187.627,25.013 187.627,25.013 189.038,25.675C189.898,28.392 190.685,31.144 191.391,33.909C193.144,34.491 193.144,34.491 194.92,35.085C196.508,37.473 196.508,37.473 198.001,40.378C199.672,43.848 199.672,43.848 201.977,46.847C202.25,48.623 202.462,50.423 202.638,52.211C202.737,53.183 202.836,54.152 202.937,55.152C203.008,55.902 203.079,56.657 203.153,57.422C201.989,58.198 200.824,58.974 199.625,59.774C199.115,58.829 198.606,57.881 198.084,56.904C196.331,53.564 196.331,53.564 192.567,52.717L191.391,55.069L191.391,51.541L189.038,51.541L189.038,46.836C187.098,46.447 185.157,46.059 183.157,45.659C183.933,45.271 184.71,44.883 185.51,44.483C184.345,39.825 184.345,39.825 183.157,35.073L181.981,35.073C181.205,35.849 180.428,36.626 179.628,37.426C178.464,37.037 177.299,36.649 176.1,36.249L176.1,32.721L173.747,33.897L173.747,31.544C172.195,31.156 170.642,30.768 169.042,30.368C168.46,26.875 168.46,26.875 167.866,23.311C166.92,23.165 165.972,23.02 164.996,22.87C163.502,22.506 163.502,22.506 161.985,22.134L160.808,19.782C161.197,19.005 161.585,18.229 161.985,17.429C160.82,17.817 159.656,18.206 158.456,18.606C157.874,16.853 157.874,16.853 157.28,15.077C154.363,14.495 154.363,14.495 151.398,13.901L151.398,16.253L147.87,16.253L147.87,18.606C146.129,18.441 144.388,18.267 142.647,18.09C141.678,17.995 140.706,17.9 139.706,17.801C137.272,17.429 137.272,17.429 136.095,16.248C135.488,16.661 134.884,17.073 134.26,17.495C130.273,19.036 127.332,18.153 123.157,17.422L119.922,17.422C117.275,17.422 117.275,17.422 113.747,16.245L113.747,13.893C110.83,12.728 110.83,12.728 107.865,11.54L107.865,10.364C110.194,9.976 112.523,9.588 114.923,9.188C114.147,8.8 113.37,8.412 112.57,8.012L112.57,5.659L119.628,5.659L119.628,3.307L136.095,3.307L136.095,0.954L136.084,0.97Z" fill="#FFFFFF"/>
<path d="M1.991,-0.206L134.907,-0.206L134.907,0.97C112.559,2.593 90.21,2.287 67.744,2.229C62.439,2.216 57.122,2.211 51.864,2.205C41.513,2.193 31.162,2.173 20.811,2.148C24.305,3.9 24.305,3.9 27.869,5.677C27.48,6.453 27.092,7.229 26.692,8.029C27.742,10.523 27.742,10.523 29.045,12.734C24.728,14.122 20.611,13.993 16.106,13.91L16.106,16.263C14.942,16.845 14.942,16.845 13.754,17.439L16.106,17.439C16.494,18.604 16.883,19.768 17.282,20.968C19.659,21.83 19.659,21.83 21.987,22.144L21.987,26.849C20.047,27.626 18.106,28.402 16.106,29.202C16.494,29.978 16.883,30.754 17.282,31.554C21.364,30.972 21.364,30.972 25.516,30.378C25.904,33.095 26.292,35.812 26.692,38.612L24.34,38.612L24.34,59.784L23.164,59.784L23.164,38.612L5.52,38.612C4.938,36.859 4.938,36.859 4.344,35.083L1.991,35.083C0.78,31.46 0.662,28.955 0.662,25.155C0.661,23.909 0.659,22.662 0.657,21.38C0.662,20.074 0.667,18.78 0.671,17.439C0.667,16.133 0.662,14.84 0.657,13.499C0.659,12.252 0.661,11.005 0.662,9.723C0.663,8.581 0.665,7.441 0.666,6.265C0.818,3.324 0.818,3.324 1.995,-0.205L1.991,-0.206Z" fill="#FFFFFF"/>
<path d="M25.516,172.703L25.516,177.407L23.164,177.407C23.276,178.287 23.388,179.172 23.504,180.078C23.634,181.236 23.765,182.395 23.899,183.583C24.103,185.3 24.103,185.3 24.313,187.053C24.342,190.499 23.789,192.158 21.984,195.051L17.279,195.051L17.279,200.933C20.196,202.097 20.196,202.097 23.16,203.285C21.996,203.673 20.831,204.061 19.631,204.461L19.631,206.814C27.277,207.896 34.805,208.343 42.568,208.649C43.756,208.7 44.956,208.75 46.179,208.803C49.096,208.926 52.002,209.046 54.919,209.164C54.531,209.94 54.142,210.717 53.743,211.516C46.767,211.604 39.745,211.668 32.805,211.711C30.429,211.728 28.065,211.752 25.689,211.783C22.278,211.826 18.879,211.846 15.467,211.861C14.405,211.88 13.338,211.898 12.245,211.916C10.762,211.917 10.762,211.917 9.245,211.917C8.376,211.925 7.504,211.933 6.61,211.941C3.634,211.392 2.599,210.365 0.776,207.989C0.339,204.837 0.339,204.837 0.349,201.073C0.35,199.72 0.351,198.367 0.351,196.979C0.37,195.568 0.389,194.156 0.409,192.698C0.405,191.286 0.401,189.875 0.397,188.416C0.462,177.877 0.462,177.877 3.126,173.831C6.149,173.228 6.149,173.228 9.819,173.021C11.078,172.945 12.336,172.87 13.642,172.792C17.606,172.64 21.523,172.564 25.522,172.654L25.516,172.703Z" fill="#FFFFFF"/>
<path d="M45.512,53.901C49.582,57.042 50.206,60.818 51.394,65.664C51.612,66.537 51.83,67.416 52.055,68.31L52.57,70.369C53.483,73.98 53.483,73.98 56.099,76.25C54.04,80.814 54.04,80.814 51.394,82.131C50.481,86.366 50.1,89.695 50.878,94.012C51.504,98.211 50.711,100.657 49.044,104.527C48.267,105.304 47.491,106.08 46.691,106.88L46.691,104.527L39.634,104.527C39.512,103.269 39.391,102.01 39.267,100.704C38.84,96.411 38.84,96.411 36.691,94.094C34.456,90.93 34.35,88.671 34.115,84.825C34.037,83.666 33.96,82.508 33.88,81.32C33.836,80.44 33.792,79.555 33.748,78.65L41.981,78.65C43.346,75.18 43.346,75.18 43.158,71.592C43.182,70.476 43.206,69.357 43.231,68.205C43.164,64.84 42.749,61.912 41.984,58.653C43.149,58.265 44.313,57.877 45.513,57.477L45.513,53.948L45.512,53.901Z" fill="#E6E6E6"/>
<path d="M26.692,113.89C29.845,118.501 29.21,123.406 29.045,128.711C28.932,135.557 29.139,141.65 30.797,148.354C32.185,155.553 32.233,162.94 32.574,170.35C30.445,171.085 30.445,171.085 27.869,171.526C26.704,170.75 25.54,169.974 24.34,169.174C23.915,166.833 23.915,166.833 23.939,163.939C23.939,162.856 23.939,161.775 23.94,160.658C23.967,158.905 23.967,158.905 23.995,157.105C24,155.906 24.005,154.706 24.01,153.471C24.03,149.636 24.074,145.802 24.119,141.967C24.136,139.368 24.153,136.78 24.167,134.18C24.206,127.805 24.265,121.477 24.339,115.008C25.115,114.619 25.891,114.231 26.691,113.831L26.692,113.89Z" fill="#E6E6E6"/>
<path d="M25.516,40.963C27.845,42.527 27.845,42.527 30.221,44.491C30.515,47.655 30.515,47.655 30.221,50.373L27.869,50.373C27.481,55.031 27.093,59.688 26.693,64.488L29.045,64.488C30.727,69.546 30.48,74.403 30.515,79.661C30.54,80.728 30.564,81.79 30.589,82.896C30.595,83.926 30.601,84.954 30.607,86.013C30.618,86.952 30.629,87.895 30.641,88.86C30.124,92.106 28.817,93.741 26.688,96.199C25.912,95.811 25.136,95.423 24.336,95.023C24.094,56.795 24.094,56.795 25.512,40.916L25.516,40.963Z" fill="#E6E6E6"/>
<path d="M151.375,68.016C151.763,68.793 152.151,69.569 152.551,70.369L156.08,70.369C158.327,74.144 158.691,76.885 158.574,81.249C158.552,82.298 158.531,83.343 158.509,84.425C158.468,85.613 158.468,85.613 158.427,86.836L160.779,86.836C162.367,90.024 162.038,92.729 161.955,96.246C159.603,96.246 159.603,96.246 157.815,95.058C155.215,91.553 154.839,87.671 154.169,83.449C153.884,81.79 153.599,80.12 153.313,78.461C153.062,76.956 152.81,75.45 152.551,73.897C152.169,71.933 151.782,69.969 151.375,68.016Z" fill="#E6E6E6"/>
<path d="M79.624,169.174C82.976,169.341 86.34,169.512 89.692,169.689C90.633,169.735 91.574,169.781 92.539,169.829C98.103,170.124 103.525,170.649 109.006,171.523C105.419,173.922 104.701,174.169 100.667,174.146C99.744,174.143 98.82,174.141 97.867,174.139C96.909,174.124 95.95,174.11 94.962,174.095C94.008,174.094 93.056,174.094 92.068,174.093C87.693,174.06 83.835,173.893 79.6,172.693L79.6,169.164L79.624,169.174Z" fill="#FFFFFF"/>
<path d="M131.379,176.231C132.543,176.619 133.708,177.008 134.907,177.407C134.466,179.689 134.466,179.689 133.731,182.112C130.802,183.583 129.72,183.026 126.674,182.112C126.286,182.889 125.897,183.665 125.497,184.465C123.557,184.077 121.616,183.689 119.616,183.289C121.969,179.76 121.969,179.76 124.262,179.16C125.108,179.092 125.956,179.024 126.827,178.953C129.085,178.771 129.085,178.771 131.39,178.586L131.39,176.234L131.379,176.231Z" fill="#E6E6E6"/>
<path d="M3.167,173.879C5.92,174.216 8.661,174.607 11.401,175.055C5.814,180.795 5.814,180.795 3.167,182.113C2.391,181.724 1.615,181.336 0.815,180.936C1.844,175.196 1.844,175.196 3.167,173.879Z" fill="#FFFFFF"/>
<path d="M212.54,95.07L213.716,95.07C213.977,97.152 214.219,99.234 214.451,101.316C214.588,102.476 214.724,103.633 214.866,104.833C214.893,108.009 214.893,108.009 212.537,111.538C211.369,108.032 211.207,105.633 211.219,101.986C211.216,100.941 211.213,99.893 211.21,98.811C211.366,96.246 211.367,96.246 212.54,95.07Z" fill="#FFFFFF"/>
</svg>
