<svg width="212" height="224" viewBox="0 0 212 224" fill="none" xmlns="http://www.w3.org/2000/svg" xmlns:xlink="http://www.w3.org/1999/xlink">
<path d="M148.125,5.794L150.477,8.146C152.548,9.068 152.548,9.068 154.888,9.84C159.076,11.334 162.993,13.134 166.886,15.204L166.886,17.556C167.541,17.629 168.192,17.702 168.874,17.777C175.202,20 179.507,26.882 183.812,31.892C185.765,34.163 185.765,34.163 188.306,36.409C190.882,39.256 192.258,42.185 193.881,45.643C195.563,49.019 197.598,52.136 199.68,55.288C204.408,63.345 206.444,73.285 207.644,82.459C207.728,85.647 207.728,85.647 209.266,86.941C209.516,89.987 209.71,93.01 209.854,96.057C210.166,102.679 210.166,102.679 211.136,109.231C211.294,110.025 211.452,110.819 211.614,111.642L210.438,112.818C210.268,114.512 210.17,116.218 210.108,117.911C210.064,118.948 210.02,119.982 209.974,121.052C209.934,122.142 209.892,123.228 209.852,124.357C209.77,126.498 209.684,128.639 209.594,130.78C209.558,131.734 209.522,132.685 209.486,133.673C209.27,136.261 208.77,138.555 208.086,141.048C207.866,142.436 207.866,142.436 207.644,143.848C206.91,146.93 206.91,146.93 205.152,150.317C203.186,153.881 203.186,153.881 203.01,157.728C202.024,163.279 199.87,167.255 197.07,172.078C196.6,172.928 196.13,173.783 195.647,174.654C192.083,180.888 192.083,180.888 188.107,182.217C187.719,183.382 187.331,184.546 186.931,185.746C186.543,186.91 186.155,188.075 185.755,189.275C184.59,189.663 183.426,190.051 182.226,190.451C181.424,192.015 180.638,193.58 179.873,195.156C177.709,197.414 177.709,197.414 175.239,199.567C174.427,200.289 173.616,201.014 172.781,201.754C170.463,203.39 170.463,203.39 166.935,203.39L166.935,205.742C144.351,218.916 144.351,218.916 132.941,218.564C129.212,218.428 129.212,218.428 125.731,220.41C119.485,223.326 112.674,222.716 105.97,222.644C104.64,222.658 103.3,222.672 101.935,222.686C94.783,222.662 88.761,222.134 82.174,219.428C79.751,218.452 79.751,218.452 75.963,218.752C66.165,218.58 56.791,212.566 48.204,208.096C47.238,207.596 46.275,207.094 45.275,206.578C40.547,204.062 36.3,201.78 32.924,197.51L32.924,195.157C32.221,194.848 31.513,194.539 30.795,194.22C19.162,187.821 10.682,169.636 7.035,157.521C6.474,156.286 5.913,155.039 5.33,153.769C-0.399,140.477 -0.352,125.303 -0.399,111.071C-0.408,108.989 -0.408,108.989 -0.418,106.86C-0.352,98.767 0.369,91.333 2.323,83.452C2.519,82.625 2.716,81.794 2.919,80.947C3.477,78.665 4.075,76.395 4.672,74.113C5.254,71.878 5.254,71.878 5.848,69.596C7.024,65.809 7.024,65.809 9.377,62.28C9.692,60.798 10.007,59.316 10.332,57.798C11.163,54.164 12.178,51.964 14.672,49.2C17.777,46.083 17.777,46.083 18.648,42.436C20.847,36.32 25.541,31.933 30.163,27.498C31.881,25.887 31.881,25.887 32.916,23.511C34.044,23.255 34.044,23.255 35.198,22.995C38.068,22.497 38.068,22.497 39.973,18.808C41.538,18.382 43.102,17.988 44.678,17.632C45.066,16.855 45.455,16.079 45.855,15.279C48.866,14.544 48.866,14.544 51.736,14.103C52.124,12.938 52.512,11.774 52.912,10.574C55.641,9.731 58.382,8.951 61.146,8.222C61.922,7.445 62.698,6.669 63.498,5.869C66.545,5.141 69.521,4.54 72.614,4.034C73.522,3.883 74.426,3.732 75.367,3.576C98.774,-0.188 125.24,-0.788 148.176,5.869L148.125,5.794ZM76.374,56.372C75.379,57.051 74.386,57.725 73.363,58.431C70.093,61.442 68.705,64.218 66.952,68.253C65.785,70.487 65.785,70.487 64,72.181C54.166,82.532 55.919,111.233 56.225,124.76C56.848,138.875 62.541,152.99 70.457,164.634C73.704,167.163 73.704,167.163 76.997,167.434C77.943,167.676 78.891,167.92 79.867,168.169C81.114,170.451 81.114,170.451 82.22,172.874C87.995,176.744 95.394,175.885 102.098,175.991C103.733,176.024 105.38,176.08 107.015,176.161C118.895,176.737 125.835,174.82 134.775,167.162C135.688,166.332 136.598,165.504 137.55,164.645C138.715,163.869 139.879,163.092 141.079,162.293C142.314,159.964 143.491,157.623 144.608,155.235C144.996,154.847 145.384,154.459 145.784,154.059L145.784,150.083C145.784,145.825 145.784,145.825 146.96,142.296C148.125,141.908 149.289,141.52 150.489,141.12C153.171,132.557 153.159,124.182 153.065,115.36C153.064,114.043 153.064,112.737 153.063,111.384C152.974,94.564 152.109,73.744 141.065,59.982C137.089,57.559 135.231,57.63 130.479,57.63C129.897,54.713 129.897,54.713 129.303,51.749C110.836,44.468 92.368,42.727 76.371,56.454L76.374,56.372ZM154.006,106.951L154.006,116.361L155.182,116.361L155.182,106.951L154.006,106.951Z" fill="#FFFFFF"/>
<path d="M148.125,5.794L150.478,8.146C152.548,9.068 152.548,9.068 154.889,9.84C159.076,11.334 162.993,13.134 166.886,15.204L166.886,17.556C167.542,17.629 168.192,17.702 168.874,17.777C175.202,20.001 179.508,26.882 183.813,31.892C185.765,34.163 185.765,34.163 188.306,36.409C190.882,39.256 192.258,42.185 193.881,45.643C195.563,49.019 197.598,52.136 199.68,55.288C204.409,63.345 206.444,73.285 207.643,82.459C207.728,85.647 207.728,85.647 209.267,86.941C209.517,89.987 209.71,93.01 209.855,96.057C210.166,102.679 210.166,102.679 211.137,109.231C211.294,110.025 211.452,110.819 211.614,111.642L210.438,112.818C210.268,114.512 210.171,116.218 210.108,117.912C210.064,118.948 210.02,119.982 209.975,121.052C209.934,122.143 209.893,123.228 209.851,124.357C209.77,126.498 209.684,128.639 209.594,130.78C209.558,131.734 209.522,132.685 209.486,133.673C209.27,136.261 208.769,138.555 208.086,141.048C207.867,142.436 207.867,142.436 207.645,143.848C206.91,146.93 206.91,146.93 205.151,150.317C203.187,153.881 203.187,153.881 203.01,157.728C202.025,163.28 199.87,167.255 197.07,172.078C196.6,172.928 196.131,173.783 195.647,174.654C192.083,180.888 192.083,180.888 188.107,182.217C187.719,183.382 187.331,184.546 186.931,185.746C186.543,186.91 186.155,188.075 185.755,189.275C184.59,189.663 183.426,190.051 182.226,190.451C181.424,192.015 180.638,193.58 179.874,195.156C177.709,197.414 177.709,197.414 175.239,199.567C174.428,200.289 173.616,201.013 172.781,201.755C170.464,203.389 170.464,203.389 166.935,203.389L166.935,205.743C164.665,206.953 162.383,208.153 160.101,209.341C158.195,210.345 158.195,210.345 156.254,211.365C152.82,212.787 152.82,212.787 149.291,211.617C150.067,210.841 150.844,210.065 151.644,209.265C151.086,208.791 150.527,208.315 149.95,207.829C147.174,204.677 147.044,201.773 146.703,197.691C146.937,195.15 146.937,195.15 149.515,192.292C150.606,191.685 151.702,191.08 152.82,190.457C154.055,189.729 154.055,189.729 155.313,188.986C157.525,188.104 157.525,188.104 161.054,188.104C161.442,187.328 161.83,186.552 162.23,185.752L169.287,185.752C168.899,183.423 168.511,181.094 168.111,178.694C169.227,178.621 170.346,178.548 171.499,178.473C173.322,178 173.322,178 175.169,177.518C176.792,174.93 176.792,174.93 177.521,171.637C177.957,170.355 178.395,169.061 178.838,167.743C179.178,166.7 179.517,165.661 179.868,164.579L182.22,164.579C183.549,158.675 183.136,154.017 182.22,148.112C184.961,146.689 187.513,145.559 190.454,144.583C190.413,143.633 190.372,142.678 190.33,141.701C190.299,140.443 190.267,139.184 190.234,137.89C190.193,136.643 190.152,135.408 190.11,134.126C190.501,129.974 191.84,128.092 193.98,124.587C194.655,120.929 194.655,120.929 194.79,117.082C194.865,115.741 194.941,114.4 195.019,113.024C195.167,109.025 195.244,105.061 195.157,101.027L195.157,97.498C193.604,96.721 192.051,95.945 190.452,95.145C190.401,93.181 190.404,91.228 190.452,89.264L191.628,88.088C191.373,86.664 191.373,86.664 191.113,85.218C190.268,79.866 190.355,74.667 190.452,69.221C189.287,68.833 188.123,68.444 186.923,68.044L188.099,66.868C186.935,66.092 185.77,65.316 184.57,64.516C184.533,62.151 184.504,59.787 184.676,57.423C184.753,54.718 184.753,54.718 182.218,51.577C181.053,51.189 179.889,50.801 178.689,50.401C177.489,47.66 176.325,44.919 175.16,42.167C173.996,41.391 172.831,40.614 171.631,39.814C169.279,37.462 169.279,37.462 169.044,34.662C169.071,33.598 169.098,32.533 169.126,31.44C169.147,30.369 169.169,29.299 169.191,28.193C169.218,27.371 169.245,26.546 169.273,25.699L163.392,25.699C163.004,26.476 162.616,27.252 162.216,28.052L157.511,28.052L157.511,30.404C158.287,30.793 159.063,31.181 159.863,31.581L153.982,31.581C155.147,30.998 155.147,30.998 156.335,30.404L156.335,28.052L152.806,28.052L152.806,31.581L150.453,31.581C149.136,27.17 149.136,27.17 150.453,24.523C148.512,24.135 146.572,23.747 144.572,23.347L146.925,28.052C145.525,29.887 145.525,29.887 143.396,31.581C138.103,31.278 132.998,28.781 128.105,26.876C128.687,25.123 128.687,25.123 129.281,23.347L124.576,23.347C123.411,25.1 123.411,25.1 122.223,26.876C120.671,26.099 119.118,25.323 117.518,24.523C118.683,22.771 118.683,22.771 119.871,20.994C118.012,19.136 115.895,19.407 113.331,19.159C112.359,19.061 111.39,18.962 110.39,18.861C109.64,18.789 108.885,18.718 108.12,18.644C107.732,19.809 107.344,20.973 106.944,22.173C104.227,22.1 104.227,22.1 101.063,20.997C98.934,16.809 98.934,16.809 97.534,12.763C98.31,11.987 99.086,11.21 99.886,10.411L64.599,10.411C63.822,12.351 63.046,14.292 62.246,16.292C63.411,15.904 64.575,15.515 65.775,15.116C67.14,17.856 67.151,19.574 67.175,22.62C67.192,23.527 67.208,24.431 67.225,25.372C66.929,28.325 66.074,30.219 64.602,32.771L58.721,32.771L58.721,29.242C56.004,30.019 53.287,30.795 50.487,31.595L50.487,33.947C49.064,34.347 49.064,34.347 47.617,34.757C46.622,35.266 45.629,35.775 44.606,36.297C44.194,38.25 43.804,40.214 43.43,42.179C40.83,45.19 38.948,46.731 34.925,47.178C32.255,47.182 29.621,47.068 26.962,46.888L23.434,46.888L19.905,46.888C18.801,43.877 18.801,43.877 18.729,39.831C21.105,36.69 24.045,34.232 26.962,31.597C30.256,27.704 30.256,27.704 32.844,23.363C33.595,23.194 34.349,23.023 35.125,22.848C37.995,22.349 37.995,22.349 39.901,18.661C41.466,18.235 43.03,17.841 44.606,17.485C44.994,16.708 45.382,15.932 45.782,15.132C48.794,14.397 48.794,14.397 51.664,13.956C52.052,12.791 52.44,11.627 52.84,10.427C55.569,9.584 58.309,8.804 61.074,8.075C61.85,7.298 62.626,6.522 63.426,5.722C66.473,4.994 69.448,4.393 72.542,3.887C73.45,3.735 74.353,3.585 75.294,3.428C98.702,-0.336 125.167,-0.936 148.104,5.722L148.125,5.794ZM178.708,51.668L181.06,52.844L178.708,54.02L178.708,51.668Z" fill="#FFFFFF"/>
<path d="M79.902,34.024L79.902,36.376C80.558,36.349 81.208,36.322 81.89,36.294C88.348,36.141 93.77,36.78 99.887,38.728C100.663,39.505 101.44,40.281 102.239,41.081C105.674,43.375 107.685,43.963 111.649,44.61C112.038,43.445 112.426,42.281 112.826,41.081L123.412,41.081C123.024,41.857 122.636,42.634 122.236,43.433L129.293,43.433C129.681,42.269 130.069,41.104 130.469,39.905C132.022,40.681 133.575,41.457 135.174,42.257L135.174,44.61L137.527,45.786C137.139,48.115 136.751,50.444 136.351,52.843L142.232,52.843L142.232,58.725C137.597,60.265 135.033,59.01 130.469,57.548L130.469,54.02C119.577,48.574 106.474,44.88 94.476,48.08C93.1,48.583 91.712,49.086 90.3,49.609C88.912,50.1 87.524,50.591 86.101,51.103C76.644,55.349 70.457,62.7 65.752,71.687L63.4,71.687C56.142,100.505 53.625,129.441 67.07,156.494C68.106,158.694 68.106,158.694 69.246,162.14C70.256,164.787 70.256,164.787 72.963,165.752C73.907,165.968 74.856,166.186 75.821,166.409C78.691,167.075 78.691,167.075 81.043,168.103C81.957,170.561 81.957,170.561 82.22,172.808C88.724,174.807 95.629,174.337 102.451,174.396C104.133,174.415 105.815,174.447 107.497,174.492C118.66,175.112 118.66,175.112 128.67,171.011C129.647,170.05 130.622,169.093 131.634,168.093C132.41,168.482 133.187,168.87 133.986,169.27L133.986,175.151C131.657,175.927 129.328,176.704 126.929,177.503C128.893,181.291 128.893,181.291 132.363,181.844C133.285,181.965 134.21,182.086 135.163,182.211C134.774,183.375 134.386,184.54 133.986,185.74L130.458,185.74C130.862,188.645 130.862,188.645 131.634,191.621C132.41,192.009 133.187,192.397 133.986,192.797L133.986,186.916L135.163,186.916L135.163,193.973C132.881,194.634 132.881,194.634 130.458,195.15C130.069,194.761 129.681,194.373 129.281,193.973C121.459,192.964 113.637,192.315 105.756,191.621L105.756,189.268C99.546,189.656 93.288,190.045 86.936,190.445L86.936,191.621C84.219,191.233 81.502,190.844 78.703,190.445C79.091,189.28 79.479,188.116 79.879,186.916L71.645,186.916C73.586,187.692 75.527,188.468 77.526,189.268C74.009,190.294 70.892,190.574 67.234,190.515C66.294,190.505 65.352,190.494 64.388,190.483C63.323,190.463 63.323,190.463 62.235,190.442L62.235,183.384C63.788,182.996 65.34,182.608 66.94,182.208C65.934,178.091 65.34,175.738 61.941,173.092C58.565,171.563 55.201,170.339 51.649,169.269L51.649,164.564L49.296,164.564C49.15,163.035 49.005,161.506 48.855,159.93C48.4,155.989 47.88,152.072 47.161,148.167C46.932,146.873 46.932,146.873 46.697,145.568C45.913,143.156 45.913,143.156 43.321,141.921C42.573,141.632 41.827,141.343 41.051,141.044C41.439,139.491 41.827,137.939 42.227,136.339L44.58,136.339C44.191,132.845 43.803,129.352 43.403,125.753C41.651,126.335 41.651,126.335 39.875,126.929C39.365,126.007 38.856,125.082 38.334,124.129C36.475,120.789 36.475,120.789 32.817,118.695C31.653,119.277 31.653,119.277 30.465,119.871C30.659,119.289 30.853,118.707 31.053,118.107C31.726,114.743 31.583,111.567 31.526,108.156C31.689,104.756 32.737,101.839 33.996,98.699L31.643,98.699C32.084,95.829 32.084,95.829 32.819,92.818L35.172,91.641L35.172,93.994L37.524,93.994C37.646,92.488 37.767,90.983 37.891,89.43C38.098,86.866 38.098,86.866 38.701,84.584C39.865,83.807 41.03,83.031 42.229,82.231C42.489,78.95 42.56,75.938 42.451,72.68C42.435,71.793 42.419,70.904 42.402,69.987C42.361,67.799 42.297,65.599 42.231,63.411C44.171,63.023 46.112,62.635 48.112,62.235C48.475,60.271 48.475,60.271 48.847,58.259C50.47,54.001 50.47,54.001 54.14,52.308C55.256,52.089 56.375,51.871 57.528,51.647C57.916,52.035 58.304,52.423 58.704,52.823C60.633,48.741 61.362,46.542 59.88,42.237L59.88,39.884C62.597,39.108 65.315,38.331 68.114,37.532C68.696,39.86 68.696,39.86 69.29,42.237C69.678,39.131 70.067,36.026 70.467,32.827C75.901,31.356 75.901,31.356 79.877,34.003L79.902,34.024Z" fill="#E6E6E6"/>
<path d="M148.125,74.016C148.901,74.793 149.678,75.569 150.477,76.369C151.642,75.592 152.806,74.816 154.006,74.016C156.759,78.321 156.441,81.944 156.359,86.955C156.814,89.755 157.436,92.436 158.123,95.189C159.382,100.223 160.029,104.222 159.23,109.421C159.066,110.517 158.904,111.609 158.736,112.738C158.558,113.868 158.38,114.997 158.196,116.161C158.022,117.313 157.849,118.467 157.67,119.655C157.242,122.49 156.805,125.313 156.353,128.147C154.6,128.73 154.6,128.73 152.824,129.324C152.78,128.077 152.78,128.077 152.735,126.806C152.597,122.984 152.454,119.173 152.309,115.35C152.263,114.044 152.217,112.738 152.169,111.398C151.754,100.529 151.195,90.343 148.123,79.874C147.976,76.416 147.976,76.416 148.123,73.993L148.125,74.016ZM154.006,106.951L154.006,116.361L155.182,116.361L155.182,106.951L154.006,106.951Z" fill="#E6E6E6"/>
<path d="M8.151,64.606C10.574,65.121 10.574,65.121 12.856,65.783C12.615,66.662 12.374,67.547 12.126,68.453C11.809,69.611 11.492,70.77 11.166,71.958C10.852,73.105 10.538,74.252 10.214,75.428C9.922,76.513 9.629,77.604 9.328,78.721C9.106,79.445 8.885,80.168 8.657,80.909C7.71,85.614 7.723,90.472 7.543,95.259C7.308,100.011 6.697,103.823 4.626,108.081C3.073,107.692 1.521,107.304 -0.079,106.904C-0.524,95.295 1.78,85.026 4.697,73.852C4.901,73.066 5.107,72.275 5.318,71.476C6.835,65.841 6.835,65.841 8.153,64.524L8.151,64.606Z" fill="#E6E6E6"/>
<path d="M2.27,122.242C4.375,125.395 5.081,126.994 5.869,130.547C6.45,133.123 6.963,135.158 8.151,137.534L6.975,139.886L9.328,139.886C9.385,140.711 9.443,141.533 9.502,142.38C9.94,154.378 9.94,154.378 15.206,164.611C17.559,168.798 17.559,168.798 17.559,171.668L12.854,171.668C10.431,167.034 8.596,162.517 6.973,157.553C6.407,156.342 5.841,155.13 5.255,153.884C3.091,148.896 2.268,143.862 1.456,138.475C1.303,137.542 1.151,136.604 0.994,135.652C0.329,131.464 -0.088,127.677 -0.088,123.419C0.688,123.031 1.464,122.642 2.264,122.242L2.27,122.242Z" fill="#E6E6E6"/>
<path d="M110.485,210.461L116.366,210.461C117.143,212.014 117.919,213.566 118.719,215.166L121.071,215.166L121.071,217.519C123.988,218.101 123.988,218.101 126.953,218.695C119.989,223.329 111.073,222.471 102.957,222.518C101.381,222.554 101.381,222.554 99.769,222.591C92.512,222.633 86.595,221.424 79.891,218.698C81.055,218.31 82.22,217.922 83.42,217.522L83.42,215.169C86.807,215.022 86.807,215.022 90.477,215.169C91.253,215.945 92.03,216.722 92.83,217.522C96.5,218.069 96.5,218.069 100.616,218.257C102.016,218.345 103.416,218.433 104.851,218.524C105.927,218.581 107.003,218.639 108.109,218.698C108.885,215.981 109.662,213.264 110.462,210.464L110.485,210.461Z" fill="#E6E6E6"/>
<path d="M138.715,203.404C142.209,203.986 142.209,203.986 145.773,204.58C144.596,206.933 144.596,206.933 143.42,208.109C142.992,210.061 142.597,212.026 142.244,213.99C143.796,214.378 145.349,214.766 146.949,215.166C143.455,216.331 139.962,217.495 136.363,218.695C136.751,217.142 137.139,215.59 137.539,213.99C136.559,211.438 136.559,211.438 134.01,210.461L135.186,208.109C133.245,208.497 131.305,208.885 129.305,209.285L130.481,211.638L129.305,213.99C122.542,214.137 122.542,214.137 119.895,212.814L121.071,210.461C120.022,207.968 120.022,207.968 118.719,205.756C120.977,205.526 123.224,205.308 125.482,205.095C127.364,204.911 127.364,204.911 129.281,204.724C132.41,204.598 134.598,204.794 137.539,205.757L138.715,203.405L138.715,203.404Z" fill="#E6E6E6"/>
<path d="M154.006,131.652C155.688,141.568 155.688,141.568 152.83,146.944C151.665,146.556 150.501,146.167 149.301,145.767C148.913,147.32 148.525,148.873 148.125,150.472L146.949,148.12L144.596,148.12C146.655,142.38 146.655,142.38 149.301,141.062C149.495,139.71 149.689,138.345 149.889,136.946C150.083,135.593 150.277,134.228 150.477,132.829C152.83,131.652 152.83,131.652 154.006,131.652Z" fill="#FFFFFF"/>
<path d="M15.209,48.139C16.373,48.527 17.538,48.915 18.737,49.315C18.208,55.937 16.761,59.443 12.856,64.606C12.08,64.218 11.304,63.83 10.504,63.43C9.966,56.702 11.065,53.444 15.209,48.139Z" fill="#FFFFFF"/>
<path d="M72.845,212.814C75.562,215.237 75.562,215.237 77.55,217.519C72.669,218.918 70.034,218.448 65.435,216.415C64.396,215.968 63.353,215.52 62.282,215.063C61.501,214.71 60.718,214.356 59.918,213.992L59.918,212.816C64.599,211.836 68.281,211.252 72.857,212.816L72.845,212.814Z" fill="#E6E6E6"/>
<path d="M144.596,154.001L148.125,154.001C147.501,158.495 146.361,161.129 143.42,164.588C142.256,164.199 141.091,163.811 139.891,163.411L142.244,163.411C141.977,162.733 141.71,162.059 141.435,161.353C141.068,158.706 141.068,158.706 142.538,156.06L144.596,154.001Z" fill="#FFFFFF"/>
<path d="M125.776,179.879C126.164,181.82 126.553,183.76 126.952,185.76C119.895,185.76 119.895,185.76 116.366,183.407C119.272,179.738 121.201,179.502 125.776,179.879Z" fill="#FFFFFF"/>
<path d="M131.658,168.116C132.434,168.504 133.21,168.893 134.01,169.293L134.01,175.174L131.658,176.35C129.305,175.321 129.305,175.321 126.953,173.998C126.176,173.609 125.4,173.221 124.6,172.821C126.929,171.269 129.258,169.716 131.658,168.116Z" fill="#FFFFFF"/>
<path d="M132.834,218.695C136.363,219.871 136.363,219.871 136.363,219.871L132.834,218.695Z" fill="#FFFFFF"/>
<path d="M76.374,218.695C79.902,219.871 79.902,219.871 79.902,219.871L76.374,218.695Z" fill="#FFFFFF"/>
</svg>
