<svg width="102" height="202" viewBox="0 0 102 202" fill="none" xmlns="http://www.w3.org/2000/svg" xmlns:xlink="http://www.w3.org/1999/xlink">
<path d="M44.541,0.733C45.123,2.485 45.123,2.485 45.717,4.261C46.882,3.873 48.046,3.485 49.246,3.085L50.422,4.261C50.811,3.485 51.199,2.709 51.599,1.909L53.951,1.909L53.951,4.261C55.433,4.043 56.915,3.825 58.433,3.6C63.949,2.963 69.066,3.38 74.547,4.078C77.406,4.258 79.452,3.946 82.169,3.085C81.781,5.414 81.393,7.743 80.993,10.143L70.407,10.143C69.315,10.773 68.219,11.401 67.102,12.048C63.349,13.671 63.349,13.671 60.409,12.783C59.438,12.297 58.468,11.813 57.468,11.313C55.127,10.871 52.775,10.466 50.411,10.137L50.411,18.37L48.058,18.37C48.105,20.629 48.105,20.629 49.234,23.075C52.74,25.169 52.74,25.169 56.292,26.604L56.292,28.957C57.456,29.345 58.621,29.733 59.821,30.133C59.796,30.982 59.772,31.827 59.747,32.709C59.705,36.014 59.705,36.014 60.556,39.108C60.998,41.907 60.998,41.907 58.651,45.436L61.003,45.436L61.003,53.67L58.651,53.67L57.475,56.022C56.31,56.41 55.146,56.799 53.946,57.198C53.558,59.527 53.17,61.856 52.77,64.256C53.934,64.644 55.099,65.032 56.298,65.432C57.083,66.997 57.863,68.573 58.651,70.137C59.815,70.525 60.98,70.914 62.18,71.313C63.626,74.219 63.591,76.313 63.65,79.547C63.68,80.591 63.711,81.629 63.742,82.711C63.615,83.609 63.487,84.511 63.356,85.428C62.192,86.205 61.027,86.981 59.827,87.781C60.158,90.498 60.504,93.227 60.856,95.944C61.047,97.462 61.239,98.979 61.435,100.532C61.681,101.755 61.927,102.99 62.18,104.248C63.344,104.831 63.344,104.831 64.532,105.425C64.567,110.718 64.587,116.011 64.606,121.304C64.616,122.798 64.626,124.292 64.636,125.821C64.668,138.289 64.668,138.289 63.939,143.465C63.243,148.628 63.27,153.627 63.356,158.874C63.514,168.707 63.514,168.707 62.18,171.342C63.344,170.954 64.509,170.565 65.708,170.166C69.461,172.295 69.461,172.295 72.766,174.871L72.766,177.223C74.577,177.309 74.577,177.309 76.424,177.397C78.024,177.485 79.623,177.575 81.223,177.664C82.016,177.7 82.811,177.737 83.623,177.774C88.292,178.047 92.068,178.733 96.326,180.75L96.326,183.103L101.031,183.103L101.031,187.808C100.255,188.196 99.479,188.584 98.679,188.984C99.067,190.537 99.455,192.089 99.855,193.689C95.879,194.912 92.233,194.959 88.092,194.865L88.092,197.218C77.918,197.734 67.743,198.237 57.628,198.723C52.899,198.948 48.182,199.179 43.513,199.42C38.949,199.653 34.397,199.873 29.868,200.083C28.127,200.166 26.386,200.253 24.657,200.346C22.222,200.474 19.776,200.585 17.341,200.694C15.953,200.761 14.565,200.829 13.142,200.899C8.037,200.694 4.826,199.664 1.262,196.042C0.957,193.019 0.957,193.019 0.949,189.243C0.946,187.89 0.943,186.526 0.94,185.138C0.949,183.715 0.958,182.291 0.967,180.821C0.958,179.398 0.949,177.986 0.94,176.528C0.943,175.175 0.946,173.81 0.949,172.411C0.952,171.164 0.954,169.917 0.957,168.635C1.262,165.459 1.262,165.459 3.615,161.93C7.05,161.289 10.296,160.84 13.755,160.531C15.166,160.386 15.166,160.386 16.613,160.239C18.942,160.004 21.271,159.787 23.611,159.576C23.718,158.058 23.718,158.058 23.828,156.505C24.507,146.943 25.216,137.333 25.969,127.805L27.145,127.805C27.189,128.627 27.233,129.452 27.278,130.299C27.355,131.369 27.432,132.439 27.512,133.545C27.58,134.61 27.648,135.674 27.719,136.768C28.072,140.003 28.072,140.003 31.848,141.92C31.764,141.133 31.682,140.344 31.596,139.532C30.825,131.769 30.498,124.123 30.515,116.36C30.513,114.643 30.513,114.643 30.511,112.89C30.511,110.491 30.513,108.103 30.518,105.703C30.524,102.033 30.518,98.363 30.51,94.705C30.511,92.365 30.513,90.024 30.515,87.695C30.512,86.602 30.51,85.507 30.508,84.378C30.511,83.36 30.515,82.343 30.519,81.296C30.52,80.406 30.521,79.52 30.522,78.591C30.673,76.062 31.153,73.827 31.851,71.392L34.203,71.392C35.063,69.063 35.838,66.711 36.556,64.335C36.168,63.558 35.78,62.782 35.38,61.982C41.12,59.63 41.12,59.63 42.437,59.63L42.437,56.912C42.437,50.22 42.437,50.22 44.79,47.867C44.478,45.573 44.16,43.28 43.792,40.986C43.613,38.457 43.613,38.457 44.863,34.187C46.168,29.494 45.816,27.471 43.616,23.154C41.298,21.554 41.298,21.554 38.911,20.802C38.523,20.413 38.134,20.025 37.734,19.625C37.346,21.178 36.958,22.731 36.558,24.33L30.677,24.33C29.512,22.001 28.348,19.672 27.148,17.273L23.619,17.273C22.455,16.885 21.29,16.496 20.091,16.096C19.766,14.414 19.479,12.721 19.209,11.027C19.045,10.085 18.882,9.145 18.712,8.169C18.915,5.51 18.915,5.51 20.571,3.452C25.123,1.264 29.51,1.311 34.45,1.17C35.438,1.13 36.426,1.09 37.45,1.048C39.885,0.951 42.319,0.875 44.743,0.802L44.541,0.733Z" fill="#FFFFFF"/>
<path d="M25.721,163.055L25.721,165.408L18.664,165.408C20.675,169.301 20.675,169.301 24.686,169.748C26.356,169.93 26.356,169.93 28.074,170.115C27.685,172.444 27.297,174.773 26.897,177.172C25.952,177.318 25.004,177.463 24.027,177.614C23.032,177.856 22.039,178.099 21.016,178.349C20.628,179.125 20.24,179.901 19.84,180.701L17.487,180.701L17.487,188.935C18.41,189.032 19.334,189.129 20.287,189.229C23.369,190.111 23.369,190.111 24.921,192.534C25.188,193.286 25.455,194.04 25.731,194.816C26.895,194.428 28.059,194.04 29.259,193.64C29.647,194.416 30.036,195.193 30.436,195.993C34,196.766 34,196.766 37.493,197.169C33.494,201.168 27.871,200.192 22.437,200.403C21.263,200.469 20.085,200.534 18.873,200.601C17.736,200.651 16.603,200.701 15.427,200.753C14.388,200.799 13.345,200.846 12.274,200.894C7.558,200.586 4.37,199.33 1.029,195.989C0.725,192.966 0.725,192.966 0.716,189.19C0.713,187.838 0.71,186.473 0.707,185.085C0.716,183.662 0.726,182.239 0.735,180.768C0.726,179.345 0.717,177.933 0.707,176.475C0.71,175.122 0.713,173.758 0.716,172.358C0.719,171.111 0.722,169.864 0.725,168.582C1.029,165.406 1.029,165.406 3.383,161.878C11.217,160.031 17.968,161.326 25.732,163.054L25.721,163.055Z" fill="#E6E6E6"/>
<path d="M3.372,161.879C6.454,161.658 6.454,161.658 9.254,161.879C9.254,165.407 9.254,165.407 7.042,167.689C6.218,168.49 5.396,169.289 4.549,170.112C3.09,172.618 3.09,172.618 2.196,174.817C0.726,165.854 0.726,165.854 3.372,161.879Z" fill="#FFFFFF"/>
</svg>
