<svg width="204" height="472" viewBox="0 0 204 472" fill="none" xmlns="http://www.w3.org/2000/svg" xmlns:xlink="http://www.w3.org/1999/xlink">
<path d="M16.815,0.017L19.167,0.017C18.61,3.37 18.051,6.71 17.485,10.063C17.04,12.756 16.601,15.438 16.168,18.132C15.967,19.379 15.765,20.637 15.556,21.931C15.373,23.086 15.189,24.236 15,25.436C14.453,28.259 14.453,28.259 13.283,30.612C13.164,32.564 13.12,34.529 13.112,36.493C13.105,37.716 13.097,38.94 13.089,40.21C13.088,41.539 13.087,42.868 13.085,44.233C13.082,45.597 13.078,46.962 13.074,48.361C13.068,51.255 13.065,54.148 13.065,57.03C13.063,61.453 13.041,65.864 13.019,70.322C13.015,73.133 13.013,75.933 13.012,78.744C13.003,80.061 12.995,81.379 12.986,82.743C13.005,89.012 13.199,94.164 15.633,100.034C16.267,104.163 16.74,108.303 17.209,112.502C18.021,116.725 19.538,119.807 21.514,123.606C21.49,124.746 21.466,125.888 21.441,127.064C21.529,131.405 22.864,133.31 25.11,136.898C26.214,138.909 26.214,138.909 26.734,142.214C27.553,146.86 29.521,150.283 31.709,154.447C33.921,159.093 35.356,163.904 36.814,168.798C38.026,171.938 38.731,173.467 41.507,175.349C44.648,175.864 44.648,175.864 48.047,175.716C49.765,175.709 49.765,175.709 51.505,175.702C54.646,175.631 54.646,175.631 56.799,172.997L61.504,172.997C61.137,171.327 60.77,169.668 60.4,167.998C60.196,167.07 59.991,166.14 59.78,165.187C59.398,163.505 58.989,161.823 58.522,160.164C57.613,156.118 57.944,152.013 58.071,147.931C58.096,146.983 58.121,146.037 58.147,145.061C58.201,143.062 58.259,141.062 58.32,139.062C58.411,136.004 58.491,132.946 58.568,129.888C58.622,127.947 58.678,125.994 58.734,124.053C58.757,123.141 58.781,122.23 58.805,121.289C58.935,117.184 59.295,113.491 60.322,109.538C60.703,106.657 61.015,103.763 61.277,100.858C61.43,99.34 61.583,97.835 61.742,96.27C61.451,91.036 59.872,88.989 56.79,84.825C54.179,77.968 52.497,70.946 53.261,63.653C54.037,62.488 54.814,61.324 55.614,60.124C56.008,56.878 56.315,53.678 56.569,50.42C57.296,42.68 58.251,37.599 63.85,31.835C65.402,32.612 66.955,33.388 68.555,34.188C68.24,34.939 67.924,35.693 67.6,36.47C67.139,37.658 66.677,38.846 66.2,40.069C65.754,41.163 65.754,41.163 65.299,42.28C62.382,50.055 61.864,57.689 61.5,65.923L59.147,65.923C59.372,66.556 59.596,67.193 59.828,67.84C62.028,74.051 64.204,80.309 66.356,86.425C67.209,88.895 68.074,91.354 68.932,93.824C72.296,103.951 73.367,113.702 73.19,124.289C73.274,128.723 74.154,132.675 75.096,136.992C75.838,141.18 75.777,145.108 75.619,149.343C79.113,149.731 82.606,150.119 86.206,150.519C86.788,148.766 86.788,148.766 87.382,146.99C88.158,146.602 88.934,146.214 89.734,145.814C90.317,144.061 90.317,144.061 90.911,142.285C91.626,142.109 92.346,141.934 93.075,141.752C96.451,140.897 97.533,139.353 99.732,136.694C100.444,135.846 101.156,135.001 101.885,134.13C103.414,132.237 104.92,130.319 106.425,128.39C108.554,125.814 108.554,125.814 111.13,123.909C113.612,122.344 113.612,122.344 114.436,118.757C116.4,117.972 118.352,117.192 120.317,116.404C120.899,114.652 120.899,114.652 121.493,112.875C122.269,112.487 123.046,112.099 123.846,111.699L123.846,103.465C118.599,104.048 118.599,104.048 113.259,104.642C112.677,106.394 112.677,106.394 112.083,108.17C110.66,108.15 110.66,108.15 109.201,108.129C107.943,108.118 106.684,108.108 105.39,108.097L101.626,108.056C98.286,108.16 95.322,108.582 92.087,109.349C89.511,106.562 88.593,105.021 88.193,101.186C88.57,97.493 89.073,94.929 90.911,91.706C92.475,91.314 94.051,90.921 95.616,90.529C96.004,89.559 96.392,88.589 96.792,87.589C97.18,86.618 97.568,85.648 97.968,84.648C100.462,83.693 100.462,83.693 102.673,83.472C103.255,81.143 103.255,81.143 103.849,78.767C104.577,78.646 105.308,78.525 106.061,78.4C108.99,77.738 108.99,77.738 110.907,74.06C113.706,72.813 113.706,72.813 116.788,71.707C118.364,70.94 119.94,70.166 121.493,69.355C122.391,70.083 123.293,70.813 124.21,71.566C127.363,74.13 127.363,74.13 130.903,76.412C131.461,77.577 132.019,78.741 132.597,79.941C134.126,83.481 134.126,83.481 136.643,85.163C139.984,86.047 141.795,85.893 145.018,84.648C147.018,81.708 147.018,81.708 148.547,78.767L150.899,78.767C151.363,77.485 151.363,77.485 151.837,76.179C153.272,72.839 154.942,70.239 157.071,67.298C160.565,62.441 163.858,57.5 167.057,52.478C167.547,51.85 168.037,51.219 168.54,50.572L170.892,50.572C170.965,49.748 171.038,48.925 171.113,48.079C172.372,43.621 174.971,41.139 177.947,37.633C178.809,35.257 178.809,35.257 179.123,32.928C179.884,30.964 180.664,29 181.476,27.047L186.181,29.4C185.405,31.729 184.628,34.058 183.828,36.457L180.3,36.457C180.542,37.355 180.785,38.257 181.035,39.174C181.476,42.338 181.476,42.338 179.129,45.867C178.327,47.432 177.541,48.996 176.777,50.572L174.424,50.572C174.309,51.268 174.194,51.96 174.075,52.678C172.929,58.735 171.617,62.393 167.37,67.028C166.536,68.569 165.735,70.133 165.018,71.733L162.665,71.733C162.552,72.597 162.438,73.462 162.321,74.356C161.377,78.061 160.039,79.861 157.592,82.766C154.993,85.954 152.687,88.988 150.758,92.623C148.429,96.658 146.03,99.116 142.666,102.327C140.807,104.292 138.972,106.279 137.149,108.279C135.796,109.749 135.796,109.749 134.42,111.267C132.362,113.76 131.103,115.913 129.727,118.795C127.798,120.783 125.833,122.735 123.846,124.676C122.022,126.864 120.234,129.075 118.47,131.31C116.788,132.91 116.788,132.91 113.259,132.91C113.05,133.949 113.05,133.949 112.837,135.015C110.873,141.814 105.25,146.895 100.369,151.718C99.181,153.106 98.005,154.506 96.84,155.905C94.629,158.54 92.794,160.34 90.006,162.445C87.183,164.468 87.183,164.468 86.407,167.809C86.358,168.706 86.31,169.609 86.26,170.526C88.836,173.102 94.552,172.232 98.022,172.432C101.41,172.862 103.268,173.678 106.232,175.231C108.973,175.6 111.678,175.746 114.443,175.889C116.819,176.407 116.819,176.407 119.171,179.935C121.124,180.747 123.088,181.523 125.052,182.287C129.746,185.052 132.275,186.781 134.462,191.697C135.32,193.521 135.32,193.521 136.191,195.379C136.809,196.708 137.427,198.049 138.062,199.414C138.992,201.413 138.992,201.413 139.944,203.459C144.955,214.657 145.86,230.983 141.473,242.511C139.109,247.005 136.874,248.945 132.11,250.533C131.649,251.091 131.188,251.649 130.71,252.227C126.676,255.709 121.582,256.415 116.36,256.427C110.796,255.971 107.397,254.709 102.598,251.721C93.705,249.957 84.601,250.145 75.544,249.933C74.274,249.893 73.003,249.853 71.698,249.811C70.548,249.781 69.404,249.751 68.216,249.721C63.288,249.179 60.041,247.827 56.336,244.581C52.548,241.781 49.631,241.653 45.02,241.123C45.183,245.581 45.358,250.039 45.536,254.533C45.582,255.803 45.628,257.073 45.676,258.379C45.725,259.591 45.774,260.801 45.825,262.049C45.89,263.731 45.89,263.731 45.955,265.449C46.03,268.225 46.03,268.225 47.379,270.553C47.438,274.129 47.428,277.681 47.37,281.257C47.349,283.457 47.329,285.657 47.31,287.855C47.274,291.325 47.232,294.795 47.177,298.265C47.127,301.617 47.099,304.959 47.075,308.311C47.053,309.335 47.031,310.357 47.009,311.415C46.981,318.249 48.232,323.085 50.902,329.413C51.321,330.977 51.72,332.541 52.079,334.117C53.024,334.263 53.972,334.409 54.949,334.559C56.442,334.923 56.442,334.923 57.96,335.293C58.348,336.071 58.736,336.847 59.136,337.647C61.194,337.281 63.253,336.913 65.311,336.543C66.458,336.339 67.605,336.133 68.781,335.923C69.867,335.715 70.957,335.507 72.075,335.293C72.942,335.147 73.804,334.999 74.698,334.847C77.239,334.189 77.239,334.189 79.132,330.589C89.366,327.097 103.128,326.085 113.244,330.223C117.549,332.423 120.513,335.317 123.83,338.821C124.591,338.991 125.347,339.161 126.135,339.337C129.193,340.179 129.97,341.383 131.84,343.901C135.357,348.277 138.827,350.441 143.838,352.945L143.838,357.651C144.978,357.747 146.12,357.845 147.296,357.945C150.919,358.427 153.424,359.473 156.6,361.227C164.069,364.637 171.538,364.003 179.655,363.755C182.619,363.695 185.583,363.637 188.547,363.585C190.5,363.531 190.5,363.531 192.488,363.475C195.605,363.535 195.605,363.535 197.957,364.711C197.181,366.263 196.404,367.815 195.605,369.415C194.513,369.343 193.417,369.269 192.299,369.195C188.594,368.975 188.594,368.975 187.018,371.101C184.124,373.771 181.454,373.865 177.596,374.417C175.644,374.717 175.644,374.717 173.644,375.025C169.633,375.307 166.61,374.947 162.681,374.123C161.803,374.007 160.929,373.893 160.023,373.773C151.813,372.539 146.379,369.363 139.792,364.493C138.809,363.807 137.827,363.117 136.816,362.411C132.84,359.623 129.017,356.823 125.347,353.637C116.314,345.909 105.704,347.519 94.529,348.237L94.529,351.765C92.977,352.155 91.424,352.543 89.824,352.943L89.824,361.175C90.601,361.565 91.377,361.953 92.177,362.353L93.353,365.881C95.694,367.257 95.694,367.257 98.505,368.305C101.846,369.657 104.445,370.915 107.468,372.939C110.691,373.477 113.855,373.915 117.102,374.255C118.419,374.409 118.419,374.409 119.772,374.565C121.948,374.813 124.112,375.049 126.288,375.285L126.288,379.991C125.124,380.379 123.959,380.767 122.759,381.167C119.666,388.259 124.63,397.751 127.1,404.573C130.476,412.713 135.334,422.099 142.744,427.041L143.92,430.569C146.402,432.991 146.402,432.991 149.437,435.345C150.435,436.159 151.436,436.967 152.46,437.815C155.824,440.073 158.859,441.237 162.74,442.331L162.74,445.861C165.751,450.435 168.151,452.411 173.326,454.093C175.82,455.229 177.808,456.259 179.878,458.057C183.971,460.811 188.371,462.163 193.052,463.727C194.452,464.209 194.452,464.209 195.875,464.699C198.169,465.485 200.462,466.263 202.756,467.039C201.98,468.205 201.204,469.369 200.404,470.569C186.171,468.075 168.88,462.299 156.882,454.101L156.882,451.749C155.694,451.403 155.694,451.403 154.471,451.049C149.66,448.757 146.296,445.415 142.473,441.745C141.69,440.999 140.909,440.251 140.097,439.487C137.839,437.311 135.592,435.123 133.357,432.923C132.336,431.921 131.311,430.913 130.264,429.877C124.124,423.443 119.501,416.351 114.973,408.705C114.508,407.927 114.045,407.153 113.561,406.353C112.951,405.311 112.951,405.311 112.326,404.247C110.915,402.153 109.268,400.553 107.48,398.777C106.364,396.283 106.364,396.283 105.492,393.555C105.197,392.659 104.9,391.767 104.596,390.837C103.948,388.191 103.948,388.191 103.948,383.485C100.983,381.981 98.019,380.581 94.985,379.227C84.904,374.135 77.458,366.877 70.989,357.703C67.072,353.551 62.602,353.021 57.109,352.221C51.181,350.857 47.888,346.669 43.935,342.293C41.689,339.683 41.689,339.683 38.078,338.765C36.525,336.541 36.525,336.541 35.066,333.765C34.579,332.863 34.092,331.955 33.596,331.025C33.136,330.085 32.677,329.143 32.208,328.179C31.796,327.357 31.386,326.531 30.961,325.685C29.503,321.203 29.538,316.933 29.585,312.275C29.586,311.315 29.586,310.359 29.587,309.359C29.59,307.323 29.6,305.301 29.614,303.265C29.636,300.183 29.638,297.103 29.638,294.021C29.644,292.045 29.651,290.057 29.659,288.081C29.66,287.169 29.661,286.257 29.663,285.317C29.712,279.505 30.232,273.931 31.027,268.143C31.822,258.521 30.655,249.441 28.898,240.031C28.704,238.971 28.51,237.913 28.309,236.819C27.401,232.243 26.486,228.503 24.38,224.351C22.58,220.751 22.533,218.941 23.086,214.999C23.213,213.999 23.342,213.001 23.472,211.965C23.968,209.413 23.968,209.413 25.142,207.061L27.495,207.061C27.392,204.437 27.264,201.815 27.128,199.191C27.06,197.733 26.991,196.274 26.921,194.769C26.3,190.452 25.227,188.252 22.792,184.712C21.946,182.748 21.098,180.783 20.287,178.807C19.142,176.208 17.817,173.749 16.476,171.256C12.982,164.304 10.959,157.141 8.971,149.613C8.615,148.307 8.259,147.013 7.892,145.672C5.727,137.721 3.975,130.616 3.975,122.382C3.586,121.606 3.198,120.83 2.798,120.03C-0.636,103.798 0.117,87.095 0.446,70.627C0.469,69.463 0.491,68.298 0.515,67.099C0.784,55.736 1.212,44.985 5.149,34.164L7.502,34.164C7.546,33.186 7.59,32.211 7.635,31.199C7.712,29.917 7.789,28.647 7.869,27.33C7.937,26.059 8.005,24.789 8.076,23.483C8.713,19.849 9.323,18.719 12.204,16.52C12.981,16.908 13.757,17.296 14.557,17.696C14.53,17.014 14.502,16.332 14.474,15.626C14.342,9.909 14.704,5.428 16.909,0.099L16.815,0.017ZM2.7,48.244C3.088,49.408 3.476,50.573 3.876,51.772L3.876,48.244L2.7,48.244ZM32.106,268.203L32.106,274.083L33.282,274.083L33.282,268.203L32.106,268.203Z" fill="#FFFFFF"/>
<path d="M28.577,232.915C39.422,234.35 39.422,234.35 42.692,237.62C43.469,236.067 44.245,234.515 45.045,232.915C48.574,234.091 48.574,234.091 50.562,237.69C51.071,238.83 51.58,239.972 52.102,241.149L45.045,241.149C45.207,245.607 45.382,250.065 45.56,254.558C45.606,255.828 45.653,257.099 45.7,258.404C45.774,260.227 45.774,260.227 45.849,262.074C45.893,263.195 45.936,264.321 45.98,265.474C46.054,268.249 46.054,268.249 47.403,270.578C47.463,274.154 47.453,277.707 47.394,281.282C47.374,283.482 47.354,285.682 47.334,287.881C47.298,291.351 47.256,294.821 47.201,298.291C47.151,301.643 47.124,304.984 47.1,308.336C47.078,309.361 47.056,310.383 47.033,311.441C47.005,318.275 48.257,323.11 50.927,329.438C51.346,331.002 51.744,332.567 52.103,334.143C53.526,334.362 53.526,334.362 54.973,334.584C56.467,334.948 56.467,334.948 57.984,335.319L59.161,337.672C61.219,337.306 63.277,336.938 65.336,336.568C67.053,336.261 67.053,336.261 68.806,335.949C69.892,335.74 70.982,335.533 72.099,335.319C72.966,335.172 73.828,335.025 74.722,334.873C77.263,334.214 77.263,334.214 79.157,330.615C89.39,327.122 103.152,326.11 113.268,330.248C117.573,332.448 120.537,335.342 123.854,338.847C124.615,339.016 125.372,339.187 126.16,339.362C129.218,340.205 129.994,341.409 131.865,343.926C135.382,348.302 138.852,350.466 143.862,352.971L143.862,357.676C145.002,357.773 146.144,357.87 147.321,357.97C150.943,358.453 153.449,359.499 156.625,361.252C164.094,364.663 171.563,364.028 179.679,363.781C182.643,363.72 185.607,363.663 188.572,363.61C189.877,363.574 191.171,363.538 192.512,363.501C195.629,363.56 195.629,363.56 197.982,364.736C196.817,367.065 196.817,367.065 195.629,369.441C193.994,369.332 193.994,369.332 192.324,369.22C188.619,369 188.619,369 187.043,371.125C184.149,373.796 181.479,373.89 177.621,374.443C176.315,374.642 175.009,374.842 173.669,375.049C169.658,375.333 166.635,374.973 162.706,374.148C161.388,373.976 161.388,373.976 160.048,373.799C151.837,372.564 146.403,369.388 139.816,364.519C138.834,363.832 137.852,363.142 136.84,362.437C132.864,359.649 129.042,356.849 125.372,353.662C116.338,345.934 105.728,347.545 94.554,348.263L94.554,351.791C92.225,352.374 92.225,352.374 89.849,352.968L89.849,361.201C91.013,361.784 91.013,361.784 92.201,362.378C92.59,363.542 92.978,364.707 93.378,365.906C95.718,367.283 95.718,367.283 98.53,368.33C101.87,369.682 104.47,370.941 107.493,372.964C110.716,373.503 113.88,373.941 117.126,374.281C118.444,374.434 118.444,374.434 119.796,374.59C121.972,374.839 124.137,375.075 126.313,375.311L126.313,380.016C124.56,380.598 124.56,380.598 122.784,381.192C119.69,388.285 124.654,397.777 127.124,404.599C130.5,412.739 135.358,422.125 142.768,427.066C143.157,428.23 143.545,429.395 143.945,430.594C146.427,433.017 146.427,433.017 149.461,435.371C150.46,436.185 151.461,436.993 152.484,437.841C155.848,440.099 158.883,441.263 162.765,442.357L162.765,445.885C165.776,450.461 168.175,452.437 173.351,454.119C175.845,455.255 177.832,456.285 179.903,458.083C183.996,460.837 188.395,462.189 193.077,463.753C194.476,464.235 194.476,464.235 195.9,464.725C198.193,465.511 200.487,466.289 202.781,467.065C202.004,468.231 201.228,469.395 200.428,470.595C186.196,468.101 168.905,462.325 156.907,454.127L156.907,451.775C156.113,451.543 155.319,451.313 154.496,451.075C149.685,448.781 146.321,445.441 142.498,441.771C141.715,441.025 140.933,440.277 140.122,439.513C137.863,437.337 135.617,435.149 133.382,432.949C132.361,431.946 131.335,430.938 130.288,429.903C124.148,423.469 119.526,416.376 114.997,408.73C114.533,407.953 114.069,407.178 113.586,406.378C113.179,405.683 112.772,404.99 112.351,404.272C110.939,402.178 109.292,400.579 107.504,398.803C106.388,396.309 106.388,396.309 105.517,393.58C105.221,392.684 104.925,391.792 104.62,390.863C103.972,388.216 103.972,388.216 103.972,383.511C101.008,382.006 98.044,380.606 95.009,379.253C84.929,374.16 77.483,366.903 71.014,357.728C67.097,353.576 62.627,353.047 57.134,352.247C51.206,350.882 47.912,346.695 43.96,342.319C41.713,339.708 41.713,339.708 38.102,338.79C36.55,336.567 36.55,336.567 35.091,333.791C34.604,332.888 34.117,331.98 33.621,331.051C33.161,330.111 32.702,329.169 32.233,328.204C31.616,326.969 31.616,326.969 30.986,325.71C29.527,321.229 29.563,316.959 29.61,312.301C29.61,311.34 29.611,310.384 29.611,309.384C29.615,307.349 29.624,305.326 29.639,303.291C29.66,300.209 29.663,297.128 29.663,294.046C29.668,292.07 29.675,290.082 29.683,288.106C29.685,287.195 29.686,286.283 29.687,285.342C29.737,279.531 30.267,273.955 31.052,268.168C31.505,259.441 30.998,251.348 29.229,242.761C28.609,239.433 28.523,236.268 28.705,232.893L28.577,232.915ZM32.106,268.202L32.106,274.084L33.282,274.084L33.282,268.202L32.106,268.202Z" fill="#FFFFFF"/>
<path d="M181.49,27.071C183.043,27.848 184.595,28.624 186.195,29.424C185.419,31.753 184.642,34.082 183.843,36.481L180.314,36.481C180.677,37.822 180.677,37.822 181.049,39.198C181.49,42.362 181.49,42.362 179.143,45.891C178.341,47.456 177.555,49.02 176.791,50.596L174.438,50.596C174.323,51.293 174.208,51.984 174.089,52.702C172.943,58.759 171.631,62.418 167.384,67.052C166.55,68.593 165.749,70.157 165.032,71.757L162.679,71.757C162.566,72.622 162.452,73.486 162.335,74.38C161.391,78.085 160.053,79.885 157.606,82.79C155.007,85.978 152.701,89.013 150.772,92.647C148.443,96.682 146.044,99.14 142.68,102.351C140.821,104.316 138.986,106.303 137.163,108.303C135.81,109.773 135.81,109.773 134.434,111.291C132.376,113.784 131.117,115.937 129.741,118.819C127.812,120.807 125.847,122.759 123.86,124.7C122.036,126.888 120.249,129.099 118.484,131.334C116.802,132.934 116.802,132.934 113.273,132.934C113.133,133.627 112.995,134.322 112.851,135.039C110.887,141.838 105.264,146.919 100.383,151.742C99.195,153.13 98.019,154.53 96.854,155.929C94.643,158.564 92.808,160.364 90.02,162.469C87.232,164.481 87.232,164.481 86.421,167.692C86.09,170.727 86.09,170.727 87.45,174.091C84.651,174.312 84.651,174.312 81.569,174.091C79.216,170.562 79.216,170.562 79.216,168.209C76.523,166.128 76.523,166.128 73.335,164.681C71.582,165.263 71.582,165.263 69.806,165.857C69.03,165.081 68.254,164.304 67.454,163.504L67.454,159.976C66.289,160.558 66.289,160.558 65.101,161.152C64.33,164.128 64.33,164.128 63.925,167.033C63.537,166.257 63.149,165.481 62.749,164.681L60.396,164.681C57.985,158.729 57.797,153.859 58.032,147.625C58.059,146.681 58.085,145.731 58.113,144.767C58.171,142.779 58.236,140.791 58.307,138.803C58.414,135.769 58.502,132.734 58.587,129.687C58.646,127.746 58.707,125.817 58.768,123.877C58.795,122.971 58.822,122.065 58.85,121.136C58.999,117.054 59.379,113.373 60.402,109.444C60.784,106.562 61.095,103.669 61.358,100.763C61.511,99.246 61.663,97.74 61.822,96.176C61.532,90.942 59.952,88.895 56.87,84.731C54.259,77.873 52.577,70.851 53.341,63.559C54.506,61.806 54.506,61.806 55.694,60.03C56.088,56.783 56.395,53.584 56.649,50.326C57.376,42.586 58.331,37.505 63.93,31.741C65.483,32.517 67.035,33.294 68.635,34.093C68.32,34.845 68.005,35.599 67.68,36.375C67.219,37.563 66.758,38.751 66.28,39.975C65.983,40.704 65.686,41.433 65.379,42.186C62.462,49.961 61.945,57.595 61.58,65.829L59.227,65.829C59.452,66.462 59.677,67.099 59.908,67.746C62.108,73.957 64.284,80.214 66.437,86.331C67.289,88.801 68.154,91.259 69.013,93.729C72.377,103.857 73.447,113.608 73.271,124.194C73.354,128.629 74.234,132.581 75.176,136.898C75.918,141.085 75.857,145.014 75.7,149.248C79.193,149.637 82.687,150.025 86.286,150.425C86.868,148.672 86.868,148.672 87.462,146.896C88.627,146.314 88.627,146.314 89.815,145.72C90.397,143.967 90.397,143.967 90.991,142.191C91.706,142.014 92.426,141.839 93.155,141.658C96.531,140.803 97.613,139.258 99.813,136.6C100.524,135.752 101.236,134.906 101.965,134.036C103.494,132.142 105,130.225 106.506,128.296C108.635,125.72 108.635,125.72 111.211,123.814C113.692,122.25 113.692,122.25 114.516,118.662C116.48,117.878 118.433,117.098 120.397,116.31C120.979,114.557 120.979,114.557 121.573,112.781C122.35,112.393 123.126,112.005 123.926,111.605L123.926,103.371C118.68,103.953 118.68,103.953 113.34,104.547C112.757,106.3 112.757,106.3 112.163,108.076C110.74,108.056 110.74,108.056 109.282,108.035C108.023,108.024 106.764,108.013 105.47,108.003L101.706,107.961C98.366,108.066 95.402,108.488 92.167,109.255C89.591,106.467 88.674,104.926 88.274,101.092C88.65,97.398 89.154,94.834 90.991,91.611C92.555,91.22 94.131,90.827 95.696,90.435C96.084,89.465 96.472,88.494 96.872,87.494C97.26,86.524 97.648,85.554 98.048,84.554C100.542,83.599 100.542,83.599 102.753,83.378C103.142,81.825 103.53,80.272 103.93,78.673C105.021,78.49 105.021,78.49 106.141,78.306C109.07,77.643 109.07,77.643 110.987,73.965C113.787,72.718 113.787,72.718 116.868,71.613C118.445,70.846 120.021,70.072 121.573,69.26C122.471,69.988 123.373,70.719 124.29,71.472C127.443,74.036 127.443,74.036 130.983,76.318C131.541,77.482 132.1,78.647 132.677,79.846C134.206,83.387 134.206,83.387 136.723,85.069C140.064,85.952 141.875,85.798 145.098,84.554C147.098,81.613 147.098,81.613 148.627,78.673L150.98,78.673C151.289,77.817 151.598,76.967 151.917,76.085C153.352,72.744 155.022,70.145 157.151,67.204C160.645,62.346 163.938,57.406 167.138,52.383C167.873,51.441 167.873,51.441 168.62,50.478L170.972,50.478C171.081,49.243 171.081,49.243 171.193,47.984C172.452,43.526 175.052,41.044 178.027,37.539C178.89,35.163 178.89,35.163 179.204,32.834C179.965,30.87 180.745,28.905 181.556,26.953L181.49,27.071Z" fill="#FFFFFF"/>
<path d="M28.578,232.915C39.423,234.35 39.423,234.35 42.693,237.62C43.469,236.067 44.245,234.515 45.045,232.915C48.574,234.091 48.574,234.091 50.562,237.691C51.071,238.83 51.58,239.973 52.103,241.149L45.045,241.149C45.207,245.607 45.383,250.065 45.56,254.558C45.606,255.828 45.653,257.099 45.7,258.404C45.774,260.228 45.774,260.228 45.85,262.074C45.893,263.195 45.936,264.321 45.98,265.474C46.054,268.25 46.054,268.25 47.403,270.579C47.463,274.154 47.453,277.707 47.394,281.282C47.374,283.482 47.354,285.682 47.334,287.881C47.298,291.351 47.257,294.821 47.202,298.291C47.151,301.643 47.124,304.984 47.1,308.336C47.078,309.361 47.056,310.383 47.034,311.441C47.005,318.275 48.257,323.11 50.927,329.438C51.346,331.002 51.744,332.567 52.103,334.143C53.526,334.362 53.526,334.362 54.973,334.584C56.467,334.948 56.467,334.948 57.984,335.319L59.161,337.672C61.219,337.306 63.278,336.938 65.336,336.569C67.053,336.262 67.053,336.262 68.806,335.949C69.892,335.74 70.982,335.533 72.099,335.319C72.966,335.172 73.829,335.025 74.723,334.874C77.263,334.214 77.263,334.214 79.157,330.615C80.321,331.004 81.486,331.392 82.686,331.792C80.921,335.32 80.921,335.32 77.981,338.849C74.628,339.501 72.017,339.194 68.571,338.849L68.571,341.202L63.866,341.202L63.866,349.435C60.925,351.365 59.361,351.8 55.797,351.6C51.315,350.4 49.668,348.73 46.587,345.319C42.905,341.155 42.905,341.155 37.988,338.849C36.436,336.626 36.436,336.626 34.977,333.85C34.49,332.947 34.003,332.039 33.507,331.11C33.047,330.17 32.588,329.228 32.119,328.263C31.502,327.028 31.502,327.028 30.872,325.769C29.413,321.288 29.449,317.018 29.496,312.36C29.496,311.399 29.497,310.443 29.497,309.443C29.501,307.408 29.51,305.385 29.525,303.35C29.546,300.268 29.549,297.186 29.549,294.105C29.554,292.129 29.561,290.141 29.569,288.165C29.571,287.254 29.572,286.341 29.573,285.4C29.623,279.59 30.153,274.014 30.938,268.227C31.391,259.499 30.884,251.407 29.115,242.82C28.495,239.491 28.409,236.327 28.591,232.952L28.578,232.915ZM32.106,268.202L32.106,274.084L33.283,274.084L33.283,268.202L32.106,268.202Z" fill="#FFFFFF"/>
<path d="M16.815,0.017L19.167,0.017C18.61,3.37 18.051,6.71 17.485,10.063C17.04,12.756 16.601,15.438 16.168,18.132C15.967,19.379 15.764,20.637 15.556,21.931C15.373,23.086 15.189,24.236 15,25.436C14.453,28.259 14.453,28.259 13.283,30.612C13.164,32.564 13.12,34.529 13.112,36.493C13.105,37.716 13.097,38.94 13.089,40.21C13.088,41.539 13.087,42.868 13.085,44.233C13.081,45.597 13.078,46.962 13.073,48.361C13.068,51.255 13.065,54.148 13.065,57.03C13.062,61.453 13.041,65.864 13.019,70.322C13.015,73.133 13.013,75.933 13.012,78.744C13.003,80.061 12.995,81.379 12.986,82.743C13.005,89.012 13.199,94.164 15.633,100.034C16.267,104.163 16.74,108.303 17.209,112.502C18.022,116.737 19.538,119.807 21.514,123.606C21.561,125.959 21.565,128.311 21.514,130.664C21.909,131.394 22.306,132.122 22.714,132.875C24.125,135.921 23.914,137.662 23.425,140.956C23.295,141.896 23.164,142.838 23.03,143.802C22.918,144.511 22.806,145.225 22.69,145.955C19.385,145 19.385,145 15.633,142.426C13.939,138.215 12.963,133.933 12.104,129.487L15.633,129.487C15.05,125.994 15.05,125.994 14.456,122.43C12.516,122.042 10.575,121.653 8.575,121.253C8.624,122.512 8.672,123.771 8.722,125.076C8.588,129.087 8.325,130.911 6.229,134.192C3.876,131.84 3.876,131.84 3.688,129.628C3.726,128.804 3.764,127.982 3.803,127.135C3.989,123.465 3.989,123.465 2.7,120.077C-0.735,103.845 0.018,87.142 0.347,70.675C0.37,69.51 0.393,68.346 0.416,67.146C0.685,55.783 1.113,45.032 5.05,34.211L7.403,34.211C7.447,33.234 7.491,32.258 7.536,31.247C7.613,29.965 7.69,28.694 7.77,27.377C7.838,26.107 7.906,24.836 7.977,23.531C8.614,19.896 9.224,18.767 12.106,16.567C12.882,16.955 13.658,17.344 14.458,17.744C14.431,17.061 14.403,16.379 14.375,15.673C14.244,9.957 14.605,5.475 16.81,0.147L16.815,0.017ZM2.7,48.244C3.088,49.408 3.476,50.573 3.876,51.772L3.876,48.244L2.7,48.244Z" fill="#FFFFFF"/>
<path d="M8.581,121.171C10.546,121.121 12.498,121.124 14.462,121.171C15.639,122.348 15.639,122.348 15.709,125.947C15.685,127.087 15.661,128.229 15.636,129.405L13.283,130.581C13.75,132.499 14.245,134.404 14.754,136.321C15.026,137.386 15.299,138.45 15.58,139.544C16.576,142.52 16.576,142.52 19.297,143.896C20.031,144.16 20.768,144.425 21.521,144.696C22.685,140.626 22.685,140.626 23.873,136.463C25.943,140.391 27.519,144.437 29.096,148.578C31.46,154.788 31.46,154.788 34.024,160.928C35.294,163.881 36.412,166.798 37.482,169.821C38.651,174.15 38.651,174.15 41.529,175.255C43.728,175.523 45.94,175.737 48.139,175.916C49.315,176.015 50.503,176.114 51.715,176.215C52.622,176.286 53.526,176.357 54.467,176.431C53.291,178.784 53.291,178.784 50.856,179.784C49.887,180.084 48.915,180.384 47.916,180.693C46.944,180.999 45.975,181.306 44.975,181.621C43.849,181.962 43.849,181.962 42.705,182.31C42.927,183.046 43.151,183.781 43.38,184.533C43.546,185.351 43.711,186.168 43.881,187.015C42.081,189.58 40.776,190.415 37.776,191.356C36.721,191.538 36.721,191.538 35.647,191.723C35.259,194.828 34.871,197.933 34.471,201.133C32.718,200.55 32.718,200.55 30.942,199.956L30.942,205.838C27.79,202.685 27.167,200.215 26.825,195.91C26.443,191.229 25.39,188.582 22.709,184.665C21.863,182.701 21.015,180.737 20.203,178.76C19.061,176.161 17.733,173.703 16.404,171.209C12.91,164.246 10.734,157.094 8.664,149.566C8.278,148.26 7.892,146.966 7.495,145.625C7.142,144.367 6.79,143.12 6.427,141.826C5.947,140.132 5.947,140.132 5.458,138.415C4.987,134.628 5.823,132.769 7.41,129.358C7.858,126.617 8.263,123.877 8.586,121.124L8.581,121.171Z" fill="#E6E6E6"/>
<path d="M108.563,382.299L115.62,382.299C115.861,383.035 116.102,383.769 116.351,384.534C116.667,385.495 116.985,386.451 117.31,387.451C117.781,388.886 117.781,388.886 118.262,390.344C119.092,392.897 119.092,392.897 120.32,395.238C121.097,393.685 121.873,392.132 122.673,390.533C122.876,391.418 123.079,392.309 123.288,393.214C125.535,401.719 128.664,408.623 133.333,416.034C133.846,416.851 134.358,417.669 134.886,418.515C137.238,422.15 139.026,424.561 142.673,426.996C143.061,428.161 143.449,429.325 143.849,430.525C146.331,432.948 146.331,432.948 149.366,435.301C150.364,436.115 151.365,436.924 152.389,437.771C155.753,440.029 158.787,441.194 162.669,442.287L162.669,445.816C165.68,450.392 168.08,452.368 173.255,454.05C175.749,455.185 177.737,456.214 179.807,458.014C183.9,460.766 188.299,462.119 192.981,463.683C193.914,464.005 194.851,464.325 195.804,464.655C198.098,465.442 200.391,466.219 202.685,466.996C201.909,468.16 201.132,469.325 200.332,470.525C186.1,468.031 168.809,462.256 156.811,454.057L156.811,451.705C156.017,451.474 155.223,451.243 154.4,451.006C149.589,448.712 146.225,445.372 142.402,441.702C141.619,440.956 140.838,440.208 140.026,439.443C137.768,437.267 135.521,435.079 133.286,432.88C132.265,431.876 131.24,430.868 130.193,429.833C124.053,423.399 119.43,416.306 114.901,408.661C114.205,407.495 114.205,407.495 113.49,406.308C113.083,405.613 112.676,404.92 112.255,404.203C110.985,402.18 110.985,402.18 109.091,400.439C106.656,397.957 106.256,395.381 105.433,392.041C105.137,390.871 104.841,389.7 104.536,388.5C104.322,387.607 104.108,386.712 103.888,385.795C105.053,386.183 106.217,386.571 107.417,386.971C107.805,385.418 108.193,383.866 108.593,382.266L108.563,382.299Z" fill="#E6E6E6"/>
<path d="M120.325,69.416C123.43,71.357 126.536,73.298 129.735,75.298C128.959,76.462 128.182,77.626 127.383,78.826C127.768,81.567 128.16,84.319 128.559,87.06C127.782,87.836 127.006,88.613 126.206,89.413C126.486,91.694 126.486,91.694 127.31,94.117C128.686,98.575 128.686,98.575 127.383,101.175L122.678,101.175C122.29,101.951 121.902,102.728 121.502,103.527C118.773,104.006 116.021,104.403 113.268,104.704C112.88,105.868 112.492,107.033 112.092,108.232C111.141,108.219 110.186,108.205 109.21,108.191C107.328,108.175 107.328,108.175 105.399,108.159C104.152,108.145 102.917,108.132 101.635,108.118C98.294,108.222 95.33,108.644 92.096,109.411C89.52,106.624 88.602,105.083 88.202,101.248C88.579,97.555 89.082,94.991 90.919,91.768C92.484,91.376 94.06,90.983 95.624,90.591C96.012,89.621 96.401,88.651 96.801,87.651C97.189,86.68 97.577,85.71 97.977,84.71C100.47,83.755 100.47,83.755 102.682,83.534C103.07,81.981 103.458,80.429 103.858,78.829C104.586,78.708 105.317,78.587 106.069,78.462C108.998,77.8 108.998,77.8 110.916,74.122C112.856,73.278 114.809,72.498 116.797,71.769C117.961,70.993 119.125,70.216 120.325,69.416Z" fill="#FFFFFF"/>
<path d="M181.49,27.071C183.043,27.848 184.595,28.624 186.195,29.424C185.419,31.753 184.642,34.082 183.842,36.481L180.314,36.481C180.556,37.379 180.799,38.281 181.049,39.198C181.49,42.363 181.49,42.363 179.143,45.891C178.341,47.456 177.555,49.02 176.791,50.596L174.438,50.596C174.323,51.293 174.208,51.984 174.089,52.702C172.943,58.759 171.631,62.418 167.384,67.052C166.55,68.593 165.749,70.157 165.032,71.757L162.679,71.757C162.566,72.621 162.452,73.486 162.335,74.38C161.391,78.085 160.053,79.885 157.606,82.79C155.007,85.978 152.701,89.013 150.772,92.647C148.467,96.658 146.02,99.175 142.68,102.351C139.892,105.456 137.163,108.597 134.446,111.761C129.4,110.95 127.153,109.903 123.86,105.88L123.86,103.527L121.507,103.527C121.895,102.363 122.283,101.198 122.683,99.999L127.388,98.822C126.612,95.329 125.836,91.836 125.036,88.236C126.788,87.654 126.788,87.654 128.565,87.06C127.788,83.955 127.012,80.849 126.212,77.65L130.917,76.474C131.403,77.59 131.887,78.709 132.387,79.861C134.116,83.519 134.116,83.519 136.645,85.225C139.986,86.108 141.797,85.954 145.02,84.71C147.02,81.769 147.02,81.769 148.549,78.829L150.901,78.829C151.211,77.973 151.52,77.123 151.839,76.241C153.274,72.9 154.944,70.301 157.073,67.36C160.567,62.502 163.86,57.562 167.06,52.539C167.795,51.597 167.795,51.597 168.542,50.634L170.894,50.634C171.003,49.399 171.003,49.399 171.115,48.14C172.374,43.682 174.973,41.2 177.949,37.695C178.812,35.319 178.812,35.319 179.126,32.99C179.887,31.026 180.666,29.062 181.478,27.109L181.49,27.071Z" fill="#FFFFFF"/>
<path d="M136.792,219.976L143.85,223.505C144.33,232.139 143.439,240.678 137.969,247.736C135.616,249.43 135.616,249.43 132.087,250.606C131.396,251.443 131.396,251.443 130.688,252.3C126.63,255.805 121.513,256.487 116.338,256.499C111.244,256.092 108.504,255.81 105.069,251.794L113.303,251.794C113.449,250.726 113.593,249.665 113.744,248.559C114.386,245.219 115.155,242.937 116.826,240.031C117.99,240.42 119.155,240.808 120.354,241.208C120.816,240.698 121.277,240.189 121.754,239.667C123.883,237.679 123.883,237.679 126.977,236.138C130.153,234.338 130.153,234.338 130.729,230.398C130.802,229.306 130.875,228.21 130.95,227.093L134.479,227.093C134.648,226.365 134.819,225.634 134.994,224.881C135.655,222.388 135.655,222.388 136.829,220.035L136.792,219.976Z" fill="#E6E6E6"/>
<path d="M134.44,421.115C136.792,421.115 136.792,421.115 139.804,423.832C142.674,426.996 142.674,426.996 143.85,430.525C146.332,432.948 146.332,432.948 149.366,435.301C150.86,436.524 150.86,436.524 152.39,437.771C155.754,440.029 158.788,441.194 162.67,442.288L162.67,445.816C165.681,450.392 168.081,452.368 173.256,454.05C175.75,455.185 177.738,456.214 179.808,458.014C183.901,460.766 188.3,462.119 192.982,463.683C193.915,464.005 194.852,464.325 195.805,464.655C198.099,465.442 200.392,466.219 202.686,466.996C201.91,468.16 201.133,469.325 200.333,470.525C186.101,468.031 168.81,462.256 156.812,454.057L156.812,451.705C156.03,451.482 155.248,451.259 154.436,451.029C149.425,448.642 145.826,445.113 141.85,441.337C141.046,440.611 140.239,439.89 139.415,439.137C138.65,438.424 137.886,437.714 137.098,436.973C136.403,436.329 135.71,435.679 134.993,435.021C132.958,432.398 132.581,430.245 132.158,426.999C133.322,426.61 134.487,426.222 135.687,425.822C135.299,424.27 134.91,422.717 134.51,421.117L134.44,421.115Z" fill="#FFFFFF"/>
<path d="M90.919,363.479C92.483,364.57 92.483,364.57 94.083,365.69C97.364,367.796 100.246,369.172 103.857,370.536C105.022,371.313 106.186,372.089 107.386,372.889C110.609,373.428 113.773,373.866 117.02,374.206C118.337,374.359 118.337,374.359 119.69,374.514C121.866,374.764 124.03,375 126.206,375.235L126.206,379.94C125.042,380.329 123.877,380.717 122.677,381.117C121.36,384.516 121.372,387.798 121.431,391.409C121.441,392.349 121.452,393.291 121.463,394.255C121.476,394.965 121.49,395.679 121.504,396.408C117.14,392.62 116.799,388.986 115.623,383.469L108.565,383.469C108.177,385.022 107.789,386.575 107.389,388.174C106.225,387.398 105.06,386.622 103.86,385.822L103.86,383.469C101.578,382.316 99.296,381.175 96.967,380.105C90.827,377.212 85.628,373.577 80.382,369.354C80.77,368.578 81.159,367.802 81.559,367.002L88.616,367.002C89.392,365.837 90.169,364.673 90.969,363.473L90.919,363.479Z" fill="#FFFFFF"/>
<path d="M146.203,358.774C150.484,358.221 152.884,359.128 156.542,361.126C164.046,364.561 171.598,363.937 179.596,363.69C182.56,363.629 185.525,363.573 188.489,363.52C190.441,363.466 190.441,363.466 192.429,363.411C195.546,363.469 195.546,363.469 197.899,364.646C197.122,366.198 196.346,367.751 195.546,369.351C194.455,369.278 193.358,369.205 192.241,369.129C188.536,368.91 188.536,368.91 186.96,371.035C184.066,373.705 181.396,373.799 177.538,374.352C175.585,374.652 175.585,374.652 173.586,374.959C169.645,375.237 166.469,374.844 162.623,374.058C159.494,373.633 156.354,373.26 153.213,372.882L153.213,369.353C152.437,368.965 151.66,368.577 150.86,368.177C150.423,366.624 150.03,365.048 149.684,363.472L148.508,362.295C147.732,363.072 146.955,363.848 146.155,364.648C145.767,363.483 145.379,362.319 144.979,361.119C145.367,360.343 145.756,359.567 146.155,358.767L146.203,358.774Z" fill="#FFFFFF"/>
<path d="M120.325,181.16C125.054,181.887 128.323,184.183 132.087,187.041C133.287,189.17 133.287,189.17 134.44,191.746C134.94,192.723 135.441,193.699 135.957,194.71C139.31,201.568 141.039,206.461 140.321,214.119C138.769,214.507 137.216,214.895 135.616,215.295C135.349,214.203 135.082,213.107 134.807,211.99C133.007,207.614 131.619,206.614 127.385,204.709L125.032,204.709C124.79,203.64 124.547,202.58 124.297,201.474C122.298,196.757 120.004,195.428 115.616,192.946C116.005,190.229 116.393,187.512 116.793,184.712L122.674,184.712C121.898,184.324 121.121,183.936 120.321,183.536L120.321,181.184L120.325,181.16Z" fill="#FFFFFF"/>
<path d="M25.049,207.037C26.213,207.426 27.378,207.814 28.578,208.214C29.436,210.648 29.436,210.648 29.977,213.577C30.164,214.549 30.35,215.518 30.542,216.518C30.671,217.268 30.8,218.024 30.932,218.788L34.461,218.788C34.849,218.4 35.238,218.012 35.637,217.612C37.602,217.564 39.554,217.562 41.519,217.612L41.519,219.964L37.99,219.964L42.695,222.317C42.307,224.258 41.919,226.199 41.519,228.198C43.46,229.751 45.4,231.303 47.4,232.903L45.047,232.903C44.659,234.456 44.271,236.008 43.871,237.608L40.342,237.608C39.954,236.832 39.566,236.055 39.166,235.256C38.39,236.032 37.614,236.808 36.814,237.608C36.037,236.832 35.261,236.055 34.461,235.256L32.109,234.079C31.721,234.856 31.332,235.632 30.932,236.432C26.263,232.256 24.251,227.116 22.699,221.141C22.583,216.247 22.839,211.448 25.051,207.026L25.049,207.037Z" fill="#E6E6E6"/>
<path d="M123.854,105.88C128.418,107.938 128.418,107.938 129.735,110.585C130.899,111.361 132.064,112.138 133.264,112.937C130.699,117.666 127.688,120.959 123.854,124.7C121.454,127.405 119.125,130.158 116.796,132.934C115.244,132.545 113.691,132.157 112.091,131.757C111.703,133.31 111.315,134.863 110.915,136.462L108.562,136.462C108.174,135.686 107.786,134.91 107.386,134.11L102.681,134.11C105.834,129.393 108.609,125.676 113.267,122.347C113.656,121.183 114.044,120.018 114.444,118.819C116.408,118.034 118.361,117.254 120.325,116.466C120.713,115.302 121.101,114.137 121.501,112.937C122.277,112.549 123.054,112.161 123.854,111.761L123.854,105.88Z" fill="#FFFFFF"/>
<path d="M108.562,382.299L115.62,382.299C120.525,397.002 120.525,397.002 119.149,403.471C118.761,404.248 118.372,405.024 117.972,405.824C118.301,407.8 118.688,409.764 119.149,411.705C113.479,409.811 111.444,404.977 108.562,399.942C106.739,396.108 104.987,392.285 103.857,388.18C104.246,387.404 104.634,386.627 105.034,385.827C105.81,386.216 106.586,386.604 107.386,387.004C107.774,385.451 108.163,383.898 108.562,382.299Z" fill="#FFFFFF"/>
<path d="M133.264,347.011C136.757,348.952 140.251,350.893 143.85,352.892L143.85,357.597L146.202,357.597L146.202,363.479L148.555,361.126L152.084,364.655C151.696,365.819 151.307,366.984 150.907,368.184C152.072,368.572 153.236,368.96 154.436,369.36C154.048,370.136 153.66,370.913 153.26,371.712C147.779,369.866 143.497,366.89 138.91,363.549C138.16,363.028 137.416,362.507 136.639,361.973C131.111,358.033 131.111,358.033 129.794,354.069C130.309,350.905 130.309,350.905 130.97,348.187C131.358,348.964 131.746,349.74 132.146,350.54C132.534,349.375 132.923,348.211 133.322,347.011L133.264,347.011Z" fill="#FFFFFF"/>
<path d="M90.919,363.479C92.671,364.569 94.4,365.678 96.141,366.784C97.6,367.705 97.6,367.705 99.082,368.642C101.517,370.536 101.517,370.536 102.693,374.065L105.045,374.065C104.269,376.394 103.493,378.723 102.693,381.122C93.718,379.805 87.284,374.818 80.344,369.36C80.732,368.584 81.121,367.807 81.52,367.007L88.578,367.007C89.354,365.843 90.131,364.679 90.93,363.479L90.919,363.479Z" fill="#FFFFFF"/>
<path d="M65.041,159.988L69.746,159.988C70.134,161.54 70.523,163.093 70.922,164.693L73.275,163.516C77.239,165.492 79.015,166.833 81.509,170.574L81.509,174.103C66.923,174.103 66.923,174.103 62.689,172.926C62.301,170.209 61.912,167.492 61.512,164.693L63.865,163.516C64.253,162.352 64.641,161.187 65.041,159.988Z" fill="#E6E6E6"/>
<path d="M26.225,151.754C31.824,154.553 32.4,156.153 34.671,161.634C36.2,166.504 36.6,171.374 36.811,176.455C35.647,176.843 34.482,177.231 33.283,177.631C32.749,177.074 32.215,176.515 31.659,175.937C29.824,173.997 29.824,173.997 27.401,172.926C26.657,170.75 26.657,170.75 26.084,168.151C25.886,167.289 25.69,166.422 25.486,165.539C25.344,164.874 25.202,164.21 25.055,163.528C25.831,163.14 26.607,162.752 27.407,162.352C27.019,158.858 26.631,155.365 26.231,151.766L26.225,151.754Z" fill="#FFFFFF"/>
<path d="M63.865,31.776C65.417,32.553 66.97,33.329 68.57,34.129C68.255,34.88 67.939,35.634 67.615,36.411C65.803,41.081 64.251,45.833 62.686,50.643L57.981,50.643C57.368,44.645 57.272,40.292 60.922,35.235C61.892,34.095 62.863,32.953 63.862,31.776L63.865,31.776Z" fill="#FFFFFF"/>
<path d="M133.264,347.011C137.345,349.34 137.345,349.34 141.497,351.716C141.303,352.662 141.109,353.61 140.909,354.586C140.283,357.28 140.283,357.28 140.321,358.774C139.933,359.55 139.545,360.326 139.145,361.126C135.099,359.585 135.099,359.585 130.911,357.597C129.617,353.728 129.97,352.057 130.911,348.187C131.299,348.964 131.687,349.74 132.087,350.54C132.476,349.375 132.864,348.211 133.264,347.011Z" fill="#FFFFFF"/>
<path d="M2.7,99.999C3.015,100.677 3.33,101.351 3.655,102.057C5.549,105.656 7.231,108.738 10.936,110.585L10.936,116.466C8.995,116.854 7.054,117.242 5.055,117.642C4.667,116.478 4.278,115.313 3.878,114.114L2.702,114.114C2.473,112.208 2.254,110.291 2.041,108.374C1.919,107.309 1.795,106.245 1.669,105.151C1.527,102.351 1.527,102.351 2.703,99.999L2.7,99.999Z" fill="#E6E6E6"/>
<path d="M96.8,347.011L94.447,348.188L94.447,351.716C92.895,352.105 91.342,352.493 89.742,352.893L89.742,358.774C87.39,357.598 87.39,357.598 86.649,355.422C86.458,354.562 86.267,353.704 86.07,352.822C85.873,351.96 85.676,351.093 85.473,350.211C85.33,349.545 85.188,348.882 85.041,348.199C88.817,346.306 92.616,346.953 96.804,347.023L96.8,347.011Z" fill="#FFFFFF"/>
<path d="M25.049,207.037L27.401,208.214L27.401,227.034L25.049,227.034C21.79,221.282 22.778,215.648 23.872,209.39C24.26,208.614 24.649,207.837 25.049,207.037Z" fill="#FFFFFF"/>
<path d="M110.915,125.876C112.079,126.264 113.244,126.653 114.444,127.052L114.444,130.581C113.279,131.358 112.115,132.134 110.915,132.934L110.915,136.462L108.562,136.462C108.174,135.686 107.786,134.91 107.386,134.11L102.681,134.11C103.857,131.757 103.857,131.757 107.386,130.581C109.374,128.229 109.374,128.229 110.915,125.876Z" fill="#FFFFFF"/>
<path d="M107.386,176.455L116.796,176.455C117.184,178.008 117.573,179.56 117.972,181.16C114.444,183.512 114.444,183.512 110.915,183.512C110.769,182.567 110.624,181.619 110.474,180.642C110.11,179.149 110.11,179.149 109.739,177.631L107.386,176.455Z" fill="#FFFFFF"/>
<path d="M186.195,461.108C191.629,463.048 197.064,464.989 202.663,466.989C201.498,468.741 201.498,468.741 200.31,470.518C194.993,469.893 191.582,467.895 187.371,464.636C186.983,463.472 186.595,462.307 186.195,461.108Z" fill="#FFFFFF"/>
<path d="M125.03,108.233L126.206,108.233L126.206,114.114C126.983,114.502 127.759,114.89 128.559,115.29C128.171,116.066 127.782,116.843 127.383,117.643L125.03,117.643C124.642,118.419 124.254,119.195 123.854,119.995L120.325,119.995C120.104,117.196 120.104,117.196 120.325,114.114C121.49,113.337 122.654,112.561 123.854,111.761C124.242,110.597 124.63,109.432 125.03,108.233Z" fill="#FFFFFF"/>
<path d="M42.692,176.455L54.455,176.455C54.067,177.231 53.679,178.008 53.279,178.807C50.844,179.294 50.844,179.294 47.915,179.543C46.943,179.631 45.974,179.719 44.974,179.81C43.849,179.896 43.849,179.896 42.704,179.984L42.704,176.455L42.692,176.455Z" fill="#FFFFFF"/>
<path d="M123.854,105.88C128.418,107.938 128.418,107.938 129.735,110.585C130.899,111.361 132.064,112.138 133.264,112.937L129.735,116.466C127.382,115.29 127.382,115.29 126.206,114.114C126.158,112.149 126.156,110.197 126.206,108.232L123.854,108.232L123.854,105.88Z" fill="#FFFFFF"/>
<path d="M70.922,18.838L73.275,18.838C72.354,23.448 70.464,27.495 68.57,31.776L65.041,31.776C65.482,29.494 65.482,29.494 66.218,27.071C66.994,26.683 67.77,26.295 68.57,25.895C69.425,23.566 70.217,21.214 70.922,18.838Z" fill="#FFFFFF"/>
<path d="M126.206,376.417L130.911,376.417L130.911,379.946L127.383,379.946C126.994,378.782 126.606,377.617 126.206,376.417Z" fill="#FFFFFF"/>
<path d="M187.371,22.366C188.106,24.578 188.106,24.578 188.548,27.071C187.771,27.848 186.995,28.624 186.195,29.424C185.807,28.647 185.419,27.871 185.019,27.071C186.122,24.578 186.122,24.578 187.371,22.366Z" fill="#FFFFFF"/>
<path d="M61.512,65.887C61.901,67.44 62.289,68.993 62.689,70.592C61.912,69.428 61.136,68.263 60.336,67.064C60.724,66.676 61.113,66.287 61.512,65.887Z" fill="#FFFFFF"/>
<path d="M132.087,343.483L134.44,343.483C134.052,344.259 133.664,345.035 133.264,345.835C132.875,345.059 132.487,344.282 132.087,343.483Z" fill="#FFFFFF"/>
</svg>
