<svg width="44" height="46" viewBox="0 0 44 46" fill="none" xmlns="http://www.w3.org/2000/svg" xmlns:xlink="http://www.w3.org/1999/xlink">
<path d="M44,21.16C44,20.056 43.105,19.16 42,19.16C40.895,19.16 40,20.056 40,21.16L44,21.16ZM42,23L44,23.001L44,23L42,23ZM29.326,6.547C30.335,6.997 31.517,6.543 31.967,5.534C32.416,4.525 31.963,3.343 30.954,2.893L29.326,6.547ZM40,21.16L40,23L44,23L44,21.16L40,21.16ZM40,22.999C39.998,26.881 38.741,30.658 36.417,33.766L39.621,36.161C42.461,32.362 43.997,27.746 44,23.001L40,22.999ZM36.417,33.766C34.093,36.875 30.826,39.15 27.104,40.25L28.238,44.086C32.787,42.741 36.78,39.961 39.621,36.161L36.417,33.766ZM27.104,40.25C23.381,41.351 19.403,41.219 15.762,39.873L14.376,43.625C18.826,45.27 23.688,45.431 28.238,44.086L27.104,40.25ZM15.762,39.873C12.121,38.528 9.012,36.042 6.9,32.786L3.544,34.963C6.126,38.943 9.926,41.981 14.376,43.625L15.762,39.873ZM6.9,32.786C4.787,29.53 3.784,25.678 4.039,21.804L0.048,21.541C-0.264,26.275 0.962,30.983 3.544,34.963L6.9,32.786ZM4.039,21.804C4.294,17.931 5.795,14.244 8.317,11.294L5.276,8.695C2.194,12.301 0.36,16.807 0.048,21.541L4.039,21.804ZM8.317,11.294C10.839,8.343 14.247,6.287 18.033,5.431L17.152,1.53C12.524,2.575 8.359,5.089 5.276,8.695L8.317,11.294ZM18.033,5.431C21.819,4.576 25.78,4.967 29.326,6.547L30.954,2.893C26.621,0.963 21.779,0.484 17.152,1.53L18.033,5.431Z" fill="#00CD6A"/>
<path d="M43.415,8.414C44.196,7.632 44.195,6.366 43.414,5.585C42.632,4.804 41.366,4.805 40.585,5.586L43.415,8.414ZM22,27.02L20.586,28.434C20.961,28.809 21.47,29.02 22.001,29.02C22.531,29.02 23.04,28.809 23.415,28.434L22,27.02ZM17.414,19.606C16.633,18.825 15.367,18.825 14.586,19.606C13.805,20.387 13.805,21.653 14.586,22.434L17.414,19.606ZM40.585,5.586L20.585,25.606L23.415,28.434L43.415,8.414L40.585,5.586ZM23.414,25.606L17.414,19.606L14.586,22.434L20.586,28.434L23.414,25.606Z" fill="#00CD6A"/>
</svg>
