<svg width="102" height="214" viewBox="0 0 102 214" fill="none" xmlns="http://www.w3.org/2000/svg" xmlns:xlink="http://www.w3.org/1999/xlink">
<path d="M12.851,-0.206C13.78,-0.207 14.71,-0.207 15.674,-0.208C18.744,-0.205 21.826,-0.178 24.896,-0.15C27.025,-0.144 29.154,-0.139 31.295,-0.135C36.906,-0.122 42.516,-0.087 48.115,-0.048C53.844,-0.012 59.56,0.004 65.288,0.022C76.522,0.06 87.755,0.12 98.929,0.194C99.184,1.582 99.184,1.582 99.444,2.993C99.962,6.04 99.962,6.04 101.279,8.428C101.69,17.508 101.345,26.424 100.103,35.481L97.751,35.481C97.168,37.234 97.168,37.234 96.574,39.01L77.754,39.01L77.754,171.926C83.189,172.314 88.623,172.703 94.222,173.102C96.163,173.491 98.103,173.879 100.103,174.279C100.491,186.276 100.879,198.392 101.279,210.743C95.045,213.237 95.045,213.237 89.517,211.919C86.647,211.835 83.765,211.817 80.895,211.841C80.049,211.847 79.201,211.853 78.331,211.857C76.508,211.871 74.673,211.885 72.849,211.903C69.956,211.929 67.062,211.945 64.18,211.959C55.958,211.997 47.713,212.047 39.479,212.121C34.445,212.165 29.41,212.191 24.423,212.209C22.506,212.217 20.589,212.233 18.671,212.257C16.001,212.287 13.319,212.297 10.649,212.301C9.12,212.313 7.603,212.323 6.038,212.335C4.286,212.129 4.286,212.129 2.486,211.919C-0.219,207.861 -0.172,206.297 -0.184,201.521C-0.187,200.169 -0.19,198.827 -0.193,197.439C-0.184,196.028 -0.175,194.628 -0.166,193.17C-0.175,191.77 -0.184,190.358 -0.193,188.912C-0.19,187.559 -0.187,186.218 -0.184,184.83C-0.181,183.595 -0.179,182.36 -0.176,181.09C0.129,177.808 0.129,177.808 2.482,173.103L23.655,173.103L23.655,39.01L3.659,39.01C-0.07,34.035 -0.317,33.129 -0.341,27.283C-0.345,25.93 -0.35,24.59 -0.354,23.202C-0.341,21.802 -0.327,20.39 -0.313,18.944C-0.327,17.532 -0.34,16.132 -0.354,14.674C-0.35,13.321 -0.345,11.98 -0.341,10.592C-0.337,9.357 -0.333,8.122 -0.329,6.852C0.128,3.723 0.128,3.723 1.353,1.782C4.929,-0.688 8.623,-0.276 12.81,-0.218L12.851,-0.206Z" fill="#FFFFFF"/>
<path d="M66.959,36.258C69.676,37.034 72.393,37.81 75.192,38.61C74.804,43.268 74.416,47.926 74.016,52.725L77.545,52.725L77.545,171.526C85.696,172.109 85.696,172.109 94.012,172.703C95.953,173.091 97.894,173.479 99.894,173.879C100.282,185.877 100.67,197.992 101.07,210.343C94.742,212.872 94.742,212.872 89.307,211.519C86.437,211.264 83.579,211.045 80.709,210.858C79.239,210.759 77.757,210.66 76.239,210.559C75.118,210.488 73.993,210.417 72.84,210.343C76.592,207.837 79.039,207.402 83.426,206.814C81.674,205.868 81.674,205.868 79.897,204.908C78.145,203.52 78.145,203.52 76.369,202.109C75.928,198.286 75.928,198.286 76.369,195.051L81.074,195.051C81.462,194.275 81.85,193.499 82.25,192.699C81.862,192.311 81.474,191.923 81.074,191.523L81.074,189.17C80.297,188.782 79.521,188.394 78.721,187.994L78.721,184.465C77.824,184.829 76.921,185.193 76.004,185.568C73.793,186.44 71.57,187.239 69.311,187.992C69.699,189.156 70.088,190.32 70.487,191.52L63.43,191.52C63.261,190.062 63.09,188.603 62.915,187.109C62.17,181.216 60.645,175.982 58.727,170.407C59.504,170.795 60.28,171.183 61.08,171.583C62.962,161.138 63.785,152.41 61.677,141.941C61.08,138.648 61.08,138.648 61.145,135.495C61.316,132.437 61.316,132.437 58.733,129.238C58.504,126.579 58.504,126.579 58.586,123.721C58.607,122.771 58.629,121.816 58.651,120.839C58.678,120.116 58.705,119.393 58.733,118.652C56.792,117.875 54.852,117.099 52.852,116.299C52.705,113.5 52.705,113.5 52.852,110.418C53.628,109.641 54.405,108.865 55.204,108.065C56.336,103.125 56.392,99.043 55.793,94.068C55.167,88.61 55.133,84.082 56.381,78.659C58.733,76.965 58.733,76.965 61.086,76.307C62.756,74.919 62.756,74.919 62.333,70.943C62.308,69.614 62.284,68.273 62.259,66.897C63.812,66.508 65.364,66.12 66.964,65.72L66.964,57.487C65.8,57.098 64.635,56.71 63.435,56.31C63.823,53.981 64.212,51.652 64.612,49.253C66.552,48.865 68.493,48.476 70.493,48.077C69.328,47.688 68.164,47.3 66.964,46.9L66.964,36.314L66.959,36.258Z" fill="#E6E6E6"/>
<path d="M82.25,-0.206L97.541,-0.206C97.929,1.735 98.318,3.675 98.718,5.675C99.106,6.451 99.494,7.228 99.894,8.027C100.304,17.108 99.959,26.024 98.718,35.081L96.365,35.081C95.977,36.246 95.589,37.41 95.189,38.61L77.545,38.61L77.545,36.257C78.661,36.015 79.78,35.772 80.933,35.522C84.885,34.264 84.885,34.264 86.155,30.594C86.422,29.359 86.689,28.124 86.964,26.842C87.207,25.846 87.45,24.854 87.699,23.83C88.155,20.866 88.226,18.079 88.141,15.079C87.752,17.02 87.364,18.961 86.964,20.96L85.788,20.96C85.494,11.997 85.494,11.997 88.141,8.022C88.943,6.457 89.729,4.893 90.493,3.317C87.776,2.54 85.059,1.764 82.259,0.964L82.259,-0.212L82.25,-0.206Z" fill="#FFFFFF"/>
<path d="M10.499,-0.206C12.628,-0.189 12.628,-0.189 14.804,-0.172C17.027,-0.127 17.027,-0.127 19.309,-0.082C21.555,-0.058 21.555,-0.058 23.849,-0.034C27.554,0.008 31.259,0.066 34.965,0.138L34.965,1.314L9.087,1.314L9.087,3.667C9.863,4.055 10.64,4.443 11.44,4.843C11.918,7.572 12.315,10.324 12.616,13.077C11.451,13.465 10.287,13.853 9.087,14.253L9.087,29.544L5.558,29.544C5.362,32.391 5.362,32.391 5.558,35.425L7.911,37.778C5.582,38.36 5.582,38.36 3.206,38.954C-0.323,35.061 -0.77,32.426 -0.793,27.227C-0.798,25.874 -0.802,24.533 -0.807,23.145C-0.793,21.746 -0.78,20.334 -0.766,18.887C-0.779,17.476 -0.793,16.076 -0.807,14.618C-0.803,13.265 -0.798,11.924 -0.793,10.536C-0.789,9.301 -0.785,8.066 -0.781,6.795C-0.325,3.667 -0.325,3.667 1.018,1.491C4.218,-0.497 6.759,-0.262 10.499,-0.215L10.499,-0.206Z" fill="#FFFFFF"/>
<path d="M2.265,172.702C7.629,173.218 11.181,173.702 15.204,177.407L10.499,177.407C11.627,178.462 11.627,178.462 12.781,179.536C15.204,182.112 15.204,182.112 16.38,185.641C13.522,193.546 13.522,193.546 10.499,195.051C9.952,197.286 9.952,197.286 9.764,199.827C9.618,201.356 9.473,202.885 9.323,204.461L8.146,204.461C7.758,200.968 7.37,197.474 6.97,193.875C6.751,196.31 6.751,196.31 6.529,198.803C6.071,203.003 5.306,206.508 3.447,210.342C4.612,210.731 5.776,211.119 6.976,211.519C4.106,211.078 4.106,211.078 1.095,210.342C-1.446,205.261 -0.293,198.462 -0.305,192.816C-0.319,191.405 -0.334,189.993 -0.349,188.546C-0.351,187.194 -0.353,185.841 -0.356,184.441C-0.36,183.195 -0.365,181.959 -0.37,180.677C-0.086,177.396 0.573,175.467 2.264,172.667L2.265,172.702Z" fill="#FFFFFF"/>
<path d="M23.438,56.254C24.602,58.006 24.602,58.006 25.79,59.783C26.954,59.394 28.119,59.006 29.319,58.606L29.319,91.541L26.966,91.541L26.966,104.48C25.802,104.092 24.637,103.704 23.438,103.304L23.438,56.254Z" fill="#E6E6E6"/>
<path d="M76.369,171.526C79.192,171.693 82.003,171.865 84.826,172.041C85.619,172.088 86.414,172.134 87.225,172.181C91.589,172.459 95.577,173.015 99.929,173.875L99.929,200.929L98.753,200.929C97.976,195.107 97.2,189.284 96.4,183.285C92.366,182.484 92.366,182.484 88.237,181.662C85.449,181.109 82.673,180.49 79.933,179.756C79.545,178.98 79.156,178.204 78.756,177.404C79.145,176.628 79.533,175.851 79.933,175.051L77.58,175.051C77.192,173.887 76.804,172.722 76.404,171.523L76.369,171.526Z" fill="#FFFFFF"/>
<path d="M24.614,40.963C25.002,41.739 25.39,42.515 25.79,43.315L29.319,43.315C29.707,45.644 30.095,47.973 30.495,50.373C29.331,49.984 28.166,49.596 26.966,49.196C27.355,50.361 27.743,51.525 28.143,52.725C26.978,53.307 26.978,53.307 25.79,53.901C25.014,53.513 24.237,53.125 23.438,52.725C23.291,44.938 23.291,44.938 24.614,40.963Z" fill="#E6E6E6"/>
<path d="M24.614,157.411C28.143,159.764 28.143,159.764 29.178,163.81C29.325,167.997 29.325,167.997 27.637,170.279C27.03,170.692 26.425,171.104 25.802,171.526C22.92,167.209 23.167,164.857 23.449,159.764C23.837,158.987 24.226,158.211 24.626,157.411L24.614,157.411Z" fill="#E6E6E6"/>
<path d="M82.25,18.614L82.25,26.848L79.897,26.848C80.286,28.012 80.674,29.176 81.074,30.376C79.521,29.988 77.968,29.6 76.369,29.2C76.393,28.084 76.417,26.965 76.442,25.812C76.634,22.248 76.634,22.248 75.195,19.79C77.548,18.614 77.548,18.614 82.253,18.614L82.25,18.614Z" fill="#E6E6E6"/>
<path d="M76.369,171.526C82.191,171.915 88.014,172.303 94.012,172.703L94.012,175.055L77.545,175.055C77.157,173.891 76.769,172.726 76.369,171.526Z" fill="#FFFFFF"/>
</svg>
