<svg width="46" height="46" viewBox="0 0 46 46" fill="none" xmlns="http://www.w3.org/2000/svg" xmlns:xlink="http://www.w3.org/1999/xlink">
<path d="M45,21.16C45,20.055 44.105,19.16 43,19.16C41.895,19.16 41,20.055 41,21.16L45,21.16ZM43,23L45,23.001L45,23L43,23ZM30.326,6.547C31.335,6.996 32.517,6.543 32.967,5.534C33.416,4.525 32.963,3.342 31.954,2.893L30.326,6.547ZM41,21.16L41,23L45,23L45,21.16L41,21.16ZM41,22.999C40.998,26.88 39.741,30.657 37.417,33.766L40.621,36.161C43.461,32.361 44.997,27.745 45,23.001L41,22.999ZM37.417,33.766C35.093,36.875 31.826,39.149 28.104,40.25L29.238,44.085C33.787,42.74 37.78,39.961 40.621,36.161L37.417,33.766ZM28.104,40.25C24.381,41.35 20.403,41.218 16.762,39.873L15.376,43.625C19.826,45.269 24.688,45.43 29.238,44.085L28.104,40.25ZM16.762,39.873C13.121,38.528 10.012,36.041 7.9,32.785L4.544,34.962C7.126,38.942 10.926,41.981 15.376,43.625L16.762,39.873ZM7.9,32.785C5.787,29.529 4.784,25.677 5.039,21.804L1.048,21.541C0.736,26.275 1.962,30.982 4.544,34.962L7.9,32.785ZM5.039,21.804C5.294,17.931 6.795,14.244 9.317,11.293L6.276,8.694C3.194,12.301 1.36,16.807 1.048,21.541L5.039,21.804ZM9.317,11.293C11.839,8.343 15.247,6.286 19.033,5.431L18.152,1.529C13.524,2.575 9.359,5.088 6.276,8.694L9.317,11.293ZM19.033,5.431C22.819,4.575 26.78,4.967 30.326,6.547L31.954,2.893C27.621,0.962 22.779,0.484 18.152,1.529L19.033,5.431Z" fill="#00CD6A"/>
<path d="M44.415,8.414C45.196,7.632 45.195,6.366 44.414,5.585C43.632,4.804 42.366,4.805 41.585,5.586L44.415,8.414ZM23,27.02L21.586,28.434C21.961,28.809 22.47,29.02 23.001,29.02C23.531,29.02 24.04,28.809 24.415,28.434L23,27.02ZM18.414,19.606C17.633,18.825 16.367,18.825 15.586,19.606C14.805,20.387 14.805,21.653 15.586,22.434L18.414,19.606ZM41.585,5.586L21.585,25.606L24.415,28.434L44.415,8.414L41.585,5.586ZM24.414,25.606L18.414,19.606L15.586,22.434L21.586,28.434L24.414,25.606Z" fill="#00CD6A"/>
</svg>
