<svg width="104" height="214" viewBox="0 0 104 214" fill="none" xmlns="http://www.w3.org/2000/svg" xmlns:xlink="http://www.w3.org/1999/xlink">
<path d="M3.241,-0.206L100.87,-0.206C105.293,10.839 104.34,24.848 100.87,36.257C100.094,37.034 99.317,37.81 98.518,38.61C95.777,38.218 93.024,37.825 90.284,37.434C88.414,37.563 86.555,37.746 84.697,37.981C83.756,38.096 82.815,38.211 81.85,38.33C81.14,38.422 80.427,38.515 79.698,38.611C79.67,55.196 79.649,71.899 79.637,88.484C79.63,96.212 79.622,103.893 79.609,111.656C79.596,119.102 79.589,126.595 79.586,134.005C79.584,136.851 79.58,139.698 79.573,142.544C79.565,146.52 79.563,150.508 79.564,154.425C79.558,156.201 79.558,156.201 79.551,158C79.554,159.624 79.554,159.624 79.556,161.294C79.555,162.235 79.554,163.176 79.553,164.14C79.698,166.716 80.163,168.963 80.87,171.421C82.47,171.508 82.47,171.508 84.093,171.595C85.481,171.683 86.869,171.772 88.292,171.862C89.669,171.944 91.045,172.026 92.468,172.111C96.891,172.694 98.855,173.922 101.655,177.38C103.795,182.109 103.642,186.143 103.513,191.26C103.507,192.174 103.501,193.083 103.495,194.036C103.421,199.529 102.867,204.787 102.048,210.269C85.345,211.633 68.76,211.527 52.057,211.419C48.481,211.399 44.917,211.383 41.342,211.371C40.195,211.365 39.048,211.359 37.86,211.353C29.156,211.349 20.569,211.863 11.982,212.707C7.536,212.609 5.56,211.877 2.125,209.095C0.89,205.379 0.89,203.015 1.05,199.132C1.102,197.886 1.153,196.627 1.207,195.345C1.267,194.039 1.328,192.734 1.39,191.381C1.442,190.075 1.493,188.758 1.547,187.405C1.972,177.642 1.972,177.642 3.299,174.937C5.358,174.234 5.358,174.234 8.004,173.69C9.428,173.397 9.428,173.397 10.874,173.097C14.709,172.448 18.543,172.085 22.413,171.815C23.092,171.682 23.766,171.548 24.472,171.411C25.86,168.646 25.801,167.011 25.801,163.918C25.806,162.839 25.811,161.765 25.816,160.648C25.815,158.872 25.815,158.872 25.815,157.049C25.819,155.802 25.822,154.555 25.827,153.273C25.838,149.132 25.84,144.992 25.841,140.805C25.845,137.935 25.849,135.076 25.853,132.206C25.86,126.196 25.862,120.208 25.862,114.21C25.862,106.493 25.878,98.801 25.898,91.037C25.911,85.121 25.913,79.157 25.913,73.276C25.914,70.43 25.919,67.583 25.928,64.736C25.94,60.761 25.937,56.785 25.929,52.856C25.936,51.668 25.943,50.48 25.949,49.257C25.945,48.178 25.94,47.104 25.935,45.987C25.935,44.576 25.935,44.576 25.936,43.141C25.845,40.576 25.845,40.576 23.29,38.506C20.349,38.354 20.349,38.354 17.044,38.58C11.833,38.668 8.504,38.617 4.458,34.98C-0.129,27.217 -0.988,16.748 -0.247,7.927C0.918,5.209 2.082,2.492 3.282,-0.307L3.241,-0.206Z" fill="#FFFFFF"/>
<path d="M3.241,-0.206L100.87,-0.206C105.293,10.839 104.34,24.848 100.87,36.258C100.094,37.034 99.317,37.81 98.518,38.61C95.777,38.218 93.024,37.825 90.284,37.434C86.732,37.648 83.226,38.09 79.698,38.61C79.068,43.574 78.51,48.385 78.594,53.431C78.491,59.089 77.936,64.711 74.254,69.193C73.453,69.775 73.453,69.775 72.631,70.369L72.631,66.84L70.278,66.84L69.102,69.193C65.491,61.676 65.491,61.676 65.867,58.536C66.158,57.784 66.449,57.03 66.749,56.254C68.079,51.502 67.909,48.702 66.161,44.256C64.162,38.963 64.538,35.022 65.352,29.553C65.787,26.824 65.787,26.824 64.323,24.025C62.464,19.072 64.359,14.332 65.57,9.321C65.958,7.381 66.346,5.44 66.746,3.44C71.016,3.052 75.285,2.664 79.685,2.264C59.453,1.876 39.339,1.488 18.52,1.088L18.52,3.44C19.684,3.828 20.849,4.216 22.048,4.616C20.566,7.592 19.072,7.863 16.167,9.321C16.555,10.486 16.943,11.65 17.343,12.85C14.45,14.297 12.309,14.109 9.11,14.026L9.11,22.26L12.638,22.26C13.027,21.484 13.415,20.708 13.815,19.908C16.061,23.636 16.355,25.918 15.72,30.2C15.525,31.611 15.525,31.611 15.325,33.046C15.213,33.756 15.1,34.47 14.985,35.199C18.09,35.587 21.196,35.975 24.395,36.375C24.007,37.152 23.619,37.928 23.219,38.728C9.104,39.398 9.104,39.398 4.399,35.199C-0.189,27.436 -1.047,16.967 -0.306,8.145C0.858,5.428 2.023,2.711 3.222,-0.089L3.241,-0.206Z" fill="#FFFFFF"/>
<path d="M73.816,111.537C74.593,111.926 75.369,112.314 76.169,112.714C77.404,116.419 77.462,119.054 77.415,122.935C77.405,124.105 77.394,125.276 77.383,126.476C77.37,127.369 77.356,128.264 77.342,129.181C78.118,129.569 78.895,129.958 79.694,130.357C79.688,131.437 79.682,132.522 79.676,133.628C79.656,137.639 79.641,141.661 79.63,145.625C79.624,147.366 79.616,149.095 79.606,150.836C79.591,153.33 79.585,155.835 79.58,158.329C79.573,159.834 79.567,161.34 79.561,162.881C79.669,166.01 79.928,168.503 80.866,171.467C81.93,171.525 82.995,171.583 84.089,171.642C85.477,171.73 86.865,171.818 88.289,171.909C89.665,171.99 91.041,172.072 92.464,172.157C96.887,172.74 98.851,173.968 101.651,177.426C103.792,182.155 103.639,186.189 103.509,191.306C103.503,192.22 103.497,193.129 103.491,194.082C103.417,199.587 102.936,204.857 102.044,210.314C92.199,211.057 82.401,211.608 72.52,211.632C71.7,211.637 70.885,211.642 70.038,211.648C65.31,211.634 60.84,211.22 56.159,210.307L56.159,209.131C56.995,209.072 57.829,209.013 58.699,208.952C62.487,208.679 66.274,208.391 70.062,208.101C71.379,208.009 72.697,207.917 74.049,207.821C75.308,207.723 76.578,207.624 77.872,207.523C79.613,207.393 79.613,207.393 81.401,207.262C84.671,206.946 84.671,206.946 87.917,204.427C86.365,204.039 84.812,203.651 83.212,203.251L83.212,198.546C86.129,197.381 86.129,197.381 89.094,196.193C85.553,195.017 83.165,194.899 79.46,194.946C78.4,194.957 77.343,194.967 76.249,194.978C75.441,194.992 74.638,195.006 73.802,195.02L73.802,192.667C70.309,193.25 70.309,193.25 66.745,193.844C65.969,192.291 65.192,190.738 64.392,189.139L62.04,189.139L62.04,183.257C60.875,184.422 59.711,185.586 58.511,186.786L58.511,180.905C61.228,180.128 63.945,179.352 66.745,178.552C66.576,177.741 66.405,176.929 66.23,176.094C63.913,164.39 64.336,153.863 65.569,142.1L64.392,142.1C63.368,136.772 62.899,133.878 65.569,129.161C65.544,128.166 65.52,127.174 65.495,126.15C65.569,123.28 65.569,123.28 67.33,121.151C67.912,120.69 68.495,120.229 69.094,119.751L70.271,120.928C71.435,117.822 72.6,114.717 73.799,111.518L73.816,111.537Z" fill="#E6E6E6"/>
<path d="M24.414,172.703L24.414,187.994L19.709,187.994C19.321,189.158 18.933,190.323 18.533,191.523L18.533,189.17L16.18,189.17L16.18,196.228L18.533,196.228C19.309,200.886 20.085,205.543 20.885,210.343C9.005,213.071 9.005,213.071 4.3,211.298C2.089,209.169 2.089,209.169 0.912,205.64C0.88,203.499 0.924,201.347 1.013,199.206C1.065,197.959 1.117,196.7 1.17,195.418C1.231,194.113 1.291,192.807 1.353,191.454C1.405,190.149 1.456,188.831 1.51,187.479C1.936,177.716 1.936,177.716 3.262,175.01C10.167,172.517 17.142,172.423 24.435,172.658L24.414,172.703Z" fill="#FFFFFF"/>
<path d="M3.241,-0.206L79.698,-0.206L79.698,0.97C66.288,2.287 53.232,2.076 39.823,1.631C37.741,1.568 35.671,1.506 33.589,1.445C28.554,1.296 23.532,1.136 18.533,0.97L18.533,3.322C19.697,3.711 20.862,4.099 22.061,4.499C20.579,7.475 19.085,7.745 16.18,9.204C16.568,10.368 16.956,11.533 17.356,12.732C14.463,14.179 12.322,13.991 9.123,13.909L9.123,22.143L12.651,22.143C13.039,21.366 13.428,20.59 13.828,19.79C16.074,23.519 16.368,25.801 15.733,30.082C15.538,31.494 15.538,31.494 15.338,32.929C15.226,33.638 15.113,34.352 14.998,35.081C18.103,35.469 21.209,35.858 24.408,36.258C24.02,37.034 23.632,37.81 23.232,38.61C9.117,39.281 9.117,39.281 4.412,35.081C-0.176,27.318 -1.034,16.849 -0.293,8.027C0.871,5.31 2.036,2.593 3.235,-0.206L3.241,-0.206Z" fill="#FFFFFF"/>
<path d="M3.241,-0.206L12.651,-0.206C11.923,0.036 11.193,0.279 10.44,0.529C6.758,2.917 6.617,4.928 5.594,9.21C4.989,12.927 4.418,16.643 3.9,20.372C3.681,21.347 3.464,22.325 3.239,23.325C2.463,23.713 1.686,24.101 0.886,24.501C-0.278,15.432 -0.525,8.386 3.239,-0.2L3.241,-0.206Z" fill="#FFFFFF"/>
<path d="M3.241,175.055C4.794,175.831 6.347,176.608 7.946,177.407C6.782,181.289 5.617,185.171 4.418,189.17L3.241,189.17C3.012,187.264 2.793,185.347 2.58,183.43C2.458,182.365 2.334,181.301 2.209,180.207C2.066,177.407 2.066,177.407 3.242,175.055L3.241,175.055Z" fill="#FFFFFF"/>
</svg>
