<svg width="38" height="34" viewBox="0 0 38 34" fill="none" xmlns="http://www.w3.org/2000/svg" xmlns:xlink="http://www.w3.org/1999/xlink">
<path d="M7.711,-0.206C9.546,-0.197 9.546,-0.197 11.428,-0.188C12.746,-0.184 14.075,-0.18 15.439,-0.176C16.827,-0.166 18.227,-0.156 19.662,-0.146C21.062,-0.141 22.461,-0.136 23.896,-0.13C27.366,-0.116 30.825,-0.097 34.294,-0.073C36.647,8.89 36.647,8.89 36.647,12.866C33.071,12.963 30.683,12.838 27.237,11.69C26.97,12.587 26.703,13.49 26.428,14.407C24.569,18.206 22.723,19.23 19.006,21.1C19.296,22.192 19.296,22.192 19.594,23.311C20.437,26.899 19.943,29.357 19.006,32.862C15.03,33.856 12.336,34.168 8.419,32.862L8.419,25.805L10.772,25.805C11.548,25.029 12.324,24.252 13.124,23.452C13.512,23.841 13.901,24.229 14.301,24.629C14.689,23.852 15.077,23.076 15.477,22.276L11.948,22.276C11.56,21.5 11.172,20.724 10.772,19.924C9.607,19.414 9.607,19.414 8.419,18.894C6.067,17.577 6.067,17.577 5.185,15.072C5.039,13.98 5.039,13.98 4.891,12.86C3.338,12.472 1.785,12.084 0.186,11.684C0.574,10.908 0.962,10.131 1.362,9.331L3.714,9.331L3.714,6.979L7.243,6.979C7.509,4.485 7.509,4.485 5.479,2.721C4.896,2.187 4.314,1.653 3.714,1.098C4.891,-0.078 4.891,-0.078 7.725,-0.208L7.711,-0.206Z" fill="#FFFFFF"/>
<path d="M23.003,3.323L23.003,10.38C20.285,10.768 17.568,11.156 14.769,11.556C13.992,9.227 13.216,6.898 12.416,4.499C15.898,2.758 19.168,3.252 23.003,3.323Z" fill="#FFFFFF"/>
</svg>
