<svg width="58" height="70" viewBox="0 0 58 70" fill="none" xmlns="http://www.w3.org/2000/svg" xmlns:xlink="http://www.w3.org/1999/xlink">
<path d="M34.333,25.146C36.429,24.101 39.096,22.563 41.767,20.455C42.33,21.624 42.391,22.644 42.101,23.468C41.896,24.049 41.508,24.554 40.999,24.956C40.447,25.39 39.759,25.706 38.997,25.877C37.552,26.202 35.865,26.012 34.333,25.146ZM34.697,35.855L37.471,37.458C31.806,40.633 30.266,46.529 28.437,52.272C26.607,46.529 25.067,40.633 19.402,37.458L22.177,35.855C22.445,35.754 22.674,35.57 22.832,35.33C22.99,35.09 23.067,34.807 23.054,34.52C22.799,29.142 24.252,26.764 26.21,25.27C26.913,24.736 27.68,24.467 28.437,24.467C29.193,24.467 29.96,24.736 30.663,25.27C32.622,26.764 34.074,29.142 33.82,34.52C33.806,34.807 33.884,35.09 34.041,35.33C34.199,35.57 34.428,35.754 34.697,35.855ZM28.437,0.738C31.644,0.824 34.859,1.447 37.649,2.658C39.582,3.498 41.385,4.607 43.017,5.934C43.754,6.533 44.362,7.111 45.03,7.777C46.834,7.84 49.47,5.836 50.694,3.961C48.588,10.866 38.977,19.019 32.323,22.139C32.321,22.138 32.319,22.136 32.317,22.135C31.123,21.223 29.78,20.767 28.437,20.767C27.093,20.767 25.751,21.223 24.557,22.135C24.555,22.136 24.553,22.138 24.55,22.139C17.896,19.019 8.286,10.866 6.18,3.961C7.403,5.836 10.039,7.84 11.843,7.777C12.512,7.112 13.119,6.533 13.856,5.934C15.489,4.607 17.292,3.498 19.224,2.658C22.014,1.447 25.23,0.824 28.437,0.738ZM22.54,25.146C20.444,24.101 17.777,22.563 15.107,20.455C14.544,21.624 14.482,22.644 14.772,23.468C14.978,24.049 15.365,24.554 15.874,24.956C16.426,25.39 17.115,25.706 17.876,25.877C19.321,26.202 21.008,26.012 22.54,25.146Z" clip-rule="evenodd" fill-rule="evenodd" fill="#FFFFFF"/>
<path d="M44.689,17.872C46.159,16.388 47.455,14.746 48.496,13.281L49.025,14.277C50.728,17.684 51.613,21.077 51.613,24.896L51.609,30.956L51.641,34.097C51.764,41.81 53.433,49.612 57.213,56.753L49.304,50.376L43.708,59.457L37.829,53.922L28.435,69.168L19.04,53.923L13.161,59.457L7.565,50.376L-0.344,56.753C3.436,49.613 5.105,41.81 5.229,34.098L5.261,30.956L5.257,24.896C5.257,21.077 6.141,17.684 7.845,14.277L8.374,13.281C9.415,14.747 10.71,16.388 12.18,17.872L11.721,18.826C10.829,20.678 10.534,22.749 11.229,24.718C11.677,25.987 12.494,27.075 13.548,27.905C14.571,28.712 15.782,29.255 17.05,29.541C17.876,29.727 18.717,29.803 19.553,29.777C19.358,30.883 19.273,32.03 19.268,33.198L11.807,37.507L17.564,40.734C18.024,40.992 18.462,41.288 18.874,41.618C23.62,45.879 26.474,58.486 28.435,64.644C30.396,58.486 33.25,45.879 37.996,41.618C38.408,41.288 38.846,40.992 39.306,40.734L45.063,37.507L37.602,33.198C37.597,32.03 37.512,30.883 37.316,29.777C38.152,29.803 38.994,29.727 39.82,29.541C41.088,29.255 42.299,28.712 43.322,27.905C44.375,27.075 45.193,25.987 45.641,24.718C46.336,22.749 46.04,20.678 45.149,18.826L44.689,17.872L44.689,17.872Z" clip-rule="evenodd" fill-rule="evenodd" fill="#FFFFFF"/>
</svg>
