<svg width="68" height="80" viewBox="0 0 68 80" fill="none" xmlns="http://www.w3.org/2000/svg" xmlns:xlink="http://www.w3.org/1999/xlink">
<path d="M39.882,28.498C42.33,27.277 45.444,25.481 48.561,23.02C49.218,24.385 49.29,25.576 48.952,26.538C48.712,27.216 48.26,27.806 47.665,28.275C47.021,28.782 46.217,29.151 45.328,29.35C43.641,29.73 41.671,29.508 39.882,28.498ZM40.307,41.001L43.546,42.872C36.932,46.579 35.134,53.463 32.998,60.167C30.862,53.463 29.064,46.579 22.449,42.872L25.689,41.001C26.002,40.882 26.27,40.668 26.454,40.388C26.638,40.108 26.728,39.777 26.713,39.442C26.416,33.163 28.112,30.386 30.398,28.642C31.219,28.018 32.114,27.704 32.998,27.704C33.881,27.704 34.777,28.018 35.597,28.642C37.884,30.386 39.58,33.163 39.283,39.442C39.267,39.777 39.358,40.108 39.542,40.388C39.726,40.668 39.993,40.882 40.307,41.001ZM32.998,0C36.742,0.101 40.496,0.827 43.754,2.242C46.01,3.222 48.115,4.517 50.021,6.066C50.882,6.765 51.591,7.441 52.372,8.218C54.477,8.291 57.555,5.952 58.984,3.763C56.525,11.824 45.304,21.344 37.536,24.986C37.533,24.985 37.53,24.983 37.528,24.982C36.134,23.917 34.566,23.385 32.998,23.385C31.429,23.385 29.862,23.917 28.468,24.982C28.465,24.983 28.463,24.985 28.46,24.986C20.691,21.344 9.471,11.824 7.012,3.763C8.44,5.952 11.518,8.291 13.624,8.218C14.405,7.441 15.114,6.765 15.974,6.066C17.88,4.517 19.985,3.222 22.241,2.242C25.499,0.827 29.253,0.101 32.998,0ZM26.113,28.498C23.666,27.277 20.552,25.481 17.434,23.02C16.777,24.385 16.705,25.576 17.043,26.538C17.284,27.216 17.736,27.806 18.33,28.275C18.975,28.782 19.779,29.151 20.668,29.35C22.355,29.73 24.324,29.508 26.113,28.498Z" clip-rule="evenodd" fill-rule="evenodd" fill="#FFFFFF"/>
<path d="M51.976,20.004C53.693,18.272 55.205,16.355 56.421,14.645L57.038,15.807C59.027,19.785 60.06,23.747 60.06,28.205L60.055,35.281L60.093,38.948C60.237,47.953 62.185,57.063 66.598,65.4L57.365,57.954L50.831,68.556L43.967,62.095L32.998,79.894L22.03,62.095L15.166,68.557L8.633,57.954L-0.602,65.4C3.812,57.063 5.76,47.953 5.904,38.949L5.942,35.281L5.937,28.206C5.937,23.747 6.97,19.785 8.959,15.807L9.576,14.645C10.792,16.355 12.304,18.272 14.021,20.005L13.485,21.118C12.443,23.28 12.099,25.698 12.91,27.998C13.433,29.479 14.387,30.749 15.618,31.718C16.812,32.66 18.226,33.295 19.706,33.628C20.671,33.845 21.653,33.934 22.629,33.904C22.401,35.195 22.302,36.534 22.295,37.898L13.585,42.929L20.307,46.697C20.844,46.998 21.355,47.343 21.836,47.729C27.377,52.704 30.709,67.423 32.999,74.613C35.289,67.423 38.62,52.704 44.162,47.729C44.642,47.343 45.154,46.998 45.691,46.697L52.413,42.929L43.702,37.898C43.695,36.534 43.596,35.195 43.368,33.904C44.344,33.934 45.327,33.845 46.291,33.628C47.771,33.295 49.185,32.66 50.38,31.718C51.61,30.749 52.565,29.479 53.087,27.998C53.899,25.698 53.554,23.281 52.513,21.118L51.977,20.005L51.976,20.004Z" clip-rule="evenodd" fill-rule="evenodd" fill="#FFFFFF"/>
</svg>
