<svg width="21" height="20" viewBox="0 0 21 20" fill="none" xmlns="http://www.w3.org/2000/svg">
<path d="M4.66406 11.6667V10.8333H10.4974V11.6667H4.66406ZM4.66406 8.33334V7.50001H13.8307V8.33334H4.66406ZM4.66406 5.00001V4.16667H13.8307V5.00001H4.66406ZM11.5224 15.8333V13.9917L15.9666 9.56917C16.0493 9.48695 16.1343 9.43139 16.2216 9.4025C16.3088 9.37362 16.3963 9.35917 16.4841 9.35917C16.5796 9.35917 16.6735 9.37695 16.7657 9.41251C16.8574 9.44862 16.941 9.50223 17.0166 9.57334L17.7874 10.3608C17.8557 10.4431 17.908 10.5283 17.9441 10.6167C17.9802 10.705 17.998 10.7939 17.9974 10.8833C17.9968 10.9728 17.9796 11.0622 17.9457 11.1517C17.9118 11.2411 17.8591 11.3272 17.7874 11.41L13.3641 15.8333H11.5224ZM12.2599 15.0958H13.0516L15.9416 12.2017L15.5499 11.8058L15.1707 11.3992L12.2599 14.3042V15.0958ZM15.5499 11.8058L15.1707 11.3992L15.9416 12.2017L15.5499 11.8058Z" fill="#699BF7"/>
</svg>
