<svg width="84" height="80" viewBox="0 0 84 80" fill="none" xmlns="http://www.w3.org/2000/svg" xmlns:xlink="http://www.w3.org/1999/xlink">
<path d="M57.596,47.659L57.596,47.658L57.582,47.653C57.386,47.568 57.188,47.49 56.987,47.418L36.624,39.38L36.622,39.383C36.064,39.137 35.449,38.997 34.799,38.997C32.316,38.997 30.303,40.997 30.303,43.463C30.303,44.482 30.651,45.419 31.23,46.17L31.228,46.173L31.263,46.213C31.366,46.344 31.474,46.47 31.591,46.588L46.191,63.248L46.191,63.247C48.011,65.287 50.667,66.574 53.627,66.574C59.114,66.574 63.562,62.156 63.562,56.706C63.562,52.658 61.107,49.181 57.596,47.659ZM50.888,14.07C55.506,12.627 60.481,15.011 62,19.393C63.521,23.776 61.01,28.498 56.392,29.941C51.776,31.384 46.801,29 45.28,24.618C43.761,20.235 46.271,15.513 50.888,14.07ZM82.847,19.421C82.175,18.477 81.199,17.872 80.139,17.606L80.139,17.59L76.158,16.549C76.1,16.362 76.062,16.174 76,15.988C71.866,3.79 58.338,-2.844 45.781,1.172C39.277,3.252 34.33,7.792 31.627,13.371L24.434,24.78L7.362,18.056L7.35,18.068C6.275,17.632 5.048,17.536 3.855,17.918C1.218,18.762 -0.216,21.522 0.652,24.085C0.779,24.459 0.959,24.8 1.164,25.121L1.134,25.155L18.946,48.692C18.963,48.713 18.97,48.736 18.987,48.757C19.002,48.779 19.023,48.796 19.04,48.818L31.784,66.648C37.353,76.575 49.4,82.549 61.03,78.829C73.585,74.814 80.413,61.67 76.28,49.472C74.993,45.675 72.795,42.419 70,39.854C73.523,36.495 75.914,32.16 76.808,27.457L80.658,26.347L80.656,26.305C80.997,26.176 81.331,26.021 81.645,25.81C83.792,24.368 84.331,21.508 82.847,19.421Z" clip-rule="evenodd" fill-rule="evenodd" fill="#FFFFFF"/>
</svg>
