<svg width="84" height="80" viewBox="0 0 84 80" fill="none" xmlns="http://www.w3.org/2000/svg" xmlns:xlink="http://www.w3.org/1999/xlink">
<path d="M57.598,47.659L57.598,47.658L57.584,47.653C57.388,47.568 57.19,47.49 56.989,47.418L36.626,39.38L36.624,39.383C36.066,39.137 35.451,38.997 34.801,38.997C32.318,38.997 30.305,40.997 30.305,43.463C30.305,44.482 30.653,45.419 31.232,46.17L31.23,46.173L31.265,46.213C31.368,46.344 31.476,46.47 31.593,46.588L46.193,63.248L46.193,63.247C48.013,65.287 50.669,66.574 53.629,66.574C59.116,66.574 63.564,62.156 63.564,56.706C63.564,52.658 61.109,49.181 57.598,47.659ZM50.89,14.07C55.508,12.627 60.483,15.011 62.002,19.393C63.523,23.776 61.012,28.498 56.394,29.941C51.778,31.384 46.803,29 45.282,24.618C43.763,20.235 46.273,15.513 50.89,14.07ZM82.849,19.421C82.177,18.477 81.201,17.872 80.141,17.606L80.141,17.59L76.16,16.549C76.102,16.362 76.064,16.174 76.002,15.988C71.868,3.79 58.34,-2.844 45.783,1.172C39.279,3.252 34.332,7.792 31.629,13.371L24.436,24.78L7.364,18.056L7.352,18.068C6.277,17.632 5.05,17.536 3.857,17.918C1.22,18.762 -0.214,21.522 0.654,24.085C0.781,24.459 0.961,24.8 1.166,25.121L1.136,25.155L18.948,48.692C18.965,48.713 18.972,48.736 18.989,48.757C19.004,48.779 19.025,48.796 19.042,48.818L31.786,66.648C37.355,76.575 49.402,82.549 61.032,78.829C73.587,74.814 80.415,61.67 76.282,49.472C74.995,45.675 72.797,42.419 70.002,39.854C73.525,36.495 75.916,32.16 76.81,27.457L80.66,26.347L80.658,26.305C80.999,26.176 81.333,26.021 81.647,25.81C83.794,24.368 84.333,21.508 82.849,19.421Z" clip-rule="evenodd" fill-rule="evenodd" fill="#FFFFFF"/>
</svg>
