<svg width="72" height="70" viewBox="0 0 72 70" fill="none" xmlns="http://www.w3.org/2000/svg" xmlns:xlink="http://www.w3.org/1999/xlink">
<path d="M48.794,41.558L48.794,41.558L48.782,41.553C48.615,41.481 48.445,41.413 48.273,41.352L30.831,34.467L30.83,34.47C30.353,34.259 29.825,34.139 29.269,34.139C27.142,34.139 25.418,35.852 25.418,37.964C25.418,38.837 25.716,39.639 26.212,40.283L26.21,40.286L26.24,40.32C26.328,40.432 26.421,40.54 26.521,40.641L39.026,54.91L39.026,54.91C40.585,56.656 42.86,57.759 45.395,57.759C50.095,57.759 53.905,53.975 53.905,49.307C53.905,45.84 51.802,42.862 48.794,41.558ZM43.049,12.79C47.004,11.554 51.265,13.595 52.567,17.349C53.869,21.102 51.719,25.147 47.764,26.383C43.81,27.618 39.548,25.577 38.246,21.824C36.945,18.07 39.095,14.025 43.049,12.79ZM70.422,17.372C69.847,16.564 69.011,16.046 68.103,15.818L68.102,15.804L64.693,14.912C64.643,14.753 64.611,14.591 64.558,14.432C61.017,3.984 49.43,-1.697 38.675,1.743C33.104,3.524 28.867,7.412 26.552,12.19L20.392,21.962L5.769,16.203L5.759,16.214C4.838,15.84 3.787,15.758 2.765,16.085C0.507,16.808 -0.722,19.172 0.022,21.367C0.131,21.687 0.285,21.98 0.46,22.254L0.435,22.283L15.691,42.443C15.705,42.461 15.712,42.481 15.725,42.499C15.739,42.517 15.757,42.532 15.771,42.551L26.686,57.822C31.456,66.325 41.774,71.442 51.735,68.256C62.489,64.817 68.338,53.559 64.797,43.111C63.695,39.859 61.812,37.07 59.418,34.873C62.436,31.996 64.484,28.284 65.249,24.255L68.547,23.304L68.545,23.268C68.837,23.158 69.123,23.025 69.392,22.844C71.232,21.609 71.693,19.16 70.422,17.372Z" clip-rule="evenodd" fill-rule="evenodd" fill="#FFFFFF"/>
</svg>
