<svg width="200" height="200" viewBox="0 0 200 200" fill="none" xmlns="http://www.w3.org/2000/svg" xmlns:xlink="http://www.w3.org/1999/xlink">
<path d="M151.749,91.734C155.218,88.875 175.249,76.484 186.218,66.047C194.781,57.891 198.093,36.594 184.921,26.234C167.796,12.781 151.359,26.906 151.359,26.906C151.359,26.906 149.921,18.922 139.921,14.234C127.327,8.328 111.374,6.125 96.702,6.312C82.484,6.484 69.39,8.203 57.765,13.906C47.359,19.016 46.734,26.297 46.734,26.297C46.734,26.297 33.077,13.25 16.343,23.844C-0.376,34.453 4.421,55.703 12.468,64.625C22.952,76.25 35.546,82.172 41.265,86.453C46.968,90.734 52.437,94.813 52.437,98.484C52.437,102.156 50.812,102.969 50.187,102.766C49.577,102.563 48.499,98.984 45.702,100.516C41.89,102.625 43.046,111.125 50.999,111.938C58.702,112.734 60.171,104.594 60.171,104.594L61.39,96.641L74.031,105.406L87.89,116.828L87.484,126.609C87.484,126.609 86.874,134.156 83.202,140.688C79.531,147.219 73.624,153.734 73.624,153.734L73.437,159.641L124.827,158.422L123.202,152.719C123.202,152.719 116.577,145.438 112.593,137.625C109.749,132.031 109.296,126.391 109.296,126.391L109.171,112.359L135.843,96.016C135.843,96.016 138.702,98.266 138.296,99.078C137.89,99.891 137.796,108.219 144.202,111.313C150.531,114.375 155.624,110.5 155.015,105.188C154.406,99.891 151.14,101.719 150.124,102.531C149.109,103.344 146.859,103.547 146.249,100.484C145.624,97.453 148.281,94.594 151.749,91.734ZM20.452,62.891L14.343,44.297L21.734,34.625L30.015,32.203C30.015,32.203 40.593,40.094 40.968,40.734C41.343,41.375 47.718,54.484 47.718,54.484L56.124,84.922L20.452,62.891ZM140.546,87.344C140.671,86.703 148.437,54.734 148.437,54.734C148.437,54.359 153.906,51.813 153.906,51.297C153.906,50.781 163.843,34.609 163.843,34.609L180.406,35.25L183.843,51.672L175.562,65.297C175.577,65.313 140.421,87.969 140.546,87.344Z" fill="#FEC417"/>
<path d="M187.375,46.875C186.157,32.312 171.75,28.828 165.829,30.938C159.907,33.047 156.063,37 154.75,42.625C153.688,47.172 152.625,50.203 151.407,50.672C150.063,51.172 148.829,50.969 148.829,50.969C148.829,50.969 148.61,41.125 148.672,37.156C148.829,28.969 151.329,26.875 151.329,26.875C151.329,26.875 150.797,24.109 149.735,22.578C148.672,21.063 146.704,19.094 146.704,19.094C146.704,19.094 147.157,23.031 145.188,23.953C143.219,24.875 141.094,23.5 141.094,23.5L143.063,31.688C143.063,31.688 139.875,72.5 139.579,73.406C139.282,74.313 127.297,95.094 127.297,95.094C127.297,95.094 120.313,101.625 116.985,103.141C113.641,104.656 110.766,108.609 97.875,108.75C84.985,108.906 73.907,98.734 73.907,98.734L62.829,88.109L54.641,63.984L53.422,39.406L53.938,30.469L54.297,26.734L53.719,24.844C53.719,24.844 52.657,25.906 50.688,25.453C48.719,25 47.954,22.422 47.954,22.422C47.954,22.422 47.188,23.641 47.047,24.25C46.891,24.859 46.735,26.266 46.735,26.266C46.735,26.266 48.86,28.5 49.313,31.688C49.766,34.875 49.157,48.078 46.891,47.766C44.61,47.469 45.36,36.391 36.719,32.141C29.235,28.453 18.063,29.563 13.5,38.813C8.954,48.063 12.282,58.984 26.547,69.156C40.813,79.328 56,87.875 58.407,96.031C61.282,105.734 54.766,111.5 54.766,111.5C54.766,111.5 59.5,110.844 61.829,105.766C62.579,104.125 62.86,101.734 62.969,100.313C68.36,107.344 75.532,113.297 85.032,116.172C88.625,117.406 92.672,118.031 98.297,118.031C99.11,118.031 99.907,118 100.704,117.969C107.282,117.734 112.907,116.5 118.36,113.797C125.719,110.391 131.422,105.188 135.829,99.281C135.704,100.688 136.563,104.188 138.204,106.953C141.079,111.813 145.938,112.109 145.938,112.109C145.938,112.109 139.266,108.172 140.625,98.766C141.985,89.359 148.204,86.016 157.61,79.953C167.047,73.875 188.579,61.438 187.375,46.875ZM33.235,67.516C29,64.531 21.579,60.547 18.516,54.469C14.438,46.359 17.75,36.563 25.5,35.359C41.594,32.828 41.891,52.813 42.954,55.234C44.016,57.656 47.047,57.813 47.047,57.813C47.047,57.813 47.157,59.156 47.594,61.75C47.61,61.828 47.625,61.891 47.625,61.969L47.672,62.203C47.969,63.969 48.391,66.172 48.985,68.688L49.032,68.875C49.36,70.297 49.704,71.641 50.063,72.875C50.782,75.469 51.657,78.266 52.735,81.141C51.172,80.078 42.219,73.875 33.235,67.516ZM179.032,56.281C175.672,61.719 168.875,65.766 163.86,69.172C157.391,73.563 147.766,80.156 145.047,82C145.672,80.344 146.219,78.703 146.719,77.094C147.532,74.969 148.391,72.375 148.985,69.578C150.547,62.234 150.813,55.813 150.813,55.813C150.813,55.813 154,56.719 155.969,54.594C157.938,52.469 158.672,45.875 160.516,42.766C163.391,37.906 169.157,32.906 177.813,38.969C182.813,42.484 183,49.844 179.032,56.281ZM94.563,122.922L103.391,122.813C103.391,122.813 103.625,132.453 105.016,139.641C106.407,146.844 108.266,154.844 108.266,154.844C108.266,154.844 90.282,160.875 90.391,154.375C90.5,147.875 93.172,135.219 93.172,135.219C93.172,135.219 94.797,120.141 94.563,122.922Z" fill="#FFA828"/>
<path d="M79.75,22.734C79.75,22.734 89.578,21.625 98.719,21.766C107.859,21.906 117.266,23.703 117.266,23.703C117.266,23.703 116.719,54.297 115.047,71.469C113.391,88.641 106.891,101.5 105.156,105.141C103.484,108.672 102.266,110.562 102.266,110.562L93.453,109.531L78.219,78.937L79.75,22.734Z" fill="#FFA828"/>
<path d="M67.983,27.312C67.983,27.312 70.749,25.922 74.765,24.406C78.405,23.031 81.687,22.609 81.687,22.609C81.687,22.609 81.78,42.891 82.108,57.359C82.39,69.688 86.952,89.891 89.171,95.297C91.39,100.703 95.39,108.953 95.39,108.953C95.39,108.953 87.343,107.797 82.39,101.516C79.78,98.203 67.577,72.578 67.155,55.688C66.733,38.797 68.39,26.891 67.983,27.312Z" fill="#FFEFAB"/>
<path d="M63.406,29.656C63.125,30.484 60.922,47.937 64.375,64.125C67.828,80.312 72.937,91.391 76.312,95.781C79.312,99.672 81.265,101.516 82.375,101.516C83.484,101.516 77.812,88.094 75.171,77.562C72.546,67.047 71.156,54.437 70.875,48.219C70.593,41.984 70.328,25.922 70.328,25.922C70.328,25.922 67.281,27.312 66.593,27.719C65.906,28.141 63.406,29.656 63.406,29.656Z" fill="#FFFCFD"/>
<path d="M83.344,153.703C83.344,153.703 89.297,144.016 90.547,136.672C91.797,129.328 92.484,122.828 92.484,122.828L96.172,122.984C96.172,122.984 95.812,133.625 95.391,140.828C94.969,148.031 93.734,155.094 93.734,155.094L83.344,153.703Z" fill="#FFEFAB"/>
<path d="M87.923,116.828C87.923,116.828 90.688,114.125 98.298,114.125C105.907,114.125 109.173,117.047 109.173,117.047L109.376,126.437C109.376,126.437 104.313,124.859 98.157,124.781C93.032,124.719 87.516,126.625 87.516,126.625L87.923,116.828ZM54.688,23.562C55.969,22.375 68.251,13.156 97.329,12.906C128.61,12.625 140.344,21.687 141.079,22.187C141.907,22.734 142.876,25.234 142.469,26.344C142.048,27.453 141.219,27.859 138.876,26.891C136.516,25.922 124.891,17.437 96.923,18.312C70.063,19.141 58.672,27.312 57.469,28C56.501,28.547 54.704,28.687 53.876,27.578C53.032,26.484 53.86,24.344 54.688,23.562ZM142.469,30.078C138.876,30.359 141.36,59.297 133.751,77.422C125.594,96.812 115.188,102.344 115.61,103.453C116.032,104.562 126.219,101.484 132.641,92.375C138.594,83.937 142.188,76.453 143.86,66.484C145.501,56.516 146.469,29.766 142.469,30.078ZM53.922,33.391C53.016,33.344 53.938,47.781 52.469,54.125C51.907,56.562 50.532,57.062 50.391,57.609C50.251,58.156 53.407,76.734 58.704,84.891C63.829,92.781 73.938,102.609 75.594,100.953C77.251,99.297 68.251,93.75 62.172,81.703C58.672,74.797 55.11,64.391 54.969,52.484C54.876,44.609 55.86,33.5 53.922,33.391Z" fill="#D1701C"/>
<path d="M135.578,175.109L135.563,152.781L63.891,152.781C64.109,152.781 63.938,170.938 63.906,175.187L53.719,175.187L53.719,191.359L144.734,191.359L144.734,175.187L135.578,175.109Z" fill="#865C50"/>
<path d="M86.859,164.516C85.094,164.437 83.062,164.797 82.984,166.984C82.906,169.172 82.906,175.5 82.906,176.703C82.906,177.906 83.891,178.953 86.359,179.031C88.828,179.109 112,179.031 113.625,179.031C115.25,179.031 116.094,177.625 116.156,176.219C116.234,174.812 116.078,168.891 116.078,167.281C116.078,164.609 113.687,164.609 112.062,164.609C110.312,164.578 86.859,164.516 86.859,164.516Z" fill="#FCC219"/>
<g filter="url(#filter90_4117)">
<circle cx="100" cy="99" r="50" fill="#FEC019"/>
</g>
<defs>
<filter id="filter90_4117" x="-30" y="-31" width="210" height="210" filterUnits="userSpaceOnUse" color-interpolation-filters="sRGB">
<feFlood flood-opacity="0" result="BackgroundImageFix"/>
<feBlend mode="normal" in="SourceGraphic" in2="BackgroundImageFix" result="shape"/>
<feGaussianBlur stdDeviation="40" result="0foregroundblur"/>
</filter>
</defs>
</svg>
