<svg width="68" height="70" viewBox="0 0 68 70" fill="none" xmlns="http://www.w3.org/2000/svg" xmlns:xlink="http://www.w3.org/1999/xlink">
<path d="M67.696,34.847C67.726,41.623 65.746,48.255 62.006,53.906C58.267,59.556 52.936,63.971 46.687,66.592C40.439,69.213 33.554,69.922 26.902,68.63C20.251,67.337 14.132,64.102 9.319,59.332C4.506,54.562 1.216,48.473 -0.136,41.833C-1.487,35.193 -0.84,28.302 1.725,22.03C4.29,15.759 8.657,10.388 14.273,6.599C19.89,2.809 26.505,0.769 33.28,0.739C42.367,0.698 51.098,4.269 57.552,10.666C64.006,17.062 67.655,25.76 67.696,34.847Z" fill="#8DC63F"/>
<path d="M65.112,34.853C65.14,41.119 63.31,47.252 59.853,52.477C56.396,57.703 51.467,61.786 45.689,64.21C39.912,66.634 33.545,67.29 27.394,66.096C21.244,64.901 15.585,61.91 11.135,57.5C6.684,53.09 3.641,47.459 2.391,41.319C1.141,35.18 1.739,28.808 4.11,23.008C6.482,17.209 10.519,12.243 15.713,8.738C20.907,5.233 27.023,3.347 33.288,3.319C37.449,3.3 41.572,4.1 45.423,5.675C49.273,7.249 52.776,9.567 55.731,12.495C58.686,15.423 61.036,18.905 62.645,22.741C64.255,26.578 65.093,30.693 65.112,34.853Z" fill="#F9E988"/>
<path d="M34.016,5.373C36.03,5.014 38.091,5.014 40.105,5.373C42.139,5.695 44.104,6.354 45.921,7.322C47.725,8.315 49.288,9.662 50.841,10.932C52.393,12.203 53.941,13.488 55.414,14.903C56.916,16.294 58.227,17.878 59.313,19.614C60.432,21.337 61.349,23.184 62.045,25.119C63.4,28.981 63.785,33.118 63.168,37.164L62.966,37.164C62.371,33.298 61.377,29.505 59.999,25.844C59.338,24.034 58.56,22.268 57.67,20.559C56.735,18.855 55.706,17.204 54.588,15.614C53.447,14.004 52.049,12.594 50.451,11.438C48.844,10.293 46.996,9.55 45.206,8.846C43.415,8.142 41.625,7.442 39.766,6.904C37.907,6.366 36.005,5.965 34.023,5.575L34.016,5.373Z" fill="#FFFFFF"/>
<path d="M49.499,23.664C47.199,22.996 44.806,22.054 42.402,21.101C42.265,20.495 41.727,19.74 40.644,18.82C39.066,17.452 36.106,17.488 33.547,18.098C30.724,17.434 27.934,17.199 25.245,17.842C3.352,23.87 15.769,38.608 7.727,53.408C8.871,55.834 21.205,70.013 39.052,66.198C39.052,66.198 32.951,51.531 46.723,44.492C57.895,38.764 65.97,28.158 49.499,23.664Z" fill="#8BC53F"/>
<path d="M52.204,33.306C52.206,33.569 52.13,33.827 51.985,34.046C51.841,34.266 51.634,34.438 51.392,34.54C51.15,34.643 50.882,34.671 50.624,34.621C50.366,34.571 50.128,34.446 49.941,34.261C49.754,34.076 49.626,33.84 49.574,33.582C49.521,33.324 49.546,33.057 49.646,32.813C49.746,32.57 49.915,32.362 50.133,32.215C50.352,32.068 50.609,31.989 50.872,31.988C51.046,31.987 51.218,32.021 51.379,32.086C51.54,32.152 51.687,32.249 51.81,32.371C51.934,32.494 52.033,32.639 52.1,32.799C52.167,32.96 52.203,33.132 52.204,33.306Z" fill="#FFFFFF"/>
<path d="M33.547,18.091C35.142,18.207 40.914,20.091 42.402,21.102C41.171,17.492 36.987,17.023 33.547,18.091Z" fill="#009345"/>
<path d="M35.066,27.195C35.066,28.409 34.706,29.595 34.032,30.604C33.358,31.614 32.399,32.4 31.278,32.865C30.157,33.329 28.923,33.451 27.732,33.214C26.542,32.977 25.449,32.393 24.59,31.534C23.732,30.676 23.148,29.583 22.911,28.392C22.674,27.202 22.796,25.968 23.26,24.847C23.725,23.725 24.511,22.767 25.52,22.093C26.529,21.418 27.716,21.059 28.93,21.059C30.557,21.059 32.118,21.705 33.269,22.856C34.42,24.007 35.066,25.568 35.066,27.195Z" fill="#FFFFFF"/>
<path d="M33.249,27.248C33.25,28.1 32.998,28.934 32.524,29.643C32.051,30.353 31.378,30.906 30.591,31.232C29.803,31.559 28.937,31.645 28.1,31.479C27.264,31.313 26.496,30.903 25.893,30.3C25.289,29.698 24.879,28.93 24.712,28.094C24.545,27.257 24.631,26.391 24.957,25.603C25.283,24.815 25.835,24.142 26.544,23.668C27.253,23.194 28.086,22.941 28.939,22.941C30.081,22.942 31.176,23.396 31.984,24.204C32.792,25.011 33.247,26.106 33.249,27.248Z" fill="#58595B"/>
<path d="M57.164,36.006C52.201,39.504 46.555,42.143 38.549,42.143C34.802,42.143 34.044,38.172 31.568,40.114C30.286,41.121 25.792,43.363 22.2,43.204C18.609,43.045 12.815,40.933 11.209,33.299C10.57,40.933 10.241,46.557 7.375,53.004C13.086,62.148 26.698,69.198 39.051,66.166C37.726,56.896 45.826,47.814 50.392,43.168C52.118,41.41 55.446,38.537 57.164,35.992L57.164,36.006Z" fill="#8BC53F"/>
<path d="M56.97,36.238C55.389,37.598 53.624,38.729 51.729,39.599C49.839,40.496 47.869,41.214 45.845,41.743C43.823,42.266 41.708,42.66 39.567,42.465C37.427,42.27 35.236,41.541 33.824,39.938L33.893,39.858C35.64,40.988 37.636,41.385 39.629,41.443C41.652,41.502 43.675,41.334 45.661,40.941C47.666,40.523 49.629,39.919 51.523,39.137C53.447,38.402 55.259,37.4 56.905,36.162L56.97,36.238Z" fill="#58595B"/>
</svg>
