<svg width="80" height="80" viewBox="0 0 80 80" fill="none" xmlns="http://www.w3.org/2000/svg" xmlns:xlink="http://www.w3.org/1999/xlink">
<path d="M79,39.823C79.035,47.734 76.723,55.478 72.357,62.075C67.991,68.672 61.767,73.827 54.472,76.887C47.176,79.947 39.137,80.775 31.372,79.266C23.606,77.757 16.462,73.979 10.843,68.411C5.224,62.842 1.382,55.732 -0.196,47.98C-1.774,40.228 -1.018,32.182 1.976,24.859C4.971,17.537 10.069,11.267 16.627,6.842C23.185,2.417 30.907,0.036 38.818,0C49.427,-0.047 59.621,4.122 67.156,11.591C74.691,19.059 78.952,29.214 79,39.823Z" fill="#8DC63F"/>
<path d="M75.986,39.832C76.02,47.147 73.883,54.308 69.846,60.409C65.81,66.51 60.055,71.276 53.31,74.107C46.564,76.937 39.131,77.703 31.95,76.309C24.769,74.914 18.162,71.422 12.966,66.273C7.77,61.124 4.217,54.549 2.757,47.381C1.298,40.213 1.996,32.773 4.765,26.002C7.533,19.231 12.247,13.433 18.311,9.341C24.375,5.249 31.516,3.047 38.831,3.014C43.688,2.992 48.502,3.927 52.998,5.765C57.494,7.603 61.584,10.309 65.034,13.728C68.484,17.147 71.227,21.212 73.106,25.691C74.986,30.17 75.964,34.975 75.986,39.832Z" fill="#F9E988"/>
<path d="M39.674,5.411C42.025,4.992 44.432,4.992 46.784,5.411C49.158,5.788 51.452,6.557 53.573,7.687C55.681,8.846 57.506,10.418 59.318,11.902C61.13,13.385 62.938,14.886 64.658,16.538C66.411,18.162 67.942,20.012 69.209,22.038C70.517,24.05 71.587,26.207 72.4,28.465C73.981,32.975 74.431,37.804 73.71,42.529L73.474,42.529C72.78,38.015 71.619,33.586 70.01,29.312C69.239,27.198 68.331,25.137 67.292,23.142C66.2,21.152 64.998,19.225 63.693,17.368C62.361,15.489 60.729,13.842 58.863,12.492C56.987,11.156 54.829,10.288 52.739,9.466C50.649,8.644 48.558,7.826 46.388,7.198C44.217,6.57 41.996,6.103 39.682,5.647L39.674,5.411Z" fill="#FFFFFF"/>
<path d="M57.754,26.767C55.07,25.987 52.275,24.887 49.468,23.774C49.308,23.066 48.68,22.185 47.416,21.111C45.574,19.513 42.118,19.556 39.13,20.268C35.835,19.492 32.577,19.218 29.437,19.969C3.876,27.007 18.374,44.215 8.984,61.494C10.32,64.326 24.721,80.881 45.557,76.426C45.557,76.426 38.435,59.303 54.513,51.084C67.557,44.396 76.985,32.014 57.754,26.767Z" fill="#8BC53F"/>
<path d="M60.911,38.024C60.913,38.331 60.825,38.632 60.656,38.888C60.487,39.145 60.246,39.346 59.963,39.465C59.68,39.585 59.368,39.617 59.067,39.559C58.765,39.501 58.488,39.355 58.269,39.139C58.051,38.923 57.902,38.647 57.84,38.346C57.779,38.045 57.808,37.733 57.925,37.449C58.041,37.164 58.239,36.921 58.494,36.75C58.749,36.578 59.049,36.486 59.356,36.485C59.559,36.484 59.76,36.523 59.948,36.6C60.136,36.677 60.308,36.79 60.452,36.932C60.596,37.075 60.711,37.245 60.79,37.432C60.869,37.62 60.91,37.821 60.911,38.024Z" fill="#FFFFFF"/>
<path d="M39.13,20.259C40.993,20.394 47.732,22.594 49.468,23.774C48.031,19.56 43.147,19.012 39.13,20.259Z" fill="#009345"/>
<path d="M40.905,30.888C40.905,32.305 40.484,33.691 39.697,34.869C38.91,36.047 37.791,36.965 36.482,37.508C35.173,38.05 33.732,38.192 32.342,37.915C30.952,37.639 29.676,36.957 28.674,35.955C27.672,34.953 26.989,33.676 26.713,32.286C26.436,30.896 26.578,29.456 27.121,28.147C27.663,26.837 28.581,25.718 29.759,24.931C30.938,24.144 32.323,23.724 33.74,23.724C35.64,23.724 37.462,24.478 38.806,25.822C40.15,27.166 40.905,28.988 40.905,30.888Z" fill="#FFFFFF"/>
<path d="M38.785,30.952C38.786,31.947 38.491,32.921 37.939,33.749C37.386,34.577 36.601,35.222 35.681,35.604C34.762,35.985 33.75,36.086 32.773,35.892C31.797,35.698 30.9,35.219 30.196,34.516C29.492,33.812 29.012,32.915 28.817,31.939C28.623,30.963 28.722,29.951 29.103,29.031C29.484,28.111 30.129,27.325 30.956,26.772C31.784,26.219 32.757,25.924 33.753,25.924C35.086,25.925 36.365,26.455 37.308,27.397C38.251,28.34 38.782,29.618 38.785,30.952Z" fill="#58595B"/>
<path d="M66.706,41.177C60.911,45.26 54.319,48.341 44.972,48.341C40.597,48.341 39.712,43.705 36.821,45.973C35.325,47.148 30.077,49.766 25.884,49.58C21.691,49.395 14.926,46.929 13.051,38.016C12.305,46.929 11.921,53.496 8.575,61.023C15.242,71.698 31.135,79.929 45.557,76.389C44.011,65.566 53.468,54.962 58.799,49.538C60.814,47.486 64.7,44.131 66.706,41.16L66.706,41.177Z" fill="#8BC53F"/>
<path d="M66.478,41.446C64.632,43.034 62.572,44.354 60.359,45.37C58.153,46.418 55.853,47.256 53.489,47.873C51.129,48.484 48.659,48.944 46.16,48.716C43.661,48.488 41.103,47.637 39.455,45.766L39.535,45.673C41.575,46.992 43.905,47.456 46.232,47.523C48.594,47.592 50.956,47.395 53.274,46.937C55.616,46.449 57.908,45.744 60.119,44.83C62.365,43.972 64.481,42.803 66.402,41.357L66.478,41.446Z" fill="#58595B"/>
</svg>
