<svg width="80" height="80" viewBox="0 0 80 80" fill="none" xmlns="http://www.w3.org/2000/svg" xmlns:xlink="http://www.w3.org/1999/xlink">
<path d="M79,39.823C79.035,47.734 76.723,55.478 72.357,62.075C67.991,68.672 61.767,73.827 54.472,76.887C47.176,79.947 39.137,80.775 31.372,79.266C23.606,77.757 16.462,73.979 10.843,68.411C5.224,62.842 1.382,55.732 -0.196,47.98C-1.774,40.228 -1.018,32.182 1.976,24.859C4.971,17.537 10.069,11.267 16.627,6.842C23.185,2.417 30.907,0.036 38.818,0C49.427,-0.047 59.621,4.122 67.156,11.591C74.691,19.059 78.952,29.214 79,39.823Z" fill="#8DC63F"/>
<path d="M75.985,39.832C76.018,47.147 73.881,54.308 69.845,60.409C65.808,66.51 60.054,71.276 53.308,74.107C46.562,76.937 39.129,77.703 31.948,76.309C24.767,74.914 18.161,71.422 12.964,66.273C7.768,61.124 4.216,54.549 2.756,47.381C1.296,40.213 1.994,32.773 4.763,26.002C7.531,19.231 12.246,13.433 18.309,9.341C24.373,5.249 31.514,3.047 38.829,3.014C43.687,2.992 48.501,3.927 52.997,5.765C57.492,7.603 61.582,10.309 65.032,13.728C68.483,17.147 71.226,21.212 73.105,25.691C74.984,30.17 75.963,34.975 75.985,39.832Z" fill="#F9E988"/>
<path d="M39.676,5.411C42.027,4.992 44.434,4.992 46.786,5.411C49.16,5.788 51.454,6.557 53.575,7.687C55.683,8.846 57.507,10.418 59.32,11.902C61.132,13.385 62.94,14.886 64.659,16.538C66.413,18.162 67.943,20.012 69.211,22.038C70.518,24.05 71.589,26.207 72.402,28.465C73.983,32.975 74.433,37.804 73.712,42.529L73.476,42.529C72.782,38.015 71.621,33.586 70.012,29.312C69.241,27.198 68.333,25.137 67.294,23.142C66.201,21.152 65,19.225 63.694,17.368C62.363,15.489 60.731,13.842 58.864,12.492C56.989,11.156 54.831,10.288 52.741,9.466C50.65,8.644 48.56,7.826 46.39,7.198C44.219,6.57 41.998,6.103 39.684,5.647L39.676,5.411Z" fill="#FFFFFF"/>
<path d="M57.755,26.767C55.07,25.987 52.276,24.887 49.469,23.774C49.309,23.066 48.681,22.185 47.417,21.111C45.575,19.513 42.119,19.556 39.131,20.268C35.835,19.492 32.577,19.218 29.437,19.969C3.876,27.007 18.374,44.215 8.984,61.494C10.32,64.326 24.721,80.881 45.558,76.426C45.558,76.426 38.435,59.303 54.514,51.084C67.558,44.396 76.986,32.014 57.755,26.767Z" fill="#8BC53F"/>
<path d="M60.91,38.024C60.913,38.331 60.824,38.632 60.656,38.888C60.487,39.145 60.246,39.346 59.963,39.465C59.68,39.585 59.368,39.617 59.066,39.559C58.765,39.501 58.487,39.355 58.269,39.139C58.051,38.923 57.901,38.647 57.84,38.346C57.779,38.045 57.808,37.733 57.924,37.449C58.041,37.164 58.239,36.921 58.493,36.75C58.748,36.578 59.048,36.486 59.355,36.485C59.558,36.484 59.76,36.523 59.948,36.6C60.136,36.677 60.307,36.79 60.451,36.932C60.596,37.075 60.711,37.245 60.789,37.432C60.868,37.62 60.909,37.821 60.91,38.024Z" fill="#FFFFFF"/>
<path d="M39.129,20.259C40.992,20.394 47.731,22.594 49.467,23.774C48.03,19.56 43.145,19.012 39.129,20.259Z" fill="#009345"/>
<path d="M40.904,30.888C40.904,32.305 40.483,33.691 39.696,34.869C38.909,36.047 37.79,36.965 36.481,37.508C35.172,38.05 33.731,38.192 32.341,37.915C30.951,37.639 29.675,36.957 28.673,35.955C27.671,34.953 26.988,33.676 26.712,32.286C26.435,30.896 26.577,29.456 27.12,28.147C27.662,26.837 28.58,25.718 29.758,24.931C30.937,24.144 32.322,23.724 33.739,23.724C35.639,23.724 37.461,24.478 38.805,25.822C40.149,27.166 40.904,28.988 40.904,30.888Z" fill="#FFFFFF"/>
<path d="M38.783,30.952C38.784,31.947 38.489,32.921 37.937,33.749C37.385,34.577 36.599,35.222 35.68,35.604C34.76,35.985 33.748,36.086 32.772,35.892C31.795,35.698 30.898,35.219 30.194,34.516C29.49,33.812 29.01,32.915 28.816,31.939C28.621,30.963 28.721,29.951 29.101,29.031C29.482,28.111 30.127,27.325 30.955,26.772C31.782,26.219 32.755,25.924 33.751,25.924C35.084,25.925 36.363,26.455 37.306,27.397C38.25,28.34 38.781,29.618 38.783,30.952Z" fill="#58595B"/>
<path d="M66.705,41.177C60.91,45.26 54.319,48.341 44.971,48.341C40.596,48.341 39.711,43.705 36.82,45.973C35.324,47.148 30.077,49.766 25.883,49.58C21.69,49.395 14.925,46.929 13.05,38.016C12.304,46.929 11.921,53.496 8.574,61.023C15.242,71.698 31.135,79.929 45.557,76.389C44.01,65.566 53.467,54.962 58.799,49.538C60.813,47.486 64.699,44.131 66.705,41.16L66.705,41.177Z" fill="#8BC53F"/>
<path d="M66.477,41.446C64.63,43.034 62.571,44.354 60.357,45.37C58.151,46.418 55.851,47.256 53.487,47.873C51.127,48.484 48.658,48.944 46.158,48.716C43.659,48.488 41.101,47.637 39.453,45.766L39.533,45.673C41.573,46.992 43.904,47.456 46.23,47.523C48.592,47.592 50.954,47.395 53.273,46.937C55.615,46.449 57.906,45.744 60.117,44.83C62.364,43.972 64.479,42.803 66.401,41.357L66.477,41.446Z" fill="#58595B"/>
</svg>
