<svg width="60" height="60" viewBox="0 0 60 60" fill="none" xmlns="http://www.w3.org/2000/svg" xmlns:xlink="http://www.w3.org/1999/xlink">
<path d="M45.938,0L14.063,0C6.296,0 0,6.296 0,14.063L0,45.938C0,53.704 6.296,60 14.063,60L45.938,60C53.704,60 60,53.704 60,45.938L60,14.063C60,6.296 53.704,0 45.938,0Z" fill="url(#pf_0_197_2007)"/>
<path d="M45.938,0L14.063,0C6.296,0 0,6.296 0,14.063L0,45.938C0,53.704 6.296,60 14.063,60L45.938,60C53.704,60 60,53.704 60,45.938L60,14.063C60,6.296 53.704,0 45.938,0Z" fill="url(#pf_0_197_2008)"/>
<path d="M30.002,6.563C23.637,6.563 22.838,6.59 20.338,6.704C17.843,6.818 16.14,7.213 14.65,7.793C13.108,8.392 11.8,9.192 10.498,10.496C9.194,11.798 8.393,13.106 7.793,14.647C7.211,16.138 6.816,17.842 6.704,20.336C6.592,22.836 6.563,23.635 6.563,30C6.563,36.366 6.591,37.162 6.704,39.662C6.819,42.157 7.214,43.86 7.793,45.35C8.392,46.892 9.193,48.2 10.496,49.502C11.798,50.806 13.106,51.609 14.647,52.208C16.138,52.787 17.841,53.182 20.336,53.297C22.836,53.41 23.634,53.438 29.999,53.438C36.365,53.438 37.162,53.41 39.662,53.297C42.156,53.182 43.862,52.787 45.353,52.208C46.894,51.609 48.2,50.806 49.502,49.502C50.806,48.2 51.606,46.892 52.207,45.351C52.783,43.86 53.179,42.156 53.296,39.662C53.408,37.163 53.438,36.366 53.438,30C53.438,23.635 53.408,22.836 53.296,20.336C53.179,17.841 52.783,16.138 52.207,14.648C51.606,13.106 50.806,11.798 49.502,10.496C48.198,9.192 46.895,8.391 45.351,7.793C43.857,7.213 42.153,6.818 39.658,6.704C37.158,6.59 36.362,6.563 29.995,6.563L30.002,6.563ZM27.899,10.786C28.524,10.785 29.22,10.786 30.002,10.786C36.26,10.786 37.002,10.809 39.473,10.921C41.758,11.025 42.999,11.407 43.825,11.728C44.918,12.153 45.698,12.661 46.518,13.481C47.338,14.302 47.846,15.083 48.272,16.177C48.593,17.002 48.975,18.242 49.079,20.527C49.191,22.998 49.216,23.74 49.216,29.995C49.216,36.25 49.191,36.992 49.079,39.463C48.974,41.748 48.593,42.988 48.272,43.813C47.847,44.907 47.338,45.686 46.518,46.506C45.698,47.326 44.919,47.834 43.825,48.259C42.999,48.581 41.758,48.962 39.473,49.067C37.002,49.179 36.26,49.203 30.002,49.203C23.744,49.203 23.002,49.179 20.531,49.067C18.246,48.961 17.006,48.579 16.179,48.258C15.086,47.833 14.304,47.326 13.484,46.505C12.664,45.685 12.156,44.906 11.73,43.811C11.409,42.986 11.027,41.746 10.923,39.461C10.811,36.99 10.788,36.248 10.788,29.989C10.788,23.73 10.811,22.992 10.923,20.521C11.027,18.236 11.409,16.996 11.73,16.17C12.155,15.076 12.664,14.295 13.484,13.474C14.304,12.654 15.086,12.146 16.179,11.72C17.006,11.398 18.246,11.017 20.531,10.912C22.694,10.815 23.531,10.785 27.899,10.78L27.899,10.786ZM42.513,14.678C40.96,14.678 39.7,15.936 39.7,17.489C39.7,19.042 40.96,20.302 42.513,20.302C44.066,20.302 45.325,19.042 45.325,17.489C45.325,15.937 44.066,14.677 42.513,14.677L42.513,14.678ZM30.002,17.964C23.355,17.964 17.966,23.353 17.966,30C17.966,36.647 23.355,42.034 30.002,42.034C36.649,42.034 42.037,36.647 42.037,30C42.037,23.353 36.649,17.964 30.002,17.964L30.002,17.964ZM30.002,22.188C34.317,22.188 37.815,25.685 37.815,30C37.815,34.315 34.317,37.813 30.002,37.813C25.687,37.813 22.19,34.315 22.19,30C22.19,25.685 25.687,22.188 30.002,22.188Z" fill="#FFFFFF"/>
<defs>
<radialGradient id="pf_0_197_2007" cx="0" cy="0" r="1" gradientUnits="userSpaceOnUse" gradientTransform="matrix(0 -29.732227 27.65332 0 7.969 32.311)">
<stop stop-color="#FFDD55"/>
<stop offset="0.1" stop-color="#FFDD55"/>
<stop offset="0.5" stop-color="#FF543E"/>
<stop offset="1" stop-color="#C837AB"/>
</radialGradient>
<radialGradient id="pf_0_197_2008" cx="0" cy="0" r="1" gradientUnits="userSpaceOnUse" gradientTransform="matrix(2.608537 13.031964 -53.718184 10.752476 -5.025 2.161)">
<stop stop-color="#3771C8"/>
<stop offset="0.128" stop-color="#3771C8"/>
<stop offset="1" stop-color="#6600FF" stop-opacity="0"/>
</radialGradient>
</defs>
</svg>
