<svg width="66" height="76" viewBox="0 0 66 76" fill="none" xmlns="http://www.w3.org/2000/svg" xmlns:xlink="http://www.w3.org/1999/xlink">
<path d="M60.96,27.657L60.96,53.973L31.689,70.869L2.402,53.973L2.402,20.164L31.689,3.251L54.185,16.246L57.581,14.287L31.689,-0.667L-0.993,18.205L-0.993,55.932L31.689,74.804L64.372,55.932L64.372,25.698L60.96,27.657Z" fill="url(#pf_0_144_3273)"/>
<path d="M23.494,53.99L18.597,53.99L18.597,37.567L34.922,37.567C36.466,37.55 37.942,36.926 39.03,35.829C40.117,34.732 40.729,33.251 40.733,31.707C40.742,30.943 40.595,30.185 40.3,29.481C40.005,28.776 39.569,28.139 39.019,27.609C38.487,27.062 37.85,26.628 37.146,26.334C36.441,26.039 35.685,25.89 34.922,25.895L18.597,25.895L18.597,20.899L34.938,20.899C37.799,20.917 40.538,22.061 42.561,24.084C44.584,26.107 45.728,28.846 45.745,31.707C45.763,33.897 45.095,36.037 43.835,37.828C42.676,39.542 41.042,40.881 39.134,41.681C37.244,42.281 35.272,42.578 33.289,42.563L23.494,42.563L23.494,53.99Z" fill="url(#pf_0_144_3274)"/>
<path d="M45.631,53.58L39.917,53.58L35.51,45.891C37.253,45.785 38.973,45.433 40.619,44.847L45.631,53.58Z" fill="url(#pf_0_144_3275)"/>
<path d="M57.548,22.188L60.928,24.065L64.307,22.188L64.307,18.221L60.928,16.262L57.548,18.221L57.548,22.188Z" fill="url(#pf_0_144_3276)"/>
<defs>
<linearGradient id="pf_0_144_3273" x1="64.314" y1="18.226" x2="-4.991" y2="45.941" gradientUnits="userSpaceOnUse">
<stop stop-color="#C200FB"/>
<stop offset="0.49" stop-color="#3772FF"/>
<stop offset="0.49" stop-color="#3773FE"/>
<stop offset="1" stop-color="#5AC4BE"/>
</linearGradient>
<linearGradient id="pf_0_144_3274" x1="64.314" y1="18.227" x2="-4.991" y2="45.942" gradientUnits="userSpaceOnUse">
<stop stop-color="#C200FB"/>
<stop offset="0.49" stop-color="#3772FF"/>
<stop offset="0.49" stop-color="#3773FE"/>
<stop offset="1" stop-color="#5AC4BE"/>
</linearGradient>
<linearGradient id="pf_0_144_3275" x1="64.314" y1="18.225" x2="-4.991" y2="45.94" gradientUnits="userSpaceOnUse">
<stop stop-color="#C200FB"/>
<stop offset="0.49" stop-color="#3772FF"/>
<stop offset="0.49" stop-color="#3773FE"/>
<stop offset="1" stop-color="#5AC4BE"/>
</linearGradient>
<linearGradient id="pf_0_144_3276" x1="64.314" y1="18.225" x2="-4.991" y2="45.94" gradientUnits="userSpaceOnUse">
<stop stop-color="#C200FB"/>
<stop offset="0.49" stop-color="#3772FF"/>
<stop offset="0.49" stop-color="#3773FE"/>
<stop offset="1" stop-color="#5AC4BE"/>
</linearGradient>
</defs>
</svg>
