<svg width="60" height="62" viewBox="0 0 60 62" fill="none" xmlns="http://www.w3.org/2000/svg" xmlns:xlink="http://www.w3.org/1999/xlink">
<path d="M45.938,0.219L14.063,0.219C6.296,0.219 0,6.515 0,14.281L0,46.156C0,53.923 6.296,60.219 14.063,60.219L45.938,60.219C53.704,60.219 60,53.923 60,46.156L60,14.281C60,6.515 53.704,0.219 45.938,0.219Z" fill="url(#pf_0_200_6283)"/>
<path d="M45.938,0.219L14.063,0.219C6.296,0.219 0,6.515 0,14.281L0,46.156C0,53.923 6.296,60.219 14.063,60.219L45.938,60.219C53.704,60.219 60,53.923 60,46.156L60,14.281C60,6.515 53.704,0.219 45.938,0.219Z" fill="url(#pf_0_200_6284)"/>
<path d="M30.002,6.781C23.637,6.781 22.838,6.809 20.338,6.923C17.843,7.037 16.14,7.432 14.65,8.012C13.108,8.61 11.8,9.411 10.498,10.714C9.194,12.017 8.393,13.325 7.793,14.866C7.211,16.356 6.816,18.06 6.704,20.554C6.592,23.054 6.563,23.854 6.563,30.219C6.563,36.584 6.591,37.381 6.704,39.881C6.819,42.376 7.214,44.079 7.793,45.569C8.392,47.111 9.193,48.418 10.496,49.721C11.798,51.025 13.106,51.828 14.647,52.426C16.138,53.006 17.841,53.401 20.336,53.515C22.836,53.629 23.634,53.657 29.999,53.657C36.365,53.657 37.162,53.629 39.662,53.515C42.156,53.401 43.862,53.006 45.353,52.426C46.894,51.828 48.2,51.025 49.502,49.721C50.806,48.418 51.606,47.111 52.207,45.57C52.783,44.079 53.179,42.375 53.296,39.881C53.408,37.381 53.438,36.584 53.438,30.219C53.438,23.854 53.408,23.055 53.296,20.555C53.179,18.06 52.783,16.357 52.207,14.866C51.606,13.325 50.806,12.017 49.502,10.714C48.198,9.411 46.895,8.61 45.351,8.012C43.857,7.432 42.153,7.037 39.658,6.923C37.158,6.809 36.362,6.781 29.995,6.781L30.002,6.781ZM27.899,11.005C28.524,11.004 29.22,11.005 30.002,11.005C36.26,11.005 37.002,11.027 39.473,11.14C41.758,11.244 42.999,11.626 43.825,11.947C44.918,12.372 45.698,12.879 46.518,13.7C47.338,14.52 47.846,15.301 48.272,16.395C48.593,17.22 48.975,18.461 49.079,20.746C49.191,23.217 49.216,23.959 49.216,30.214C49.216,36.469 49.191,37.211 49.079,39.681C48.974,41.967 48.593,43.207 48.272,44.032C47.847,45.126 47.338,45.905 46.518,46.725C45.698,47.545 44.919,48.053 43.825,48.477C42.999,48.8 41.758,49.181 39.473,49.285C37.002,49.397 36.26,49.422 30.002,49.422C23.744,49.422 23.002,49.397 20.531,49.285C18.246,49.18 17.006,48.798 16.179,48.477C15.086,48.052 14.304,47.544 13.484,46.724C12.664,45.904 12.156,45.124 11.73,44.03C11.409,43.205 11.027,41.965 10.923,39.679C10.811,37.209 10.788,36.467 10.788,30.208C10.788,23.949 10.811,23.211 10.923,20.74C11.027,18.455 11.409,17.214 11.73,16.388C12.155,15.294 12.664,14.513 13.484,13.693C14.304,12.873 15.086,12.365 16.179,11.939C17.006,11.617 18.246,11.236 20.531,11.131C22.694,11.033 23.531,11.004 27.899,10.999L27.899,11.005ZM42.513,14.896C40.96,14.896 39.7,16.155 39.7,17.708C39.7,19.261 40.96,20.521 42.513,20.521C44.066,20.521 45.325,19.261 45.325,17.708C45.325,16.155 44.066,14.896 42.513,14.896L42.513,14.896ZM30.002,18.183C23.355,18.183 17.966,23.572 17.966,30.219C17.966,36.866 23.355,42.253 30.002,42.253C36.649,42.253 42.037,36.866 42.037,30.219C42.037,23.572 36.649,18.183 30.002,18.183L30.002,18.183ZM30.002,22.406C34.317,22.406 37.815,25.904 37.815,30.219C37.815,34.534 34.317,38.032 30.002,38.032C25.687,38.032 22.19,34.534 22.19,30.219C22.19,25.904 25.687,22.406 30.002,22.406Z" fill="#FFFFFF"/>
<defs>
<radialGradient id="pf_0_200_6283" cx="0" cy="0" r="1" gradientUnits="userSpaceOnUse" gradientTransform="matrix(0 -29.732227 27.65332 0 7.969 32.42)">
<stop stop-color="#FFDD55"/>
<stop offset="0.1" stop-color="#FFDD55"/>
<stop offset="0.5" stop-color="#FF543E"/>
<stop offset="1" stop-color="#C837AB"/>
</radialGradient>
<radialGradient id="pf_0_200_6284" cx="0" cy="0" r="1" gradientUnits="userSpaceOnUse" gradientTransform="matrix(2.608537 13.031964 -53.718184 10.752476 -5.025 2.27)">
<stop stop-color="#3771C8"/>
<stop offset="0.128" stop-color="#3771C8"/>
<stop offset="1" stop-color="#6600FF" stop-opacity="0"/>
</radialGradient>
</defs>
</svg>
