<svg width="66" height="76" viewBox="0 0 66 76" fill="none" xmlns="http://www.w3.org/2000/svg" xmlns:xlink="http://www.w3.org/1999/xlink">
<path d="M60.961,27.657L60.961,53.973L31.691,70.869L2.403,53.973L2.403,20.164L31.691,3.251L54.187,16.246L57.582,14.287L31.691,-0.667L-0.992,18.205L-0.992,55.932L31.691,74.804L64.373,55.932L64.373,25.698L60.961,27.657Z" fill="url(#pf_0_198_5883)"/>
<path d="M23.495,53.99L18.598,53.99L18.598,37.567L34.923,37.567C36.467,37.55 37.943,36.926 39.031,35.829C40.118,34.732 40.73,33.251 40.734,31.707C40.743,30.943 40.596,30.185 40.301,29.481C40.006,28.776 39.57,28.139 39.02,27.609C38.488,27.062 37.851,26.628 37.147,26.334C36.442,26.039 35.686,25.89 34.923,25.895L18.598,25.895L18.598,20.899L34.939,20.899C37.8,20.917 40.539,22.061 42.562,24.084C44.585,26.107 45.729,28.846 45.746,31.707C45.764,33.897 45.096,36.037 43.836,37.828C42.677,39.542 41.043,40.881 39.135,41.681C37.245,42.281 35.273,42.578 33.29,42.563L23.495,42.563L23.495,53.99Z" fill="url(#pf_0_198_5884)"/>
<path d="M45.633,53.58L39.919,53.58L35.512,45.891C37.256,45.785 38.976,45.433 40.621,44.847L45.633,53.58Z" fill="url(#pf_0_198_5885)"/>
<path d="M57.551,22.188L60.93,24.065L64.309,22.188L64.309,18.221L60.93,16.262L57.551,18.221L57.551,22.188Z" fill="url(#pf_0_198_5886)"/>
<defs>
<linearGradient id="pf_0_198_5883" x1="64.316" y1="18.226" x2="-4.99" y2="45.941" gradientUnits="userSpaceOnUse">
<stop stop-color="#C200FB"/>
<stop offset="0.49" stop-color="#3772FF"/>
<stop offset="0.49" stop-color="#3773FE"/>
<stop offset="1" stop-color="#5AC4BE"/>
</linearGradient>
<linearGradient id="pf_0_198_5884" x1="64.315" y1="18.227" x2="-4.99" y2="45.942" gradientUnits="userSpaceOnUse">
<stop stop-color="#C200FB"/>
<stop offset="0.49" stop-color="#3772FF"/>
<stop offset="0.49" stop-color="#3773FE"/>
<stop offset="1" stop-color="#5AC4BE"/>
</linearGradient>
<linearGradient id="pf_0_198_5885" x1="64.317" y1="18.225" x2="-4.989" y2="45.94" gradientUnits="userSpaceOnUse">
<stop stop-color="#C200FB"/>
<stop offset="0.49" stop-color="#3772FF"/>
<stop offset="0.49" stop-color="#3773FE"/>
<stop offset="1" stop-color="#5AC4BE"/>
</linearGradient>
<linearGradient id="pf_0_198_5886" x1="64.317" y1="18.225" x2="-4.989" y2="45.94" gradientUnits="userSpaceOnUse">
<stop stop-color="#C200FB"/>
<stop offset="0.49" stop-color="#3772FF"/>
<stop offset="0.49" stop-color="#3773FE"/>
<stop offset="1" stop-color="#5AC4BE"/>
</linearGradient>
</defs>
</svg>
