<svg width="80" height="80" viewBox="0 0 80 80" fill="none" xmlns="http://www.w3.org/2000/svg" xmlns:xlink="http://www.w3.org/1999/xlink">
<path d="M40,0C29.394,0 19.213,4.217 11.719,11.716C4.217,19.217 0.002,29.391 0,40C0,50.604 4.219,60.786 11.719,68.284C19.213,75.783 29.394,80 40,80C50.606,80 60.787,75.783 68.281,68.284C75.781,60.786 80,50.604 80,40C80,29.396 75.781,19.214 68.281,11.716C60.787,4.217 50.606,0 40,0Z" fill="url(#pf_0_88_10567)"/>
<path d="M18.107,39.577C29.769,34.497 37.544,31.148 41.432,29.53C52.544,24.909 54.85,24.107 56.357,24.08C56.688,24.074 57.425,24.156 57.907,24.545C58.307,24.873 58.419,25.317 58.475,25.629C58.525,25.94 58.594,26.649 58.538,27.203C57.938,33.528 55.332,48.877 54.007,55.961C53.45,58.959 52.344,59.964 51.275,60.062C48.95,60.276 47.188,58.527 44.938,57.052C41.419,54.744 39.432,53.308 36.013,51.056C32.063,48.454 34.626,47.023 36.875,44.686C37.463,44.074 47.7,34.764 47.894,33.92C47.919,33.814 47.944,33.421 47.707,33.213C47.475,33.005 47.132,33.076 46.882,33.132C46.525,33.212 40.907,36.93 30.007,44.284C28.413,45.381 26.969,45.915 25.669,45.887C24.244,45.856 21.494,45.079 19.451,44.416C16.951,43.601 14.957,43.171 15.132,41.787C15.219,41.067 16.213,40.331 18.107,39.577Z" fill="#FFFFFF"/>
<defs>
<linearGradient id="pf_0_88_10567" x1="4000" y1="0" x2="4000" y2="8000" gradientUnits="userSpaceOnUse">
<stop stop-color="#2AABEE"/>
<stop offset="1" stop-color="#229ED9"/>
</linearGradient>
</defs>
</svg>
