<svg width="18" height="18" viewBox="0 0 18 18" fill="none" xmlns="http://www.w3.org/2000/svg">
<path d="M14.5451 13.6625L16.9864 16.1025C17.1002 16.2204 17.1632 16.3783 17.1618 16.5421C17.1603 16.706 17.0946 16.8628 16.9787 16.9786C16.8629 17.0945 16.7061 17.1602 16.5422 17.1617C16.3784 17.1631 16.2205 17.1001 16.1026 16.9863L13.6614 14.545C12.0661 15.9118 10.0034 16.6076 7.90612 16.4864C5.80887 16.3651 3.8401 15.4363 2.41291 13.8948C0.985729 12.3533 0.211076 10.3189 0.251507 8.21853C0.291937 6.11817 1.14431 4.11511 2.62976 2.62966C4.11521 1.14421 6.11827 0.291838 8.21863 0.251407C10.319 0.210977 12.3534 0.98563 13.8949 2.41281C15.4364 3.84 16.3652 5.80878 16.4865 7.90602C16.6077 10.0033 15.9119 12.066 14.5451 13.6613V13.6625ZM8.3751 15.25C10.1985 15.25 11.9471 14.5257 13.2365 13.2364C14.5258 11.947 15.2501 10.1984 15.2501 8.375C15.2501 6.55164 14.5258 4.80296 13.2365 3.51364C11.9471 2.22433 10.1985 1.5 8.3751 1.5C6.55174 1.5 4.80305 2.22433 3.51374 3.51364C2.22443 4.80296 1.5001 6.55164 1.5001 8.375C1.5001 10.1984 2.22443 11.947 3.51374 13.2364C4.80305 14.5257 6.55174 15.25 8.3751 15.25Z" fill="#545454"/>
</svg>
