<svg width="160" height="160" viewBox="0 0 160 160" fill="none" xmlns="http://www.w3.org/2000/svg" xmlns:xlink="http://www.w3.org/1999/xlink">
<path d="M106.866,66.867C107.358,66.409 107.752,65.857 108.025,65.244C108.298,64.63 108.445,63.968 108.457,63.297C108.469,62.625 108.345,61.959 108.094,61.336C107.842,60.713 107.468,60.148 106.993,59.673C106.518,59.198 105.953,58.824 105.33,58.573C104.708,58.321 104.041,58.198 103.369,58.209C102.698,58.221 102.036,58.368 101.423,58.641C100.809,58.915 100.257,59.309 99.8,59.8L70,89.6L60.2,79.8C59.252,78.917 57.998,78.436 56.703,78.459C55.407,78.482 54.172,79.006 53.255,79.923C52.339,80.839 51.815,82.075 51.792,83.37C51.769,84.665 52.25,85.919 53.133,86.867L66.466,100.2C67.404,101.136 68.675,101.662 70,101.662C71.325,101.662 72.595,101.136 73.533,100.2L106.866,66.867Z" fill="#00CD6A"/>
<path d="M80.001,8.333C40.421,8.333 8.334,40.42 8.334,80C8.334,119.58 40.421,151.667 80.001,151.667C119.581,151.667 151.667,119.58 151.667,80C151.667,40.42 119.581,8.333 80.001,8.333ZM18.334,80C18.334,63.645 24.831,47.96 36.396,36.395C47.96,24.83 63.646,18.333 80.001,18.333C96.356,18.333 112.041,24.83 123.606,36.395C135.17,47.96 141.667,63.645 141.667,80C141.667,96.355 135.17,112.04 123.606,123.605C112.041,135.17 96.356,141.667 80.001,141.667C63.646,141.667 47.96,135.17 36.396,123.605C24.831,112.04 18.334,96.355 18.334,80Z" clip-rule="evenodd" fill-rule="evenodd" fill="#00CD6A"/>
</svg>
