<svg width="36" height="36" viewBox="0 0 36 36" fill="none" xmlns="http://www.w3.org/2000/svg" xmlns:xlink="http://www.w3.org/1999/xlink">
<path d="M22.031,36L22.031,31.969L29.156,31.969L9.563,12.375L12.375,9.563L31.969,29.156L31.969,22.031L36,22.031L36,36L22.031,36ZM31.969,4.031L4.031,4.031L4.031,31.969L18,31.969L18,36L4.031,36C2.906,36 1.953,35.609 1.172,34.828C0.391,34.047 0,33.094 0,31.969L0,4.031C0,2.906 0.391,1.953 1.172,1.172C1.953,0.391 2.906,0 4.031,0L31.969,0C33.094,0 34.047,0.391 34.828,1.172C35.609,1.953 36,2.906 36,4.031L36,18L31.969,18L31.969,4.031Z" fill="#FFFFFF" fill-opacity="0.92"/>
</svg>
