<svg width="36" height="36" viewBox="0 0 36 36" fill="none" xmlns="http://www.w3.org/2000/svg" xmlns:xlink="http://www.w3.org/1999/xlink">
<path d="M21.031,36L21.031,31.969L28.156,31.969L8.563,12.375L11.375,9.563L30.969,29.156L30.969,22.031L35,22.031L35,36L21.031,36ZM30.969,4.031L3.031,4.031L3.031,31.969L17,31.969L17,36L3.031,36C1.906,36 0.953,35.609 0.172,34.828C-0.609,34.047 -1,33.094 -1,31.969L-1,4.031C-1,2.906 -0.609,1.953 0.172,1.172C0.953,0.391 1.906,0 3.031,0L30.969,0C32.094,0 33.047,0.391 33.828,1.172C34.609,1.953 35,2.906 35,4.031L35,18L30.969,18L30.969,4.031Z" fill="#FFFFFF" fill-opacity="0.92"/>
</svg>
