<svg width="10" height="70" viewBox="0 0 10 70" fill="none" xmlns="http://www.w3.org/2000/svg" xmlns:xlink="http://www.w3.org/1999/xlink">
<path d="M5.804,0.131L6.98,0.131C8.768,13.07 9.744,25.773 9.709,38.83C9.705,41.547 9.733,44.252 9.763,46.969C9.765,48.722 9.766,50.486 9.765,52.239C9.776,53.034 9.787,53.827 9.798,54.65C9.741,60.496 8.327,64.437 5.81,69.589C4.258,69.201 2.705,68.812 1.105,68.413C-0.318,59.355 -1.812,49.004 1.11,40.183C3.215,33.407 2.521,26.185 2.427,19.128C2.417,17.646 2.406,16.175 2.395,14.646C2.368,11.012 2.329,7.389 2.28,3.754C3.057,5.307 3.833,6.859 4.633,8.459C5.021,5.742 5.409,3.025 5.809,0.225L5.804,0.131Z" fill="#E6E6E6"/>
</svg>
