<svg width="236" height="236" viewBox="0 0 236 236" fill="none" xmlns="http://www.w3.org/2000/svg" xmlns:xlink="http://www.w3.org/1999/xlink">
<path d="M118,235.151C149.296,235.151 179.309,222.719 201.438,200.589C223.568,178.46 236,148.446 236,117.151C236,85.855 223.568,55.841 201.438,33.712C179.309,11.583 149.296,-0.849 118,-0.849C86.704,-0.849 56.691,11.583 34.561,33.712C12.432,55.841 0,85.855 0,117.151C0,148.446 12.432,178.46 34.561,200.589C56.691,222.719 86.704,235.151 118,235.151L118,235.151ZM111.436,75.379C109.215,73.897 106.633,73.045 103.966,72.916C101.298,72.786 98.646,73.383 96.291,74.643C93.937,75.903 91.969,77.778 90.596,80.069C89.224,82.36 88.5,84.98 88.5,87.651L88.5,146.651C88.5,149.321 89.224,151.941 90.596,154.232C91.969,156.523 93.937,158.398 96.291,159.658C98.646,160.918 101.298,161.515 103.966,161.385C106.633,161.256 109.215,160.405 111.436,158.923L155.686,129.423C157.706,128.076 159.363,126.251 160.508,124.11C161.654,121.969 162.253,119.579 162.253,117.151C162.253,114.723 161.654,112.332 160.508,110.191C159.363,108.05 157.706,106.226 155.686,104.879L111.436,75.379L111.436,75.379Z" clip-rule="evenodd" fill-rule="evenodd" fill="#373737"/>
</svg>
