<svg width="34" height="34" viewBox="0 0 34 34" fill="none" xmlns="http://www.w3.org/2000/svg" xmlns:xlink="http://www.w3.org/1999/xlink">
<path d="M32.246,29.829L26.062,23.696C28.463,20.703 29.625,16.905 29.311,13.081C28.996,9.258 27.229,5.701 24.372,3.14C21.515,0.58 17.786,-0.788 13.951,-0.683C10.116,-0.578 6.467,0.992 3.754,3.705C1.042,6.417 -0.528,10.066 -0.633,13.901C-0.738,17.736 0.63,21.465 3.19,24.322C5.75,27.179 9.308,28.946 13.131,29.261C16.955,29.575 20.753,28.413 23.746,26.013L29.879,32.146C30.034,32.302 30.218,32.426 30.422,32.511C30.625,32.595 30.842,32.639 31.062,32.639C31.283,32.639 31.5,32.595 31.703,32.511C31.907,32.426 32.091,32.302 32.246,32.146C32.546,31.835 32.714,31.42 32.714,30.988C32.714,30.555 32.546,30.14 32.246,29.829ZM14.396,26.013C12.088,26.013 9.833,25.328 7.914,24.047C5.996,22.765 4.5,20.942 3.617,18.811C2.734,16.679 2.503,14.333 2.953,12.07C3.404,9.807 4.515,7.728 6.146,6.096C7.778,4.465 9.857,3.354 12.12,2.903C14.383,2.453 16.729,2.684 18.86,3.567C20.992,4.45 22.814,5.946 24.096,7.864C25.378,9.783 26.062,12.039 26.062,14.346C26.062,17.44 24.833,20.408 22.645,22.596C20.457,24.784 17.49,26.013 14.396,26.013Z" transform="rotate(180 16.038 15.975)" fill="#577668"/>
</svg>
