<svg width="186" height="158" viewBox="0 0 186 158" fill="none" xmlns="http://www.w3.org/2000/svg" xmlns:xlink="http://www.w3.org/1999/xlink">
<path d="M186,1C186,0.448 185.552,0 185,0C184.448,0 184,0.448 184,1L186,1ZM185,14L185,15L186,15L186,14L185,14ZM6,14L6,13L5,13L5,14L6,14ZM6,158L11.774,148L0.226,148L6,158ZM7,142.571L7,132.286L5,132.286L5,142.571L7,142.571ZM7,122L7,111.714L5,111.714L5,122L7,122ZM7,101.429L7,91.143L5,91.143L5,101.429L7,101.429ZM7,80.857L7,70.571L5,70.571L5,80.857L7,80.857ZM7,60.286L7,50L5,50L5,60.286L7,60.286ZM7,39.714L7,29.429L5,29.429L5,39.714L7,39.714ZM7,19.143L7,14L5,14L5,19.143L7,19.143ZM6,15L10.972,15L10.972,13L6,13L6,15ZM20.917,15L30.861,15L30.861,13L20.917,13L20.917,15ZM40.806,15L50.75,15L50.75,13L40.806,13L40.806,15ZM60.694,15L70.639,15L70.639,13L60.694,13L60.694,15ZM80.583,15L90.528,15L90.528,13L80.583,13L80.583,15ZM100.472,15L110.417,15L110.417,13L100.472,13L100.472,15ZM120.361,15L130.306,15L130.306,13L120.361,13L120.361,15ZM140.25,15L150.194,15L150.194,13L140.25,13L140.25,15ZM160.139,15L170.083,15L170.083,13L160.139,13L160.139,15ZM180.028,15L185,15L185,13L180.028,13L180.028,15ZM186,14L186,10.75L184,10.75L184,14L186,14ZM186,4.25L186,1L184,1L184,4.25L186,4.25Z" fill="#FFFFFF"/>
</svg>
