<svg width="20" height="12" viewBox="0 0 20 12" fill="none" xmlns="http://www.w3.org/2000/svg" xmlns:xlink="http://www.w3.org/1999/xlink">
<path d="M1.666,-1C1.337,-1 1.015,-0.902 0.741,-0.719C0.467,-0.536 0.253,-0.276 0.127,0.029C0.001,0.333 -0.032,0.668 0.032,0.992C0.096,1.315 0.255,1.612 0.488,1.845L8.821,10.178C9.134,10.491 9.558,10.666 10,10.666C10.442,10.666 10.865,10.491 11.178,10.178L19.511,1.845C19.744,1.612 19.903,1.315 19.967,0.992C20.032,0.668 19.999,0.333 19.872,0.029C19.746,-0.276 19.533,-0.536 19.259,-0.719C18.985,-0.902 18.663,-1 18.333,-1L1.666,-1Z" clip-rule="evenodd" fill-rule="evenodd" fill="#333333"/>
</svg>
