<svg width="62" height="52" viewBox="0 0 62 52" fill="none" xmlns="http://www.w3.org/2000/svg" xmlns:xlink="http://www.w3.org/1999/xlink">
<path d="M61.719,45.953C59.469,44.922 57.031,44.219 54.406,43.844C57.125,45.531 59,47.922 60.031,51.016C57.5,49.516 54.781,48.484 51.875,47.922C49.344,50.641 46.156,52 42.312,52C38.844,52 35.844,50.734 33.312,48.203C30.781,45.672 29.516,42.625 29.516,39.063C29.516,38.125 29.656,37.141 29.938,36.109C24.688,36.391 19.742,37.727 15.102,40.117C10.461,42.508 6.547,45.672 3.359,49.609C2.234,47.641 1.672,45.508 1.672,43.211C1.672,40.914 2.188,38.828 3.219,36.953C4.25,35.078 5.609,33.578 7.297,32.453C5.328,32.453 3.406,32.969 1.531,34L1.531,33.859C1.531,30.766 2.516,28.047 4.484,25.703C6.453,23.359 8.891,21.859 11.797,21.203C10.766,20.922 9.641,20.781 8.422,20.781C7.672,20.781 6.875,20.875 6.031,21.063C6.875,18.438 8.398,16.305 10.602,14.664C12.805,13.023 15.266,12.156 17.984,12.063C13.391,8.406 8.094,6.578 2.094,6.578C1.063,6.578 0.031,6.625 -1,6.719C5,2.875 11.563,0.953 18.688,0.953C26.188,0.953 32.844,2.875 38.656,6.719C44,10.094 48.172,14.688 51.172,20.5C53.984,26.031 55.391,31.703 55.391,37.516L55.25,39.203C57.781,40.984 59.938,43.234 61.719,45.953Z" fill="#FFFFFF" fill-opacity="0.72"/>
</svg>
