<svg width="68" height="172" viewBox="0 0 68 172" fill="none" xmlns="http://www.w3.org/2000/svg" xmlns:xlink="http://www.w3.org/1999/xlink">
<path d="M0,169C-0.552,169 -1,169.448 -1,170C-1,170.552 -0.552,171 0,171L0,169ZM17.153,170L17.153,171L18.153,171L18.153,170L17.153,170ZM17.153,6L17.153,5L16.153,5L16.153,6L17.153,6ZM68,6L58,0.227L58,11.773L68,6ZM0,171L4.288,171L4.288,169L0,169L0,171ZM12.865,171L17.153,171L17.153,169L12.865,169L12.865,171ZM18.153,170L18.153,164.875L16.153,164.875L16.153,170L18.153,170ZM18.153,154.625L18.153,144.375L16.153,144.375L16.153,154.625L18.153,154.625ZM18.153,134.125L18.153,123.875L16.153,123.875L16.153,134.125L18.153,134.125ZM18.153,113.625L18.153,103.375L16.153,103.375L16.153,113.625L18.153,113.625ZM18.153,93.125L18.153,82.875L16.153,82.875L16.153,93.125L18.153,93.125ZM18.153,72.625L18.153,62.375L16.153,62.375L16.153,72.625L18.153,72.625ZM18.153,52.125L18.153,41.875L16.153,41.875L16.153,52.125L18.153,52.125ZM18.153,31.625L18.153,21.375L16.153,21.375L16.153,31.625L18.153,31.625ZM18.153,11.125L18.153,6L16.153,6L16.153,11.125L18.153,11.125ZM17.153,7L21.39,7L21.39,5L17.153,5L17.153,7ZM29.865,7L38.339,7L38.339,5L29.865,5L29.865,7ZM46.814,7L55.288,7L55.288,5L46.814,5L46.814,7Z" fill="#FFFFFF"/>
</svg>
