<svg width="214" height="214" viewBox="0 0 214 214" fill="none" xmlns="http://www.w3.org/2000/svg" xmlns:xlink="http://www.w3.org/1999/xlink">
<path d="M2.196,-0.206C19.252,-0.317 36.19,-0.399 53.245,-0.45C61.15,-0.474 69.007,-0.507 77.006,-0.561C84.651,-0.612 92.297,-0.64 99.943,-0.652C102.848,-0.661 105.753,-0.678 108.659,-0.703C155.238,-1.096 155.238,-1.096 169.353,12.823C170.078,13.564 170.8,14.305 171.553,15.07C172.788,15.483 174.023,15.895 175.305,16.317C176.94,16.863 176.94,16.863 178.61,17.42C178.998,18.585 179.387,19.749 179.786,20.949C181.08,22.278 182.386,23.607 183.715,24.901C194.678,35.734 201.123,46.191 206.769,60.306C207.891,63.188 207.891,63.188 209.145,65.599C211.545,77.597 212.863,90.065 213.557,102.298C213.609,103.191 213.661,104.086 213.715,105.004C214.005,111.179 214.005,111.179 212.675,113.837C212.401,117.025 212.181,120.201 212.013,123.389C211.937,124.718 211.937,124.718 211.859,126.082C211.735,128.27 211.615,130.47 211.497,132.657L209.145,132.657C208.963,134.951 208.963,134.951 208.779,137.292C208.141,143.138 206.473,148.337 204.439,153.877C204.049,155.041 203.661,156.206 203.261,157.406C202.485,157.794 201.709,158.182 200.909,158.582C199.71,160.864 199.71,160.864 198.628,163.581C195.616,170.58 192.523,175.814 186.747,180.989C185.583,181.378 184.419,181.766 183.219,182.166L183.219,184.518L180.866,184.518C180.478,185.683 180.09,186.847 179.69,188.047C177.385,190.141 175.103,192.046 172.632,193.928C171.983,194.431 171.339,194.932 170.668,195.446C166.293,198.704 161.811,201.244 156.906,203.574C155.024,204.386 155.024,204.386 153.848,205.692C151.495,205.956 149.155,206.218 146.802,206.422C144.085,206.776 144.085,206.776 140.909,209.222C128.558,211.608 116.208,211.892 103.622,211.762C101.905,211.754 100.187,211.748 98.47,211.744C93.988,211.728 89.507,211.7 85.061,211.666C77.968,211.616 70.828,211.578 63.771,211.552C62.03,211.544 60.289,211.536 58.56,211.528C45.268,211.466 32.094,211.764 18.92,212.534C17.121,212.626 17.121,212.626 15.286,212.718C14.249,212.78 13.215,212.844 12.145,212.906C7.463,212.654 4.299,211.354 0.982,208.048C0.678,205.026 0.678,205.026 0.669,201.25C0.666,199.898 0.663,198.532 0.66,197.144C0.669,195.721 0.679,194.298 0.688,192.828C0.679,191.404 0.67,189.993 0.66,188.534C0.663,187.182 0.666,185.817 0.669,184.417C0.672,183.171 0.675,181.924 0.678,180.642C0.982,177.466 0.982,177.466 3.336,173.937C6.771,173.296 10.017,172.847 13.475,172.537C14.887,172.393 14.887,172.393 16.333,172.246C18.662,172.01 20.991,171.794 23.332,171.582C24.614,157.702 24.685,143.94 24.661,130.061C24.662,127.673 24.663,125.285 24.665,122.909C24.666,117.945 24.664,112.981 24.658,107.971C24.652,101.619 24.656,95.267 24.663,88.915C24.667,83.999 24.665,79.094 24.662,74.212C24.662,71.871 24.663,69.519 24.665,67.178C24.668,63.908 24.664,60.638 24.657,57.368C24.66,56.407 24.662,55.451 24.664,54.463C24.646,49.452 24.321,44.771 23.323,39.877C22.006,39.748 20.689,39.62 19.336,39.487C17.607,39.3 15.866,39.111 14.137,38.922C13.269,38.84 12.396,38.757 11.502,38.672C5.115,37.95 5.115,37.95 2.48,36.143C0.328,33.085 0.551,30.803 0.587,27.086C0.593,25.733 0.599,24.38 0.605,22.992C0.629,21.581 0.653,20.169 0.678,18.711C0.685,17.299 0.691,15.888 0.697,14.429C0.791,3.961 0.791,3.961 2.144,-0.156L2.196,-0.206ZM79.829,42.139C77.723,45.503 77.182,48.067 77.194,52.007C77.191,53.033 77.187,54.054 77.184,55.113C77.193,56.229 77.201,57.348 77.21,58.489C77.209,59.677 77.209,60.853 77.209,62.076C77.21,65.981 77.229,69.886 77.247,73.803C77.251,76.509 77.255,79.226 77.257,81.931C77.266,89.059 77.289,96.164 77.315,103.339C77.339,110.62 77.35,117.924 77.362,125.217C77.387,139.45 77.427,153.8 77.477,168.033C81.347,169.962 85.64,169.421 89.945,169.444C90.946,169.451 91.945,169.458 92.98,169.465C95.097,169.476 97.226,169.483 99.343,169.488C102.578,169.499 105.813,169.536 109.059,169.573C111.118,169.581 113.176,169.587 115.246,169.591C116.212,169.606 117.175,169.62 118.175,169.635C123.715,169.614 127.068,169.095 131.702,165.671C133.266,164.87 134.831,164.083 136.407,163.319L136.407,158.614C137.971,158.287 137.971,158.287 139.571,157.953C148.217,154.201 150.769,145.132 154.039,136.898C160.32,114.784 159.391,84.202 150.087,63.147C145.711,55.384 139.595,47.503 130.796,45.033C126.585,44.182 122.374,43.41 118.093,42.786C115.246,42.166 115.246,42.166 111.718,39.81C108.965,39.448 108.965,39.448 105.919,39.497C104.789,39.494 103.66,39.491 102.496,39.488C100.731,39.502 100.731,39.502 98.92,39.516C97.751,39.507 96.579,39.497 95.379,39.488C94.247,39.491 93.109,39.494 91.945,39.497C90.914,39.5 89.886,39.503 88.816,39.505C85.405,39.854 82.97,40.539 79.947,42.164L79.829,42.139Z" fill="#FFFFFF"/>
</svg>
