<svg width="24" height="42" viewBox="0 0 24 42" fill="none" xmlns="http://www.w3.org/2000/svg" xmlns:xlink="http://www.w3.org/1999/xlink">
<path d="M17.17,39.495C18.732,41.057 21.265,41.057 22.827,39.495C24.389,37.933 24.389,35.4 22.827,33.838L17.17,39.495ZM3.332,20L0.504,17.171C-1.058,18.733 -1.058,21.266 0.504,22.828L3.332,20ZM22.827,6.161C24.389,4.599 24.389,2.067 22.827,0.505C21.265,-1.058 18.732,-1.058 17.17,0.505L22.827,6.161ZM22.827,33.838L6.16,17.171L0.504,22.828L17.17,39.495L22.827,33.838ZM6.16,22.828L22.827,6.161L17.17,0.505L0.504,17.171L6.16,22.828Z" fill="#00CD6A"/>
</svg>
