<svg width="238" height="220" viewBox="0 0 238 220" fill="none" xmlns="http://www.w3.org/2000/svg" xmlns:xlink="http://www.w3.org/1999/xlink">
<path d="M1.136,-0.206L98.765,-0.206C101.412,10.404 101.412,10.404 101.435,15.908C101.44,17.673 101.44,17.673 101.444,19.484C101.435,20.684 101.426,21.884 101.417,23.119C101.43,24.965 101.43,24.965 101.444,26.836C101.441,28.006 101.438,29.176 101.435,30.388C101.432,31.449 101.43,32.505 101.427,33.599C101.122,36.199 101.122,36.199 98.769,38.551C95.546,38.722 92.441,38.771 89.218,38.698C88.331,38.688 87.441,38.677 86.524,38.666C84.336,38.638 82.137,38.596 79.949,38.551C79.973,39.88 79.997,41.221 80.022,42.597C79.949,46.785 79.949,46.785 78.775,47.961C78.465,50.596 78.233,53.254 78.04,55.901C77.928,57.348 77.816,58.794 77.7,60.288C77.442,64.182 77.442,64.182 78.158,66.981C79.004,71.545 79.053,76.026 79.148,80.626C79.185,82.143 79.185,82.143 79.223,83.684C79.3,86.954 79.37,90.236 79.438,93.506C79.488,95.74 79.539,97.987 79.59,100.222C79.944,116.454 80.096,132.804 79.953,149.036C81.694,149.619 81.694,149.619 83.482,150.213C85.152,153.635 86.187,157.094 87.01,160.799C88.834,161.235 88.834,161.235 90.68,161.681C93.95,162.466 95.409,163.292 98.008,165.551C104.031,169.691 111.888,168.574 118.946,168.515C120.439,168.543 121.945,168.571 123.486,168.6C124.921,168.598 126.368,168.596 127.85,168.593C129.156,168.594 130.473,168.595 131.826,168.596C136.342,167.622 137.366,165.655 139.977,161.973C143.506,160.574 143.506,160.574 147.035,159.621C150.61,158.386 151.645,157.421 153.704,154.163C154.293,152.928 154.88,151.705 155.492,150.434C156.09,149.211 156.692,147.988 157.303,146.741C159.95,140.389 160.138,134.508 160.103,127.686C160.103,126.251 160.103,126.251 160.103,124.792C160.102,121.652 160.093,118.523 160.084,115.382C160.082,113.206 160.08,111.018 160.079,108.842C160.074,103.114 160.063,97.386 160.05,91.669C160.038,85.823 160.032,79.965 160.027,74.143C160.014,62.674 159.994,51.206 159.969,39.679C154.606,37.891 149.289,38.61 143.737,38.806C142.514,38.706 141.29,38.606 140.032,38.503C137.279,34.374 137.385,32.68 137.409,27.81C137.411,26.411 137.413,24.999 137.416,23.552C137.43,22.082 137.444,20.612 137.459,19.094C137.46,16.895 137.46,16.895 137.462,14.636C137.515,3.709 137.515,3.709 138.861,-0.302C151.094,-0.356 163.327,-0.398 175.56,-0.424C181.242,-0.437 186.911,-0.453 192.616,-0.48C198.097,-0.505 203.567,-0.52 209.083,-0.526C211.177,-0.53 213.271,-0.539 215.365,-0.551C218.293,-0.568 221.211,-0.571 224.139,-0.57C225.445,-0.582 225.445,-0.582 226.787,-0.595C232.785,-0.571 232.785,-0.571 235.409,2.051C236.961,6.792 236.761,11.591 236.725,16.519C236.731,17.383 236.735,18.248 236.739,19.131C236.713,33.598 236.713,33.598 233.047,37.362C227.977,38.252 223.153,38.597 217.991,38.562C217.055,38.558 216.119,38.554 215.155,38.55C214.101,38.542 214.101,38.542 213.027,38.535C213.031,39.887 213.037,41.24 213.043,42.628C213.089,55.331 213.125,68.035 213.149,80.738C213.161,87.267 213.177,93.795 213.203,100.382C213.229,106.686 213.243,112.968 213.249,119.319C213.253,121.731 213.263,124.13 213.275,126.542C213.293,129.906 213.295,133.27 213.293,136.634C213.301,137.637 213.311,138.645 213.319,139.68C213.295,146.573 213.295,146.573 210.673,149.196C209.951,152.313 209.951,152.313 209.497,155.889C208.677,161.288 207.627,166.346 205.967,171.533L203.615,171.533C203.519,172.358 203.421,173.18 203.321,174.027C202.223,178.238 200.251,180.931 197.733,184.472C196.642,186.26 196.642,186.26 195.522,188.071C190.194,195.435 181.642,201.599 173.056,204.421C172.425,205.149 171.797,205.879 171.15,206.633C167.68,209.737 164.446,210.643 160.035,211.937C157.788,212.463 157.788,212.463 156.588,213.831C154.824,213.855 153.059,213.821 151.295,213.757C146.296,213.709 141.991,214.305 137.18,215.499C127.77,217.687 118.007,219.297 108.362,218.533C107.608,217.959 106.856,217.385 106.08,216.793C103.198,214.663 101.469,214.475 97.929,214.275C96.376,214.159 96.376,214.159 94.8,214.041C93.843,213.973 92.883,213.905 91.906,213.835C88.307,213.359 85.343,212.857 81.979,211.481C78.92,210.117 78.92,210.117 75.215,210.011C66.299,208.259 58.395,202.377 51.925,196.131L51.925,193.779C50.956,193.408 50.956,193.408 49.973,193.03C39.046,186.654 31.035,172.328 27.271,160.8C26.594,157.225 26.327,153.861 26.095,150.214C25.707,149.555 25.318,148.897 24.919,148.215C23.084,143.992 23.437,139.675 23.472,135.158C23.472,134.114 23.471,133.064 23.471,131.994C23.473,128.548 23.491,125.089 23.509,121.643C23.514,119.255 23.517,116.856 23.519,114.468C23.528,108.175 23.551,101.882 23.577,95.53C23.602,89.108 23.612,82.709 23.624,76.24C23.649,63.654 23.69,51.068 23.739,38.365C22.789,38.378 21.834,38.392 20.857,38.406C19.599,38.417 18.34,38.427 17.046,38.438C15.799,38.452 14.564,38.465 13.282,38.479C9.942,38.375 6.978,37.953 3.743,37.186L3.743,34.833L1.39,34.833C0.179,31.21 0.061,28.705 0.061,24.906C0.06,23.659 0.058,22.412 0.057,21.13C0.061,19.824 0.066,18.53 0.07,17.189C0.066,15.884 0.061,14.59 0.057,13.249C0.058,12.002 0.06,10.755 0.061,9.473C0.063,8.331 0.064,7.191 0.065,6.015C0.217,3.074 0.217,3.074 1.394,-0.454L1.136,-0.206Z" fill="#FFFFFF"/>
</svg>
