<svg width="236" height="220" viewBox="0 0 236 220" fill="none" xmlns="http://www.w3.org/2000/svg" xmlns:xlink="http://www.w3.org/1999/xlink">
<path d="M0.893,-0.177L98.282,-0.177C100.922,10.486 100.922,10.486 100.946,16.018C100.95,17.792 100.95,17.792 100.955,19.612C100.946,20.818 100.937,22.024 100.928,23.265C100.941,25.121 100.941,25.121 100.955,27.001C100.952,28.177 100.949,29.353 100.946,30.571C100.943,31.637 100.941,32.699 100.938,33.798C100.634,36.411 100.634,36.411 98.286,38.775C95.071,38.946 91.973,38.996 88.758,38.923C87.874,38.912 86.987,38.901 86.071,38.89C83.889,38.862 81.695,38.82 79.512,38.775C79.536,40.111 79.561,41.458 79.586,42.842C79.512,47.05 79.512,47.05 78.342,48.232C78.032,50.88 77.801,53.552 77.609,56.212C77.497,57.666 77.384,59.12 77.269,60.621C77.011,64.534 77.011,64.534 77.726,67.348C78.569,71.935 78.619,76.439 78.714,81.061C78.75,82.586 78.75,82.586 78.788,84.134C78.865,87.421 78.935,90.719 79.003,94.005C79.053,96.252 79.103,98.509 79.154,100.756C79.507,117.069 79.66,133.501 79.517,149.815C81.253,150.4 81.253,150.4 83.037,150.997C84.703,154.438 85.735,157.913 86.557,161.637C88.375,162.075 88.375,162.075 90.218,162.523C93.48,163.312 94.934,164.143 97.528,166.413C103.535,170.574 111.373,169.451 118.413,169.392C119.904,169.42 121.405,169.448 122.943,169.477C124.374,169.475 125.817,169.473 127.296,169.47C128.598,169.471 129.912,169.472 131.262,169.473C135.767,168.494 136.788,166.518 139.393,162.817C142.913,161.411 142.913,161.411 146.433,160.453C150,159.212 151.033,158.242 153.086,154.968C153.674,153.727 154.26,152.497 154.87,151.22C155.467,149.991 156.067,148.762 156.677,147.508C159.317,141.125 159.504,135.214 159.469,128.357C159.47,126.915 159.47,126.915 159.47,125.449C159.469,122.293 159.46,119.148 159.451,115.992C159.448,113.805 159.447,111.606 159.446,109.419C159.441,103.662 159.43,97.905 159.417,92.16C159.405,86.284 159.399,80.397 159.393,74.545C159.381,63.019 159.361,51.493 159.336,39.908C153.986,38.111 148.682,38.834 143.144,39.031C141.924,38.93 140.703,38.83 139.448,38.726C136.702,34.577 136.808,32.874 136.831,27.98C136.833,26.573 136.836,25.155 136.838,23.701C136.852,22.223 136.867,20.745 136.882,19.22C136.883,17.01 136.883,17.01 136.884,14.74C136.937,3.758 136.937,3.758 138.28,-0.273C150.483,-0.328 162.686,-0.37 174.889,-0.396C180.556,-0.409 186.212,-0.425 191.903,-0.452C197.371,-0.478 202.826,-0.492 208.33,-0.498C210.418,-0.503 212.506,-0.511 214.596,-0.524C217.516,-0.541 220.426,-0.543 223.348,-0.542C224.65,-0.555 224.65,-0.555 225.988,-0.568C231.972,-0.544 231.972,-0.544 234.59,2.092C236.138,6.856 235.938,11.679 235.904,16.632C235.908,17.5 235.912,18.37 235.918,19.257C235.892,33.797 235.892,33.797 232.232,37.58C227.176,38.474 222.364,38.821 217.214,38.786C216.28,38.782 215.348,38.778 214.386,38.774C213.334,38.766 213.334,38.766 212.262,38.758C212.268,40.118 212.272,41.477 212.278,42.872C212.326,55.639 212.36,68.407 212.384,81.174C212.396,87.735 212.412,94.296 212.44,100.916C212.464,107.253 212.478,113.565 212.484,119.949C212.49,122.372 212.498,124.784 212.51,127.207C212.528,130.588 212.53,133.969 212.528,137.35C212.538,138.359 212.546,139.372 212.554,140.412C212.53,147.34 212.53,147.34 209.914,149.976C209.194,153.109 209.194,153.109 208.74,156.702C207.924,162.128 206.876,167.212 205.22,172.425L202.874,172.425C202.778,173.254 202.68,174.08 202.58,174.931C201.486,179.163 199.519,181.871 197.008,185.429C195.919,187.226 195.919,187.226 194.802,189.046C189.486,196.447 180.956,202.642 172.391,205.478C171.762,206.21 171.135,206.944 170.49,207.7C167.028,210.822 163.802,211.732 159.401,213.032C157.16,213.56 157.16,213.56 155.963,214.936C154.203,214.96 152.443,214.924 150.683,214.862C145.697,214.812 141.402,215.412 136.603,216.612C127.216,218.81 117.477,220.43 107.856,219.662C107.104,219.084 106.354,218.506 105.579,217.912C102.705,215.772 100.98,215.582 97.448,215.382C95.899,215.266 95.899,215.266 94.327,215.146C93.373,215.078 92.414,215.01 91.44,214.938C87.85,214.462 84.893,213.958 81.537,212.574C78.486,211.204 78.486,211.204 74.79,211.096C65.896,209.336 58.011,203.424 51.558,197.147L51.558,194.783C50.591,194.41 50.591,194.41 49.61,194.03C38.71,187.622 30.719,173.224 26.964,161.638C26.288,158.045 26.022,154.664 25.791,150.999C25.404,150.337 25.015,149.675 24.618,148.989C22.787,144.745 23.139,140.407 23.174,135.867C23.174,134.818 23.174,133.763 23.173,132.687C23.175,129.224 23.193,125.748 23.211,122.284C23.216,119.885 23.219,117.473 23.222,115.073C23.231,108.749 23.254,102.424 23.28,96.04C23.304,89.586 23.314,83.155 23.326,76.653C23.351,64.004 23.391,51.355 23.441,38.587C22.493,38.601 21.54,38.615 20.566,38.629C19.311,38.64 18.055,38.65 16.764,38.661C15.521,38.675 14.289,38.689 13.01,38.703C9.677,38.598 6.72,38.173 3.494,37.402L3.494,35.038L1.147,35.038C-0.062,31.397 -0.179,28.879 -0.179,25.061C-0.181,23.808 -0.182,22.555 -0.184,21.266C-0.179,19.954 -0.175,18.653 -0.17,17.306C-0.174,15.994 -0.179,14.693 -0.184,13.346C-0.182,12.092 -0.181,10.839 -0.179,9.551C-0.178,8.403 -0.176,7.257 -0.175,6.075C-0.024,3.12 -0.024,3.12 1.151,-0.427L0.893,-0.177Z" fill="#FFFFFF"/>
</svg>
