<svg width="36" height="14" viewBox="0 0 36 14" fill="none" xmlns="http://www.w3.org/2000/svg" xmlns:xlink="http://www.w3.org/1999/xlink">
<path d="M27.584,-0.006L35.817,-0.006C35.156,2.123 35.156,2.123 33.465,4.699C26.407,8.228 26.407,8.228 22.879,8.228L22.879,10.58C21.691,10.539 21.691,10.539 20.467,10.497C19.418,10.476 18.374,10.455 17.292,10.433C16.254,10.406 15.221,10.378 14.151,10.35C10.952,10.593 9.211,11.463 6.411,12.938C3.177,12.497 3.177,12.497 0.53,11.762C0.918,9.433 1.306,7.104 1.706,4.704C4.623,5.869 4.623,5.869 7.588,7.057L7.588,9.409C8.024,8.875 8.461,8.341 8.905,7.786C14.939,2.552 22.432,3.258 29.96,3.528C29.183,3.14 28.407,2.752 27.607,2.352L27.607,-0.001L27.584,-0.006Z" fill="#FFFFFF"/>
</svg>
