<svg width="14" height="10" viewBox="0 0 14 10" fill="none" xmlns="http://www.w3.org/2000/svg" xmlns:xlink="http://www.w3.org/1999/xlink">
<path d="M10.456,-0.545C10.667,-0.746 10.948,-0.857 11.24,-0.855C11.532,-0.853 11.811,-0.738 12.02,-0.533C12.228,-0.329 12.349,-0.052 12.356,0.24C12.364,0.532 12.258,0.815 12.061,1.03L6.076,8.515C5.973,8.626 5.849,8.715 5.711,8.777C5.573,8.838 5.424,8.872 5.272,8.874C5.121,8.877 4.971,8.849 4.831,8.793C4.69,8.736 4.563,8.652 4.456,8.545L0.487,4.576C0.376,4.473 0.288,4.349 0.226,4.211C0.165,4.073 0.132,3.924 0.129,3.773C0.126,3.622 0.154,3.472 0.211,3.332C0.267,3.191 0.352,3.064 0.458,2.957C0.565,2.851 0.692,2.766 0.833,2.71C0.973,2.653 1.123,2.625 1.274,2.628C1.425,2.631 1.574,2.664 1.712,2.725C1.85,2.787 1.974,2.875 2.077,2.986L5.218,6.125L10.427,-0.512L10.456,-0.545Z" fill="#FFFFFF"/>
</svg>
