<svg width="212" height="224" viewBox="0 0 212 224" fill="none" xmlns="http://www.w3.org/2000/svg" xmlns:xlink="http://www.w3.org/1999/xlink">
<path d="M148.046,5.823L150.393,8.187C152.458,9.114 152.458,9.114 154.793,9.89C158.97,11.391 162.878,13.2 166.761,15.28L166.761,17.645C167.415,17.718 168.064,17.791 168.744,17.867C175.057,20.101 179.352,27.017 183.646,32.053C185.594,34.334 185.594,34.334 188.128,36.592C190.698,39.453 192.071,42.397 193.69,45.872C195.368,49.265 197.398,52.398 199.475,55.566C204.192,63.664 206.222,73.653 207.418,82.874C207.502,86.077 207.502,86.077 209.038,87.378C209.288,90.44 209.48,93.478 209.624,96.54C209.936,103.195 209.936,103.195 210.904,109.78C211.06,110.578 211.218,111.376 211.38,112.203L210.206,113.385C210.036,115.088 209.94,116.802 209.876,118.504C209.832,119.546 209.788,120.585 209.744,121.66C209.702,122.756 209.662,123.847 209.62,124.982C209.54,127.134 209.454,129.285 209.364,131.437C209.328,132.396 209.292,133.352 209.256,134.345C209.042,136.946 208.542,139.251 207.86,141.757C207.642,143.152 207.642,143.152 207.42,144.571C206.686,147.668 206.686,147.668 204.932,151.073C202.972,154.655 202.972,154.655 202.796,158.52C201.814,164.1 199.664,168.096 196.871,172.943C196.402,173.797 195.934,174.657 195.451,175.531C191.896,181.797 191.896,181.797 187.93,183.133C187.543,184.303 187.156,185.473 186.757,186.679C186.37,187.85 185.982,189.02 185.584,190.226C184.422,190.616 183.26,191.006 182.063,191.408C181.263,192.98 180.479,194.552 179.717,196.137C177.558,198.406 177.558,198.406 175.094,200.57C174.284,201.296 173.474,202.024 172.641,202.768C170.33,204.412 170.33,204.412 166.81,204.412L166.81,206.776C144.281,220.016 144.281,220.016 132.9,219.662C129.18,219.526 129.18,219.526 125.707,221.518C119.476,224.45 112.683,223.834 105.994,223.764C104.669,223.778 103.331,223.79 101.97,223.806C94.836,223.78 88.828,223.25 82.257,220.53C79.84,219.55 79.84,219.55 76.062,219.852C66.288,219.68 56.936,213.634 48.371,209.142C47.407,208.64 46.446,208.136 45.449,207.616C40.732,205.086 36.496,202.794 33.129,198.502L33.129,196.138C32.427,195.827 31.721,195.516 31.005,195.196C19.4,188.765 10.94,170.489 7.303,158.312C6.743,157.071 6.184,155.818 5.602,154.541C-0.113,141.183 -0.066,125.933 -0.113,111.629C-0.122,109.536 -0.122,109.536 -0.132,107.397C-0.066,99.263 0.653,91.792 2.602,83.872C2.798,83.041 2.994,82.205 3.197,81.354C3.753,79.06 4.35,76.779 4.945,74.485C5.526,72.239 5.526,72.239 6.119,69.946C7.292,66.139 7.292,66.139 9.639,62.593C9.953,61.103 10.268,59.614 10.592,58.089C11.421,54.436 12.434,52.225 14.921,49.447C18.019,46.314 18.019,46.314 18.887,42.65C21.081,36.503 25.763,32.093 30.374,27.636C32.088,26.017 32.088,26.017 33.12,23.629C34.245,23.372 34.245,23.372 35.396,23.111C38.259,22.61 38.259,22.61 40.16,18.903C41.721,18.475 43.281,18.079 44.854,17.72C45.241,16.94 45.628,16.16 46.027,15.356C49.031,14.617 49.031,14.617 51.894,14.174C52.281,13.004 52.668,11.833 53.067,10.627C55.789,9.78 58.523,8.996 61.281,8.263C62.055,7.483 62.83,6.703 63.627,5.899C66.666,5.167 69.635,4.563 72.721,4.055C73.627,3.902 74.528,3.751 75.467,3.594C98.817,-0.189 125.217,-0.792 148.098,5.899L148.046,5.823ZM76.471,56.656C75.479,57.338 74.488,58.015 73.467,58.725C70.206,61.751 68.821,64.541 67.073,68.596C65.909,70.842 65.909,70.842 64.128,72.544C54.318,82.947 56.067,111.792 56.372,125.387C56.994,139.573 62.673,153.758 70.569,165.462C73.808,168.003 73.808,168.003 77.093,168.275C78.037,168.519 78.982,168.764 79.956,169.014C81.2,171.308 81.2,171.308 82.303,173.743C88.064,177.632 95.445,176.769 102.133,176.876C103.764,176.909 105.406,176.965 107.037,177.046C118.888,177.625 125.811,175.698 134.729,168.002C135.64,167.168 136.547,166.335 137.498,165.472C138.659,164.692 139.821,163.912 141.018,163.108C142.25,160.767 143.423,158.415 144.538,156.015C144.925,155.625 145.312,155.235 145.711,154.833L145.711,150.837C145.711,146.558 145.711,146.558 146.885,143.011C148.046,142.621 149.208,142.231 150.405,141.829C153.08,133.223 153.068,124.806 152.974,115.94C152.974,114.616 152.973,113.304 152.972,111.944C152.884,95.039 152.021,74.115 141.004,60.284C137.038,57.849 135.184,57.92 130.444,57.92C129.863,54.988 129.863,54.988 129.27,52.009C110.848,44.691 92.427,42.942 76.469,56.737L76.471,56.656ZM153.913,107.489L153.913,116.946L155.086,116.946L155.086,107.489L153.913,107.489Z" fill="#FFFFFF"/>
</svg>
