<svg width="24" height="42" viewBox="0 0 24 42" fill="none" xmlns="http://www.w3.org/2000/svg" xmlns:xlink="http://www.w3.org/1999/xlink">
<path d="M17.172,39.495C18.734,41.057 21.266,41.057 22.828,39.495C24.391,37.933 24.391,35.4 22.828,33.838L17.172,39.495ZM3.333,20L0.505,17.171C-1.057,18.733 -1.057,21.266 0.505,22.828L3.333,20ZM22.828,6.161C24.391,4.599 24.391,2.067 22.828,0.505C21.266,-1.058 18.734,-1.058 17.172,0.505L22.828,6.161ZM22.828,33.838L6.162,17.171L0.505,22.828L17.172,39.495L22.828,33.838ZM6.162,22.828L22.828,6.161L17.172,0.505L0.505,17.171L6.162,22.828Z" fill="#00CD6A"/>
</svg>
