<svg width="260" height="180" viewBox="0 0 260 180" fill="none" xmlns="http://www.w3.org/2000/svg" xmlns:xlink="http://www.w3.org/1999/xlink">
<path d="M259,1C259,0.448 258.552,0 258,0C257.448,0 257,0.448 257,1L259,1ZM258,17L258,18L259,18L259,17L258,17ZM1,17L1,16L0,16L0,17L1,17ZM1,173L0,173L0,174L1,174L1,173ZM94,173L84,167.227L84,178.773L94,173ZM80.05,172L70.75,172L70.75,174L80.05,174L80.05,172ZM61.45,172L52.15,172L52.15,174L61.45,174L61.45,172ZM42.85,172L33.55,172L33.55,174L42.85,174L42.85,172ZM24.25,172L14.95,172L14.95,174L24.25,174L24.25,172ZM5.65,172L1,172L1,174L5.65,174L5.65,172ZM2,173L2,168.125L0,168.125L0,173L2,173ZM2,158.375L2,148.625L0,148.625L0,158.375L2,158.375ZM2,138.875L2,129.125L0,129.125L0,138.875L2,138.875ZM2,119.375L2,109.625L0,109.625L0,119.375L2,119.375ZM2,99.875L2,90.125L0,90.125L0,99.875L2,99.875ZM2,80.375L2,70.625L0,70.625L0,80.375L2,80.375ZM2,60.875L2,51.125L0,51.125L0,60.875L2,60.875ZM2,41.375L2,31.625L0,31.625L0,41.375L2,41.375ZM2,21.875L2,17L0,17L0,21.875L2,21.875ZM1,18L5.942,18L5.942,16L1,16L1,18ZM15.827,18L25.712,18L25.712,16L15.827,16L15.827,18ZM35.596,18L45.481,18L45.481,16L35.596,16L35.596,18ZM55.365,18L65.25,18L65.25,16L55.365,16L55.365,18ZM75.135,18L85.019,18L85.019,16L75.135,16L75.135,18ZM94.904,18L104.788,18L104.788,16L94.904,16L94.904,18ZM114.673,18L124.558,18L124.558,16L114.673,16L114.673,18ZM134.442,18L144.327,18L144.327,16L134.442,16L134.442,18ZM154.212,18L164.096,18L164.096,16L154.212,16L154.212,18ZM173.981,18L183.865,18L183.865,16L173.981,16L173.981,18ZM193.75,18L203.634,18L203.634,16L193.75,16L193.75,18ZM213.52,18L223.404,18L223.404,16L213.52,16L213.52,18ZM233.288,18L243.174,18L243.174,16L233.288,16L233.288,18ZM253.058,18L258,18L258,16L253.058,16L253.058,18ZM259,17L259,13L257,13L257,17L259,17ZM259,5L259,1L257,1L257,5L259,5Z" fill="#FFFFFF"/>
</svg>
