<svg width="26" height="42" viewBox="0 0 26 42" fill="none" xmlns="http://www.w3.org/2000/svg" xmlns:xlink="http://www.w3.org/1999/xlink">
<path d="M17.838,39.495C19.4,41.057 21.933,41.057 23.495,39.495C25.057,37.933 25.057,35.4 23.495,33.838L17.838,39.495ZM4,20L1.172,17.171C-0.391,18.733 -0.391,21.266 1.172,22.828L4,20ZM23.495,6.161C25.057,4.599 25.057,2.067 23.495,0.505C21.933,-1.058 19.4,-1.058 17.838,0.505L23.495,6.161ZM23.495,33.838L6.828,17.171L1.172,22.828L17.838,39.495L23.495,33.838ZM6.828,22.828L23.495,6.161L17.838,0.505L1.172,17.171L6.828,22.828Z" fill="#00CD6A"/>
</svg>
