<svg width="14" height="30" viewBox="0 0 14 30" fill="none" xmlns="http://www.w3.org/2000/svg" xmlns:xlink="http://www.w3.org/1999/xlink">
<path d="M0.758,-0.206L13.696,-0.206C12.532,0.376 12.532,0.376 11.344,0.97L11.344,3.322L13.696,4.499C13.031,4.817 12.367,5.135 11.685,5.463C8.603,7.275 6.556,8.78 4.286,11.556C3.11,17.061 2.992,22.401 3.11,28.024L1.934,28.024C1.827,26.898 1.827,26.898 1.717,25.754C1.619,24.782 1.52,23.813 1.419,22.813C1.323,21.844 1.228,20.872 1.129,19.872C1.005,17.461 1.005,17.461 -0.423,16.261C-0.54,14.156 -0.576,12.05 -0.57,9.933C-0.573,8.784 -0.576,7.639 -0.58,6.451C-0.423,3.322 -0.423,3.322 0.75,-0.206L0.758,-0.206Z" fill="#FFFFFF"/>
</svg>
