<svg width="26" height="42" viewBox="0 0 26 42" fill="none" xmlns="http://www.w3.org/2000/svg" xmlns:xlink="http://www.w3.org/1999/xlink">
<path d="M17.84,39.495C19.402,41.057 21.934,41.057 23.496,39.495C25.059,37.933 25.059,35.401 23.496,33.839L17.84,39.495ZM4.001,20L1.173,17.172C-0.389,18.734 -0.389,21.267 1.173,22.829L4.001,20ZM23.496,6.162C25.059,4.6 25.059,2.067 23.496,0.505C21.934,-1.057 19.402,-1.057 17.84,0.505L23.496,6.162ZM23.496,33.839L6.83,17.172L1.173,22.829L17.84,39.495L23.496,33.839ZM6.83,22.829L23.496,6.162L17.84,0.505L1.173,17.172L6.83,22.829Z" transform="rotate(-360 12.335 20)" fill="#00CD6A"/>
</svg>
