<svg width="88" height="6" viewBox="0 0 88 6" fill="none" xmlns="http://www.w3.org/2000/svg" xmlns:xlink="http://www.w3.org/1999/xlink">
<path d="M0.775,-0.206C11.444,-0.315 22.065,-0.399 32.769,-0.45C37.721,-0.474 42.685,-0.508 47.59,-0.561C52.377,-0.612 57.153,-0.64 61.94,-0.652C63.763,-0.661 65.586,-0.678 67.421,-0.704C69.974,-0.738 72.526,-0.742 75.079,-0.74C76.537,-0.751 77.984,-0.761 79.49,-0.772C83.042,-0.206 83.042,-0.206 85.3,2.181C85.718,2.946 86.137,3.71 86.571,4.498C84.983,4.53 83.383,4.553 81.795,4.571C80.908,4.585 80.019,4.599 79.102,4.613C75.984,4.498 75.984,4.498 72.197,3.941C56.2,1.706 39.732,1.836 23.618,1.483C21.383,1.432 19.148,1.38 16.901,1.329C11.491,1.204 6.08,1.085 0.669,0.967L0.669,-0.209L0.775,-0.206Z" fill="#FFFFFF"/>
</svg>
