<svg width="14" height="10" viewBox="0 0 14 10" fill="none" xmlns="http://www.w3.org/2000/svg" xmlns:xlink="http://www.w3.org/1999/xlink">
<path d="M10.455,-0.545C10.666,-0.746 10.947,-0.857 11.239,-0.855C11.531,-0.853 11.81,-0.738 12.019,-0.533C12.227,-0.329 12.348,-0.052 12.355,0.24C12.363,0.532 12.257,0.815 12.06,1.03L6.075,8.515C5.972,8.626 5.848,8.715 5.71,8.777C5.572,8.838 5.423,8.872 5.271,8.874C5.12,8.877 4.97,8.849 4.83,8.793C4.689,8.736 4.562,8.652 4.455,8.545L0.486,4.576C0.375,4.473 0.287,4.349 0.225,4.211C0.164,4.073 0.131,3.924 0.128,3.773C0.125,3.622 0.153,3.472 0.21,3.332C0.266,3.191 0.351,3.064 0.457,2.957C0.564,2.851 0.692,2.766 0.832,2.71C0.972,2.653 1.122,2.625 1.273,2.628C1.424,2.631 1.573,2.664 1.711,2.725C1.849,2.787 1.973,2.875 2.076,2.986L5.217,6.125L10.426,-0.512L10.455,-0.545Z" fill="#FFFFFF"/>
</svg>
