<svg width="56" height="46" viewBox="0 0 56 46" fill="none" xmlns="http://www.w3.org/2000/svg" xmlns:xlink="http://www.w3.org/1999/xlink">
<path d="M21.399,3.015L22.243,15.672L45.165,36.484C45.728,36.953 45.798,37.258 45.376,37.398C44.954,37.539 44.368,37.422 43.618,37.047L15.212,19.047L2.978,22.984C1.571,23.359 0.915,23.945 1.009,24.742C1.103,25.539 1.946,26.265 3.54,26.922L51.493,45.344C52.618,45.906 53.556,45.812 54.306,45.062C55.056,44.312 55.243,43.094 54.868,41.406L46.712,3.015C46.431,1.703 45.892,0.859 45.095,0.484C44.298,0.109 43.337,0.25 42.212,0.906L29.837,10.047L23.79,4.281C23.415,3.812 23.063,3.484 22.735,3.297C22.407,3.109 21.962,3.015 21.399,3.015Z" fill="#FFFFFF" fill-opacity="0.72"/>
</svg>
