<svg width="40" height="40" viewBox="0 0 40 40" fill="none" xmlns="http://www.w3.org/2000/svg" xmlns:xlink="http://www.w3.org/1999/xlink">
<path d="M5.86,34.14C3.95,32.295 2.426,30.088 1.378,27.648C0.33,25.208 -0.222,22.584 -0.245,19.928C-0.268,17.272 0.238,14.639 1.244,12.181C2.249,9.723 3.734,7.49 5.612,5.612C7.49,3.734 9.723,2.249 12.181,1.244C14.639,0.238 17.272,-0.268 19.928,-0.245C22.584,-0.222 25.208,0.33 27.648,1.378C30.088,2.426 32.295,3.95 34.14,5.86C37.783,9.632 39.799,14.684 39.753,19.928C39.708,25.172 37.604,30.188 33.896,33.896C30.188,37.604 25.172,39.708 19.928,39.753C14.684,39.799 9.632,37.783 5.86,34.14ZM22.8,20L28.46,14.34L25.64,11.52L20,17.18L14.34,11.52L11.52,14.34L17.18,20L11.52,25.66L14.34,28.48L20,22.82L25.66,28.48L28.48,25.66L22.82,20L22.8,20Z" fill="#B1BFB9"/>
</svg>
