<svg width="26" height="42" viewBox="0 0 26 42" fill="none" xmlns="http://www.w3.org/2000/svg" xmlns:xlink="http://www.w3.org/1999/xlink">
<path d="M17.838,39.495C19.4,41.057 21.933,41.057 23.495,39.495C25.057,37.933 25.057,35.401 23.495,33.839L17.838,39.495ZM4,20L1.172,17.172C-0.39,18.734 -0.39,21.267 1.172,22.829L4,20ZM23.495,6.162C25.057,4.6 25.057,2.067 23.495,0.505C21.933,-1.057 19.4,-1.057 17.838,0.505L23.495,6.162ZM23.495,33.839L6.829,17.172L1.172,22.829L17.838,39.495L23.495,33.839ZM6.829,22.829L23.495,6.162L17.838,0.505L1.172,17.172L6.829,22.829Z" transform="rotate(-360 12.333 20)" fill="#00CD6A"/>
</svg>
