<svg width="216" height="214" viewBox="0 0 216 214" fill="none" xmlns="http://www.w3.org/2000/svg" xmlns:xlink="http://www.w3.org/1999/xlink">
<path d="M1.701,-0.177C18.715,-0.26 35.729,-0.323 52.742,-0.36C60.651,-0.379 68.583,-0.403 76.444,-0.444C84.083,-0.483 91.698,-0.504 99.325,-0.513C102.235,-0.52 105.133,-0.532 108.043,-0.552C136.79,-0.734 136.79,-0.734 149.463,3.373C150.777,3.649 150.777,3.649 152.114,3.931C153.126,4.241 153.126,4.241 154.156,4.555C154.543,5.335 154.93,6.116 155.329,6.92C157.336,7.908 157.336,7.908 159.729,8.693C160.575,8.998 161.419,9.303 162.287,9.616C163.088,9.896 163.883,10.176 164.716,10.466C168.835,11.944 171.111,13.221 174.103,16.377C175.265,16.767 176.426,17.157 177.623,17.559C178.35,18.509 179.078,19.462 179.829,20.444C182.047,23.683 182.047,23.683 185.403,24.51C186.787,25.169 186.787,25.169 188.195,25.834C189.053,28.565 189.838,31.331 190.542,34.109C191.704,34.499 192.865,34.89 194.062,35.292C198.098,41.001 200.844,47.704 203.554,54.206C204.666,56.842 204.666,56.842 206.606,60.022C208.518,64.609 208.728,68.723 208.952,73.617C209.124,76.632 209.124,76.632 210.454,78.842C212.788,83.819 212.672,89.494 213.118,94.92C213.238,96.149 213.358,97.367 213.484,98.632C213.586,99.814 213.688,101.008 213.796,102.225C213.892,103.304 213.986,104.377 214.086,105.488C213.986,108.976 212.982,111.293 211.644,114.496C211.68,116.695 211.68,116.695 211.718,118.929C211.954,134.889 207.576,148.129 199.984,161.96C198.271,165.128 196.734,168.367 195.186,171.63C193.695,174.373 191.654,176.252 189.401,178.368C188.529,179.941 188.529,179.941 187.641,181.548C185.54,184.811 184.766,184.646 181.187,185.461C180.844,186.178 180.501,186.892 180.147,187.637C178.633,190.604 177.108,191.857 174.444,193.819C173.675,194.394 172.907,194.968 172.121,195.557C169,197.59 165.773,199.198 162.417,200.829C160.446,201.877 160.446,201.877 158.428,202.945C156.374,204.021 156.374,204.021 154.274,205.121C152.221,206.205 152.221,206.205 150.132,207.309C145.873,209.153 142.364,209.849 137.812,210.287C136.769,210.397 135.723,210.507 134.644,210.619C132.743,210.791 130.83,210.965 128.918,211.137C126.125,211.401 126.125,211.401 123.661,212.069C118.745,212.897 113.899,212.835 108.877,212.843C107.748,212.849 106.624,212.855 105.462,212.861C101.743,212.879 98.023,212.887 94.292,212.893C91.699,212.899 89.117,212.907 86.524,212.913C81.103,212.925 75.682,212.933 70.214,212.937C63.256,212.943 56.251,212.971 49.329,213.005C43.99,213.027 38.651,213.033 33.254,213.035C30.684,213.039 28.126,213.049 25.556,213.063C21.978,213.083 18.399,213.081 14.82,213.073C13.756,213.085 12.696,213.095 11.593,213.107C10.619,213.101 9.645,213.093 8.648,213.087C7.381,213.089 7.381,213.089 6.09,213.093C3.18,212.517 2.136,211.449 0.341,209.109C-0.096,205.941 -0.096,205.941 -0.085,202.157C-0.084,200.797 -0.084,199.439 -0.083,198.043L-0.026,193.74C-0.029,192.321 -0.033,190.903 -0.037,189.437C0.028,178.845 0.028,178.845 2.685,174.778C6.088,174.195 9.315,173.79 12.729,173.525C16.061,173.249 19.312,172.886 22.632,172.416C24.557,168.527 23.97,164.212 23.958,160.003C23.96,158.957 23.962,157.911 23.964,156.835C23.97,153.371 23.966,149.896 23.962,146.432C23.963,144.032 23.964,141.621 23.966,139.221C23.967,134.185 23.965,129.137 23.959,124.089C23.953,117.623 23.956,111.204 23.963,104.702C23.968,99.737 23.966,94.772 23.963,89.807C23.963,87.419 23.964,85.031 23.966,82.643C23.969,79.309 23.965,75.975 23.958,72.653C23.961,71.659 23.963,70.667 23.965,69.639C24.073,64.757 24.073,64.757 22.628,60.182C22.53,58.55 22.502,56.931 22.513,55.299C22.517,54.346 22.521,53.396 22.525,52.415C22.534,51.419 22.544,50.429 22.554,49.4C22.56,48.397 22.565,47.391 22.57,46.362C22.584,43.88 22.605,41.397 22.628,38.915L5.027,38.915C4.446,37.153 4.446,37.153 3.854,35.368L1.507,35.368C0.299,31.727 0.181,29.209 0.181,25.391C0.18,24.138 0.178,22.884 0.177,21.596C0.181,20.284 0.186,18.983 0.19,17.636C0.186,16.323 0.181,15.023 0.177,13.675C0.178,12.422 0.18,11.169 0.181,9.881C0.183,8.733 0.184,7.587 0.185,6.405C0.337,3.45 0.337,3.45 1.511,-0.097L1.701,-0.177ZM23.995,38.834L23.995,60.113L25.169,60.113L25.169,38.834L23.995,38.834ZM79.143,41.199C76.855,69.689 76.503,98.06 76.433,126.551C76.424,129.459 76.408,132.355 76.391,135.263C76.365,139.897 76.357,144.519 76.364,149.213C76.364,150.95 76.359,152.688 76.347,154.426C76.333,156.826 76.343,159.214 76.354,161.613C76.353,162.973 76.352,164.321 76.352,165.716C76.496,166.764 76.641,167.808 76.79,168.896C80.921,171.674 82.669,171.567 87.562,171.579C89.017,171.582 90.472,171.585 91.974,171.588C93.499,171.579 95.024,171.57 96.597,171.561C98.814,171.574 98.814,171.574 101.079,171.588C115.629,171.847 115.629,171.847 129.592,168.905C131.258,165.973 131.258,165.973 131.938,162.994C132.818,163.085 133.698,163.177 134.602,163.271C137.876,163.298 137.876,163.298 140.046,161.095C140.709,160.261 141.372,159.429 142.053,158.566C142.722,157.743 143.39,156.922 144.083,156.071C145.04,154.818 145.04,154.818 146.019,153.541C146.656,152.73 147.298,151.922 147.943,151.083C149.996,148.139 150.818,145.136 151.885,141.72C152.269,141.039 152.654,140.36 153.049,139.651C154.657,136.022 154.997,132.582 155.478,128.633C155.753,126.458 155.753,126.458 156.033,124.236C156.215,122.581 156.397,120.914 156.579,119.259C156.703,118.272 156.827,117.285 156.954,116.268C157.879,108.04 157.505,100.427 156.432,92.27C156.276,91.029 156.119,89.799 155.958,88.523C154.656,79.113 152.262,71.263 148.367,62.515C148.211,61.703 148.054,60.895 147.895,60.056C145.748,53.105 136.678,48.116 130.646,44.806C125.977,42.643 121.881,41.567 116.683,41.189C115.182,40.969 113.68,40.75 112.131,40.525C106.733,39.932 101.348,39.879 95.938,39.86C95.088,39.855 94.237,39.849 93.357,39.844C88.488,39.858 83.935,40.327 79.159,41.191L79.143,41.199Z" fill="#FFFFFF"/>
</svg>
