<svg width="56" height="46" viewBox="0 0 56 46" fill="none" xmlns="http://www.w3.org/2000/svg" xmlns:xlink="http://www.w3.org/1999/xlink">
<path d="M21.399,2.014L22.243,14.671L45.165,35.483C45.728,35.952 45.798,36.257 45.376,36.397C44.954,36.538 44.368,36.421 43.618,36.046L15.212,18.046L2.978,21.983C1.571,22.358 0.915,22.944 1.009,23.741C1.103,24.538 1.946,25.264 3.54,25.921L51.493,44.343C52.618,44.905 53.556,44.811 54.306,44.061C55.056,43.311 55.243,42.093 54.868,40.405L46.712,2.014C46.431,0.702 45.892,-0.142 45.095,-0.517C44.298,-0.892 43.337,-0.751 42.212,-0.095L29.837,9.046L23.79,3.28C23.415,2.811 23.063,2.483 22.735,2.296C22.407,2.108 21.962,2.014 21.399,2.014Z" fill="#FFFFFF" fill-opacity="0.72"/>
</svg>
