<svg width="372" height="56" viewBox="0 0 372 56" fill="none" xmlns="http://www.w3.org/2000/svg" xmlns:xlink="http://www.w3.org/1999/xlink">
<path d="M204.415,0.162C205.649,0.155 206.895,0.147 208.179,0.14C210.177,0.147 210.177,0.147 212.225,0.154C214.295,0.151 214.295,0.151 216.411,0.147C219.329,0.146 222.257,0.15 225.175,0.16C229.633,0.172 234.091,0.16 238.585,0.145C241.431,0.146 244.265,0.15 247.111,0.154C248.441,0.149 249.759,0.145 251.135,0.14C258.251,0.182 264.309,0.796 271.131,2.822C274.837,3.407 278.541,3.913 282.259,4.398C285.247,5.174 285.247,5.174 287.599,8.703L290.539,8.703C298.561,8.703 305.595,11.538 312.299,15.76C315.463,16.592 315.463,16.592 318.181,16.937L318.181,19.289C319.103,19.508 320.027,19.725 320.981,19.95C325.827,21.867 329.449,24.479 333.683,27.525C337.343,30.089 341.095,32.418 344.905,34.724C360.079,43.946 360.079,43.946 364.079,48.721L364.079,52.25L369.959,52.25C370.347,53.414 370.735,54.579 371.135,55.779C363.067,54.811 357.021,53.085 350.199,48.792C345.493,45.863 341.107,43.957 335.731,42.534C333.485,41.666 333.485,41.666 331.697,39.805C329.815,37.617 329.815,37.617 325.461,38.135C324.631,38.168 323.803,38.202 322.945,38.236C319.275,38.082 316.663,36.366 313.475,34.601C310.747,33.772 307.995,32.99 305.243,32.249C304.055,31.836 302.867,31.424 301.643,31.002C298.209,29.814 298.209,29.814 294.585,29.308C291.127,28.72 291.127,28.72 288.187,27.473C285.211,26.156 285.211,26.156 281.647,26.37C278.189,26.37 278.189,26.37 275.989,25.194C272.813,23.7 270.095,23.994 266.637,24.09C264.003,24.016 261.839,23.542 259.297,22.855C252.887,21.373 246.713,21.35 240.125,21.397C238.889,21.397 237.655,21.398 236.385,21.398C233.797,21.402 231.209,21.411 228.609,21.426C224.623,21.447 220.647,21.45 216.611,21.45C214.095,21.455 211.565,21.462 209.049,21.47C207.261,21.472 207.261,21.472 205.425,21.474C203.779,21.486 203.779,21.486 202.109,21.497C200.651,21.504 200.651,21.504 199.179,21.511C196.956,21.426 196.956,21.426 195.792,22.84C193.733,23.003 191.675,23.115 189.616,23.207C179.124,23.917 168.914,26.077 158.681,28.171C156.611,28.572 154.529,28.928 152.447,29.261C148.683,29.915 145.013,30.802 141.296,31.708C132.792,33.542 124.593,33.884 115.889,33.742C113.466,33.705 111.055,33.694 108.632,33.687C101.856,33.634 95.458,33.39 88.753,32.24C87.342,32.265 85.942,32.289 84.495,32.314C80.519,32.24 80.519,32.24 78.32,31.067C75.167,29.585 72.885,29.703 69.415,29.82C66.134,29.925 63.264,29.976 60.041,29.297C56.159,28.561 52.63,28.715 48.678,28.938C47.255,29.003 45.832,29.069 44.373,29.136C39.927,30.011 38.751,31.277 35.81,34.594C33.081,35.423 30.329,36.205 27.576,36.946C25.977,38.073 24.389,39.24 22.871,40.475L20.519,40.475C20.225,41.177 19.931,41.875 19.627,42.604C17.957,45.544 16.345,46.838 13.605,48.779C12.405,49.637 12.405,49.637 11.193,50.508C10.39,51.076 9.582,51.646 8.759,52.226C7.589,53.205 7.589,53.205 6.394,54.202C4.054,55.754 4.054,55.754 -0.651,55.754C0.807,46.65 10.558,39.64 17.228,33.994C19.321,32.276 19.321,32.276 21.027,30.312C24.215,27.442 28.108,27.218 32.237,26.336L32.237,23.984C35.718,22.243 38.988,22.737 42.823,22.808C43.211,21.255 43.599,19.702 43.999,18.103C47.669,17.184 51.033,16.868 54.809,16.926C59.067,17.26 59.067,17.26 61.643,15.75C63.431,15.639 65.219,15.597 67.007,15.603C68.43,15.599 68.43,15.599 69.877,15.594C72.229,15.75 72.229,15.75 73.405,16.923C77.181,16.961 80.933,16.842 84.709,16.735C88.697,16.923 88.697,16.923 91.908,18.088C96.295,19.44 100.318,19.628 104.846,19.628C105.702,19.633 106.552,19.639 107.434,19.644C109.234,19.65 111.034,19.651 112.833,19.646C115.562,19.642 118.291,19.67 121.02,19.7C122.784,19.702 124.537,19.703 126.301,19.702C127.106,19.713 127.913,19.724 128.736,19.735C134.853,19.677 139.616,18.159 145.086,15.747C154.143,11.795 162.377,8.455 172.375,7.878C174.833,7.684 174.833,7.684 176.904,5.161C179.585,4.678 182.279,4.3 184.996,3.985C190.501,3.49 190.501,3.49 195.594,1.609C198.664,0.186 200.923,0.162 204.299,0.15L204.415,0.162Z" fill="#FFFFFF"/>
</svg>
