<svg width="236" height="238" viewBox="0 0 236 238" fill="none" xmlns="http://www.w3.org/2000/svg" xmlns:xlink="http://www.w3.org/1999/xlink">
<path d="M118,236.565C149.296,236.565 179.309,224.133 201.438,202.003C223.568,179.874 236,149.86 236,118.565C236,87.269 223.568,57.255 201.438,35.126C179.309,12.997 149.296,0.565 118,0.565C86.704,0.565 56.691,12.997 34.561,35.126C12.432,57.255 0,87.269 0,118.565C0,149.86 12.432,179.874 34.561,202.003C56.691,224.133 86.704,236.565 118,236.565L118,236.565ZM111.436,76.793C109.215,75.311 106.633,74.459 103.966,74.33C101.298,74.2 98.646,74.797 96.291,76.057C93.937,77.317 91.969,79.192 90.596,81.483C89.224,83.774 88.5,86.394 88.5,89.065L88.5,148.065C88.5,150.735 89.224,153.355 90.596,155.646C91.969,157.937 93.937,159.812 96.291,161.072C98.646,162.332 101.298,162.929 103.966,162.799C106.633,162.67 109.215,161.819 111.436,160.337L155.686,130.837C157.706,129.49 159.363,127.665 160.508,125.524C161.654,123.383 162.253,120.993 162.253,118.565C162.253,116.137 161.654,113.746 160.508,111.605C159.363,109.464 157.706,107.64 155.686,106.293L111.436,76.793L111.436,76.793Z" clip-rule="evenodd" fill-rule="evenodd" fill="#373737"/>
</svg>
