<svg width="214" height="216" viewBox="0 0 214 216" fill="none" xmlns="http://www.w3.org/2000/svg" xmlns:xlink="http://www.w3.org/1999/xlink">
<path d="M1.05,-0.177C18.064,-0.288 34.961,-0.371 51.974,-0.422C59.859,-0.446 67.697,-0.479 75.676,-0.534C83.303,-0.585 90.93,-0.613 98.557,-0.626C101.455,-0.634 104.353,-0.651 107.251,-0.677C153.716,-1.072 153.716,-1.072 167.797,12.918C168.519,13.663 169.24,14.408 169.991,15.176C171.223,15.591 172.455,16.005 173.734,16.429C175.365,16.978 175.365,16.978 177.031,17.538C177.418,18.708 177.805,19.879 178.204,21.084C179.495,22.42 180.798,23.756 182.123,25.056C193.059,35.944 199.489,46.454 205.121,60.64C206.241,63.536 206.241,63.536 207.491,65.959C209.885,78.017 211.199,90.548 211.891,102.843C211.943,103.74 211.995,104.64 212.049,105.562C212.339,111.768 212.339,111.768 211.011,114.44C210.739,117.643 210.519,120.835 210.351,124.039C210.275,125.375 210.275,125.375 210.199,126.746C210.073,128.945 209.955,131.155 209.837,133.354L207.491,133.354C207.309,135.659 207.309,135.659 207.125,138.012C206.489,143.887 204.825,149.112 202.795,154.68C202.409,155.851 202.021,157.021 201.621,158.227C200.847,158.617 200.073,159.007 199.276,159.409C198.079,161.702 198.079,161.702 196.999,164.433C193.995,171.467 190.91,176.728 185.148,181.929C183.987,182.319 182.825,182.709 181.628,183.111L181.628,185.476L179.282,185.476C178.894,186.646 178.507,187.816 178.108,189.022C175.808,191.126 173.532,193.042 171.068,194.933C170.42,195.438 169.777,195.941 169.109,196.458C164.744,199.732 160.273,202.286 155.38,204.626C153.503,205.444 153.503,205.444 152.329,206.754C149.983,207.02 147.648,207.284 145.301,207.488C142.591,207.844 142.591,207.844 139.422,210.302C127.102,212.702 114.782,212.986 102.227,212.856C100.514,212.848 98.801,212.842 97.088,212.838C92.617,212.822 88.147,212.794 83.711,212.76C76.636,212.708 69.514,212.672 62.473,212.644C60.737,212.638 59,212.63 57.276,212.622C44.017,212.56 30.875,212.858 17.733,213.632C15.938,213.724 15.938,213.724 14.108,213.818C13.074,213.88 12.042,213.942 10.975,214.006C6.305,213.752 3.148,212.446 -0.161,209.124C-0.464,206.086 -0.464,206.086 -0.473,202.292C-0.476,200.932 -0.479,199.56 -0.482,198.165C-0.473,196.735 -0.464,195.305 -0.454,193.827C-0.463,192.396 -0.473,190.978 -0.482,189.512C-0.479,188.152 -0.476,186.781 -0.473,185.374C-0.47,184.121 -0.467,182.868 -0.465,181.58C-0.161,178.388 -0.161,178.388 2.187,174.841C5.613,174.197 8.852,173.745 12.302,173.435C13.71,173.289 13.71,173.289 15.153,173.141C17.476,172.905 19.799,172.687 22.134,172.475C23.413,158.525 23.484,144.694 23.46,130.744C23.461,128.345 23.462,125.945 23.464,123.557C23.465,118.568 23.463,113.579 23.457,108.543C23.451,102.16 23.455,95.776 23.462,89.392C23.466,84.451 23.464,79.521 23.461,74.615C23.461,72.263 23.462,69.899 23.464,67.546C23.467,64.26 23.463,60.973 23.456,57.687C23.459,56.721 23.461,55.76 23.463,54.767C23.445,49.731 23.121,45.026 22.126,40.108C20.812,39.978 19.497,39.849 18.148,39.716C16.423,39.528 14.687,39.337 12.962,39.148C12.096,39.065 11.225,38.982 10.334,38.896C3.962,38.171 3.962,38.171 1.334,36.355C-0.813,33.281 -0.59,30.988 -0.555,27.252C-0.549,25.893 -0.543,24.533 -0.537,23.138C-0.513,21.72 -0.489,20.301 -0.464,18.835C-0.458,17.417 -0.452,15.998 -0.445,14.532C-0.352,4.011 -0.352,4.011 0.998,-0.127L1.05,-0.177ZM78.492,42.381C76.392,45.762 75.852,48.339 75.864,52.299C75.861,53.33 75.857,54.356 75.854,55.42C75.863,56.542 75.871,57.666 75.88,58.813C75.879,60.007 75.879,61.189 75.879,62.418C75.88,66.343 75.899,70.268 75.917,74.204C75.921,76.923 75.925,79.654 75.927,82.373C75.936,89.537 75.959,96.677 75.985,103.889C76.009,111.206 76.02,118.547 76.032,125.877C76.057,140.181 76.097,154.603 76.146,168.907C80.007,170.846 84.289,170.302 88.584,170.326C89.582,170.333 90.578,170.339 91.611,170.346C93.723,170.358 95.847,170.365 97.959,170.37C101.186,170.381 104.412,170.418 107.651,170.455C109.704,170.463 111.758,170.469 113.823,170.474C114.786,170.488 115.747,170.503 116.744,170.518C122.271,170.496 125.615,169.975 130.238,166.534C131.799,165.729 133.359,164.938 134.932,164.17L134.932,159.441C136.492,159.112 136.492,159.112 138.088,158.777C146.712,155.006 149.258,145.891 152.52,137.616C158.786,115.391 157.859,84.655 148.578,63.495C144.213,55.692 138.111,47.772 129.335,45.289C125.134,44.435 120.933,43.658 116.662,43.031C113.823,42.408 113.823,42.408 110.303,40.041C107.557,39.676 107.557,39.676 104.518,39.726C103.392,39.723 102.265,39.72 101.104,39.717C99.343,39.731 99.343,39.731 97.537,39.744C96.37,39.735 95.202,39.726 94.005,39.717C92.875,39.72 91.74,39.723 90.578,39.726C89.551,39.729 88.525,39.731 87.457,39.734C84.055,40.084 81.626,40.773 78.61,42.406L78.492,42.381Z" fill="#FFFFFF"/>
</svg>
