<svg width="24" height="42" viewBox="0 0 24 42" fill="none" xmlns="http://www.w3.org/2000/svg" xmlns:xlink="http://www.w3.org/1999/xlink">
<path d="M17.172,39.495C18.734,41.057 21.266,41.057 22.828,39.495C24.391,37.933 24.391,35.401 22.828,33.839L17.172,39.495ZM3.333,20L0.505,17.172C-1.057,18.734 -1.057,21.267 0.505,22.829L3.333,20ZM22.828,6.162C24.391,4.6 24.391,2.067 22.828,0.505C21.266,-1.057 18.734,-1.057 17.172,0.505L22.828,6.162ZM22.828,33.839L6.162,17.172L0.505,22.829L17.172,39.495L22.828,33.839ZM6.162,22.829L22.828,6.162L17.172,0.505L0.505,17.172L6.162,22.829Z" transform="rotate(-360 11.667 20)" fill="#00CD6A"/>
</svg>
