<svg width="162" height="174" viewBox="0 0 162 174" fill="none" xmlns="http://www.w3.org/2000/svg" xmlns:xlink="http://www.w3.org/1999/xlink">
<path d="M159,172C159,172.552 159.448,173 160,173C160.552,173 161,172.552 161,172L159,172ZM160,158L161,158L161,157L160,157L160,158ZM0,158L-1,158L-1,159L0,159L0,158ZM0,6L0,5L-1,5L-1,6L0,6ZM62,6L52,0.227L52,11.773L62,6ZM46.5,5L36.167,5L36.167,7L46.5,7L46.5,5ZM25.833,5L15.5,5L15.5,7L25.833,7L25.833,5ZM5.167,5L0,5L0,7L5.167,7L5.167,5ZM-1,6L-1,10.75L1,10.75L1,6L-1,6ZM-1,20.25L-1,29.75L1,29.75L1,20.25L-1,20.25ZM-1,39.25L-1,48.75L1,48.75L1,39.25L-1,39.25ZM-1,58.25L-1,67.75L1,67.75L1,58.25L-1,58.25ZM-1,77.25L-1,86.75L1,86.75L1,77.25L-1,77.25ZM-1,96.25L-1,105.75L1,105.75L1,96.25L-1,96.25ZM-1,115.25L-1,124.75L1,124.75L1,115.25L-1,115.25ZM-1,134.25L-1,143.75L1,143.75L1,134.25L-1,134.25ZM-1,153.25L-1,158L1,158L1,153.25L-1,153.25ZM0,159L5,159L5,157L0,157L0,159ZM15,159L25,159L25,157L15,157L15,159ZM35,159L45,159L45,157L35,157L35,159ZM55,159L65,159L65,157L55,157L55,159ZM75,159L85,159L85,157L75,157L75,159ZM95,159L105,159L105,157L95,157L95,159ZM115,159L125,159L125,157L115,157L115,159ZM135,159L145,159L145,157L135,157L135,159ZM155,159L160,159L160,157L155,157L155,159ZM159,158L159,161.5L161,161.5L161,158L159,158ZM159,168.5L159,172L161,172L161,168.5L159,168.5Z" fill="#FFFFFF"/>
</svg>
