<svg width="60" height="70" viewBox="0 0 60 70" fill="none" xmlns="http://www.w3.org/2000/svg" xmlns:xlink="http://www.w3.org/1999/xlink">
<path d="M58.906,0.953L43.156,16L45.125,9.953L6.453,9.953C4.391,9.953 2.633,10.68 1.18,12.133C-0.273,13.586 -1,15.344 -1,17.406L-1,62.406C-1,64.469 -0.273,66.25 1.18,67.75C2.633,69.25 4.391,70 6.453,70L51.453,70C53.516,70 55.273,69.25 56.727,67.75C58.18,66.25 58.906,64.469 58.906,62.406L58.906,0.953ZM28.953,52.563C26.609,52.563 24.219,52.281 21.781,51.719C20.094,51.25 18.5,50.688 17,50.031L15.313,49.047C16.531,50.266 18.313,51.344 20.656,52.281L23.75,53.406L23.188,53.969C21.125,53.969 18.922,53.359 16.578,52.141C15.359,51.578 14.375,50.969 13.625,50.313C12.031,47.125 10.859,43.797 10.109,40.328C9.453,37.891 9.031,35.5 8.844,33.156L8.703,30.344C10.484,28.094 12.781,26.547 15.594,25.703C17,25.328 18.219,25.188 19.25,25.281L21.359,27.953C20.234,28.234 19.156,28.703 18.125,29.359C17.375,29.922 16.672,30.531 16.016,31.188L15.172,32.031L17,31.047C18.5,30.297 20.094,29.688 21.781,29.219C24.125,28.563 26.516,28.234 28.953,28.234C31.391,28.234 33.781,28.563 36.125,29.219C37.812,29.688 39.406,30.297 40.906,31.047L42.734,32.031L41.891,31.188C41.234,30.531 40.531,29.922 39.781,29.359C38.75,28.703 37.672,28.234 36.547,27.953L38.656,25.281L40.484,25.422C41.891,25.609 43.25,25.984 44.562,26.547C46.344,27.391 47.891,28.656 49.203,30.344L49.062,33.156C48.875,35.5 48.453,37.891 47.797,40.328C47.047,43.797 45.875,47.125 44.281,50.313L42.875,51.297C41.75,51.953 40.578,52.516 39.359,52.984C37.766,53.641 36.219,53.969 34.719,53.969L34.156,53.406L37.25,52.281C39.594,51.344 41.375,50.266 42.594,49.047L40.906,50.031C39.406,50.688 37.812,51.25 36.125,51.719C33.688,52.281 31.297,52.563 28.953,52.563ZM22.766,41.172C23.703,41.172 24.523,40.797 25.227,40.047C25.93,39.297 26.281,38.406 26.281,37.375C26.281,36.344 25.93,35.453 25.227,34.703C24.523,33.953 23.703,33.578 22.766,33.578C21.828,33.578 21.008,33.953 20.305,34.703C19.602,35.453 19.25,36.344 19.25,37.375C19.25,38.406 19.578,39.297 20.234,40.047C20.891,40.797 21.734,41.172 22.766,41.172ZM35.281,41.172C36.219,41.172 37.039,40.797 37.742,40.047C38.445,39.297 38.797,38.406 38.797,37.375C38.797,36.344 38.445,35.453 37.742,34.703C37.039,33.953 36.219,33.578 35.281,33.578C34.344,33.578 33.523,33.953 32.82,34.703C32.117,35.453 31.766,36.344 31.766,37.375C31.766,38.406 32.094,39.297 32.75,40.047C33.406,40.797 34.25,41.172 35.281,41.172Z" fill="#FFFFFF" fill-opacity="0.72"/>
</svg>
