<svg width="238" height="218" viewBox="0 0 238 218" fill="none" xmlns="http://www.w3.org/2000/svg" xmlns:xlink="http://www.w3.org/1999/xlink">
<path d="M6.834,-0.542C7.995,-0.151 9.157,0.239 10.354,0.641C12.536,0.778 14.707,0.85 16.889,0.883C18.227,0.907 19.565,0.93 20.949,0.954C22.393,0.974 23.836,0.994 25.326,1.014C27.544,1.051 27.544,1.051 29.808,1.089C33.739,1.153 37.67,1.213 41.542,1.27C45.555,1.329 49.568,1.395 53.627,1.46C61.501,1.586 69.35,1.707 77.212,1.823C80.732,8.62 80.732,8.62 80.732,11.28C81.434,11.597 82.14,11.914 82.856,12.24C86.27,14.108 88.453,15.68 89.673,19.475C89.818,20.28 89.963,21.082 90.113,21.91C90.331,22.787 90.548,23.671 90.772,24.57C91.027,25.594 91.027,25.594 91.286,26.639L93.633,26.639C94.616,28.365 95.593,30.079 96.566,31.817C97.383,33.259 97.383,33.259 98.221,34.725C99.5,37.278 99.5,37.278 99.5,39.642C101.436,40.033 103.372,40.423 105.367,40.825C105.463,41.653 105.56,42.48 105.66,43.331C106.755,47.563 108.723,50.27 111.233,53.828C112.056,55.093 112.876,56.358 113.721,57.67C115.774,60.921 115.774,60.921 118.274,63.286C119.482,65.083 120.644,66.915 121.794,68.747C122.515,69.9 123.237,71.052 123.976,72.235C125.818,75.202 127.649,78.169 129.468,81.136C130.237,82.389 130.237,82.389 131.028,83.666C132.04,85.309 133.046,86.964 134.055,88.608C137.364,93.986 140.802,98.975 145.261,103.503C146.044,105.075 146.822,106.659 147.608,108.231C148.382,109.012 149.157,109.792 149.954,110.596L152.301,116.507C156.009,120.242 158.942,121.59 164.035,122.417C163.648,121.247 163.26,120.077 162.861,118.871C162.79,116.069 162.791,113.256 162.825,110.454C162.888,101.765 162.788,93.076 162.604,84.446C162.578,83.205 162.552,81.964 162.525,80.687C162.443,76.857 162.358,73.027 162.274,69.196C162.217,66.548 162.161,63.912 162.104,61.264C161.967,54.869 161.828,48.497 161.687,42.113C159.869,41.939 159.869,41.939 158.003,41.762C156.395,41.585 154.788,41.406 153.18,41.227C151.984,41.117 151.984,41.117 150.752,41.004C146.891,40.551 144.368,39.955 141.2,37.623C139.135,34.644 138.807,33.226 138.842,29.632C138.847,28.613 138.851,27.599 138.856,26.546C138.899,24.962 138.899,24.962 138.943,23.343C138.944,22.295 138.946,21.25 138.947,20.175C139.037,13.472 139.89,7.998 142.902,1.969L237.944,1.969C237.944,33.888 237.944,33.888 234.424,40.981C224.556,41.566 224.556,41.566 214.476,42.163C214.488,44.291 214.498,46.407 214.508,48.606C214.604,68.584 214.674,88.563 214.72,108.541C214.744,118.814 214.776,129.111 214.83,139.396C214.878,148.356 214.908,157.364 214.918,166.231C214.924,170.971 214.938,175.723 214.972,180.416C215.004,184.873 215.014,189.342 215.008,193.775C215.008,195.418 215.018,197.049 215.036,198.693C215.06,200.926 215.05,203.16 215.04,205.396C215.046,206.648 215.05,207.902 215.054,209.19C214.476,212.288 214.476,212.288 212.25,214.462C209.48,216 207.956,216.236 204.81,216.13C203.856,216.112 202.898,216.094 201.924,216.078C200.914,216.042 199.906,216.008 198.861,215.972C189.944,215.78 181.378,216.11 172.578,217.214C167.662,216.952 164.282,215.382 160.492,212.284C158.251,209.672 156.503,206.894 154.766,203.938C154.31,203.198 153.852,202.46 153.382,201.704C151.469,198.571 149.909,195.687 148.747,192.199L146.4,192.199C144.922,190.332 144.922,190.332 143.244,187.695C142.309,186.241 142.309,186.241 141.355,184.752C140.017,182.612 138.68,180.472 137.354,178.333C133.423,172.008 129.316,166.038 124.682,160.246C119.39,153.401 119.39,153.401 119.39,149.677L117.043,149.677C105.309,134.782 105.309,134.782 105.309,128.398C103.573,127.813 103.573,127.813 101.789,127.216C100.076,124.769 100.076,124.769 98.34,121.672C97.724,120.596 97.108,119.52 96.474,118.409C95.904,117.412 95.333,116.411 94.749,115.394C93.212,113.018 91.64,110.654 90.056,108.301C89.526,107.379 88.997,106.457 88.448,105.511C87.864,104.531 87.281,103.549 86.676,102.544C86.147,101.621 85.618,100.7 85.069,99.743C83.062,97.248 83.062,97.248 79.355,97.532C77.677,97.596 77.677,97.596 75.964,97.662C75.934,106.114 75.913,114.567 75.899,122.96C75.893,125.833 75.885,128.694 75.875,131.566C75.737,153.673 75.737,153.673 77.142,175.661C82.293,177.115 86.588,176.42 91.809,175.73C92.762,175.707 93.71,175.684 94.696,175.661C100.692,181.702 99.823,189.61 99.835,197.531C99.864,198.748 99.893,199.978 99.922,201.23C99.957,210.226 99.957,210.226 97.024,214.944C96.259,215.638 95.499,216.338 94.701,217.048C94.314,216.658 93.926,216.268 93.527,215.866C85.959,214.6 78.508,214.542 70.882,214.612C69.614,214.618 68.347,214.622 67.045,214.626C61.682,214.646 56.308,214.678 50.97,214.71C24.569,214.856 24.569,214.856 12.014,214.318C11.145,214.29 10.277,214.264 9.374,214.236C6.992,214.108 6.992,214.108 3.214,213.504C0.586,209.522 0.574,208.186 0.597,203.528C0.599,202.274 0.602,201.022 0.604,199.732C0.618,198.421 0.633,197.121 0.648,195.773C0.648,194.461 0.649,193.16 0.65,191.813C0.703,182.083 0.703,182.083 2.046,178.1L5.566,178.1C5.954,176.929 6.341,175.759 6.74,174.553C7.127,174.943 7.514,175.333 7.913,175.735C10.483,175.821 13.052,175.834 15.61,175.809C17.018,175.798 18.426,175.788 19.87,175.777C21.501,175.756 21.501,175.756 23.167,175.735C23.347,159.894 23.521,144.053 23.687,128.212C23.763,120.859 23.843,113.554 23.927,106.106C24.009,99.001 24.084,91.92 24.156,84.827C24.184,82.12 24.214,79.413 24.247,76.706C24.293,72.911 24.33,69.104 24.366,65.31C24.381,64.198 24.396,63.087 24.412,61.94C24.464,55.249 24.022,48.818 23.168,42.198C22.037,42.168 20.903,42.137 19.742,42.106C17.524,42.005 17.524,42.005 15.248,41.903C13.781,41.848 12.303,41.793 10.789,41.736C6.166,40.914 4.734,40.105 2.047,36.286C0.24,30.896 0.569,24.867 0.51,19.263C0.476,18.278 0.442,17.289 0.407,16.272C0.339,9.558 1.295,6.058 5.57,0.904C5.957,0.514 6.344,0.124 6.743,-0.278L6.834,-0.542ZM24.434,166.143L24.434,172.054L25.608,172.054L25.608,166.143L24.434,166.143Z" fill="#FFFFFF"/>
</svg>
