<svg width="20" height="20" viewBox="0 0 20 20" fill="none" xmlns="http://www.w3.org/2000/svg" xmlns:xlink="http://www.w3.org/1999/xlink">
<path d="M11.125,13.875C11.125,14.097 11.059,14.315 10.935,14.5C10.812,14.685 10.636,14.829 10.431,14.914C10.225,15 9.999,15.022 9.781,14.978C9.562,14.935 9.362,14.828 9.204,14.671C9.047,14.513 8.94,14.313 8.897,14.094C8.853,13.876 8.875,13.65 8.961,13.444C9.046,13.239 9.19,13.063 9.375,12.94C9.56,12.816 9.778,12.75 10,12.75C10.298,12.75 10.585,12.869 10.796,13.079C11.006,13.29 11.125,13.577 11.125,13.875ZM10,3.75C7.932,3.75 6.25,5.264 6.25,7.125L6.25,7.5C6.25,7.699 6.329,7.89 6.47,8.03C6.61,8.171 6.801,8.25 7,8.25C7.199,8.25 7.39,8.171 7.53,8.03C7.671,7.89 7.75,7.699 7.75,7.5L7.75,7.125C7.75,6.094 8.76,5.25 10,5.25C11.24,5.25 12.25,6.094 12.25,7.125C12.25,8.156 11.24,9 10,9C9.801,9 9.61,9.079 9.47,9.22C9.329,9.36 9.25,9.551 9.25,9.75L9.25,10.5C9.25,10.699 9.329,10.89 9.47,11.03C9.61,11.171 9.801,11.25 10,11.25C10.199,11.25 10.39,11.171 10.53,11.03C10.671,10.89 10.75,10.699 10.75,10.5L10.75,10.432C12.46,10.118 13.75,8.754 13.75,7.125C13.75,5.264 12.068,3.75 10,3.75ZM19.75,9C19.75,10.928 19.178,12.813 18.107,14.417C17.036,16.02 15.513,17.27 13.731,18.008C11.95,18.746 9.989,18.939 8.098,18.563C6.207,18.186 4.469,17.258 3.106,15.894C1.742,14.531 0.814,12.793 0.437,10.902C0.061,9.011 0.254,7.05 0.992,5.269C1.73,3.487 2.98,1.965 4.583,0.893C6.187,-0.178 8.072,-0.75 10,-0.75C12.585,-0.747 15.063,0.281 16.891,2.109C18.719,3.937 19.747,6.415 19.75,9ZM18.25,9C18.25,7.368 17.766,5.773 16.86,4.417C15.953,3.06 14.665,2.002 13.157,1.378C11.65,0.754 9.991,0.59 8.391,0.909C6.79,1.227 5.32,2.013 4.166,3.166C3.013,4.32 2.227,5.79 1.909,7.39C1.59,8.991 1.754,10.65 2.378,12.157C3.002,13.665 4.06,14.953 5.417,15.86C6.773,16.766 8.368,17.25 10,17.25C12.187,17.248 14.284,16.378 15.831,14.831C17.378,13.284 18.248,11.187 18.25,9Z" fill="#00CD6A"/>
</svg>
