<svg width="36" height="36" viewBox="0 0 36 36" fill="none" xmlns="http://www.w3.org/2000/svg" xmlns:xlink="http://www.w3.org/1999/xlink">
<path d="M1.23,1.23C1.462,0.997 1.738,0.812 2.041,0.686C2.345,0.56 2.671,0.495 3,0.495C3.328,0.495 3.654,0.56 3.958,0.686C4.261,0.812 4.537,0.997 4.77,1.23L18,14.465L31.23,1.23C31.462,0.998 31.738,0.813 32.042,0.687C32.345,0.562 32.671,0.497 33,0.497C33.328,0.497 33.654,0.562 33.958,0.687C34.261,0.813 34.537,0.998 34.77,1.23C35.002,1.462 35.186,1.738 35.312,2.042C35.438,2.346 35.503,2.671 35.503,3C35.503,3.329 35.438,3.654 35.312,3.958C35.186,4.262 35.002,4.538 34.77,4.77L21.535,18L34.77,31.23C35.002,31.462 35.186,31.738 35.312,32.042C35.438,32.346 35.503,32.671 35.503,33C35.503,33.329 35.438,33.654 35.312,33.958C35.186,34.261 35.002,34.537 34.77,34.77C34.537,35.002 34.261,35.187 33.958,35.312C33.654,35.438 33.328,35.503 33,35.503C32.671,35.503 32.345,35.438 32.042,35.312C31.738,35.187 31.462,35.002 31.23,34.77L18,21.535L4.77,34.77C4.537,35.002 4.261,35.187 3.957,35.312C3.654,35.438 3.328,35.503 3,35.503C2.671,35.503 2.345,35.438 2.042,35.312C1.738,35.187 1.462,35.002 1.23,34.77C0.997,34.537 0.813,34.261 0.687,33.958C0.561,33.654 0.496,33.329 0.496,33C0.496,32.671 0.561,32.346 0.687,32.042C0.813,31.738 0.997,31.462 1.23,31.23L14.465,18L1.23,4.77C0.997,4.538 0.812,4.262 0.686,3.958C0.56,3.654 0.495,3.329 0.495,3C0.495,2.671 0.56,2.346 0.686,2.042C0.812,1.738 0.997,1.462 1.23,1.23Z" fill="#FFFFFF"/>
</svg>
